<svg width="131" height="86" viewBox="0 0 131 86" fill="none" xmlns="http://www.w3.org/2000/svg">
<rect x="0.5" y="0.5" width="130" height="85" rx="5.5" stroke="#98A9BC" stroke-dasharray="4 4"/>
<g clip-path="url(#clip0_1357_2765)">
<path d="M74.3327 32.666L71.8835 30.9026C70.6109 29.9863 68.8716 30.081 67.7059 31.1301L64.2928 34.202C63.1271 35.251 61.3878 35.3457 60.1152 34.4294L57.666 32.666M60.9993 39.3327H70.9993C72.8403 39.3327 74.3327 37.8403 74.3327 35.9993V25.9993C74.3327 24.1584 72.8403 22.666 70.9993 22.666H60.9993C59.1584 22.666 57.666 24.1584 57.666 25.9993V35.9993C57.666 37.8403 59.1584 39.3327 60.9993 39.3327ZM65.166 28.0827C65.166 29.2333 64.2333 30.166 63.0827 30.166C61.9321 30.166 60.9993 29.2333 60.9993 28.0827C60.9993 26.9321 61.9321 25.9993 63.0827 25.9993C64.2333 25.9993 65.166 26.9321 65.166 28.0827Z" stroke="#778CA2" stroke-width="1.5" stroke-linecap="round"/>
</g>
<path d="M34.516 59.604C34.436 59.604 34.368 59.58 34.312 59.532C34.264 59.476 34.24 59.408 34.24 59.328V56.832H31.78C31.7 56.832 31.632 56.808 31.576 56.76C31.528 56.704 31.504 56.636 31.504 56.556V56.172C31.504 56.092 31.528 56.028 31.576 55.98C31.632 55.924 31.7 55.896 31.78 55.896H34.24V53.472C34.24 53.392 34.264 53.328 34.312 53.28C34.368 53.224 34.436 53.196 34.516 53.196H34.936C35.016 53.196 35.08 53.224 35.128 53.28C35.184 53.328 35.212 53.392 35.212 53.472V55.896H37.684C37.764 55.896 37.828 55.924 37.876 55.98C37.932 56.028 37.96 56.092 37.96 56.172V56.556C37.96 56.636 37.932 56.704 37.876 56.76C37.828 56.808 37.764 56.832 37.684 56.832H35.212V59.328C35.212 59.408 35.184 59.476 35.128 59.532C35.08 59.58 35.016 59.604 34.936 59.604H34.516ZM41.5698 60C41.5058 60 41.4498 59.976 41.4018 59.928C41.3538 59.88 41.3298 59.824 41.3298 59.76C41.3298 59.72 41.3338 59.676 41.3418 59.628L44.3178 51.864C44.3498 51.784 44.3938 51.72 44.4498 51.672C44.5058 51.624 44.5898 51.6 44.7018 51.6H45.5178C45.6218 51.6 45.7018 51.624 45.7578 51.672C45.8218 51.72 45.8698 51.784 45.9018 51.864L48.8658 59.628C48.8818 59.676 48.8898 59.72 48.8898 59.76C48.8898 59.824 48.8658 59.88 48.8178 59.928C48.7698 59.976 48.7138 60 48.6498 60H48.0378C47.9418 60 47.8698 59.976 47.8218 59.928C47.7818 59.88 47.7538 59.836 47.7378 59.796L47.0778 58.092H43.1418L42.4818 59.796C42.4738 59.836 42.4458 59.88 42.3978 59.928C42.3498 59.976 42.2778 60 42.1818 60H41.5698ZM43.4898 57.06H46.7298L45.1098 52.8L43.4898 57.06ZM52.2266 60.12C51.7866 60.12 51.4066 60.044 51.0866 59.892C50.7666 59.732 50.5026 59.52 50.2946 59.256C50.0946 58.984 49.9426 58.676 49.8386 58.332C49.7426 57.988 49.6866 57.624 49.6706 57.24C49.6626 57.112 49.6586 56.992 49.6586 56.88C49.6586 56.768 49.6626 56.648 49.6706 56.52C49.6866 56.144 49.7426 55.784 49.8386 55.44C49.9426 55.096 50.0946 54.788 50.2946 54.516C50.5026 54.244 50.7666 54.032 51.0866 53.88C51.4066 53.72 51.7866 53.64 52.2266 53.64C52.6986 53.64 53.0906 53.724 53.4026 53.892C53.7146 54.06 53.9706 54.268 54.1706 54.516V51.756C54.1706 51.676 54.1946 51.612 54.2426 51.564C54.2986 51.508 54.3666 51.48 54.4466 51.48H55.0226C55.1026 51.48 55.1666 51.508 55.2146 51.564C55.2706 51.612 55.2986 51.676 55.2986 51.756V59.724C55.2986 59.804 55.2706 59.872 55.2146 59.928C55.1666 59.976 55.1026 60 55.0226 60H54.4826C54.3946 60 54.3266 59.976 54.2786 59.928C54.2306 59.872 54.2066 59.804 54.2066 59.724V59.22C54.0066 59.476 53.7466 59.692 53.4266 59.868C53.1066 60.036 52.7066 60.12 52.2266 60.12ZM52.4786 59.148C52.8786 59.148 53.1986 59.056 53.4386 58.872C53.6786 58.688 53.8586 58.456 53.9786 58.176C54.0986 57.888 54.1626 57.596 54.1706 57.3C54.1786 57.172 54.1826 57.02 54.1826 56.844C54.1826 56.66 54.1786 56.504 54.1706 56.376C54.1626 56.096 54.0946 55.82 53.9666 55.548C53.8466 55.276 53.6626 55.052 53.4146 54.876C53.1746 54.7 52.8626 54.612 52.4786 54.612C52.0706 54.612 51.7466 54.704 51.5066 54.888C51.2666 55.064 51.0946 55.3 50.9906 55.596C50.8866 55.884 50.8266 56.196 50.8106 56.532C50.8026 56.764 50.8026 56.996 50.8106 57.228C50.8266 57.564 50.8866 57.88 50.9906 58.176C51.0946 58.464 51.2666 58.7 51.5066 58.884C51.7466 59.06 52.0706 59.148 52.4786 59.148ZM59.3633 60.12C58.9233 60.12 58.5433 60.044 58.2233 59.892C57.9033 59.732 57.6393 59.52 57.4313 59.256C57.2313 58.984 57.0793 58.676 56.9753 58.332C56.8793 57.988 56.8233 57.624 56.8073 57.24C56.7993 57.112 56.7953 56.992 56.7953 56.88C56.7953 56.768 56.7993 56.648 56.8073 56.52C56.8233 56.144 56.8793 55.784 56.9753 55.44C57.0793 55.096 57.2313 54.788 57.4313 54.516C57.6393 54.244 57.9033 54.032 58.2233 53.88C58.5433 53.72 58.9233 53.64 59.3633 53.64C59.8353 53.64 60.2273 53.724 60.5393 53.892C60.8513 54.06 61.1073 54.268 61.3073 54.516V51.756C61.3073 51.676 61.3313 51.612 61.3793 51.564C61.4353 51.508 61.5033 51.48 61.5833 51.48H62.1593C62.2393 51.48 62.3033 51.508 62.3513 51.564C62.4073 51.612 62.4353 51.676 62.4353 51.756V59.724C62.4353 59.804 62.4073 59.872 62.3513 59.928C62.3033 59.976 62.2393 60 62.1593 60H61.6193C61.5313 60 61.4633 59.976 61.4153 59.928C61.3673 59.872 61.3433 59.804 61.3433 59.724V59.22C61.1433 59.476 60.8833 59.692 60.5633 59.868C60.2433 60.036 59.8433 60.12 59.3633 60.12ZM59.6153 59.148C60.0153 59.148 60.3353 59.056 60.5753 58.872C60.8153 58.688 60.9953 58.456 61.1153 58.176C61.2353 57.888 61.2993 57.596 61.3073 57.3C61.3153 57.172 61.3193 57.02 61.3193 56.844C61.3193 56.66 61.3153 56.504 61.3073 56.376C61.2993 56.096 61.2313 55.82 61.1033 55.548C60.9833 55.276 60.7993 55.052 60.5513 54.876C60.3113 54.7 59.9993 54.612 59.6153 54.612C59.2073 54.612 58.8833 54.704 58.6433 54.888C58.4033 55.064 58.2313 55.3 58.1273 55.596C58.0233 55.884 57.9633 56.196 57.9473 56.532C57.9393 56.764 57.9393 56.996 57.9473 57.228C57.9633 57.564 58.0233 57.88 58.1273 58.176C58.2313 58.464 58.4033 58.7 58.6433 58.884C58.8833 59.06 59.2073 59.148 59.6153 59.148ZM67.4374 60C67.3574 60 67.2894 59.976 67.2334 59.928C67.1854 59.872 67.1614 59.804 67.1614 59.724V54.036C67.1614 53.956 67.1854 53.892 67.2334 53.844C67.2894 53.788 67.3574 53.76 67.4374 53.76H68.0134C68.0934 53.76 68.1574 53.788 68.2054 53.844C68.2534 53.892 68.2774 53.956 68.2774 54.036V59.724C68.2774 59.804 68.2534 59.872 68.2054 59.928C68.1574 59.976 68.0934 60 68.0134 60H67.4374ZM67.3414 52.596C67.2614 52.596 67.1934 52.572 67.1374 52.524C67.0894 52.468 67.0654 52.4 67.0654 52.32V51.672C67.0654 51.592 67.0894 51.528 67.1374 51.48C67.1934 51.424 67.2614 51.396 67.3414 51.396H68.0974C68.1774 51.396 68.2414 51.424 68.2894 51.48C68.3454 51.528 68.3734 51.592 68.3734 51.672V52.32C68.3734 52.4 68.3454 52.468 68.2894 52.524C68.2414 52.572 68.1774 52.596 68.0974 52.596H67.3414ZM70.4609 60C70.3809 60 70.3129 59.976 70.2569 59.928C70.2089 59.872 70.1849 59.804 70.1849 59.724V54.036C70.1849 53.956 70.2089 53.892 70.2569 53.844C70.3129 53.788 70.3809 53.76 70.4609 53.76H71.0009C71.0809 53.76 71.1449 53.788 71.1929 53.844C71.2489 53.892 71.2769 53.956 71.2769 54.036V54.456C71.4609 54.208 71.6929 54.012 71.9729 53.868C72.2529 53.716 72.5889 53.64 72.9809 53.64C73.8849 53.632 74.5249 54 74.9009 54.744C75.0849 54.408 75.3529 54.14 75.7049 53.94C76.0569 53.74 76.4569 53.64 76.9049 53.64C77.3209 53.64 77.6969 53.736 78.0329 53.928C78.3769 54.12 78.6449 54.412 78.8369 54.804C79.0369 55.188 79.1369 55.672 79.1369 56.256V59.724C79.1369 59.804 79.1089 59.872 79.0529 59.928C79.0049 59.976 78.9409 60 78.8609 60H78.2969C78.2169 60 78.1489 59.976 78.0929 59.928C78.0449 59.872 78.0209 59.804 78.0209 59.724V56.364C78.0209 55.916 77.9569 55.564 77.8289 55.308C77.7009 55.052 77.5289 54.872 77.3129 54.768C77.0969 54.664 76.8609 54.612 76.6049 54.612C76.3969 54.612 76.1849 54.664 75.9689 54.768C75.7529 54.872 75.5729 55.052 75.4289 55.308C75.2929 55.564 75.2249 55.916 75.2249 56.364V59.724C75.2249 59.804 75.1969 59.872 75.1409 59.928C75.0929 59.976 75.0289 60 74.9489 60H74.3849C74.3049 60 74.2369 59.976 74.1809 59.928C74.1329 59.872 74.1089 59.804 74.1089 59.724V56.364C74.1089 55.916 74.0409 55.564 73.9049 55.308C73.7689 55.052 73.5929 54.872 73.3769 54.768C73.1609 54.664 72.9329 54.612 72.6929 54.612C72.4849 54.612 72.2729 54.664 72.0569 54.768C71.8409 54.872 71.6609 55.052 71.5169 55.308C71.3809 55.564 71.3129 55.912 71.3129 56.352V59.724C71.3129 59.804 71.2849 59.872 71.2289 59.928C71.1809 59.976 71.1169 60 71.0369 60H70.4609ZM82.5889 60.12C82.1889 60.12 81.8249 60.04 81.4969 59.88C81.1689 59.72 80.9049 59.504 80.7049 59.232C80.5049 58.96 80.4049 58.652 80.4049 58.308C80.4049 57.756 80.6289 57.316 81.0769 56.988C81.5249 56.66 82.1089 56.444 82.8289 56.34L84.6169 56.088V55.74C84.6169 55.356 84.5049 55.056 84.2809 54.84C84.0649 54.624 83.7089 54.516 83.2129 54.516C82.8529 54.516 82.5609 54.588 82.3369 54.732C82.1209 54.876 81.9689 55.06 81.8809 55.284C81.8329 55.404 81.7489 55.464 81.6289 55.464H81.0889C81.0009 55.464 80.9329 55.44 80.8849 55.392C80.8449 55.336 80.8249 55.272 80.8249 55.2C80.8249 55.08 80.8689 54.932 80.9569 54.756C81.0529 54.58 81.1969 54.408 81.3889 54.24C81.5809 54.072 81.8249 53.932 82.1209 53.82C82.4249 53.7 82.7929 53.64 83.2249 53.64C83.7049 53.64 84.1089 53.704 84.4369 53.832C84.7649 53.952 85.0209 54.116 85.2049 54.324C85.3969 54.532 85.5329 54.768 85.6129 55.032C85.7009 55.296 85.7449 55.564 85.7449 55.836V59.724C85.7449 59.804 85.7169 59.872 85.6609 59.928C85.6129 59.976 85.5489 60 85.4689 60H84.9169C84.8289 60 84.7609 59.976 84.7129 59.928C84.6649 59.872 84.6409 59.804 84.6409 59.724V59.208C84.5369 59.352 84.3969 59.496 84.2209 59.64C84.0449 59.776 83.8249 59.892 83.5609 59.988C83.2969 60.076 82.9729 60.12 82.5889 60.12ZM82.8409 59.22C83.1689 59.22 83.4689 59.152 83.7409 59.016C84.0129 58.872 84.2249 58.652 84.3769 58.356C84.5369 58.06 84.6169 57.688 84.6169 57.24V56.904L83.2249 57.108C82.6569 57.188 82.2289 57.324 81.9409 57.516C81.6529 57.7 81.5089 57.936 81.5089 58.224C81.5089 58.448 81.5729 58.636 81.7009 58.788C81.8369 58.932 82.0049 59.04 82.2049 59.112C82.4129 59.184 82.6249 59.22 82.8409 59.22ZM90.026 62.64C89.482 62.64 89.034 62.568 88.682 62.424C88.338 62.28 88.066 62.104 87.866 61.896C87.674 61.696 87.534 61.492 87.446 61.284C87.366 61.084 87.322 60.924 87.314 60.804C87.306 60.724 87.33 60.656 87.386 60.6C87.45 60.544 87.518 60.516 87.59 60.516H88.166C88.238 60.516 88.298 60.532 88.346 60.564C88.394 60.596 88.434 60.664 88.466 60.768C88.514 60.888 88.586 61.02 88.682 61.164C88.778 61.316 88.926 61.444 89.126 61.548C89.326 61.66 89.606 61.716 89.966 61.716C90.342 61.716 90.658 61.664 90.914 61.56C91.17 61.464 91.362 61.288 91.49 61.032C91.626 60.784 91.694 60.44 91.694 60V59.184C91.502 59.432 91.25 59.64 90.938 59.808C90.626 59.968 90.234 60.048 89.762 60.048C89.314 60.048 88.93 59.972 88.61 59.82C88.29 59.66 88.026 59.448 87.818 59.184C87.618 58.912 87.466 58.604 87.362 58.26C87.266 57.916 87.21 57.556 87.194 57.18C87.186 56.956 87.186 56.736 87.194 56.52C87.21 56.144 87.266 55.784 87.362 55.44C87.466 55.096 87.618 54.788 87.818 54.516C88.026 54.244 88.29 54.032 88.61 53.88C88.93 53.72 89.314 53.64 89.762 53.64C90.242 53.64 90.638 53.732 90.95 53.916C91.27 54.092 91.53 54.308 91.73 54.564V54.048C91.73 53.968 91.754 53.9 91.802 53.844C91.858 53.788 91.926 53.76 92.006 53.76H92.558C92.638 53.76 92.706 53.788 92.762 53.844C92.818 53.9 92.846 53.968 92.846 54.048V59.868C92.846 60.404 92.754 60.88 92.57 61.296C92.394 61.712 92.098 62.04 91.682 62.28C91.274 62.52 90.722 62.64 90.026 62.64ZM90.002 59.088C90.402 59.088 90.722 58.996 90.962 58.812C91.21 58.628 91.39 58.396 91.502 58.116C91.622 57.836 91.686 57.552 91.694 57.264C91.702 57.152 91.706 57.016 91.706 56.856C91.706 56.688 91.702 56.548 91.694 56.436C91.686 56.148 91.622 55.864 91.502 55.584C91.39 55.304 91.21 55.072 90.962 54.888C90.722 54.704 90.402 54.612 90.002 54.612C89.602 54.612 89.282 54.704 89.042 54.888C88.802 55.064 88.63 55.3 88.526 55.596C88.422 55.884 88.362 56.196 88.346 56.532C88.338 56.74 88.338 56.952 88.346 57.168C88.362 57.504 88.422 57.82 88.526 58.116C88.63 58.404 88.802 58.64 89.042 58.824C89.282 59 89.602 59.088 90.002 59.088ZM97.1142 60.12C96.2902 60.12 95.6342 59.868 95.1462 59.364C94.6582 58.852 94.3902 58.156 94.3422 57.276C94.3342 57.172 94.3302 57.04 94.3302 56.88C94.3302 56.712 94.3342 56.576 94.3422 56.472C94.3742 55.904 94.5062 55.408 94.7382 54.984C94.9702 54.552 95.2862 54.22 95.6862 53.988C96.0942 53.756 96.5702 53.64 97.1142 53.64C97.7222 53.64 98.2302 53.768 98.6382 54.024C99.0542 54.28 99.3702 54.644 99.5862 55.116C99.8022 55.588 99.9102 56.14 99.9102 56.772V56.976C99.9102 57.064 99.8822 57.132 99.8262 57.18C99.7782 57.228 99.7142 57.252 99.6342 57.252H95.4822C95.4822 57.26 95.4822 57.276 95.4822 57.3C95.4822 57.324 95.4822 57.344 95.4822 57.36C95.4982 57.688 95.5702 57.996 95.6982 58.284C95.8262 58.564 96.0102 58.792 96.2502 58.968C96.4902 59.144 96.7782 59.232 97.1142 59.232C97.4022 59.232 97.6422 59.188 97.8342 59.1C98.0262 59.012 98.1822 58.916 98.3022 58.812C98.4222 58.7 98.5022 58.616 98.5422 58.56C98.6142 58.456 98.6702 58.396 98.7102 58.38C98.7502 58.356 98.8142 58.344 98.9022 58.344H99.4782C99.5582 58.344 99.6222 58.368 99.6702 58.416C99.7262 58.456 99.7502 58.516 99.7422 58.596C99.7342 58.716 99.6702 58.864 99.5502 59.04C99.4302 59.208 99.2582 59.376 99.0342 59.544C98.8102 59.712 98.5382 59.852 98.2182 59.964C97.8982 60.068 97.5302 60.12 97.1142 60.12ZM95.4822 56.424H98.7702V56.388C98.7702 56.028 98.7022 55.708 98.5662 55.428C98.4382 55.148 98.2502 54.928 98.0022 54.768C97.7542 54.6 97.4582 54.516 97.1142 54.516C96.7702 54.516 96.4742 54.6 96.2262 54.768C95.9862 54.928 95.8022 55.148 95.6742 55.428C95.5462 55.708 95.4822 56.028 95.4822 56.388V56.424Z" fill="#778CA2"/>
<defs>
<clipPath id="clip0_1357_2765">
<rect width="20" height="20" fill="white" transform="translate(56 21)"/>
</clipPath>
</defs>
</svg>
