<svg width="33" height="32" viewBox="0 0 33 32" fill="none" xmlns="http://www.w3.org/2000/svg">
<path d="M27 29.3332H7C4.79086 29.3332 3 27.5423 3 25.3332V6.6665C3 4.45736 4.79086 2.6665 7 2.6665H20.3333C22.5425 2.6665 24.3333 4.45737 24.3333 6.6665V10.6665M27 29.3332C25.5272 29.3332 24.3333 28.1393 24.3333 26.6665V10.6665M27 29.3332C28.4728 29.3332 29.6667 28.1393 29.6667 26.6665V13.3332C29.6667 11.8604 28.4728 10.6665 27 10.6665H24.3333M8.33333 9.33317H19M8.33333 15.9998H19M8.33333 22.6665H13.6667" stroke="#252631" stroke-width="1.5" stroke-linecap="round" stroke-linejoin="round"/>
</svg>
