<svg width="32" height="32" viewBox="0 0 32 32" fill="none" xmlns="http://www.w3.org/2000/svg">
<path d="M23.1633 10.897L22.4334 11.0696L23.1633 10.897ZM13.0369 4.75H14.5184V3.25H13.0369V4.75ZM3.4165 19V14.5H1.9165V19H3.4165ZM1.9165 19C1.9165 21.0623 3.5701 22.75 5.62947 22.75V21.25C4.41604 21.25 3.4165 20.2515 3.4165 19H1.9165ZM22.6572 13C22.6572 17.5652 19.0046 21.25 14.5184 21.25V22.75C19.8505 22.75 24.1572 18.376 24.1572 13H22.6572ZM13.0369 3.25C6.88651 3.25 1.9165 8.29561 1.9165 14.5H3.4165C3.4165 9.10641 7.73245 4.75 13.0369 4.75V3.25ZM30.0832 25V20.5H28.5832V25H30.0832ZM17.4813 28.75H26.3702V27.25H17.4813V28.75ZM28.5832 25C28.5832 26.2515 27.5836 27.25 26.3702 27.25V28.75C28.4296 28.75 30.0832 27.0623 30.0832 25H28.5832ZM22.856 11.5812C26.2273 13.0952 28.5832 16.5168 28.5832 20.5H30.0832C30.0832 15.9129 27.3685 11.9633 23.4705 10.2128L22.856 11.5812ZM14.5184 4.75C18.3508 4.75 21.5748 7.43824 22.4334 11.0696L23.8931 10.7244C22.881 6.44351 19.0739 3.25 14.5184 3.25V4.75ZM22.4334 11.0696C22.5796 11.6881 22.6572 12.3343 22.6572 13H24.1572C24.1572 12.2173 24.0659 11.4553 23.8931 10.7244L22.4334 11.0696ZM8.39013 22.2472C9.71058 26.0298 13.2774 28.75 17.4813 28.75V27.25C13.9446 27.25 10.9264 24.9614 9.80632 21.7528L8.39013 22.2472ZM14.5184 21.25H9.09823V22.75H14.5184V21.25ZM9.09823 21.25H5.62947V22.75H9.09823V21.25Z" fill="#252631"/>
</svg>
