<svg width="25" height="24" viewBox="0 0 25 24" fill="none" xmlns="http://www.w3.org/2000/svg">
<path d="M4.5 20H3.75H4.5ZM11.75 22C11.75 22.4142 12.0858 22.75 12.5 22.75C12.9142 22.75 13.25 22.4142 13.25 22H11.75ZM4.5 6.75H20.5V5.25H4.5V6.75ZM21.75 8V9H23.25V8H21.75ZM20.5 10.25H4.5V11.75H20.5V10.25ZM3.25 9V8H1.75V9H3.25ZM4.5 10.25C3.80964 10.25 3.25 9.69036 3.25 9H1.75C1.75 10.5188 2.98122 11.75 4.5 11.75V10.25ZM21.75 9C21.75 9.69036 21.1904 10.25 20.5 10.25V11.75C22.0188 11.75 23.25 10.5188 23.25 9H21.75ZM20.5 6.75C21.1904 6.75 21.75 7.30964 21.75 8H23.25C23.25 6.48122 22.0188 5.25 20.5 5.25V6.75ZM4.5 5.25C2.98122 5.25 1.75 6.48122 1.75 8H3.25C3.25 7.30964 3.80964 6.75 4.5 6.75V5.25ZM16.5 5.25H12.5V6.75H16.5V5.25ZM17.75 4C17.75 4.69036 17.1904 5.25 16.5 5.25V6.75C18.0188 6.75 19.25 5.51878 19.25 4H17.75ZM16.5 2.75C17.1904 2.75 17.75 3.30964 17.75 4H19.25C19.25 2.48122 18.0188 1.25 16.5 1.25V2.75ZM16.5 1.25C13.8766 1.25 11.75 3.37665 11.75 6H13.25C13.25 4.20507 14.7051 2.75 16.5 2.75V1.25ZM8.5 6.75H12.5V5.25H8.5V6.75ZM5.75 4C5.75 5.51878 6.98122 6.75 8.5 6.75V5.25C7.80964 5.25 7.25 4.69036 7.25 4H5.75ZM8.5 1.25C6.98122 1.25 5.75 2.48122 5.75 4H7.25C7.25 3.30964 7.80964 2.75 8.5 2.75V1.25ZM8.5 2.75C10.2949 2.75 11.75 4.20507 11.75 6H13.25C13.25 3.37665 11.1234 1.25 8.5 1.25V2.75ZM19.75 11V20H21.25V11H19.75ZM18.5 21.25H6.5V22.75H18.5V21.25ZM5.25 20L5.25 11H3.75L3.75 20H5.25ZM6.5 21.25C5.80964 21.25 5.25 20.6904 5.25 20H3.75C3.75 21.5188 4.98122 22.75 6.5 22.75V21.25ZM19.75 20C19.75 20.6904 19.1904 21.25 18.5 21.25V22.75C20.0188 22.75 21.25 21.5188 21.25 20H19.75ZM11.75 6V22H13.25V6H11.75Z" fill="#778CA2"/>
</svg>
