<svg width="88" height="24" viewBox="0 0 88 24" fill="none" xmlns="http://www.w3.org/2000/svg">
<path d="M5.3335 10.6667H10.6668M5.3335 13.3333H8.00016M7.3335 6H8.66683C11.9805 6 14.6668 8.68629 14.6668 12C14.6668 15.3137 11.9805 18 8.66683 18H4.00016C2.5274 18 1.3335 16.8061 1.3335 15.3333V12C1.3335 8.68629 4.01979 6 7.3335 6Z" stroke="#98A9BC" stroke-width="1.5" stroke-linecap="round"/>
<path d="M28.746 17.14C27.8873 17.14 27.1733 16.9813 26.604 16.664C26.044 16.3467 25.6193 15.9033 25.33 15.334C25.0407 14.7647 24.882 14.102 24.854 13.346C24.8447 12.9633 24.84 12.5527 24.84 12.114C24.84 11.6753 24.8447 11.2553 24.854 10.854C24.882 10.098 25.0407 9.43533 25.33 8.866C25.6193 8.29667 26.044 7.85333 26.604 7.536C27.1733 7.21867 27.8873 7.06 28.746 7.06C29.39 7.06 29.9547 7.14867 30.44 7.326C30.9253 7.50333 31.3267 7.74133 31.644 8.04C31.9707 8.33867 32.218 8.67467 32.386 9.048C32.554 9.412 32.6473 9.79 32.666 10.182C32.6753 10.266 32.6473 10.336 32.582 10.392C32.526 10.448 32.456 10.476 32.372 10.476H31.602C31.518 10.476 31.4433 10.4527 31.378 10.406C31.322 10.3593 31.28 10.2753 31.252 10.154C31.0933 9.426 30.7947 8.92667 30.356 8.656C29.9267 8.38533 29.3853 8.25 28.732 8.25C27.9853 8.25 27.3927 8.46467 26.954 8.894C26.5153 9.314 26.2773 9.99067 26.24 10.924C26.212 11.6893 26.212 12.4733 26.24 13.276C26.2773 14.2093 26.5153 14.8907 26.954 15.32C27.3927 15.74 27.9853 15.95 28.732 15.95C29.3853 15.95 29.9267 15.8147 30.356 15.544C30.7947 15.2733 31.0933 14.774 31.252 14.046C31.28 13.9247 31.322 13.8407 31.378 13.794C31.4433 13.7473 31.518 13.724 31.602 13.724H32.372C32.456 13.724 32.526 13.752 32.582 13.808C32.6473 13.864 32.6753 13.934 32.666 14.018C32.6473 14.41 32.554 14.7927 32.386 15.166C32.218 15.53 31.9707 15.8613 31.644 16.16C31.3267 16.4587 30.9253 16.6967 30.44 16.874C29.9547 17.0513 29.39 17.14 28.746 17.14ZM37.3422 17.14C36.6329 17.14 36.0402 17.0047 35.5642 16.734C35.0882 16.4633 34.7242 16.09 34.4722 15.614C34.2202 15.1287 34.0802 14.578 34.0522 13.962C34.0429 13.8033 34.0382 13.6027 34.0382 13.36C34.0382 13.108 34.0429 12.9073 34.0522 12.758C34.0802 12.1327 34.2202 11.582 34.4722 11.106C34.7336 10.63 35.1022 10.2567 35.5782 9.986C36.0542 9.71533 36.6422 9.58 37.3422 9.58C38.0422 9.58 38.6302 9.71533 39.1062 9.986C39.5822 10.2567 39.9462 10.63 40.1982 11.106C40.4596 11.582 40.6042 12.1327 40.6322 12.758C40.6416 12.9073 40.6462 13.108 40.6462 13.36C40.6462 13.6027 40.6416 13.8033 40.6322 13.962C40.6042 14.578 40.4642 15.1287 40.2122 15.614C39.9602 16.09 39.5962 16.4633 39.1202 16.734C38.6442 17.0047 38.0516 17.14 37.3422 17.14ZM37.3422 16.062C37.9209 16.062 38.3829 15.88 38.7282 15.516C39.0736 15.1427 39.2602 14.6013 39.2882 13.892C39.2976 13.752 39.3022 13.5747 39.3022 13.36C39.3022 13.1453 39.2976 12.968 39.2882 12.828C39.2602 12.1187 39.0736 11.582 38.7282 11.218C38.3829 10.8447 37.9209 10.658 37.3422 10.658C36.7636 10.658 36.2969 10.8447 35.9422 11.218C35.5969 11.582 35.4149 12.1187 35.3962 12.828C35.3869 12.968 35.3822 13.1453 35.3822 13.36C35.3822 13.5747 35.3869 13.752 35.3962 13.892C35.4149 14.6013 35.5969 15.1427 35.9422 15.516C36.2969 15.88 36.7636 16.062 37.3422 16.062ZM42.7213 17C42.6279 17 42.5486 16.972 42.4833 16.916C42.4273 16.8507 42.3993 16.7713 42.3993 16.678V10.042C42.3993 9.94867 42.4273 9.874 42.4833 9.818C42.5486 9.75267 42.6279 9.72 42.7213 9.72H43.3513C43.4446 9.72 43.5193 9.75267 43.5753 9.818C43.6406 9.874 43.6733 9.94867 43.6733 10.042V10.532C43.8879 10.2427 44.1586 10.014 44.4853 9.846C44.8119 9.66867 45.2039 9.58 45.6613 9.58C46.7159 9.57067 47.4626 10 47.9013 10.868C48.1159 10.476 48.4286 10.1633 48.8393 9.93C49.2499 9.69667 49.7166 9.58 50.2393 9.58C50.7246 9.58 51.1633 9.692 51.5553 9.916C51.9566 10.14 52.2693 10.4807 52.4933 10.938C52.7266 11.386 52.8433 11.9507 52.8433 12.632V16.678C52.8433 16.7713 52.8106 16.8507 52.7453 16.916C52.6893 16.972 52.6146 17 52.5213 17H51.8633C51.7699 17 51.6906 16.972 51.6253 16.916C51.5693 16.8507 51.5413 16.7713 51.5413 16.678V12.758C51.5413 12.2353 51.4666 11.8247 51.3173 11.526C51.1679 11.2273 50.9673 11.0173 50.7153 10.896C50.4633 10.7747 50.1879 10.714 49.8893 10.714C49.6466 10.714 49.3993 10.7747 49.1473 10.896C48.8953 11.0173 48.6853 11.2273 48.5173 11.526C48.3586 11.8247 48.2793 12.2353 48.2793 12.758V16.678C48.2793 16.7713 48.2466 16.8507 48.1813 16.916C48.1253 16.972 48.0506 17 47.9573 17H47.2993C47.2059 17 47.1266 16.972 47.0613 16.916C47.0053 16.8507 46.9773 16.7713 46.9773 16.678V12.758C46.9773 12.2353 46.8979 11.8247 46.7393 11.526C46.5806 11.2273 46.3753 11.0173 46.1233 10.896C45.8713 10.7747 45.6053 10.714 45.3253 10.714C45.0826 10.714 44.8353 10.7747 44.5833 10.896C44.3313 11.0173 44.1213 11.2273 43.9533 11.526C43.7946 11.8247 43.7153 12.2307 43.7153 12.744V16.678C43.7153 16.7713 43.6826 16.8507 43.6173 16.916C43.5613 16.972 43.4866 17 43.3933 17H42.7213ZM55.1627 17C55.0694 17 54.99 16.972 54.9247 16.916C54.8687 16.8507 54.8407 16.7713 54.8407 16.678V10.042C54.8407 9.94867 54.8687 9.874 54.9247 9.818C54.99 9.75267 55.0694 9.72 55.1627 9.72H55.7927C55.886 9.72 55.9607 9.75267 56.0167 9.818C56.082 9.874 56.1147 9.94867 56.1147 10.042V10.532C56.3294 10.2427 56.6 10.014 56.9267 9.846C57.2534 9.66867 57.6454 9.58 58.1027 9.58C59.1574 9.57067 59.904 10 60.3427 10.868C60.5574 10.476 60.87 10.1633 61.2807 9.93C61.6914 9.69667 62.158 9.58 62.6807 9.58C63.166 9.58 63.6047 9.692 63.9967 9.916C64.398 10.14 64.7107 10.4807 64.9347 10.938C65.168 11.386 65.2847 11.9507 65.2847 12.632V16.678C65.2847 16.7713 65.252 16.8507 65.1867 16.916C65.1307 16.972 65.056 17 64.9627 17H64.3047C64.2114 17 64.132 16.972 64.0667 16.916C64.0107 16.8507 63.9827 16.7713 63.9827 16.678V12.758C63.9827 12.2353 63.908 11.8247 63.7587 11.526C63.6094 11.2273 63.4087 11.0173 63.1567 10.896C62.9047 10.7747 62.6294 10.714 62.3307 10.714C62.088 10.714 61.8407 10.7747 61.5887 10.896C61.3367 11.0173 61.1267 11.2273 60.9587 11.526C60.8 11.8247 60.7207 12.2353 60.7207 12.758V16.678C60.7207 16.7713 60.688 16.8507 60.6227 16.916C60.5667 16.972 60.492 17 60.3987 17H59.7407C59.6474 17 59.568 16.972 59.5027 16.916C59.4467 16.8507 59.4187 16.7713 59.4187 16.678V12.758C59.4187 12.2353 59.3394 11.8247 59.1807 11.526C59.022 11.2273 58.8167 11.0173 58.5647 10.896C58.3127 10.7747 58.0467 10.714 57.7667 10.714C57.524 10.714 57.2767 10.7747 57.0247 10.896C56.7727 11.0173 56.5627 11.2273 56.3947 11.526C56.236 11.8247 56.1567 12.2307 56.1567 12.744V16.678C56.1567 16.7713 56.124 16.8507 56.0587 16.916C56.0027 16.972 55.928 17 55.8347 17H55.1627ZM70.1801 17.14C69.2188 17.14 68.4534 16.846 67.8841 16.258C67.3148 15.6607 67.0021 14.8487 66.9461 13.822C66.9368 13.7007 66.9321 13.5467 66.9321 13.36C66.9321 13.164 66.9368 13.0053 66.9461 12.884C66.9834 12.2213 67.1374 11.6427 67.4081 11.148C67.6788 10.644 68.0474 10.2567 68.5141 9.986C68.9901 9.71533 69.5454 9.58 70.1801 9.58C70.8894 9.58 71.4821 9.72933 71.9581 10.028C72.4434 10.3267 72.8121 10.7513 73.0641 11.302C73.3161 11.8527 73.4421 12.4967 73.4421 13.234V13.472C73.4421 13.5747 73.4094 13.654 73.3441 13.71C73.2881 13.766 73.2134 13.794 73.1201 13.794H68.2761C68.2761 13.8033 68.2761 13.822 68.2761 13.85C68.2761 13.878 68.2761 13.9013 68.2761 13.92C68.2948 14.3027 68.3788 14.662 68.5281 14.998C68.6774 15.3247 68.8921 15.5907 69.1721 15.796C69.4521 16.0013 69.7881 16.104 70.1801 16.104C70.5161 16.104 70.7961 16.0527 71.0201 15.95C71.2441 15.8473 71.4261 15.7353 71.5661 15.614C71.7061 15.4833 71.7994 15.3853 71.8461 15.32C71.9301 15.1987 71.9954 15.1287 72.0421 15.11C72.0888 15.082 72.1634 15.068 72.2661 15.068H72.9381C73.0314 15.068 73.1061 15.096 73.1621 15.152C73.2274 15.1987 73.2554 15.2687 73.2461 15.362C73.2368 15.502 73.1621 15.6747 73.0221 15.88C72.8821 16.076 72.6814 16.272 72.4201 16.468C72.1588 16.664 71.8414 16.8273 71.4681 16.958C71.0948 17.0793 70.6654 17.14 70.1801 17.14ZM68.2761 12.828H72.1121V12.786C72.1121 12.366 72.0328 11.9927 71.8741 11.666C71.7248 11.3393 71.5054 11.0827 71.2161 10.896C70.9268 10.7 70.5814 10.602 70.1801 10.602C69.7788 10.602 69.4334 10.7 69.1441 10.896C68.8641 11.0827 68.6494 11.3393 68.5001 11.666C68.3508 11.9927 68.2761 12.366 68.2761 12.786V12.828ZM75.4381 17C75.3447 17 75.2654 16.972 75.2001 16.916C75.1441 16.8507 75.1161 16.7713 75.1161 16.678V10.042C75.1161 9.94867 75.1441 9.874 75.2001 9.818C75.2654 9.75267 75.3447 9.72 75.4381 9.72H76.0961C76.1894 9.72 76.2641 9.75267 76.3201 9.818C76.3854 9.874 76.4181 9.94867 76.4181 10.042V10.658C76.6607 10.3407 76.9641 10.084 77.3281 9.888C77.7014 9.68267 78.1774 9.58 78.7561 9.58C79.3627 9.58 79.8761 9.71533 80.2961 9.986C80.7254 10.2473 81.0474 10.616 81.2621 11.092C81.4767 11.5587 81.5841 12.1047 81.5841 12.73V16.678C81.5841 16.7713 81.5561 16.8507 81.5001 16.916C81.4441 16.972 81.3694 17 81.2761 17H80.5761C80.4827 17 80.4034 16.972 80.3381 16.916C80.2821 16.8507 80.2541 16.7713 80.2541 16.678V12.8C80.2541 12.1467 80.0954 11.638 79.7781 11.274C79.4607 10.9007 78.9941 10.714 78.3781 10.714C77.7994 10.714 77.3327 10.9007 76.9781 11.274C76.6327 11.638 76.4601 12.1467 76.4601 12.8V16.678C76.4601 16.7713 76.4274 16.8507 76.3621 16.916C76.3061 16.972 76.2314 17 76.1381 17H75.4381ZM86.3526 17C85.8299 17 85.4053 16.902 85.0786 16.706C84.7519 16.5007 84.5139 16.216 84.3646 15.852C84.2153 15.4787 84.1406 15.04 84.1406 14.536V10.84H83.0486C82.9553 10.84 82.8759 10.812 82.8106 10.756C82.7546 10.6907 82.7266 10.6113 82.7266 10.518V10.042C82.7266 9.94867 82.7546 9.874 82.8106 9.818C82.8759 9.75267 82.9553 9.72 83.0486 9.72H84.1406V7.382C84.1406 7.28867 84.1686 7.214 84.2246 7.158C84.2899 7.09267 84.3693 7.06 84.4626 7.06H85.1206C85.2139 7.06 85.2886 7.09267 85.3446 7.158C85.4099 7.214 85.4426 7.28867 85.4426 7.382V9.72H87.1786C87.2719 9.72 87.3466 9.75267 87.4026 9.818C87.4679 9.874 87.5006 9.94867 87.5006 10.042V10.518C87.5006 10.6113 87.4679 10.6907 87.4026 10.756C87.3466 10.812 87.2719 10.84 87.1786 10.84H85.4426V14.438C85.4426 14.8767 85.5173 15.222 85.6666 15.474C85.8159 15.726 86.0819 15.852 86.4646 15.852H87.3186C87.4119 15.852 87.4866 15.8847 87.5426 15.95C87.6079 16.006 87.6406 16.0807 87.6406 16.174V16.678C87.6406 16.7713 87.6079 16.8507 87.5426 16.916C87.4866 16.972 87.4119 17 87.3186 17H86.3526Z" fill="#98A9BC"/>
</svg>
