<svg width="33" height="32" viewBox="0 0 33 32" fill="none" xmlns="http://www.w3.org/2000/svg">
<path d="M10.596 21.7017L10.9314 22.3725L10.9314 22.3725L10.596 21.7017ZM14.2812 17.4739L14.6166 16.8031L14.6166 16.8031L14.2812 17.4739ZM14.2812 19.8591L13.9458 19.1883L13.9458 19.1883L14.2812 19.8591ZM10.596 15.6313L10.2605 16.3021L10.2605 16.3021L10.596 15.6313ZM3.33301 8.58317C2.91879 8.58317 2.58301 8.91896 2.58301 9.33317C2.58301 9.74738 2.91879 10.0832 3.33301 10.0832V8.58317ZM29.9997 10.0832C30.4139 10.0832 30.7497 9.74738 30.7497 9.33317C30.7497 8.91896 30.4139 8.58317 29.9997 8.58317V10.0832ZM19.333 15.2498C18.9188 15.2498 18.583 15.5856 18.583 15.9998C18.583 16.4141 18.9188 16.7498 19.333 16.7498V15.2498ZM24.6663 16.7498C25.0806 16.7498 25.4163 16.4141 25.4163 15.9998C25.4163 15.5856 25.0806 15.2498 24.6663 15.2498V16.7498ZM19.333 20.5832C18.9188 20.5832 18.583 20.919 18.583 21.3332C18.583 21.7474 18.9188 22.0832 19.333 22.0832V20.5832ZM24.6663 22.0832C25.0806 22.0832 25.4163 21.7474 25.4163 21.3332C25.4163 20.919 25.0806 20.5832 24.6663 20.5832V22.0832ZM10.2605 16.3021L13.9458 18.1448L14.6166 16.8031L10.9314 14.9605L10.2605 16.3021ZM13.9458 19.1883L10.2605 21.0309L10.9314 22.3725L14.6166 20.5299L13.9458 19.1883ZM9.41634 20.5091V16.8239H7.91634V20.5091H9.41634ZM10.2605 21.0309C9.87269 21.2248 9.41634 20.9428 9.41634 20.5091H7.91634C7.91634 22.0578 9.54616 23.0651 10.9314 22.3725L10.2605 21.0309ZM13.9458 18.1448C14.3757 18.3597 14.3757 18.9733 13.9458 19.1883L14.6166 20.5299C16.1521 19.7621 16.1521 17.5709 14.6166 16.8031L13.9458 18.1448ZM10.9314 14.9605C9.54616 14.2679 7.91634 15.2752 7.91634 16.8239H9.41634C9.41634 16.3902 9.87269 16.1082 10.2605 16.3021L10.9314 14.9605ZM8.66634 3.4165H24.6663V1.9165H8.66634V3.4165ZM29.2497 7.99984V23.9998H30.7497V7.99984H29.2497ZM24.6663 28.5832H8.66634V30.0832H24.6663V28.5832ZM4.08301 23.9998V7.99984H2.58301V23.9998H4.08301ZM8.66634 28.5832C6.13504 28.5832 4.08301 26.5311 4.08301 23.9998H2.58301C2.58301 27.3596 5.30661 30.0832 8.66634 30.0832V28.5832ZM29.2497 23.9998C29.2497 26.5311 27.1976 28.5832 24.6663 28.5832V30.0832C28.0261 30.0832 30.7497 27.3596 30.7497 23.9998H29.2497ZM24.6663 3.4165C27.1976 3.4165 29.2497 5.46853 29.2497 7.99984H30.7497C30.7497 4.64011 28.0261 1.9165 24.6663 1.9165V3.4165ZM8.66634 1.9165C5.30661 1.9165 2.58301 4.6401 2.58301 7.99984H4.08301C4.08301 5.46853 6.13504 3.4165 8.66634 3.4165V1.9165ZM3.33301 10.0832H29.9997V8.58317H3.33301V10.0832ZM19.333 16.7498H24.6663V15.2498H19.333V16.7498ZM19.333 22.0832H24.6663V20.5832H19.333V22.0832Z" fill="#252631"/>
</svg>
