<svg width="32" height="32" viewBox="0 0 32 32" fill="none" xmlns="http://www.w3.org/2000/svg">
<path d="M9.9165 7.99984C9.9165 8.41405 10.2523 8.74984 10.6665 8.74984C11.0807 8.74984 11.4165 8.41405 11.4165 7.99984H9.9165ZM20.5832 7.99984C20.5832 8.41405 20.919 8.74984 21.3332 8.74984C21.7474 8.74984 22.0832 8.41405 22.0832 7.99984H20.5832ZM3.08229 13.1723C2.73755 12.9427 2.27194 13.036 2.04231 13.3807C1.81267 13.7254 1.90599 14.1911 2.25072 14.4207L3.08229 13.1723ZM29.749 14.4207C30.0937 14.1911 30.187 13.7254 29.9574 13.3807C29.7277 13.036 29.2621 12.9427 28.9174 13.1723L29.749 14.4207ZM13.2287 17.9606C13.6408 18.0018 14.0084 17.7012 14.0497 17.289C14.0909 16.8769 13.7902 16.5093 13.3781 16.468L13.2287 17.9606ZM18.6216 16.468C18.2094 16.5093 17.9088 16.8769 17.95 17.289C17.9913 17.7012 18.3588 18.0018 18.771 17.9606L18.6216 16.468ZM7.99984 8.74984H23.9998V7.24984H7.99984V8.74984ZM28.5832 13.3332V23.9998H30.0832V13.3332H28.5832ZM23.9998 28.5832H7.99984V30.0832H23.9998V28.5832ZM3.4165 23.9998V13.3332H1.9165V23.9998H3.4165ZM7.99984 28.5832C5.46853 28.5832 3.4165 26.5311 3.4165 23.9998H1.9165C1.9165 27.3596 4.6401 30.0832 7.99984 30.0832V28.5832ZM28.5832 23.9998C28.5832 26.5311 26.5311 28.5832 23.9998 28.5832V30.0832C27.3596 30.0832 30.0832 27.3596 30.0832 23.9998H28.5832ZM23.9998 8.74984C26.5311 8.74984 28.5832 10.8019 28.5832 13.3332H30.0832C30.0832 9.97344 27.3596 7.24984 23.9998 7.24984V8.74984ZM7.99984 7.24984C4.64011 7.24984 1.9165 9.97344 1.9165 13.3332H3.4165C3.4165 10.8019 5.46853 8.74984 7.99984 8.74984V7.24984ZM11.4165 7.99984V6.6665H9.9165V7.99984H11.4165ZM14.6665 3.4165H17.3332V1.9165H14.6665V3.4165ZM20.5832 6.6665V7.99984H22.0832V6.6665H20.5832ZM17.3332 3.4165C19.1281 3.4165 20.5832 4.87158 20.5832 6.6665H22.0832C22.0832 4.04315 19.9565 1.9165 17.3332 1.9165V3.4165ZM11.4165 6.6665C11.4165 4.87158 12.8716 3.4165 14.6665 3.4165V1.9165C12.0432 1.9165 9.9165 4.04315 9.9165 6.6665H11.4165ZM2.6665 13.7965C2.25072 14.4207 2.25092 14.4208 2.25114 14.421C2.25123 14.421 2.25147 14.4212 2.25166 14.4213C2.25203 14.4216 2.25247 14.4218 2.25298 14.4222C2.25398 14.4228 2.25525 14.4237 2.25676 14.4247C2.2598 14.4267 2.26384 14.4293 2.2689 14.4326C2.27902 14.4392 2.29318 14.4484 2.31131 14.46C2.34759 14.4831 2.3998 14.5159 2.4675 14.5572C2.6029 14.6397 2.80033 14.7561 3.0562 14.8966C3.56782 15.1777 4.31395 15.5561 5.26576 15.9541C7.16835 16.7498 9.90033 17.6274 13.2287 17.9606L13.3781 16.468C10.227 16.1526 7.64049 15.3214 5.84451 14.5703C4.94704 14.1949 4.24885 13.8404 3.77847 13.582C3.54335 13.4528 3.36537 13.3478 3.24809 13.2763C3.18946 13.2406 3.14603 13.2132 3.11824 13.1955C3.10434 13.1866 3.09436 13.1802 3.08835 13.1763C3.08535 13.1743 3.08333 13.173 3.08232 13.1723C3.08181 13.172 3.08156 13.1718 3.08155 13.1718C3.08155 13.1718 3.08161 13.1718 3.08173 13.1719C3.08179 13.172 3.08193 13.172 3.08196 13.1721C3.08212 13.1722 3.08229 13.1723 2.6665 13.7965ZM18.771 17.9606C22.0993 17.6274 24.8313 16.7498 26.7339 15.9541C27.6857 15.5561 28.4319 15.1777 28.9435 14.8966C29.1993 14.7561 29.3968 14.6397 29.5322 14.5572C29.5999 14.5159 29.6521 14.4831 29.6884 14.46C29.7065 14.4484 29.7207 14.4392 29.7308 14.4326C29.7358 14.4293 29.7399 14.4267 29.7429 14.4247C29.7444 14.4237 29.7457 14.4228 29.7467 14.4222C29.7472 14.4218 29.7476 14.4216 29.748 14.4213C29.7482 14.4212 29.7484 14.421 29.7485 14.421C29.7488 14.4208 29.749 14.4207 29.3332 13.7965C28.9174 13.1723 28.9176 13.1722 28.9177 13.1721C28.9177 13.172 28.9179 13.172 28.9179 13.1719C28.9181 13.1718 28.9181 13.1718 28.9181 13.1718C28.9181 13.1718 28.9179 13.172 28.9174 13.1723C28.9163 13.173 28.9143 13.1743 28.9113 13.1763C28.9053 13.1802 28.8953 13.1866 28.8814 13.1955C28.8536 13.2132 28.8102 13.2406 28.7516 13.2763C28.6343 13.3478 28.4563 13.4528 28.2212 13.582C27.7508 13.8404 27.0526 14.1949 26.1552 14.5703C24.3592 15.3214 21.7727 16.1526 18.6216 16.468L18.771 17.9606Z" fill="#252631"/>
<path d="M18.6668 16.2132V17.5465C18.6668 17.5599 18.6668 17.5599 18.6668 17.5732C18.6668 19.0265 18.6535 20.2132 16.0002 20.2132C13.3602 20.2132 13.3335 19.0399 13.3335 17.5865V16.2132C13.3335 14.8799 13.3335 14.8799 14.6668 14.8799H17.3335C18.6668 14.8799 18.6668 14.8799 18.6668 16.2132Z" stroke="#252631" stroke-width="1.5" stroke-miterlimit="10" stroke-linecap="round" stroke-linejoin="round"/>
</svg>
