<svg width="78" height="59" viewBox="0 0 78 59" fill="none" xmlns="http://www.w3.org/2000/svg">
<path d="M41.6609 28.0511L42.3018 28.6919L42.9426 28.0511L42.3018 27.4103L41.6609 28.0511Z" fill="#8FB0E8"/>
<path d="M46.3929 20.8953L47.5972 22.0996L48.8014 20.8953L47.5972 19.691L46.3929 20.8953Z" fill="#8FB0E8"/>
<path d="M37.4857 14.9657L39.1982 16.6782L40.9107 14.9657L39.1982 13.2532L37.4857 14.9657Z" fill="#8FB0E8"/>
<path d="M68.749 25.1953C68.749 21.8906 66.0693 19.2109 62.7647 19.2109C59.46 19.2109 56.7803 21.8906 56.7803 25.1953C56.7803 27.2891 57.8584 29.1328 59.4912 30.2031V34.0234L66.0381 33.3516V30.2031C67.6709 29.1328 68.749 27.2891 68.749 25.1953Z" fill="#8FB0E8"/>
<path d="M64.7881 35.4922L64.2881 35.9063H61.0459L60.5771 35.4766C59.6162 34.5938 59.0693 33.3438 59.0693 32.0313V31.8984H66.46C66.4678 33.2891 65.8506 34.6016 64.7881 35.4922Z" fill="#9F99AA"/>
<path d="M66.5537 33.5703H58.9756C58.96 33.5703 58.9443 33.5547 58.9443 33.5391V33.0469C58.9443 33.0312 58.96 33.0156 58.9756 33.0156H66.5537C66.5693 33.0156 66.585 33.0312 66.585 33.0469V33.5391C66.585 33.5547 66.5693 33.5703 66.5537 33.5703Z" fill="#10002B"/>
<path d="M64.2021 36.8984H61.0693C61.0068 36.8984 60.96 36.8516 60.96 36.7891V35.8281H64.3193V36.7891C64.3115 36.8437 64.2646 36.8984 64.2021 36.8984Z" fill="#10002B"/>
<path d="M61.7419 31.9456C61.7654 31.1018 61.7419 30.2659 61.7107 29.4222C61.6794 28.4925 61.6404 27.555 61.5935 26.6253C61.5779 26.219 61.5544 25.8128 61.5388 25.3987C61.5232 25.0784 61.5232 24.7503 61.406 24.4534C61.3435 24.2893 61.2419 24.1331 61.0779 24.055C60.906 23.969 60.6951 23.9925 60.531 24.0862C60.1951 24.2893 60.1013 24.7659 60.2029 25.1175C60.3357 25.5862 60.8123 25.6956 61.2498 25.68C61.7966 25.6643 62.3435 25.6487 62.8904 25.6409C63.1873 25.6409 63.4841 25.6331 63.781 25.6331C63.9841 25.6331 64.1873 25.6409 64.3904 25.6018C64.5935 25.555 64.781 25.4378 64.8826 25.2425C64.9607 25.0862 64.9919 24.9065 64.9998 24.7346C65.0076 24.5628 64.9763 24.3753 64.8826 24.2268C64.7732 24.0471 64.5857 23.9768 64.3826 23.9612C64.0544 23.9456 63.8201 24.1721 63.7498 24.4768C63.6794 24.7581 63.7107 25.055 63.7341 25.344C63.7576 25.6331 63.7419 25.9143 63.7419 26.2034C63.7185 27.9378 63.7654 29.6721 63.8123 31.4065C63.8201 31.5706 63.8201 31.7425 63.8279 31.9065C63.8357 32.1565 64.2263 32.1565 64.2185 31.9065C64.1716 30.3206 64.1326 28.7425 64.1248 27.1565C64.1248 26.7893 64.1248 26.43 64.1326 26.0628C64.1404 25.805 64.1404 25.555 64.1248 25.2971C64.1169 25.1643 64.1013 25.0315 64.1013 24.8987C64.1013 24.8362 64.1013 24.7737 64.1091 24.719C64.1091 24.7034 64.1091 24.68 64.1169 24.6643C64.1248 24.6096 64.1091 24.6878 64.1169 24.6565C64.1248 24.6175 64.1326 24.5862 64.1404 24.555C64.1482 24.5315 64.156 24.5081 64.1638 24.4768C64.1482 24.5237 64.1794 24.4534 64.1794 24.4456C64.1873 24.43 64.1951 24.4221 64.2029 24.4065C64.1794 24.4456 64.1951 24.4221 64.2029 24.4143C64.2107 24.4065 64.2263 24.3909 64.2341 24.3831C64.1951 24.4143 64.2341 24.3831 64.2498 24.3753C64.281 24.3596 64.2966 24.3518 64.3357 24.3518C64.3669 24.3518 64.3982 24.3518 64.4294 24.3518C64.3982 24.3518 64.5232 24.3753 64.4841 24.3675C64.4841 24.3675 64.5388 24.3987 64.5076 24.3753C64.5232 24.3831 64.531 24.3987 64.5388 24.4065C64.5623 24.43 64.5154 24.3675 64.5466 24.4143C64.5544 24.43 64.5623 24.4456 64.5779 24.4612C64.5623 24.4378 64.5779 24.4612 64.5779 24.469C64.5857 24.4846 64.5935 24.5081 64.5935 24.5237C64.6091 24.5784 64.6091 24.5706 64.6091 24.6175C64.6169 24.7737 64.6013 24.8753 64.5544 25.0237C64.5388 25.0784 64.5623 25.0003 64.5544 25.0315C64.5466 25.0471 64.5388 25.0706 64.5232 25.0862C64.5076 25.1096 64.4841 25.1331 64.4607 25.1565C64.4138 25.1956 64.3279 25.219 64.2498 25.2268C64.0935 25.2503 63.906 25.2346 63.7341 25.2346C63.1716 25.2425 62.6091 25.2425 62.0544 25.2503C61.8201 25.2581 61.5857 25.2659 61.3435 25.2737C61.1638 25.2815 60.9685 25.2893 60.7966 25.2268C60.7341 25.2034 60.6794 25.1643 60.6404 25.1096C60.656 25.1331 60.6169 25.0706 60.6091 25.055C60.6248 25.0862 60.6013 25.0237 60.6013 25.0237C60.5935 25.0003 60.5857 24.9768 60.5857 24.9534C60.5623 24.844 60.5779 24.6721 60.6248 24.5706C60.656 24.4925 60.6794 24.4534 60.7419 24.4143C60.7185 24.43 60.8044 24.3831 60.7732 24.3987C60.7966 24.3909 60.8201 24.3831 60.8357 24.3831C60.8748 24.3753 60.8201 24.3831 60.8669 24.3831C60.8748 24.3831 60.9373 24.3831 60.8904 24.3831C60.8982 24.3831 60.9138 24.3909 60.9216 24.3909C60.8748 24.3675 60.9919 24.4456 60.9529 24.4065C61.0076 24.4534 61.0076 24.4612 61.0466 24.5393C61.0701 24.5784 61.0544 24.555 61.0701 24.6018C61.0779 24.6331 61.0935 24.6643 61.1013 24.6956C61.1091 24.7346 61.1169 24.7737 61.1248 24.8128C61.1248 24.8284 61.1326 24.8362 61.1326 24.8518C61.1326 24.8596 61.1482 24.9378 61.1404 24.8909C61.156 25.0315 61.156 25.1643 61.1638 25.305C61.1794 25.6721 61.1951 26.0471 61.2185 26.4143C61.2966 28.0862 61.3904 29.7659 61.3826 31.4456C61.3826 31.6096 61.3826 31.7659 61.3748 31.93C61.3513 32.1956 61.7419 32.1956 61.7419 31.9456Z" fill="#191C3C"/>
<path d="M66.5537 32.4531H58.9756C58.96 32.4531 58.9443 32.4375 58.9443 32.4219V31.9297C58.9443 31.9141 58.96 31.8984 58.9756 31.8984H66.5537C66.5693 31.8984 66.585 31.9141 66.585 31.9297V32.4219C66.585 32.4375 66.5693 32.4531 66.5537 32.4531Z" fill="#10002B"/>
<path d="M62.8037 18.4141H62.5068C62.2412 18.4141 62.0303 18.2031 62.0303 17.9375V15.5391C62.0303 15.2734 62.2412 15.0625 62.5068 15.0625H62.8037C63.0693 15.0625 63.2803 15.2734 63.2803 15.5391V17.9375C63.2803 18.2031 63.0693 18.4141 62.8037 18.4141Z" fill="#8FB0E8"/>
<path d="M66.3041 19.3202L66.0463 19.1718C65.8197 19.0389 65.7416 18.7499 65.8744 18.5155L67.0697 16.4374C67.2025 16.2108 67.4916 16.1327 67.726 16.2655L67.9838 16.4139C68.2103 16.5468 68.2885 16.8358 68.1556 17.0702L66.9603 19.1483C66.8275 19.3749 66.5306 19.453 66.3041 19.3202Z" fill="#8FB0E8"/>
<path d="M68.8817 21.8597L68.7333 21.6019C68.6005 21.3754 68.6786 21.0785 68.9052 20.9457L70.9833 19.7504C71.2098 19.6176 71.5067 19.6957 71.6395 19.9222L71.788 20.1801C71.9208 20.4066 71.8427 20.7035 71.6161 20.8363L69.538 22.0316C69.3114 22.1722 69.0145 22.0941 68.8817 21.8597Z" fill="#8FB0E8"/>
<path d="M69.8516 25.3516V25.0547C69.8516 24.7891 70.0625 24.5781 70.3281 24.5781H72.7266C72.9922 24.5781 73.2031 24.7891 73.2031 25.0547V25.3516C73.2031 25.6172 72.9922 25.8281 72.7266 25.8281H70.3281C70.0625 25.8281 69.8516 25.6094 69.8516 25.3516Z" fill="#8FB0E8"/>
<path d="M68.9374 28.8519L69.0858 28.5941C69.2186 28.3676 69.5077 28.2894 69.7421 28.4222L71.8202 29.6176C72.0467 29.7504 72.1249 30.0394 71.9921 30.2738L71.8436 30.5316C71.7108 30.7582 71.4218 30.8363 71.1874 30.7035L69.1093 29.5082C68.8827 29.3754 68.8046 29.0785 68.9374 28.8519Z" fill="#8FB0E8"/>
<path d="M56.8348 28.9457L56.9833 29.2035C57.1161 29.4301 57.038 29.7269 56.8114 29.8597L54.7333 31.0551C54.5067 31.1879 54.2098 31.1097 54.077 30.8832L53.9286 30.6254C53.7958 30.3988 53.8739 30.1019 54.1005 29.9691L56.1786 28.7738C56.413 28.641 56.702 28.7191 56.8348 28.9457Z" fill="#FF5722"/>
<path d="M55.8745 25.4611V25.758C55.8745 26.0236 55.6636 26.2346 55.398 26.2346H52.9995C52.7339 26.2346 52.5229 26.0236 52.5229 25.758V25.4611C52.5229 25.1955 52.7339 24.9846 52.9995 24.9846H55.398C55.6558 24.9768 55.8745 25.1955 55.8745 25.4611Z" fill="#8FB0E8"/>
<path d="M56.7801 21.9535L56.6317 22.2113C56.4989 22.4379 56.2098 22.516 55.9755 22.3832L53.9052 21.1879C53.6786 21.0551 53.6005 20.766 53.7333 20.5316L53.8817 20.2738C54.0145 20.0472 54.3036 19.9691 54.538 20.1019L56.6161 21.2972C56.8348 21.4379 56.913 21.7269 56.7801 21.9535Z" fill="#8FB0E8"/>
<path d="M59.3192 19.3832L59.0614 19.5316C58.8348 19.6644 58.538 19.5863 58.4052 19.3597L57.2098 17.2816C57.077 17.0551 57.1552 16.7582 57.3817 16.6254L57.6395 16.4769C57.8661 16.3441 58.163 16.4222 58.2958 16.6488L59.4911 18.7269C59.6239 18.9535 59.5458 19.2504 59.3192 19.3832Z" fill="#8FB0E8"/>
<path d="M22.0702 16.0783C22.0702 16.0783 10.6952 6.86736 20.8827 3.27361C20.8827 3.27361 23.5624 -1.63264 28.7812 1.17204C32.4843 3.16423 28.9921 7.24236 28.9921 7.24236L22.0702 16.0783Z" fill="#10002B"/>
<path d="M22.0702 16.0783C22.0702 16.0783 10.6952 6.86736 20.8827 3.27361C20.8827 3.27361 23.5624 -1.63264 28.7812 1.17204C32.4843 3.16423 28.9921 7.24236 28.9921 7.24236L22.0702 16.0783Z" stroke="#260000" stroke-width="0.625" stroke-miterlimit="10" stroke-linecap="round"/>
<path d="M35.2192 55.1328H10.8521V57.7031H35.2192V55.1328Z" fill="#10002B"/>
<path d="M32.7031 31.1172C35.443 31.1172 37.6641 28.8961 37.6641 26.1563C37.6641 23.4164 35.443 21.1953 32.7031 21.1953C29.9633 21.1953 27.7422 23.4164 27.7422 26.1563C27.7422 28.8961 29.9633 31.1172 32.7031 31.1172Z" fill="#8FB0E8"/>
<path d="M37.4766 24.8442L40.2109 35.2271L31.5703 37.9067L27.8984 27.3833L37.4766 24.8442Z" fill="#8FB0E8"/>
<path d="M40.2109 35.2268L40.8516 37.6799L48.5703 33.4846C49.0312 33.2346 49.3984 32.844 49.6172 32.3752L50.2109 31.1018C50.4609 30.5627 50.9062 30.1408 51.4453 29.9065L54.8594 28.4533C54.8594 28.4533 55.4453 28.469 55.1328 29.2502C55.1328 29.2502 58.0547 26.5002 59.2578 26.3596C60.4609 26.219 57.0781 29.719 57.0781 29.719C57.0781 29.719 58.1328 29.9299 57.7031 31.1799C57.7031 31.1799 58.4062 31.6877 58.0703 32.4612C58.0703 32.4612 58.6719 32.969 58.1641 33.6877C58.1641 33.6877 54.5469 37.0471 52.3438 36.6565L41.0859 46.258C38.5938 48.383 34.7344 47.3127 33.6953 44.2112L31.5703 37.9065L40.2109 35.2268Z" fill="white"/>
<path d="M40.2109 35.2268L40.8516 37.6799L48.5703 33.4846C49.0313 33.2346 49.3984 32.844 49.6172 32.3752L50.2109 31.1018C50.4609 30.5627 50.9062 30.1408 51.4453 29.9065L54.8594 28.4533C54.8594 28.4533 55.4453 28.469 55.1328 29.2502C55.1328 29.2502 58.0547 26.5002 59.2578 26.3596C60.4609 26.219 57.0781 29.719 57.0781 29.719C57.0781 29.719 58.1328 29.9299 57.7031 31.1799C57.7031 31.1799 58.4062 31.6877 58.0703 32.4612C58.0703 32.4612 58.6719 32.969 58.1641 33.6877C58.1641 33.6877 54.5469 37.0471 52.3437 36.6565L41.0859 46.258C38.5938 48.383 34.7344 47.3127 33.6953 44.2112L31.5703 37.9065L40.2109 35.2268Z" stroke="#260000" stroke-width="0.625" stroke-miterlimit="10" stroke-linecap="round"/>
<path d="M55.1875 29.1021C55.1875 29.1021 55.0469 29.5474 54.4141 30.3364C53.5469 31.4224 52.0391 31.3755 52.0391 31.3755" stroke="#260000" stroke-width="0.625" stroke-miterlimit="10" stroke-linecap="round"/>
<path d="M57.7038 31.1719L54.7429 31.9062C54.7429 31.9062 52.8757 32.25 54.2116 30.5547" stroke="#260000" stroke-width="0.625" stroke-miterlimit="10" stroke-linecap="round"/>
<path d="M58.0791 32.4609L55.0713 33.3047C54.7666 33.3906 54.4307 33.3516 54.1573 33.1797C53.8369 32.9688 53.6494 32.5859 54.4541 31.9375" stroke="#260000" stroke-width="0.625" stroke-miterlimit="10" stroke-linecap="round"/>
<path d="M57.5625 29.2031C57.5625 29.2031 56.8672 30.0234 56.0625 30.4297" stroke="#260000" stroke-width="0.625" stroke-miterlimit="10" stroke-linecap="round"/>
<path d="M54.8365 33.3438C54.8365 33.3438 53.8912 34.3828 55.188 34.5C56.7271 34.6406 57.7037 34.0938 57.7037 34.0938" stroke="#260000" stroke-width="0.625" stroke-miterlimit="10" stroke-linecap="round"/>
<path d="M11.3052 21.6641L20.7114 18.2969H28.4224L35.2114 21.875V55.1328H10.8521L11.3052 21.6641Z" fill="#8FB0E8"/>
<path d="M13.4146 31.1172C16.1544 31.1172 18.3755 28.8961 18.3755 26.1563C18.3755 23.4164 16.1544 21.1953 13.4146 21.1953C10.6747 21.1953 8.45361 23.4164 8.45361 26.1563C8.45361 28.8961 10.6747 31.1172 13.4146 31.1172Z" fill="#8FB0E8"/>
<path d="M8.6875 24.688L6.0625 34.813L15.4609 36.977L18.2109 27.3911L8.6875 24.688Z" fill="#8FB0E8"/>
<path d="M6.06289 34.8125L5.11758 39.5703C4.56289 42.3437 4.76602 45.2109 5.6957 47.8828L9.12539 57.7031H15.9535L13.4145 44.0781L15.4613 36.9766L6.06289 34.8125Z" fill="white"/>
<path d="M6.06289 34.8125L5.11758 39.5703C4.56289 42.3437 4.76602 45.2109 5.6957 47.8828L9.12539 57.7031H15.9535L13.4145 44.0781L15.4613 36.9766L6.06289 34.8125Z" stroke="#260000" stroke-width="0.625" stroke-miterlimit="10" stroke-linecap="round"/>
<path d="M28.2739 23.0234H25.9224C23.4614 23.0234 21.4614 21.0312 21.4614 18.5625V13.5078H28.2739V23.0234Z" fill="white"/>
<path d="M28.2739 23.0234H25.9224C23.4614 23.0234 21.4614 21.0312 21.4614 18.5625V13.5078H28.2739V23.0234Z" stroke="#260000" stroke-width="0.625" stroke-miterlimit="10" stroke-linecap="round"/>
<path d="M50.9536 35.9453C50.9536 35.9453 51.6255 36.7187 52.9927 36.6719" stroke="#260000" stroke-width="0.625" stroke-miterlimit="10" stroke-linecap="round"/>
<path d="M41.79 37.1719L39.2979 38.5234" stroke="#260000" stroke-width="0.625" stroke-miterlimit="10" stroke-linecap="round"/>
<path d="M35.2114 55.1328V30.5625" stroke="#260000" stroke-width="0.625" stroke-miterlimit="10" stroke-linecap="round"/>
<path d="M40.313 35.6094L39.7192 33.3516" stroke="#260000" stroke-width="0.625" stroke-miterlimit="10" stroke-linecap="round"/>
<path d="M15.3286 37.4219L16.8286 32.2031" stroke="#260000" stroke-width="0.625" stroke-miterlimit="10" stroke-linecap="round"/>
<path d="M6.0625 34.8125L6.6875 32.3984" stroke="#260000" stroke-width="0.625" stroke-miterlimit="10" stroke-linecap="round"/>
<path d="M29.8208 6.44541C29.8208 6.44541 33.0864 13.5235 29.6099 17.211C26.1333 20.8985 21.4692 14.1017 21.4692 14.1017V5.83603C21.4614 5.83603 27.0161 0.132905 29.8208 6.44541Z" fill="white"/>
<path d="M21.4614 14.4063V5.83603C21.4614 5.83603 27.0083 0.132905 29.8208 6.44541C29.8208 6.44541 33.0864 13.5235 29.6099 17.211C27.6802 19.2579 25.3833 18.0782 23.7271 16.6173" stroke="#260000" stroke-width="0.625" stroke-miterlimit="10" stroke-linecap="round"/>
<path d="M27.5864 3.79698C27.5864 3.79698 24.9067 3.48448 22.9849 5.58604C22.9849 5.58604 23.7505 8.17979 21.4614 10.2501L18.6567 7.44542C18.6567 7.44542 20.7895 2.89854 24.1802 2.07823C27.563 1.25792 27.5864 3.79698 27.5864 3.79698Z" fill="#10002B"/>
<path d="M27.5864 3.79718C27.5864 3.79718 24.9067 3.48468 22.9849 5.58625C22.9849 5.58625 23.7505 8.17999 21.4614 10.2503" stroke="#260000" stroke-width="0.625" stroke-miterlimit="10" stroke-linecap="round"/>
<path d="M22.4379 12.7895C22.4379 12.7895 21.0161 13.4067 20.3364 12.9458C19.8833 12.6333 19.5708 9.93015 20.3364 9.53171C21.102 9.13327 22.4379 10.5708 22.4379 10.5708V12.7895Z" fill="white"/>
<path d="M22.4379 12.7895C22.4379 12.7895 21.0161 13.4067 20.3364 12.9458C19.8833 12.6333 19.5708 9.93015 20.3364 9.53171C21.102 9.13327 22.4379 10.5708 22.4379 10.5708" stroke="#260000" stroke-width="0.625" stroke-miterlimit="10" stroke-linecap="round"/>
<path d="M20.7349 11.0859C20.7349 11.0859 21.2036 11.875 21.9927 11.5547" stroke="#260000" stroke-width="0.625" stroke-miterlimit="10" stroke-linecap="round"/>
<path d="M27.5629 9.59387C27.6411 10.0001 27.5161 10.3595 27.2973 10.3986C27.0707 10.4376 26.8286 10.1486 26.7582 9.7423C26.6801 9.33605 26.8051 8.97668 27.0239 8.93762C27.2504 8.89855 27.4926 9.18762 27.5629 9.59387Z" fill="#10002B"/>
<path d="M30.2973 9.07816C30.3754 9.48441 30.2504 9.84378 30.0317 9.88285C29.8051 9.92191 29.5629 9.63285 29.4926 9.2266C29.4145 8.82035 29.5395 8.46097 29.7582 8.42191C29.977 8.38285 30.2192 8.67972 30.2973 9.07816Z" fill="#10002B"/>
<path d="M28.5082 9.57016C28.9301 10.1248 29.2817 10.7264 29.5629 11.367C29.7036 11.6795 29.8442 12.0155 29.9145 12.3514C29.9692 12.6092 29.9457 12.9452 29.6879 13.0858C29.4692 13.2108 29.6645 13.5467 29.8832 13.4217C30.1176 13.2889 30.2739 13.0389 30.3129 12.7811C30.3676 12.4608 30.2817 12.1483 30.1723 11.8436C29.9692 11.2811 29.7192 10.7342 29.4145 10.2186C29.2426 9.92954 29.0551 9.64047 28.8442 9.37485C28.7817 9.28891 28.6723 9.24985 28.5786 9.30454C28.4926 9.35141 28.4379 9.48422 28.5082 9.57016Z" fill="#260000"/>
<path d="M27.5173 14.1565C27.7829 14.9534 28.736 15.3675 29.5016 15.0393C29.5954 15.0003 29.6188 14.8518 29.5719 14.7737C29.5094 14.6721 29.4001 14.6643 29.3063 14.7034C29.0641 14.805 28.736 14.7893 28.486 14.6721C28.3376 14.6018 28.2282 14.5237 28.1188 14.4143C28.0251 14.3128 27.9391 14.18 27.9001 14.055C27.8688 13.9534 27.7673 13.8909 27.6579 13.9221C27.5563 13.9456 27.486 14.055 27.5173 14.1565Z" fill="#260000"/>
<path d="M25.9079 9.12489C26.2751 8.64832 26.8063 8.33582 27.4001 8.24989C27.5016 8.23426 27.5641 8.10145 27.5329 8.0077C27.5016 7.89832 27.4001 7.85926 27.2907 7.87489C26.6423 7.96864 26.0251 8.32801 25.6266 8.85145C25.5641 8.93739 25.5485 9.04676 25.6266 9.12489C25.6969 9.1952 25.8454 9.21082 25.9079 9.12489Z" fill="#260000"/>
<path d="M29.4925 7.82051C29.5159 7.82051 29.5081 7.82051 29.4847 7.82051C29.4925 7.82051 29.5003 7.82051 29.5159 7.82051C29.5315 7.82051 29.555 7.82051 29.5706 7.8127C29.6096 7.8127 29.6487 7.8127 29.6878 7.8127C29.7034 7.8127 29.7268 7.8127 29.7425 7.82051C29.7815 7.82051 29.7034 7.8127 29.7503 7.82051C29.7893 7.82832 29.8284 7.83613 29.8596 7.84395C29.8987 7.85176 29.93 7.86738 29.969 7.8752C29.9768 7.8752 30.0237 7.89082 29.9768 7.8752C29.9925 7.88301 30.0159 7.89082 30.0315 7.89863C30.0628 7.91426 30.1018 7.9377 30.1331 7.95332C30.1487 7.96113 30.1643 7.97676 30.18 7.98457C30.1878 7.99238 30.1956 7.99238 30.2034 8.0002C30.18 7.98457 30.18 7.98457 30.1956 7.99238C30.2346 8.02363 30.2815 8.04707 30.3362 8.04707C30.3831 8.04707 30.4378 8.02363 30.4768 7.99238C30.5393 7.92207 30.5628 7.78145 30.4768 7.71895C30.3284 7.60176 30.1565 7.50801 29.969 7.45332C29.7815 7.40645 29.5862 7.39863 29.3909 7.42988C29.2893 7.44551 29.2268 7.57832 29.2581 7.67207C29.2893 7.79707 29.3831 7.84395 29.4925 7.82051Z" fill="#260000"/>
<path d="M62.6558 55.9531L67.8198 41C68.1167 40.1406 67.4761 39.25 66.5698 39.25H45.7026C45.4526 39.25 45.2339 39.4141 45.1558 39.6484L39.7104 56.7422H25.7339C25.4683 56.7422 25.2573 56.9531 25.2573 57.2188C25.2573 57.4844 25.4683 57.6953 25.7339 57.6953H60.2104C61.312 57.6953 62.2964 57 62.6558 55.9531Z" fill="#10002B"/>
<path d="M39.7808 56.5234L45.1401 39.6406C45.2104 39.4062 45.4292 39.25 45.6714 39.25C46.0464 39.25 46.3198 39.6172 46.2026 39.9766L40.6323 57.125C40.523 57.4688 40.2026 57.6953 39.8433 57.6953H25.7339C25.4683 57.6953 25.2573 57.4844 25.2573 57.2188C25.2573 56.9531 25.4683 56.7422 25.7339 56.7422H39.4761C39.6167 56.75 39.7417 56.6562 39.7808 56.5234Z" fill="#9F99AA"/>
<path d="M25.7339 57.6953C25.4683 57.6953 25.2573 57.4844 25.2573 57.2188C25.2573 56.9531 25.4683 56.7422 25.7339 56.7422H39.4761C39.6167 56.7422 39.7417 56.6484 39.7808 56.5234L45.1401 39.6406C45.2104 39.4062 45.4292 39.25 45.6714 39.25" stroke="#260000" stroke-width="0.625" stroke-miterlimit="10" stroke-linecap="round"/>
<path d="M54.1094 49.1094L55.1875 51.125L57.1328 49.1094L55.9062 47.0391L54.1094 49.1094Z" fill="white"/>
<path d="M0.304688 57.6953H77.6953" stroke="#260000" stroke-width="0.625" stroke-miterlimit="10" stroke-linecap="round"/>
<path d="M14.0703 14.0625H7.1875C3.38281 14.0625 0.304688 10.9844 0.304688 7.17969C0.304688 3.375 3.38281 0.296875 7.1875 0.296875C10.9922 0.296875 14.0703 3.375 14.0703 7.17969V14.0625Z" fill="#8FB0E8"/>
<path d="M8.74268 4.8125L6.56299 6.99219L5.6333 6.0625C5.50049 5.92969 5.28955 5.92969 5.15674 6.0625L4.22705 6.99219C4.09424 7.125 4.09424 7.33594 4.22705 7.46875L6.29736 9.54688C6.43799 9.6875 6.67236 9.6875 6.8208 9.54688L10.1489 6.21875C10.2817 6.08594 10.2817 5.875 10.1489 5.74219L9.21924 4.8125C9.08643 4.67969 8.87549 4.67969 8.74268 4.8125Z" fill="white"/>
</svg>
