<svg width="78" height="56" viewBox="0 0 78 56" fill="none" xmlns="http://www.w3.org/2000/svg">
<path d="M66.3594 0.875H41.2656C37.5156 0.875 34.4688 3.91406 34.4688 7.67188V55.0625H73.1562V7.67188C73.1562 3.92188 70.1094 0.875 66.3594 0.875Z" fill="white"/>
<path d="M66.2031 25.8203H41.1875C39.4687 25.8203 38.0781 24.4297 38.0781 22.7109V10.5078C38.0781 8.78906 39.4687 7.39844 41.1875 7.39844H66.2031C67.9219 7.39844 69.3125 8.78906 69.3125 10.5078V22.7109C69.3047 24.4297 67.9141 25.8203 66.2031 25.8203Z" stroke="#111C3A" stroke-width="0.625" stroke-miterlimit="10" stroke-linecap="round"/>
<path d="M66.3594 0.875H41.2656C37.5156 0.875 34.4688 3.91406 34.4688 7.67188V55.0625H73.1563V7.67188C73.1563 3.92188 70.1094 0.875 66.3594 0.875Z" stroke="#111C3A" stroke-width="0.625" stroke-miterlimit="10" stroke-linecap="round"/>
<path d="M66.5313 53.8594H59.0391C57.5078 53.8594 56.2656 52.6172 56.2656 51.0859V43.5938C56.2656 42.0625 57.5078 40.8203 59.0391 40.8203H66.5313C68.0625 40.8203 69.3047 42.0625 69.3047 43.5938V51.0859C69.3047 52.6172 68.0625 53.8594 66.5313 53.8594Z" stroke="#111C3A" stroke-width="0.625" stroke-miterlimit="10" stroke-linecap="round"/>
<path d="M65.7188 46.3906C65.7188 44.7734 64.4062 43.4609 62.7891 43.4609C61.1719 43.4609 59.8594 44.7734 59.8594 46.3906C59.8594 47.1094 60.1172 47.7656 60.5469 48.2734L62.7891 51.2031L64.9922 48.3125C65.4453 47.8047 65.7188 47.1328 65.7188 46.3906ZM62.7891 45.2734C63.4062 45.2734 63.9062 45.7734 63.9062 46.3906C63.9062 47.0078 63.4062 47.5078 62.7891 47.5078C62.1719 47.5078 61.6719 47.0078 61.6719 46.3906C61.6719 45.7734 62.1719 45.2734 62.7891 45.2734Z" fill="#8FB0E8"/>
<path d="M12.6966 14.8128L13.6191 15.7354L14.5417 14.8128L13.6191 13.8903L12.6966 14.8128Z" fill="#8FB0E8"/>
<path d="M14.8585 2.22617L16.0352 3.40283L17.2118 2.22617L16.0352 1.04951L14.8585 2.22617Z" fill="#8FB0E8"/>
<path d="M5.25447 7.24617L6.97803 8.96973L8.70158 7.24617L6.97803 5.52261L5.25447 7.24617Z" fill="#8FB0E8"/>
<path d="M35.0234 27.3828C37.2498 27.3828 39.0547 25.578 39.0547 23.3516C39.0547 21.1252 37.2498 19.3203 35.0234 19.3203C32.797 19.3203 30.9922 21.1252 30.9922 23.3516C30.9922 25.578 32.797 27.3828 35.0234 27.3828Z" fill="#8FB0E8"/>
<path d="M39.0547 23.3516L40.5469 32.2109L32.3359 33.1406L31.0859 24.2188L39.0547 23.3516Z" fill="#8FB0E8"/>
<path d="M40.5469 32.2109L40.7344 34.8906L43.1641 43.25L45.4766 46.6094L43.0156 45.1875L39.7344 46.6094C39.7344 46.6094 38.375 47.1562 38.3437 46.2422C38.3359 45.9141 38.5 45.6094 38.75 45.4062L40.5469 43.9922L35.9609 41.9062L32.8516 36.9766L32.3359 33.1406L40.5469 32.2109Z" fill="white"/>
<path d="M40.5469 32.2109L40.7344 34.8906L43.1641 43.25L45.4766 46.6094L43.0156 45.1875L39.7344 46.6094C39.7344 46.6094 38.375 47.1562 38.3437 46.2422C38.3359 45.9141 38.5 45.6094 38.75 45.4062L40.5469 43.9922L35.9609 41.9062L32.8516 36.9766L32.3359 33.1406L40.5469 32.2109Z" stroke="#111C3A" stroke-width="0.625" stroke-miterlimit="10" stroke-linecap="round"/>
<path d="M40.5469 32.2109L40.1094 29.625" stroke="#111C3A" stroke-width="0.625" stroke-miterlimit="10" stroke-linecap="round"/>
<path d="M35.8125 48.1953H13.4297V55.125H35.8125V48.1953Z" fill="#10002B"/>
<path d="M11.1328 19.4219L19.7891 17.8828H27.4609L35.9609 19.4375V48.1953H13.4297L11.1328 19.4219Z" fill="#8FB0E8"/>
<path d="M50.3438 49.5701L48.8125 49.0857L36.875 43.1404C36.2969 42.8514 35.625 42.8045 35.0078 43.0076L26.8516 45.7342L24.7578 46.2185V47.0935C24.7656 47.3826 24.9141 47.6639 25.2109 47.8201L38.0625 54.7732C38.6875 55.1092 39.4375 55.1639 40.1016 54.906L49.7812 51.1951C50.1406 51.0545 50.3281 50.742 50.3359 50.4139V49.5701H50.3438Z" fill="#9F99AA"/>
<path d="M36.8672 42.3592L49.8594 48.8279C50.5391 49.1639 50.4922 50.1482 49.7813 50.4217L40.1016 54.1248C39.4375 54.3826 38.6875 54.3279 38.0625 53.992L25.211 47.0467C24.5391 46.6873 24.625 45.6951 25.3516 45.4529L35 42.2264C35.6172 42.0232 36.2891 42.0701 36.8672 42.3592Z" fill="#10002B"/>
<path d="M39.2346 53.8906C38.8908 53.8906 38.5549 53.8047 38.258 53.6406L25.4064 46.6953C25.1486 46.5547 25.1486 46.3047 25.1564 46.2344C25.1643 46.1641 25.2033 45.9141 25.4846 45.8203L35.133 42.5937C35.3439 42.5234 35.5627 42.4844 35.7893 42.4844C36.1096 42.4844 36.4221 42.5625 36.7111 42.7031L49.6877 49.1719C49.8674 49.2578 49.9611 49.4297 49.9533 49.625C49.9455 49.8203 49.8283 49.9766 49.6486 50.0469L39.9689 53.75C39.7346 53.8516 39.4846 53.8906 39.2346 53.8906Z" fill="white"/>
<path d="M12.0078 27.3828C14.2342 27.3828 16.0391 25.578 16.0391 23.3516C16.0391 21.1252 14.2342 19.3203 12.0078 19.3203C9.78141 19.3203 7.97656 21.1252 7.97656 23.3516C7.97656 25.578 9.78141 27.3828 12.0078 27.3828Z" fill="#8FB0E8"/>
<path d="M8.19531 24.6719L11.2422 33.4531L18.6719 31.1563L15.8125 22.0312L8.19531 24.6719Z" fill="#8FB0E8"/>
<path d="M18.6719 31.1562L19.4219 33.4531L29.9297 39.2109C31.0234 39.8125 32 40.6094 32.7969 41.5703L36.5938 46.1406C36.7266 46.3047 36.8203 46.5078 36.8359 46.7187C36.8594 47.0078 36.7266 47.2812 35.9531 46.8516C35.8672 46.8047 35.7891 46.7422 35.7188 46.6719L33.4531 44.375L33.6719 45.875C33.7422 46.3281 33.4219 46.7656 32.9609 46.8047C32.7578 46.8203 32.5391 46.7578 32.3359 46.5391C32.3359 46.5391 31.0234 47.2891 30.7969 46.4609C30.7969 46.4609 29.6016 47.1719 29.4531 46.3125L28.7031 44.9609C28.3516 44.3281 27.7344 43.8828 27.0234 43.7422L19.3203 42.2656C16.0781 41.75 13.375 39.5078 12.2812 36.4062L11.2344 33.4453L18.6719 31.1562Z" fill="white"/>
<path d="M18.6719 31.1562L19.4219 33.4531L29.9297 39.2109C31.0234 39.8125 32 40.6094 32.7969 41.5703L36.5938 46.1406C36.7266 46.3047 36.8203 46.5078 36.8359 46.7187C36.8594 47.0078 36.7266 47.2812 35.9531 46.8516C35.8672 46.8047 35.7891 46.7422 35.7187 46.6719L33.4531 44.375L33.6719 45.875C33.7422 46.3281 33.4219 46.7656 32.9609 46.8047C32.7578 46.8203 32.5391 46.7578 32.3359 46.5391C32.3359 46.5391 31.0234 47.2891 30.7969 46.4609C30.7969 46.4609 30.125 47.4141 29.4531 46.3125L28.7031 44.9609C28.3516 44.3281 27.7344 43.8828 27.0234 43.7422L19.3203 42.2656C16.0781 41.75 13.375 39.5078 12.2812 36.4062L11.2344 33.4453L18.6719 31.1562Z" stroke="#111C3A" stroke-width="0.625" stroke-miterlimit="10" stroke-linecap="round"/>
<path d="M32.3359 46.5391L31.8828 44.8906" stroke="#111C3A" stroke-width="0.625" stroke-miterlimit="10" stroke-linecap="round"/>
<path d="M30.8047 46.4141L30.3516 44.7734" stroke="#111C3A" stroke-width="0.625" stroke-miterlimit="10" stroke-linecap="round"/>
<path d="M27.8595 4.57812C27.8595 4.57812 31.508 7.28125 28.008 9.41406C27.383 9.79688 26.6174 9.92188 25.9064 9.71875C25.4533 9.58594 25.0392 9.33594 24.9767 8.82813C24.6408 6.05469 27.8595 4.57812 27.8595 4.57812Z" fill="#10002B"/>
<path d="M27.8595 4.57812C27.8595 4.57812 31.508 7.28125 28.008 9.41406C27.383 9.79688 26.6174 9.92188 25.9064 9.71875C25.4533 9.58594 25.0392 9.33594 24.9767 8.82813C24.6408 6.05469 27.8595 4.57812 27.8595 4.57812Z" stroke="#111C3A" stroke-width="0.625" stroke-miterlimit="10" stroke-linecap="round"/>
<path d="M24.4297 24.375L27.2344 17.9687L27.1875 14.0703H20.0938V18.1406L24.4297 24.375Z" fill="white"/>
<path d="M24.4297 24.375L27.2344 17.9687L27.1875 14.0703H20.0938V18.1406L24.4297 24.375Z" stroke="#111C3A" stroke-width="0.625" stroke-miterlimit="10" stroke-linecap="round"/>
<path d="M25.6797 5.32015C25.6797 5.32015 30.5547 11.3045 28.0391 15.2264C25.5234 19.1483 20.0938 15.2264 20.0938 15.2264V5.32015C20.0938 5.32015 22.0078 4.00765 25.6797 5.32015Z" fill="white"/>
<path d="M25.6797 5.32015C25.6797 5.32015 30.5547 11.3045 28.0391 15.2264C25.5234 19.1483 20.0938 15.2264 20.0938 15.2264V5.32015C20.0938 5.32015 22.0078 4.00765 25.6797 5.32015Z" fill="white"/>
<path d="M20.0938 15.6873V5.3201C20.0938 5.3201 22.0078 4.01541 25.6719 5.3201C25.6719 5.3201 30.5469 11.3045 28.0312 15.2263C26.6953 17.3045 24.5469 17.1795 22.8203 16.6013" stroke="#111C3A" stroke-width="0.625" stroke-miterlimit="10" stroke-linecap="round"/>
<path d="M21.8907 6.18748C21.8907 6.18748 24.0079 8.18748 26.5235 7.09373C28.2969 6.32029 29.1876 4.27342 28.4219 2.49217C27.8985 1.28123 26.6641 0.390608 23.836 1.6953C19.5391 3.67967 21.8907 6.18748 21.8907 6.18748Z" fill="#10002B"/>
<path d="M21.8907 6.18748C21.8907 6.18748 24.0079 8.18748 26.5235 7.09373C28.2969 6.32029 29.1876 4.27342 28.4219 2.49217C27.8985 1.28123 26.6641 0.390608 23.836 1.6953C19.5391 3.67967 21.8907 6.18748 21.8907 6.18748Z" stroke="#111C3A" stroke-width="0.625" stroke-miterlimit="10" stroke-linecap="round"/>
<path d="M22.1249 5.55473C22.1249 5.55473 22.9686 9.03911 19.7967 11.2188C19.7967 11.2188 15.9296 9.65629 17.2577 6.05473C18.8358 1.79692 22.1249 5.55473 22.1249 5.55473Z" fill="#10002B"/>
<path d="M22.1092 6.37502C22.1952 6.77346 22.2108 7.18752 22.1405 7.60939C21.953 8.75002 21.3671 10.1485 19.7967 11.2188C19.7967 11.2188 15.9296 9.65627 17.2577 6.05471C18.0467 3.92971 19.2577 3.79689 20.2811 4.20314C20.6405 4.34377 21.1171 4.56252 21.3827 4.81252" stroke="#111C3A" stroke-width="0.625" stroke-miterlimit="10" stroke-linecap="round"/>
<path d="M21.0001 12.2343C20.9844 12.2421 20.9688 12.2499 20.961 12.2577C19.8907 12.7812 18.6251 12.0155 18.6016 10.828C18.586 10.2734 18.6876 9.69523 19.0704 9.39835C19.9532 8.71867 21.0079 10.203 21.0079 10.203V12.2343H21.0001Z" fill="white"/>
<path d="M21.0001 12.2343C20.9844 12.2421 20.9688 12.2499 20.961 12.2577C19.8907 12.7812 18.6251 12.0155 18.6016 10.828C18.586 10.2734 18.6876 9.69523 19.0704 9.39835C19.9532 8.71867 21.0079 10.203 21.0079 10.203" stroke="#111C3A" stroke-width="0.625" stroke-miterlimit="10" stroke-linecap="round"/>
<path d="M19.4688 10.6953C19.4688 10.6953 19.6328 11.2891 20.5156 11.2109" stroke="#111C3A" stroke-width="0.625" stroke-miterlimit="10" stroke-linecap="round"/>
<path d="M25.1561 11.2108C25.0936 11.4686 24.8983 11.6405 24.7265 11.5936C24.5546 11.5468 24.4608 11.3046 24.5233 11.0546C24.5858 10.7968 24.7811 10.6249 24.953 10.6718C25.1327 10.7108 25.2186 10.953 25.1561 11.2108Z" fill="#10002B"/>
<path d="M27.8127 10.8282C27.7736 11.086 27.594 11.2735 27.4221 11.25C27.2502 11.2266 27.133 10.9922 27.1721 10.7344C27.2111 10.4766 27.3908 10.2891 27.5627 10.3125C27.7346 10.336 27.8518 10.5703 27.8127 10.8282Z" fill="#10002B"/>
<path d="M26.3826 13.8828C26.5467 13.8516 26.7185 13.8672 26.8826 13.8203C27.031 13.7734 27.1717 13.6797 27.242 13.5391C27.3904 13.25 27.2967 12.9063 27.1951 12.625C27.0779 12.3047 26.9138 12.0078 26.7732 11.6953C26.6482 11.4219 26.5467 11.1328 26.5545 10.8203C26.5623 10.5703 26.1717 10.5703 26.1638 10.8203C26.1404 11.4375 26.4998 11.9922 26.742 12.5391C26.8357 12.75 26.9685 13.0312 26.9295 13.2734C26.9138 13.375 26.8592 13.4297 26.7498 13.4531C26.6013 13.4922 26.4373 13.4766 26.281 13.5078C26.1795 13.5234 26.117 13.6562 26.1482 13.75C26.1795 13.8594 26.281 13.8984 26.3826 13.8828Z" fill="#111C3A"/>
<path d="M23.5625 14.25C23.8672 14.9141 24.6797 15.2812 25.3828 15.0937C25.625 15.0312 25.5235 14.6484 25.2813 14.7187C25.0235 14.7891 24.7266 14.7578 24.4922 14.6406C24.2266 14.5156 24.0313 14.3281 23.9063 14.0547C23.8594 13.9609 23.7266 13.9375 23.6406 13.9844C23.5313 14.0391 23.5156 14.1484 23.5625 14.25Z" fill="#111C3A"/>
<path d="M23.711 9.7891C23.7891 9.70316 23.875 9.61722 23.9688 9.54691C23.9922 9.52347 23.9532 9.56254 23.9766 9.5391C23.9922 9.53129 24 9.51566 24.0157 9.50785C24.0391 9.49222 24.0625 9.4766 24.086 9.46098C24.1329 9.42973 24.1875 9.39848 24.2422 9.36723C24.2891 9.33598 24.3438 9.31254 24.3985 9.2891C24.3985 9.2891 24.4375 9.27347 24.4219 9.28129C24.4063 9.2891 24.4532 9.26566 24.4532 9.26566C24.4766 9.25785 24.5 9.25004 24.5313 9.23441C24.6485 9.19535 24.7657 9.1641 24.8828 9.14066C24.9844 9.12504 25.0469 8.99223 25.0157 8.89848C24.9766 8.7891 24.8828 8.74222 24.7735 8.76566C24.2657 8.8516 23.7813 9.11723 23.4297 9.50004C23.3594 9.57816 23.3516 9.70316 23.4297 9.77348C23.5079 9.86723 23.6407 9.86722 23.711 9.7891Z" fill="#111C3A"/>
<path d="M26.9531 8.89063C26.9921 8.89063 27.0312 8.89063 27.0702 8.89063C27.1015 8.89063 27.1406 8.89063 27.1718 8.89844C27.1171 8.88282 27.1796 8.89845 27.1952 8.90626C27.2187 8.90626 27.2343 8.91407 27.2577 8.91407C27.2968 8.92188 27.3281 8.9297 27.3671 8.94532C27.4062 8.95313 27.4374 8.96876 27.4765 8.98438C27.4999 8.9922 27.4921 8.9922 27.4687 8.98438C27.4765 8.9922 27.4843 8.99219 27.4999 9.00001C27.5156 9.00782 27.5312 9.01563 27.5468 9.02345C27.6171 9.0547 27.6796 9.10157 27.7421 9.14845C27.8281 9.21095 27.9609 9.16407 28.0077 9.07813C28.0624 8.97657 28.0234 8.87501 27.9374 8.81251C27.6562 8.60938 27.2968 8.50001 26.9452 8.51563C26.8437 8.52345 26.7421 8.60157 26.7499 8.71095C26.7656 8.79688 26.8437 8.89844 26.9531 8.89063Z" fill="#111C3A"/>
<path d="M19.8594 33.6953L18.3359 32.7969" stroke="#111C3A" stroke-width="0.625" stroke-miterlimit="10" stroke-linecap="round"/>
<path d="M11.2422 33.4531L10.375 30.9531" stroke="#111C3A" stroke-width="0.625" stroke-miterlimit="10" stroke-linecap="round"/>
<path d="M18.6719 31.1563L17.2344 26.5625" stroke="#111C3A" stroke-width="0.625" stroke-miterlimit="10" stroke-linecap="round"/>
<path d="M35.9609 41.9062V28.5469" stroke="#111C3A" stroke-width="0.625" stroke-miterlimit="10" stroke-linecap="round"/>
<path d="M40.5235 44L38.7266 45.4141C38.4688 45.6172 38.3047 45.9219 38.3204 46.25C38.3438 47.1641 39.711 46.6172 39.711 46.6172L42.9922 45.1953L40.5235 44Z" fill="white"/>
<path d="M42.992 45.1953L39.7107 46.6172C39.7107 46.6172 38.3513 47.1641 38.3201 46.25C38.3123 45.9219 38.4763 45.6172 38.7263 45.4141L41.0935 43.5547" stroke="#111C3A" stroke-width="0.625" stroke-miterlimit="10" stroke-linecap="round"/>
<path d="M53.8125 3.77344C54.1836 3.77344 54.4844 3.47263 54.4844 3.10156C54.4844 2.7305 54.1836 2.42969 53.8125 2.42969C53.4414 2.42969 53.1406 2.7305 53.1406 3.10156C53.1406 3.47263 53.4414 3.77344 53.8125 3.77344Z" fill="black"/>
<path d="M42.9063 13.2266H41.6328C41.375 13.2266 41.1719 13.0234 41.1719 12.7656V11.4922C41.1719 11.2344 41.375 11.0312 41.6328 11.0312H42.9063C43.1641 11.0312 43.3672 11.2344 43.3672 11.4922V12.7656C43.3672 13.0234 43.1641 13.2266 42.9063 13.2266Z" fill="#8FB0E8"/>
<path d="M42.9063 17.7109H41.6328C41.375 17.7109 41.1719 17.5078 41.1719 17.25V15.9766C41.1719 15.7187 41.375 15.5156 41.6328 15.5156H42.9063C43.1641 15.5156 43.3672 15.7187 43.3672 15.9766V17.25C43.3672 17.5 43.1641 17.7109 42.9063 17.7109Z" fill="#8FB0E8"/>
<path d="M42.9063 22.1953H41.6328C41.375 22.1953 41.1719 21.9922 41.1719 21.7344V20.4609C41.1719 20.2031 41.375 20 41.6328 20H42.9063C43.1641 20 43.3672 20.2031 43.3672 20.4609V21.7344C43.3672 21.9844 43.1641 22.1953 42.9063 22.1953Z" fill="#8FB0E8"/>
<path d="M45.0859 12.1328H64.5937" stroke="#111C3A" stroke-width="0.625" stroke-miterlimit="10" stroke-linecap="round"/>
<path d="M45.0859 16.6094H64.5937" stroke="#111C3A" stroke-width="0.625" stroke-miterlimit="10" stroke-linecap="round"/>
<path d="M45.0859 21.0938H64.5937" stroke="#111C3A" stroke-width="0.625" stroke-miterlimit="10" stroke-linecap="round"/>
<path d="M69.3047 30.2813V36.6094C69.3047 37.8438 68.3047 38.8438 67.0703 38.8438H48.5547C47.3203 38.8438 46.3203 37.8438 46.3203 36.6094V35.4375L44.3125 34.1328C43.8125 33.8047 43.8125 33.0781 44.3125 32.75L46.3203 31.4531V30.2813C46.3203 29.0469 47.3203 28.0469 48.5547 28.0469H67.0703C68.3047 28.0469 69.3047 29.0469 69.3047 30.2813Z" fill="#10002B"/>
<path d="M66.0703 32.5938H49.9922C49.6719 32.5938 49.4141 32.3359 49.4141 32.0156V31.2578C49.4141 30.9375 49.6719 30.6797 49.9922 30.6797H66.0703C66.3906 30.6797 66.6484 30.9375 66.6484 31.2578V32.0156C66.6484 32.3359 66.3906 32.5938 66.0703 32.5938Z" fill="white"/>
<path d="M58.7422 36.2109H49.9922C49.6719 36.2109 49.4141 35.9531 49.4141 35.6328V34.875C49.4141 34.5547 49.6719 34.2969 49.9922 34.2969H58.7422C59.0625 34.2969 59.3203 34.5547 59.3203 34.875V35.6328C59.3203 35.9531 59.0625 36.2109 58.7422 36.2109Z" fill="white"/>
<path d="M0.640625 55.125H77.3594" stroke="#111C3A" stroke-width="0.625" stroke-miterlimit="10" stroke-linecap="round"/>
</svg>
