<svg width="78" height="60" viewBox="0 0 78 60" fill="none" xmlns="http://www.w3.org/2000/svg">
<path d="M44.6797 59.1875H2V7.17188C2 4.57813 4.10156 2.47656 6.69531 2.47656H39.9844C42.5781 2.47656 44.6797 4.57813 44.6797 7.17188V59.1875Z" fill="white"/>
<path d="M14.9609 10.3281H38.1016" stroke="#111C3A" stroke-width="0.625" stroke-miterlimit="10" stroke-linecap="round"/>
<path d="M14.9609 13.4062H26.2813" stroke="#111C3A" stroke-width="0.625" stroke-miterlimit="10" stroke-linecap="round"/>
<path d="M14.9609 25.2812H38.1016" stroke="#111C3A" stroke-width="0.625" stroke-miterlimit="10" stroke-linecap="round"/>
<path d="M14.9609 28.3516H26.2813" stroke="#111C3A" stroke-width="0.625" stroke-miterlimit="10" stroke-linecap="round"/>
<path d="M14.9609 40.2266H38.1016" stroke="#111C3A" stroke-width="0.625" stroke-miterlimit="10" stroke-linecap="round"/>
<path d="M14.9609 43.3047H26.2813" stroke="#111C3A" stroke-width="0.625" stroke-miterlimit="10" stroke-linecap="round"/>
<path d="M44.6797 59.1875H2V7.17188C2 4.57813 4.10156 2.47656 6.69531 2.47656H39.9844C42.5781 2.47656 44.6797 4.57813 44.6797 7.17188V59.1875Z" stroke="#111C3A" stroke-width="0.625" stroke-miterlimit="10" stroke-linecap="round"/>
<path d="M10.9758 12.434C11.3407 10.8888 10.3838 9.3403 8.83854 8.97542C7.29327 8.61054 5.74479 9.56743 5.37991 11.1127C5.01503 12.658 5.97192 14.2064 7.51719 14.5713C9.06245 14.9362 10.6109 13.9793 10.9758 12.434Z" fill="#8FB0E8"/>
<path d="M8.08594 29.6875C9.67376 29.6875 10.9609 28.4003 10.9609 26.8125C10.9609 25.2247 9.67376 23.9375 8.08594 23.9375C6.49812 23.9375 5.21094 25.2247 5.21094 26.8125C5.21094 28.4003 6.49812 29.6875 8.08594 29.6875Z" fill="#8FB0E8"/>
<path d="M10.7965 42.5283C11.1671 40.9843 10.2159 39.4323 8.67188 39.0617C7.12788 38.6911 5.5758 39.6423 5.2052 41.1863C4.83461 42.7303 5.78583 44.2824 7.32983 44.653C8.87382 45.0236 10.4259 44.0723 10.7965 42.5283Z" fill="#8FB0E8"/>
<path d="M37.3073 19.8254L37.9868 20.5049L38.6663 19.8254L37.9868 19.1459L37.3073 19.8254Z" fill="#8FB0E8"/>
<path d="M29.3138 15.0106L30.6064 16.3032L31.8991 15.0106L30.6064 13.7179L29.3138 15.0106Z" fill="#8FB0E8"/>
<path d="M36.3302 5.60705L37.9819 7.25879L39.6337 5.60705L37.9819 3.95531L36.3302 5.60705Z" fill="#8FB0E8"/>
<path d="M9 10.3907L7.72656 11.6641L7.17969 11.1172C7.10156 11.0391 6.97656 11.0391 6.90625 11.1172L6.35938 11.6641C6.28125 11.7422 6.28125 11.8672 6.35938 11.9375L7.57031 13.1485C7.65625 13.2344 7.78906 13.2344 7.875 13.1485L9.82031 11.2032C9.89844 11.125 9.89844 11 9.82031 10.9297L9.27344 10.3829C9.19531 10.3125 9.07813 10.3125 9 10.3907Z" fill="white"/>
<path d="M8.90625 25.4297L7.63281 26.7032L7.08594 26.1563C7.00781 26.0782 6.88281 26.0782 6.8125 26.1563L6.26562 26.7032C6.1875 26.7813 6.1875 26.9063 6.26562 26.9766L7.47656 28.1875C7.5625 28.2735 7.69531 28.2735 7.78125 28.1875L9.72656 26.2422C9.80469 26.1641 9.80469 26.0391 9.72656 25.9688L9.17969 25.4219C9.10938 25.3516 8.98438 25.3516 8.90625 25.4297Z" fill="white"/>
<path d="M8.90625 25.4297L7.63281 26.7032L7.08594 26.1563C7.00781 26.0782 6.88281 26.0782 6.8125 26.1563L6.26562 26.7032C6.1875 26.7813 6.1875 26.9063 6.26562 26.9766L7.47656 28.1875C7.5625 28.2735 7.69531 28.2735 7.78125 28.1875L9.72656 26.2422C9.80469 26.1641 9.80469 26.0391 9.72656 25.9688L9.17969 25.4219C9.10938 25.3516 8.98438 25.3516 8.90625 25.4297Z" fill="white"/>
<path d="M8.82031 40.4766L7.54688 41.75L7 41.2032C6.92188 41.125 6.79688 41.125 6.72656 41.2032L6.17969 41.75C6.10156 41.8282 6.10156 41.9532 6.17969 42.0235L7.39062 43.2344C7.47656 43.3204 7.60938 43.3204 7.69531 43.2344L9.64062 41.2891C9.71875 41.211 9.71875 41.086 9.64062 41.0157L9.09375 40.4688C9.02344 40.3985 8.89844 40.3985 8.82031 40.4766Z" fill="white"/>
<path d="M71.75 15.75H61.3125V5.3125C61.3125 2.82812 63.3281 0.820312 65.8047 0.820312H71.75C74.2344 0.820312 76.2422 2.83594 76.2422 5.3125V11.25C76.2422 13.7344 74.2344 15.75 71.75 15.75Z" fill="#10002B"/>
<path d="M70.0583 12.5214C70.226 11.8162 69.7903 11.1085 69.085 10.9408C68.3798 10.773 67.6721 11.2088 67.5044 11.914C67.3367 12.6192 67.7724 13.3269 68.4776 13.4946C69.1828 13.6624 69.8905 13.2266 70.0583 12.5214Z" fill="white"/>
<path d="M68.8125 9.55469C68.1172 9.55469 67.5547 8.99219 67.5547 8.29688V4.92188C67.5547 4.22656 68.1172 3.66406 68.8125 3.66406C69.5078 3.66406 70.0703 4.22656 70.0703 4.92188V8.29688C70.0703 8.99219 69.5078 9.55469 68.8125 9.55469Z" fill="white"/>
<path d="M42.3747 22.2889C42.3747 22.2889 41.7185 12.8045 43.6247 6.69514C44.6013 3.56233 47.4372 1.33576 50.7185 1.27326C53.2107 1.21858 55.9138 2.40608 56.7419 7.33576L58.281 22.7733L42.3747 22.2889Z" fill="#10002B"/>
<path d="M42.3747 22.2889C42.3747 22.2889 41.7185 12.8045 43.6247 6.69514C44.6013 3.56233 47.4372 1.33576 50.7185 1.27326C53.2107 1.21858 55.9138 2.40608 56.7419 7.33576L58.281 22.7733L42.3747 22.2889Z" stroke="#111C3A" stroke-width="0.625" stroke-miterlimit="10" stroke-linecap="round"/>
<path d="M39.8984 21.2422L46.7266 20.2969L54.1797 19.8203L60.0234 21.4219L59.1094 49.8203H39.1641L39.8984 21.2422Z" fill="#8FB0E8"/>
<path d="M59.1719 49.8203H39.1641V59.1406H59.1719V49.8203Z" fill="#10002B"/>
<path d="M58.2891 30.8984C60.9944 30.8984 63.1875 28.7053 63.1875 26C63.1875 23.2947 60.9944 21.1016 58.2891 21.1016C55.5837 21.1016 53.3906 23.2947 53.3906 26C53.3906 28.7053 55.5837 30.8984 58.2891 30.8984Z" fill="#8FB0E8"/>
<path d="M41.0469 30.8984C43.7522 30.8984 45.9453 28.7053 45.9453 26C45.9453 23.2947 43.7522 21.1016 41.0469 21.1016C38.3415 21.1016 36.1484 23.2947 36.1484 26C36.1484 28.7053 38.3415 30.8984 41.0469 30.8984Z" fill="#8FB0E8"/>
<path d="M61.9688 22.7734L72.1875 32.1875C74.7891 34.5781 74.875 38.6562 72.375 41.1562L63.1797 50.375L59.0469 46.9922L66.1328 36.9531L55.6797 30.1484L61.9688 22.7734Z" fill="#8FB0E8"/>
<path d="M59.0546 46.9922L58.2968 49.4609C57.6718 51.4844 57.9765 53.6797 59.1171 55.4688L60.0077 56.8594C60.664 57.8828 61.9062 58.3516 63.0781 58.0234L64.5859 57.5938C65.5156 57.3281 65.8359 56.1719 65.1718 55.4688C64.8202 55.0938 64.3593 54.7891 63.7812 54.7266C62.1015 54.5391 63.3437 55.9062 63.3437 55.9062L62.0156 56.2969L63.1874 50.375L59.0546 46.9922Z" fill="white"/>
<path d="M59.0312 47.0626L58.2968 49.461C57.6718 51.4844 57.9765 53.6797 59.1171 55.4688L60.0077 56.8594C60.664 57.8829 61.9062 58.3516 63.0781 58.0235L64.5859 57.5938C65.5156 57.3282 65.8359 56.1719 65.1718 55.4688C64.8202 55.0938 64.3593 54.7891 63.7812 54.7266C62.1015 54.5391 63.3437 55.9063 63.3437 55.9063L62.0156 56.2969L63.1874 50.3751L59.1093 47.0391C59.0781 47.0157 59.039 47.0313 59.0312 47.0626Z" stroke="#111C3A" stroke-width="0.625" stroke-miterlimit="10" stroke-linecap="round"/>
<path d="M39.3047 21.4297L29.0312 24.8984L18.5938 22.7734L16.7344 27.1953L21.5859 30.0156C25.5469 32.3203 30.2188 33.1094 34.7188 32.2266L42.1797 30.7656L39.3047 21.4297Z" fill="#8FB0E8"/>
<path d="M18.5937 22.7735L16.2343 21.4297L15.8906 16.8985C15.8671 16.5625 15.7499 16.2422 15.5468 15.9766C15.2577 15.5938 14.8281 15.3672 14.5546 16.6719L14.1171 19.5156L9.01555 16.1641C8.80462 16.0156 8.5468 15.9375 8.28899 15.9766C7.97649 16.0156 7.71087 16.2188 8.17962 16.8985C8.17962 16.8985 6.40618 16.4766 7.43743 17.9375C7.43743 17.9375 6.39837 17.8125 6.74212 18.8672C6.74212 18.8672 5.89055 19.1016 6.19524 19.6563L9.75774 23.4297C10.9218 24.8828 12.5468 25.8985 14.3671 26.3047L15.4296 26.5469L16.7343 27.1953L18.5937 22.7735Z" fill="white"/>
<path d="M18.5937 22.7735L16.2343 21.4297L15.8906 16.8985C15.8671 16.5625 15.7499 16.2422 15.5468 15.9766C15.2577 15.5938 14.8281 15.3672 14.5546 16.6719L14.1171 19.5156L9.01555 16.1641C8.80462 16.0156 8.5468 15.9375 8.28899 15.9766C7.97649 16.0156 7.71087 16.2188 8.17962 16.8985C8.17962 16.8985 6.40618 16.4766 7.43743 17.9375C7.43743 17.9375 6.39837 17.8125 6.74212 18.8672C6.74212 18.8672 5.89055 19.1016 6.19524 19.6563L9.75774 23.4297C10.9218 24.8828 12.5468 25.8985 14.3671 26.3047L15.4296 26.5469L16.7343 27.1953L18.5937 22.7735Z" stroke="#111C3A" stroke-width="0.625" stroke-miterlimit="10" stroke-linecap="round"/>
<path d="M8.17969 16.8906L11.7578 19.8203" stroke="#111C3A" stroke-width="0.625" stroke-miterlimit="10" stroke-linecap="round"/>
<path d="M7.42969 17.9297L11.1406 20.8203" stroke="#111C3A" stroke-width="0.625" stroke-miterlimit="10" stroke-linecap="round"/>
<path d="M6.73438 18.8672L9.44531 21.1875" stroke="#111C3A" stroke-width="0.625" stroke-miterlimit="10" stroke-linecap="round"/>
<path d="M13.1798 20.9375C13.1798 20.9375 12.9611 22.6328 14.5314 23.125" stroke="#111C3A" stroke-width="0.625" stroke-miterlimit="10" stroke-linecap="round"/>
<path d="M53.0234 13.0312H47.1172V22.3281H53.0234V13.0312Z" fill="white"/>
<path d="M53.0234 13.0312H47.1172V22.3281H53.0234V13.0312Z" stroke="#111C3A" stroke-width="0.625" stroke-miterlimit="10" stroke-linecap="round"/>
<path d="M46.3983 18.8047C46.3983 18.8047 48.2655 19.6562 48.3905 21.4297C48.3905 21.4297 50.7967 18.1406 53.7342 18.1016L54.1873 19.8203L56.2264 20.375L46.3983 29.9062C46.3983 29.9062 42.8358 24.2656 46.3983 20.3359V18.8047Z" fill="white"/>
<path d="M46.3983 18.8047C46.3983 18.8047 48.2655 19.6562 48.3905 21.4297C48.3905 21.4297 50.7967 18.1406 53.7342 18.1016L54.1873 19.8203L56.2264 20.375L46.3983 29.9062C46.3983 29.9062 42.8358 24.2656 46.3983 20.3359V18.8047Z" stroke="#111C3A" stroke-width="0.625" stroke-miterlimit="10" stroke-linecap="round"/>
<path d="M46.3125 4.82819C46.3125 4.82819 42.1094 10.1407 44.6641 15.3516C45.1563 16.3594 46.1719 17.0079 47.2891 17.0235C48.1094 17.0391 49.1172 16.961 50.0703 16.6251C51.3438 16.1797 52.5235 15.2813 53.0235 13.5469C53.0235 13.5469 56.2969 6.38287 52.7344 4.84381C49.1719 3.31256 46.3125 4.82819 46.3125 4.82819Z" fill="white"/>
<path d="M50.0703 16.6251C49.1172 16.961 48.1016 17.0391 47.2891 17.0235C46.1719 17.0079 45.1563 16.3594 44.6641 15.3516C42.1094 10.1407 46.3125 4.82819 46.3125 4.82819C46.3125 4.82819 49.1719 3.31256 52.7344 4.84381C56.2969 6.37506 53.0235 13.5469 53.0235 13.5469V14.7188" stroke="#111C3A" stroke-width="0.625" stroke-miterlimit="10" stroke-linecap="round"/>
<path d="M50.5154 5.09367C50.5154 5.09367 47.6795 6.53898 45.6482 5.81242C45.6482 5.81242 44.7342 4.17961 47.6795 3.31242C50.6248 2.44523 54.1014 3.68742 54.1014 3.68742C54.1014 3.68742 56.5467 10.1093 55.3045 11.6015C54.0623 13.0937 53.3982 12.3437 53.3982 12.3437L52.3592 10.2734V9.76555C52.3592 8.93742 52.0232 8.14055 51.4217 7.57023C50.8748 7.03898 50.3201 6.20305 50.5154 5.09367Z" fill="#10002B"/>
<path d="M53.3984 12.3437L52.3594 10.2734V9.76562C52.3594 8.9375 52.0234 8.14062 51.4219 7.57031C50.8672 7.03906 50.3125 6.21094 50.5078 5.10156C50.5078 5.10156 47.6719 6.54687 45.6406 5.82031" stroke="#111C3A" stroke-width="0.625" stroke-miterlimit="10" stroke-linecap="round"/>
<path d="M51.7422 10.3982C51.7422 10.3982 53.9062 8.90604 54.3984 10.0701C54.625 10.6014 54.5391 11.3357 54.375 11.9764C54.1797 12.742 53.3906 13.1951 52.6328 12.9764L51.9063 12.7654L51.7422 10.3982Z" fill="white"/>
<path d="M51.7422 10.3982C51.7422 10.3982 53.9062 8.90604 54.3984 10.0701C54.625 10.6014 54.5391 11.3357 54.375 11.9764C54.1797 12.742 53.3906 13.1951 52.6328 12.9764L51.9063 12.7654" stroke="#111C3A" stroke-width="0.625" stroke-miterlimit="10" stroke-linecap="round"/>
<path d="M52.4297 11.6406C52.4297 11.6406 53.1328 11.6406 53.3906 11.0156" stroke="#111C3A" stroke-width="0.625" stroke-miterlimit="10" stroke-linecap="round"/>
<path d="M39.1641 49.8203L39.6797 28.4766" stroke="#111C3A" stroke-width="0.625" stroke-miterlimit="10" stroke-linecap="round"/>
<path d="M57.3359 31.2188L68.1406 38.2266" stroke="#111C3A" stroke-width="0.625" stroke-miterlimit="10" stroke-linecap="round"/>
<path d="M45.2966 9.67149C45.2497 9.99961 45.0622 10.2418 44.8903 10.2184C44.7185 10.1949 44.6169 9.90586 44.6716 9.57774C44.7185 9.24961 44.906 9.00743 45.0778 9.03086C45.2497 9.06211 45.3435 9.34336 45.2966 9.67149Z" fill="#10002B"/>
<path d="M48.156 9.67149C48.1091 9.99961 47.9216 10.2418 47.7497 10.2184C47.5778 10.1949 47.4763 9.90586 47.531 9.57774C47.5778 9.24961 47.7653 9.00743 47.9372 9.03086C48.1091 9.06211 48.2028 9.34336 48.156 9.67149Z" fill="#10002B"/>
<path d="M45.8825 9.4922C45.8903 10 45.6638 10.4609 45.4528 10.9063C45.3356 11.1484 45.2263 11.3906 45.1403 11.6406C45.0622 11.8828 44.9919 12.1484 45.0153 12.3984C45.0388 12.6797 45.1638 12.9609 45.4606 13.0469C45.7028 13.1172 45.8044 12.7422 45.5622 12.6719C45.4763 12.6484 45.4372 12.5625 45.4138 12.4609C45.3903 12.3516 45.3981 12.2266 45.4216 12.1094C45.4763 11.8125 45.5856 11.5313 45.7106 11.2578C45.9684 10.6953 46.2888 10.125 46.2731 9.48439C46.2731 9.23439 45.8825 9.23439 45.8825 9.4922Z" fill="#10002B"/>
<path d="M46.2109 14.5078C46.7265 14.6797 47.3281 14.3516 47.4844 13.8281C47.5156 13.7266 47.4531 13.6094 47.3515 13.586C47.25 13.5625 47.1406 13.6172 47.1094 13.7188C47.1094 13.7344 47.1015 13.7422 47.0937 13.7578C47.0859 13.7735 47.0859 13.8047 47.0937 13.7578C47.0859 13.7813 47.0703 13.8047 47.0625 13.8203C47.0469 13.8438 47.039 13.8594 47.0234 13.8828L47.0156 13.8906C47 13.9063 47.0078 13.9063 47.0234 13.8828C47.0234 13.8906 47.0078 13.8985 47 13.9063C46.9687 13.9453 46.9297 13.9922 46.8906 14.0156C46.9062 14.0078 46.914 14 46.8906 14.0156C46.8828 14.0235 46.875 14.0313 46.8594 14.0313C46.8359 14.0469 46.8125 14.0625 46.789 14.0703C46.7812 14.0781 46.7656 14.0781 46.7578 14.0859C46.75 14.0859 46.7109 14.1016 46.7344 14.0938C46.7578 14.086 46.7265 14.0938 46.7187 14.1016C46.7031 14.1094 46.6953 14.1094 46.6797 14.1172C46.6562 14.125 46.6328 14.1328 46.6094 14.1328C46.5937 14.1328 46.5859 14.1328 46.5703 14.1406C46.5469 14.1485 46.6094 14.1406 46.5781 14.1406C46.5312 14.1485 46.4765 14.1485 46.4297 14.1406C46.3828 14.1328 46.4219 14.1485 46.4297 14.1406L46.3906 14.1328C46.3672 14.125 46.3359 14.1172 46.3125 14.1094C46.2187 14.0781 46.0937 14.1484 46.0703 14.2422C46.0469 14.375 46.1015 14.4766 46.2109 14.5078Z" fill="#10002B"/>
<path d="M47.4609 8.23404C47.9921 8.07779 48.5859 8.27311 48.9375 8.71842C49 8.80436 49.1484 8.78873 49.2109 8.71842C49.2968 8.63248 49.2734 8.52311 49.2109 8.44498C48.789 7.89811 48.0156 7.66373 47.3593 7.85904C47.1171 7.92154 47.2187 8.30435 47.4609 8.23404Z" fill="#10002B"/>
<path d="M44.7341 8.1797C44.7966 8.16407 44.8591 8.14845 44.9216 8.14063C44.9372 8.14063 44.9529 8.13282 44.9685 8.13282C44.9138 8.13282 44.9685 8.13282 44.9841 8.13282C45.0153 8.13282 45.0466 8.12501 45.0778 8.12501C45.1403 8.12501 45.2029 8.12501 45.2654 8.12501C45.2966 8.12501 45.32 8.13282 45.3513 8.13282C45.3982 8.14063 45.3122 8.12501 45.3591 8.13282C45.3747 8.13282 45.3982 8.14063 45.4138 8.14063C45.4685 8.14845 45.5153 8.14845 45.5622 8.1172C45.6013 8.09376 45.6403 8.04688 45.6482 8.00001C45.6716 7.90626 45.6169 7.78126 45.5154 7.75782C45.2185 7.70313 44.9216 7.71095 44.6325 7.79688C44.531 7.82813 44.4607 7.93751 44.4997 8.03907C44.5232 8.14845 44.6247 8.21095 44.7341 8.1797Z" fill="#10002B"/>
<path d="M18.5938 22.7734L30.6016 25.3047" stroke="#111C3A" stroke-width="0.625" stroke-miterlimit="10" stroke-linecap="round"/>
<path d="M16.7344 27.1953L19.5469 28.8359" stroke="#111C3A" stroke-width="0.625" stroke-miterlimit="10" stroke-linecap="round"/>
<path d="M59.0547 46.9922L61.1797 43.9766" stroke="#111C3A" stroke-width="0.625" stroke-miterlimit="10" stroke-linecap="round"/>
<path d="M63.1875 50.375L66.3906 47.1641" stroke="#111C3A" stroke-width="0.625" stroke-miterlimit="10" stroke-linecap="round"/>
<path d="M45.1797 58.0859C45.3203 57.8672 45.3594 57.5859 45.2656 57.3125L41.5859 46.9375C41.2031 45.8672 40.1953 45.1484 39.0547 45.1484H19.7969C19.5078 45.1484 19.2656 45.2812 19.1016 45.4766L18.5156 46.2109L19.0156 46.5312L22.625 56.7187C23.0078 57.7891 24.0156 58.5078 25.1562 58.5078H43.3828L43.3984 58.8516H44.5703L45.0547 58.2344C45.0938 58.1875 45.1328 58.1406 45.1641 58.0937L45.1797 58.0859Z" fill="#9F99AA"/>
<path d="M45.1797 58.0859C45.3203 57.8672 45.3594 57.5859 45.2656 57.3125L41.5859 46.9375C41.2031 45.8672 40.1953 45.1484 39.0547 45.1484H19.7969" stroke="#111C3A" stroke-width="0.625" stroke-miterlimit="10" stroke-linecap="round"/>
<path d="M43.875 59.1875H24.6172C23.4843 59.1875 22.4687 58.4688 22.0859 57.3984L18.4062 47.0312C18.1953 46.4453 18.6328 45.8359 19.25 45.8359H38.5078C39.6406 45.8359 40.6562 46.5547 41.039 47.625L44.7187 58C44.9297 58.5703 44.4922 59.1875 43.875 59.1875Z" fill="#10002B"/>
<path d="M19.9375 59.1875H42.3594L43.7344 55.3047H21.3125L19.9375 59.1875Z" fill="#9F99AA"/>
<path d="M42.3594 59.1875L43.6641 55.5C43.6953 55.4062 43.625 55.3047 43.5234 55.3047H21.3125" stroke="#111C3A" stroke-width="0.625" stroke-miterlimit="10" stroke-linecap="round"/>
<path d="M32.4531 52.0313L31.4062 53.9922L29.3672 52.0859L30.375 50.0078L32.4531 52.0313Z" fill="white"/>
<path d="M15.7266 49.2109L15 58.3047C14.9609 58.8047 14.5469 59.1875 14.0469 59.1875H9.92188C9.42188 59.1875 9.00781 58.8047 8.96875 58.3047L8.24219 49.2109H15.7266Z" fill="#10002B"/>
<path d="M11.9766 50.0313C14.0476 50.0313 15.7266 49.678 15.7266 49.2422C15.7266 48.8064 14.0476 48.4531 11.9766 48.4531C9.9055 48.4531 8.22656 48.8064 8.22656 49.2422C8.22656 49.678 9.9055 50.0313 11.9766 50.0313Z" fill="#9F99AA"/>
<path d="M11.9766 50.0313C14.0476 50.0313 15.7266 49.678 15.7266 49.2422C15.7266 48.8064 14.0476 48.4531 11.9766 48.4531C9.9055 48.4531 8.22656 48.8064 8.22656 49.2422C8.22656 49.678 9.9055 50.0313 11.9766 50.0313Z" stroke="#040A2E" stroke-width="0.625" stroke-miterlimit="10"/>
<path d="M11.9766 49.2188C13.3443 49.2188 14.4531 48.9844 14.4531 48.6953C14.4531 48.4062 13.3443 48.1719 11.9766 48.1719C10.6088 48.1719 9.5 48.4062 9.5 48.6953C9.5 48.9844 10.6088 49.2188 11.9766 49.2188Z" fill="white"/>
<path d="M11.9766 49.2188C13.3443 49.2188 14.4531 48.9844 14.4531 48.6953C14.4531 48.4062 13.3443 48.1719 11.9766 48.1719C10.6088 48.1719 9.5 48.4062 9.5 48.6953C9.5 48.9844 10.6088 49.2188 11.9766 49.2188Z" stroke="#040A2E" stroke-width="0.625" stroke-miterlimit="10"/>
<path d="M14.4609 48.6953V49.2109" stroke="#040A2E" stroke-width="0.625" stroke-miterlimit="10"/>
<path d="M9.5 48.6953V49.2109" stroke="#040A2E" stroke-width="0.625" stroke-miterlimit="10"/>
<path d="M8.77344 55.9609C9.72656 56.0703 10.8125 56.1328 11.9766 56.1328C13.1406 56.1328 14.2344 56.0703 15.1797 55.9609L15.4531 52.5781C14.4453 52.7109 13.25 52.7891 11.9766 52.7891C10.7031 52.7891 9.50781 52.7109 8.5 52.5781L8.77344 55.9609Z" fill="white"/>
<path d="M13.0707 54.6253C13.2116 54.0246 12.8389 53.4233 12.2382 53.2824C11.6374 53.1415 11.0362 53.5142 10.8953 54.1149C10.7544 54.7157 11.1271 55.3169 11.7278 55.4578C12.3286 55.5987 12.9298 55.226 13.0707 54.6253Z" fill="#8FB0E8"/>
<path d="M0.742188 59.1875H77.2578" stroke="#111C3A" stroke-width="0.625" stroke-miterlimit="10" stroke-linecap="round"/>
</svg>
