<svg width="17" height="17" viewBox="0 0 17 17" fill="none" xmlns="http://www.w3.org/2000/svg">
<path d="M16.7031 8.55124C16.7031 8.10853 16.6588 7.64369 16.5703 7.15671H8.73436V10.0122H13.416C13.3274 10.4992 13.1393 10.9861 12.8515 11.4731C12.4531 12.0708 11.9551 12.5467 11.3574 12.9008C10.6048 13.3436 9.73045 13.5649 8.73436 13.5649C7.80467 13.5649 6.95246 13.3269 6.17772 12.851C5.40299 12.3751 4.7832 11.7443 4.31835 10.9585C3.85351 10.1727 3.62109 9.30385 3.62109 8.35202C3.62109 7.24526 3.91991 6.26023 4.51757 5.39695C5.07095 4.60008 5.80142 4.00243 6.70897 3.60399C7.61652 3.20556 8.53514 3.07274 9.46483 3.20556C10.4609 3.33837 11.3131 3.74787 12.0215 4.43407L14.2461 2.27587C12.7187 0.83707 10.8815 0.117676 8.73436 0.117676C7.25129 0.117676 5.8789 0.488443 4.61718 1.22998C3.35546 1.97151 2.35384 2.97314 1.6123 4.23485C0.87077 5.49657 0.5 6.86897 0.5 8.35203C0.5 9.8351 0.870768 11.2075 1.6123 12.4692C2.35384 13.7309 3.35546 14.7326 4.61718 15.4741C5.8789 16.2156 7.25129 16.5864 8.73436 16.5864C10.306 16.5864 11.695 16.2433 12.9013 15.5571C14.1077 14.8709 15.0429 13.9191 15.707 12.7016C16.3711 11.4842 16.7031 10.1007 16.7031 8.55126L16.7031 8.55124Z" fill="#778CA2"/>
</svg>
