<svg width="32" height="32" viewBox="0 0 32 32" fill="none" xmlns="http://www.w3.org/2000/svg">
<path d="M15.9998 16C17.4726 16 18.6665 14.8061 18.6665 13.3333C18.6665 11.8606 17.4726 10.6667 15.9998 10.6667C14.5271 10.6667 13.3332 11.8606 13.3332 13.3333C13.3332 14.8061 14.5271 16 15.9998 16ZM15.9998 16C13.0543 16 10.6665 18.3878 10.6665 21.3333M15.9998 16C18.9454 16 21.3332 18.3878 21.3332 21.3333M14.6665 4H17.3332C23.9606 4 29.3332 9.37258 29.3332 16C29.3332 22.6274 23.9606 28 17.3332 28H7.99984C5.05432 28 2.6665 25.6122 2.6665 22.6667V16C2.6665 9.37258 8.03909 4 14.6665 4Z" stroke="#252631" stroke-width="1.5" stroke-linecap="round"/>
</svg>
