<svg width="33" height="32" viewBox="0 0 33 32" fill="none" xmlns="http://www.w3.org/2000/svg">
<path d="M19.333 28.75C19.7472 28.75 20.083 28.4142 20.083 28C20.083 27.5858 19.7472 27.25 19.333 27.25V28.75ZM29.2497 18.6667C29.2497 19.0809 29.5855 19.4167 29.9997 19.4167C30.4139 19.4167 30.7497 19.0809 30.7497 18.6667H29.2497ZM5.33301 28L4.73301 28.45C4.87465 28.6389 5.09694 28.75 5.33301 28.75C5.56908 28.75 5.79137 28.6389 5.93301 28.45L5.33301 28ZM4.39967 26.7556L3.79967 27.2056L3.79967 27.2056L4.39967 26.7556ZM6.26634 26.7556L6.86634 27.2056L6.86634 27.2056L6.26634 26.7556ZM3.33301 8.58333C2.91879 8.58333 2.58301 8.91912 2.58301 9.33333C2.58301 9.74755 2.91879 10.0833 3.33301 10.0833V8.58333ZM7.33301 10.0833C7.74722 10.0833 8.08301 9.74755 8.08301 9.33333C8.08301 8.91912 7.74722 8.58333 7.33301 8.58333V10.0833ZM16.6663 8.58333C16.2521 8.58333 15.9163 8.91912 15.9163 9.33333C15.9163 9.74755 16.2521 10.0833 16.6663 10.0833V8.58333ZM24.6663 10.0833C25.0806 10.0833 25.4163 9.74755 25.4163 9.33333C25.4163 8.91912 25.0806 8.58333 24.6663 8.58333V10.0833ZM16.6663 13.9167C16.2521 13.9167 15.9163 14.2525 15.9163 14.6667C15.9163 15.0809 16.2521 15.4167 16.6663 15.4167V13.9167ZM24.6663 15.4167C25.0806 15.4167 25.4163 15.0809 25.4163 14.6667C25.4163 14.2525 25.0806 13.9167 24.6663 13.9167V15.4167ZM16.6663 19.25C16.2521 19.25 15.9163 19.5858 15.9163 20C15.9163 20.4142 16.2521 20.75 16.6663 20.75V19.25ZM20.6663 20.75C21.0806 20.75 21.4163 20.4142 21.4163 20C21.4163 19.5858 21.0806 19.25 20.6663 19.25V20.75ZM22.4682 24.7477C22.1448 24.4889 21.6728 24.5414 21.414 24.8648C21.1553 25.1883 21.2077 25.6602 21.5312 25.919L22.4682 24.7477ZM24.3368 27.203L23.8682 27.7887L23.8682 27.7887L24.3368 27.203ZM26.1731 27.0399L25.6087 26.546L25.6087 26.546L26.1731 27.0399ZM30.5641 23.1605C30.8369 22.8488 30.8053 22.375 30.4936 22.1022C30.1818 21.8295 29.708 21.8611 29.4352 22.1728L30.5641 23.1605ZM16.6663 4.75H24.6663V3.25H16.6663V4.75ZM12.083 22.6667V9.33333H10.583V22.6667H12.083ZM19.333 27.25H16.6663V28.75H19.333V27.25ZM29.2497 9.33333V18.6667H30.7497V9.33333H29.2497ZM10.583 22.6667C10.583 26.0264 13.3066 28.75 16.6663 28.75V27.25C14.135 27.25 12.083 25.198 12.083 22.6667H10.583ZM24.6663 4.75C27.1976 4.75 29.2497 6.80203 29.2497 9.33333H30.7497C30.7497 5.9736 28.0261 3.25 24.6663 3.25V4.75ZM16.6663 3.25C13.3066 3.25 10.583 5.9736 10.583 9.33333H12.083C12.083 6.80203 14.135 4.75 16.6663 4.75V3.25ZM6.58301 6V23.5556H8.08301V6H6.58301ZM4.08301 23.5556V6H2.58301V23.5556H4.08301ZM5.66634 26.3056L4.73301 27.55L5.93301 28.45L6.86634 27.2056L5.66634 26.3056ZM5.93301 27.55L4.99967 26.3056L3.79967 27.2056L4.73301 28.45L5.93301 27.55ZM2.58301 23.5556C2.58301 24.8718 3.00992 26.1526 3.79967 27.2056L4.99967 26.3056C4.40466 25.5122 4.08301 24.5473 4.08301 23.5556H2.58301ZM6.58301 23.5556C6.58301 24.5473 6.26136 25.5122 5.66634 26.3056L6.86634 27.2056C7.65609 26.1526 8.08301 24.8718 8.08301 23.5556H6.58301ZM5.33301 4.75C6.02336 4.75 6.58301 5.30964 6.58301 6H8.08301C8.08301 4.48122 6.85179 3.25 5.33301 3.25V4.75ZM5.33301 3.25C3.81422 3.25 2.58301 4.48122 2.58301 6H4.08301C4.08301 5.30964 4.64265 4.75 5.33301 4.75V3.25ZM3.33301 10.0833H7.33301V8.58333H3.33301V10.0833ZM16.6663 10.0833H24.6663V8.58333H16.6663V10.0833ZM16.6663 15.4167H24.6663V13.9167H16.6663V15.4167ZM16.6663 20.75H20.6663V19.25H16.6663V20.75ZM21.5312 25.919L23.8682 27.7887L24.8053 26.6174L22.4682 24.7477L21.5312 25.919ZM26.7376 27.5337L30.5641 23.1605L29.4352 22.1728L25.6087 26.546L26.7376 27.5337ZM23.8682 27.7887C24.7388 28.4851 26.0034 28.3728 26.7376 27.5337L25.6087 26.546C25.4031 26.7809 25.0491 26.8124 24.8053 26.6174L23.8682 27.7887Z" fill="#252631"/>
</svg>
