<svg width="33" height="32" viewBox="0 0 33 32" fill="none" xmlns="http://www.w3.org/2000/svg">
<path d="M7.33301 11.0062C9.02071 11.2676 10.9034 11.7021 12.6663 12.3838M7.33301 16.3395C8.18566 16.4716 9.08807 16.6478 9.99967 16.8778M16.6663 8.07116V27.07M5.99211 4.01503C8.94995 4.34926 12.9238 5.24843 15.7554 7.2326C16.2996 7.61394 17.033 7.61394 17.5772 7.2326C20.4088 5.24843 24.3827 4.34926 27.3406 4.01503C28.8044 3.84961 29.9997 5.07203 29.9997 6.58024V21.5999C29.9997 23.1081 28.8044 24.331 27.3406 24.4964C24.3827 24.8307 20.4088 25.7298 17.5772 27.714C17.033 28.0953 16.2996 28.0953 15.7554 27.714C12.9238 25.7298 8.94995 24.8307 5.99211 24.4964C4.52824 24.331 3.33301 23.1081 3.33301 21.5999V6.58024C3.33301 5.07203 4.52824 3.84961 5.99211 4.01503Z" stroke="#252631" stroke-width="1.5" stroke-linecap="round"/>
</svg>
