<svg width="32" height="32" viewBox="0 0 32 32" fill="none" xmlns="http://www.w3.org/2000/svg">
<ellipse cx="16" cy="21.9998" rx="8" ry="3.33333" stroke="#778CA2" stroke-width="1.5" stroke-linejoin="round"/>
<circle cx="16" cy="10.6665" r="4" stroke="#778CA2" stroke-width="1.5" stroke-linejoin="round"/>
<path fill-rule="evenodd" clip-rule="evenodd" d="M8.11532 17.959C6.67825 18.0603 5.37146 18.339 4.34107 18.7512C3.68556 19.0134 3.10476 19.3444 2.67556 19.7503C2.24478 20.1577 1.91699 20.6923 1.91699 21.3332C1.91699 21.974 2.24478 22.5087 2.67556 22.9161C3.10476 23.322 3.68556 23.6529 4.34107 23.9151C4.90979 24.1426 5.56271 24.3295 6.27527 24.4682C5.83416 23.9192 5.53567 23.3262 5.40636 22.7041C5.22756 22.647 5.05788 22.5863 4.89816 22.5224C4.34724 22.3021 3.95173 22.0584 3.70622 21.8262C3.4623 21.5956 3.41699 21.4287 3.41699 21.3332C3.41699 21.2376 3.4623 21.0708 3.70622 20.8401C3.95173 20.6079 4.34724 20.3643 4.89816 20.1439C5.25093 20.0028 5.65226 19.8773 6.09326 19.7719C6.57206 19.0988 7.26134 18.4859 8.11532 17.959Z" fill="#778CA2"/>
<path fill-rule="evenodd" clip-rule="evenodd" d="M26.5937 22.7041C26.4644 23.3262 26.1659 23.9192 25.7248 24.4682C26.4374 24.3295 27.0903 24.1426 27.659 23.9151C28.3145 23.6529 28.8953 23.322 29.3245 22.9161C29.7553 22.5087 30.0831 21.974 30.0831 21.3332C30.0831 20.6923 29.7553 20.1577 29.3245 19.7503C28.8953 19.3444 28.3145 19.0134 27.659 18.7512C26.6286 18.339 25.3218 18.0604 23.8848 17.959C24.7387 18.4859 25.428 19.0988 25.9068 19.7719C26.3478 19.8773 26.7492 20.0028 27.1019 20.1439C27.6528 20.3643 28.0484 20.6079 28.2939 20.8401C28.5378 21.0708 28.5831 21.2376 28.5831 21.3332C28.5831 21.4287 28.5378 21.5956 28.2939 21.8262C28.0484 22.0584 27.6528 22.3021 27.1019 22.5224C26.9422 22.5863 26.7725 22.647 26.5937 22.7041Z" fill="#778CA2"/>
<path fill-rule="evenodd" clip-rule="evenodd" d="M21.9068 13.7604C21.6703 14.2109 21.3838 14.6311 21.0547 15.0135C21.5348 15.2709 22.0836 15.4168 22.6664 15.4168C24.5534 15.4168 26.0831 13.8871 26.0831 12.0002C26.0831 10.1132 24.5534 8.5835 22.6664 8.5835C22.5562 8.5835 22.4471 8.58872 22.3395 8.59893C22.494 9.07273 22.5968 9.56986 22.6413 10.0837C22.6497 10.0836 22.658 10.0835 22.6664 10.0835C23.725 10.0835 24.5831 10.9416 24.5831 12.0002C24.5831 13.0587 23.725 13.9168 22.6664 13.9168C22.3966 13.9168 22.1397 13.861 21.9068 13.7604Z" fill="#778CA2"/>
<path fill-rule="evenodd" clip-rule="evenodd" d="M9.66059 8.59893C9.55299 8.58872 9.44393 8.5835 9.33366 8.5835C7.44669 8.5835 5.91699 10.1132 5.91699 12.0002C5.91699 13.8871 7.44669 15.4168 9.33366 15.4168C9.91652 15.4168 10.4653 15.2709 10.9454 15.0135C10.6163 14.6311 10.3298 14.2109 10.0933 13.7604C9.86041 13.861 9.60355 13.9168 9.33366 13.9168C8.27511 13.9168 7.41699 13.0587 7.41699 12.0002C7.41699 10.9416 8.27511 10.0835 9.33366 10.0835C9.34206 10.0835 9.35044 10.0836 9.35881 10.0837C9.40334 9.56986 9.50615 9.07273 9.66059 8.59893Z" fill="#778CA2"/>
</svg>
