<svg width="32" height="32" viewBox="0 0 32 32" fill="none" xmlns="http://www.w3.org/2000/svg">
<ellipse cx="16" cy="21.9998" rx="8" ry="3.33333" stroke="#252631" stroke-width="1.5" stroke-linejoin="round"/>
<circle cx="16" cy="10.6665" r="4" stroke="#252631" stroke-width="1.5" stroke-linejoin="round"/>
<path fill-rule="evenodd" clip-rule="evenodd" d="M8.11483 17.959C6.67776 18.0603 5.37097 18.339 4.34058 18.7512C3.68507 19.0134 3.10427 19.3444 2.67507 19.7503C2.24429 20.1577 1.9165 20.6923 1.9165 21.3332C1.9165 21.974 2.24429 22.5087 2.67507 22.9161C3.10427 23.322 3.68507 23.6529 4.34058 23.9151C4.9093 24.1426 5.56222 24.3295 6.27478 24.4682C5.83367 23.9192 5.53518 23.3262 5.40587 22.7041C5.22707 22.647 5.05739 22.5863 4.89767 22.5224C4.34675 22.3021 3.95124 22.0584 3.70573 21.8262C3.46181 21.5956 3.4165 21.4287 3.4165 21.3332C3.4165 21.2376 3.46181 21.0708 3.70573 20.8401C3.95124 20.6079 4.34675 20.3643 4.89767 20.1439C5.25044 20.0028 5.65177 19.8773 6.09277 19.7719C6.57157 19.0988 7.26085 18.4859 8.11483 17.959Z" fill="#252631"/>
<path fill-rule="evenodd" clip-rule="evenodd" d="M26.5942 22.7041C26.4649 23.3262 26.1664 23.9192 25.7253 24.4682C26.4379 24.3295 27.0908 24.1426 27.6595 23.9151C28.315 23.6529 28.8958 23.322 29.325 22.9161C29.7558 22.5087 30.0836 21.974 30.0836 21.3332C30.0836 20.6923 29.7558 20.1577 29.325 19.7503C28.8958 19.3444 28.315 19.0134 27.6595 18.7512C26.6291 18.339 25.3223 18.0604 23.8853 17.959C24.7392 18.4859 25.4285 19.0988 25.9073 19.7719C26.3483 19.8773 26.7496 20.0028 27.1024 20.1439C27.6533 20.3643 28.0488 20.6079 28.2943 20.8401C28.5383 21.0708 28.5836 21.2376 28.5836 21.3332C28.5836 21.4287 28.5383 21.5956 28.2943 21.8262C28.0488 22.0584 27.6533 22.3021 27.1024 22.5224C26.9427 22.5863 26.773 22.647 26.5942 22.7041Z" fill="#252631"/>
<path fill-rule="evenodd" clip-rule="evenodd" d="M21.9068 13.7604C21.6703 14.2109 21.3838 14.6311 21.0547 15.0135C21.5348 15.2709 22.0836 15.4168 22.6664 15.4168C24.5534 15.4168 26.0831 13.8871 26.0831 12.0002C26.0831 10.1132 24.5534 8.5835 22.6664 8.5835C22.5562 8.5835 22.4471 8.58872 22.3395 8.59893C22.494 9.07273 22.5968 9.56986 22.6413 10.0837C22.6497 10.0836 22.658 10.0835 22.6664 10.0835C23.725 10.0835 24.5831 10.9416 24.5831 12.0002C24.5831 13.0587 23.725 13.9168 22.6664 13.9168C22.3966 13.9168 22.1397 13.861 21.9068 13.7604Z" fill="#252631"/>
<path fill-rule="evenodd" clip-rule="evenodd" d="M9.6601 8.59893C9.5525 8.58872 9.44344 8.5835 9.33317 8.5835C7.4462 8.5835 5.9165 10.1132 5.9165 12.0002C5.9165 13.8871 7.4462 15.4168 9.33317 15.4168C9.91603 15.4168 10.4648 15.2709 10.9449 15.0135C10.6158 14.6311 10.3293 14.2109 10.0929 13.7604C9.85992 13.861 9.60306 13.9168 9.33317 13.9168C8.27462 13.9168 7.4165 13.0587 7.4165 12.0002C7.4165 10.9416 8.27462 10.0835 9.33317 10.0835C9.34157 10.0835 9.34995 10.0836 9.35833 10.0837C9.40285 9.56986 9.50566 9.07273 9.6601 8.59893Z" fill="#252631"/>
</svg>
