<svg width="32" height="32" viewBox="0 0 32 32" fill="none" xmlns="http://www.w3.org/2000/svg">
<path d="M26.667 29.3332H6.66699C4.45785 29.3332 2.66699 27.5423 2.66699 25.3332V6.6665C2.66699 4.45736 4.45785 2.6665 6.66699 2.6665H20.0003C22.2095 2.6665 24.0003 4.45737 24.0003 6.6665V10.6665M26.667 29.3332C25.1942 29.3332 24.0003 28.1393 24.0003 26.6665V10.6665M26.667 29.3332C28.1398 29.3332 29.3337 28.1393 29.3337 26.6665V13.3332C29.3337 11.8604 28.1398 10.6665 26.667 10.6665H24.0003M8.00033 9.33317H18.667M8.00033 15.9998H18.667M8.00033 22.6665H13.3337" stroke="#778CA2" stroke-width="1.5" stroke-linecap="round" stroke-linejoin="round"/>
</svg>
