<svg width="50" height="24" viewBox="0 0 50 24" fill="none" xmlns="http://www.w3.org/2000/svg">
<path d="M4.00016 9.33333H2.66683C1.93045 9.33333 1.3335 9.93029 1.3335 10.6667V16.6667C1.3335 17.403 1.93045 18 2.66683 18H4.00016C4.73654 18 5.3335 17.403 5.3335 16.6667V10.6667C5.3335 9.93029 4.73654 9.33333 4.00016 9.33333Z" stroke="#98A9BC" stroke-width="1.5" stroke-linecap="round" stroke-linejoin="round"/>
<path d="M10.5848 18H8.1409C7.61443 18 7.09974 17.8442 6.6617 17.5521L5.63036 16.8646C5.4449 16.7409 5.3335 16.5328 5.3335 16.3099V10.8437C5.3335 10.7277 5.36377 10.6137 5.42133 10.513L8.00016 6H8.88597C10.2171 6 11.0111 7.48357 10.2727 8.59117L9.3335 10H12.9591C13.8266 10 14.463 10.8152 14.2527 11.6567L13.1718 15.9801C12.875 17.1672 11.8084 18 10.5848 18Z" stroke="#98A9BC" stroke-width="1.5" stroke-linecap="round" stroke-linejoin="round"/>
<path d="M25.54 17C25.4373 17 25.358 16.972 25.302 16.916C25.246 16.8507 25.218 16.7713 25.218 16.678V7.522C25.218 7.42867 25.246 7.354 25.302 7.298C25.358 7.23267 25.4373 7.2 25.54 7.2H26.282C26.3753 7.2 26.45 7.23267 26.506 7.298C26.562 7.354 26.59 7.42867 26.59 7.522V15.782H31.252C31.3547 15.782 31.434 15.8147 31.49 15.88C31.546 15.936 31.574 16.0153 31.574 16.118V16.678C31.574 16.7713 31.546 16.8507 31.49 16.916C31.434 16.972 31.3547 17 31.252 17H25.54ZM33.2467 17C33.1533 17 33.074 16.972 33.0087 16.916C32.9527 16.8507 32.9247 16.7713 32.9247 16.678V10.042C32.9247 9.94867 32.9527 9.874 33.0087 9.818C33.074 9.75267 33.1533 9.72 33.2467 9.72H33.9187C34.012 9.72 34.0867 9.75267 34.1427 9.818C34.1987 9.874 34.2267 9.94867 34.2267 10.042V16.678C34.2267 16.7713 34.1987 16.8507 34.1427 16.916C34.0867 16.972 34.012 17 33.9187 17H33.2467ZM33.1347 8.362C33.0413 8.362 32.962 8.334 32.8967 8.278C32.8407 8.21267 32.8127 8.13333 32.8127 8.04V7.284C32.8127 7.19067 32.8407 7.116 32.8967 7.06C32.962 6.99467 33.0413 6.962 33.1347 6.962H34.0167C34.11 6.962 34.1847 6.99467 34.2407 7.06C34.306 7.116 34.3387 7.19067 34.3387 7.284V8.04C34.3387 8.13333 34.306 8.21267 34.2407 8.278C34.1847 8.334 34.11 8.362 34.0167 8.362H33.1347ZM36.6513 17C36.558 17 36.4786 16.972 36.4133 16.916C36.3573 16.8507 36.3293 16.7713 36.3293 16.678V7.382C36.3293 7.28867 36.3573 7.214 36.4133 7.158C36.4786 7.09267 36.558 7.06 36.6513 7.06H37.3093C37.4026 7.06 37.4773 7.09267 37.5333 7.158C37.5986 7.214 37.6313 7.28867 37.6313 7.382V12.254L40.3893 9.958C40.5013 9.86467 40.5853 9.804 40.6413 9.776C40.7066 9.73867 40.8093 9.72 40.9493 9.72H41.6913C41.7753 9.72 41.8453 9.748 41.9013 9.804C41.9573 9.86 41.9853 9.93 41.9853 10.014C41.9853 10.0513 41.9713 10.0933 41.9433 10.14C41.9246 10.1867 41.8826 10.2333 41.8173 10.28L38.5833 12.968L42.1673 16.454C42.2793 16.5473 42.3353 16.6313 42.3353 16.706C42.3353 16.79 42.3073 16.86 42.2513 16.916C42.1953 16.972 42.1253 17 42.0413 17H41.3133C41.1733 17 41.0706 16.986 41.0053 16.958C40.94 16.9207 40.856 16.8553 40.7533 16.762L37.6313 13.78V16.678C37.6313 16.7713 37.5986 16.8507 37.5333 16.916C37.4773 16.972 37.4026 17 37.3093 17H36.6513ZM46.0903 17.14C45.1289 17.14 44.3636 16.846 43.7943 16.258C43.2249 15.6607 42.9123 14.8487 42.8563 13.822C42.8469 13.7007 42.8423 13.5467 42.8423 13.36C42.8423 13.164 42.8469 13.0053 42.8563 12.884C42.8936 12.2213 43.0476 11.6427 43.3183 11.148C43.5889 10.644 43.9576 10.2567 44.4243 9.986C44.9003 9.71533 45.4556 9.58 46.0903 9.58C46.7996 9.58 47.3923 9.72933 47.8683 10.028C48.3536 10.3267 48.7223 10.7513 48.9743 11.302C49.2263 11.8527 49.3522 12.4967 49.3522 13.234V13.472C49.3522 13.5747 49.3196 13.654 49.2543 13.71C49.1983 13.766 49.1236 13.794 49.0303 13.794H44.1863C44.1863 13.8033 44.1863 13.822 44.1863 13.85C44.1863 13.878 44.1863 13.9013 44.1863 13.92C44.2049 14.3027 44.2889 14.662 44.4383 14.998C44.5876 15.3247 44.8023 15.5907 45.0823 15.796C45.3623 16.0013 45.6983 16.104 46.0903 16.104C46.4263 16.104 46.7063 16.0527 46.9303 15.95C47.1543 15.8473 47.3363 15.7353 47.4763 15.614C47.6163 15.4833 47.7096 15.3853 47.7563 15.32C47.8403 15.1987 47.9056 15.1287 47.9523 15.11C47.9989 15.082 48.0736 15.068 48.1763 15.068H48.8483C48.9416 15.068 49.0163 15.096 49.0723 15.152C49.1376 15.1987 49.1656 15.2687 49.1562 15.362C49.1469 15.502 49.0723 15.6747 48.9323 15.88C48.7923 16.076 48.5916 16.272 48.3303 16.468C48.0689 16.664 47.7516 16.8273 47.3783 16.958C47.0049 17.0793 46.5756 17.14 46.0903 17.14ZM44.1863 12.828H48.0223V12.786C48.0223 12.366 47.9429 11.9927 47.7843 11.666C47.6349 11.3393 47.4156 11.0827 47.1263 10.896C46.8369 10.7 46.4916 10.602 46.0903 10.602C45.6889 10.602 45.3436 10.7 45.0543 10.896C44.7743 11.0827 44.5596 11.3393 44.4103 11.666C44.2609 11.9927 44.1863 12.366 44.1863 12.786V12.828Z" fill="#98A9BC"/>
</svg>
