<svg width="32" height="32" viewBox="0 0 32 32" fill="none" xmlns="http://www.w3.org/2000/svg">
<path d="M12.0003 18.6665C14.2095 18.6665 16.0003 20.4574 16.0003 22.6665C16.0003 23.4029 15.4034 23.9998 14.667 23.9998H9.33366C8.59728 23.9998 8.00033 23.4029 8.00033 22.6665C8.00033 20.4574 9.79119 18.6665 12.0003 18.6665ZM12.0003 18.6665C13.4731 18.6665 14.667 17.4726 14.667 15.9998C14.667 14.5271 13.4731 13.3332 12.0003 13.3332C10.5276 13.3332 9.33366 14.5271 9.33366 15.9998C9.33366 17.4726 10.5276 18.6665 12.0003 18.6665ZM24.0003 15.9998L20.0003 15.9998M24.0003 21.3332L20.0003 21.3332M6.66699 29.3332H25.3337C27.5428 29.3332 29.3337 27.5423 29.3337 25.3332V11.9998C29.3337 9.7907 27.5428 7.99984 25.3337 7.99984H6.66699C4.45785 7.99984 2.66699 9.7907 2.66699 11.9998V25.3332C2.66699 27.5423 4.45785 29.3332 6.66699 29.3332ZM18.667 7.99984V5.33317C18.667 3.86041 17.4731 2.6665 16.0003 2.6665C14.5276 2.6665 13.3337 3.86041 13.3337 5.33317V7.99984H18.667Z" stroke="#778CA2" stroke-width="1.5" stroke-linecap="round"/>
</svg>
