<svg width="33" height="32" viewBox="0 0 33 32" fill="none" xmlns="http://www.w3.org/2000/svg">
<path d="M13.8774 4.36172C14.9503 2.10143 18.0503 2.10143 19.1232 4.36172L20.9775 8.26807C21.4036 9.16564 22.2271 9.78775 23.1798 9.93168L27.3261 10.5581C29.7252 10.9205 30.6832 13.9859 28.9472 15.7453L25.9469 18.786C25.2575 19.4846 24.9429 20.4912 25.1057 21.4777L25.8139 25.7712C26.2238 28.2555 23.7158 30.15 21.57 28.9771L17.8614 26.95C17.0093 26.4842 15.9913 26.4842 15.1392 26.95L11.4307 28.9771C9.28485 30.15 6.77689 28.2555 7.18671 25.7712L7.89498 21.4777C8.05772 20.4912 7.74314 19.4846 7.05377 18.786L4.05349 15.7453C2.31748 13.9859 3.27543 10.9205 5.67454 10.5581L9.82082 9.93168C10.7735 9.78775 11.5971 9.16564 12.0231 8.26807L13.8774 4.36172Z" stroke="#778CA2" stroke-width="1.5" stroke-linejoin="round"/>
</svg>
