<svg width="25" height="24" viewBox="0 0 25 24" fill="none" xmlns="http://www.w3.org/2000/svg">
<path d="M2.375 21C2.875 20.0909 4.775 18.2727 8.375 18.2727C11.975 18.2727 13.875 16.0909 14.375 15M8.375 8V5C8.375 3.89543 9.27043 3 10.375 3H20.375C21.4796 3 22.375 3.89543 22.375 5V13C22.375 14.1046 21.4796 15 20.375 15H17.1147M12.375 7H18.375M10.375 13C10.375 14.1046 9.47957 15 8.375 15C7.27043 15 6.375 14.1046 6.375 13C6.375 11.8954 7.27043 11 8.375 11C9.47957 11 10.375 11.8954 10.375 13Z" stroke="#778CA2" stroke-width="1.5" stroke-linecap="round"/>
<path d="M15.375 11H18.375" stroke="#778CA2" stroke-width="1.5" stroke-linecap="round"/>
</svg>
