<svg width="33" height="32" viewBox="0 0 33 32" fill="none" xmlns="http://www.w3.org/2000/svg">
<path d="M24.9014 25.2374L25.7287 24.7474C27.4436 23.7319 28.5 21.855 28.5 19.8239V12.1757C28.5 10.1446 27.4436 8.26782 25.7287 7.25227L19.2713 3.42817C17.5564 2.41262 15.4436 2.41262 13.7287 3.42817L7.27128 7.25227C5.55641 8.26782 4.5 10.1446 4.5 12.1757V19.8239C4.5 21.855 5.55641 23.7319 7.27128 24.7474L8.09861 25.2374M24.9014 25.2374L19.2713 28.5715C17.5564 29.5871 15.4436 29.5871 13.7287 28.5715L8.09861 25.2374M24.9014 25.2374C23.2242 22.2641 20.0898 20.2637 16.5 20.2637C12.9102 20.2637 9.77582 22.2641 8.09861 25.2374" stroke="#778CA2" stroke-width="1.5" stroke-linejoin="round"/>
<circle cx="4" cy="4" r="4" transform="matrix(1 0 0 -1 12.5 16)" stroke="#778CA2" stroke-width="1.5" stroke-linejoin="round"/>
</svg>
