<svg width="33" height="32" viewBox="0 0 33 32" fill="none" xmlns="http://www.w3.org/2000/svg">
<path d="M23.4968 10.897L22.7669 11.0696L23.4968 10.897ZM13.3704 4.75H14.8519V3.25H13.3704V4.75ZM3.75 19V14.5H2.25V19H3.75ZM2.25 19C2.25 21.0623 3.90359 22.75 5.96296 22.75V21.25C4.74953 21.25 3.75 20.2515 3.75 19H2.25ZM22.9907 13C22.9907 17.5652 19.3381 21.25 14.8519 21.25V22.75C20.184 22.75 24.4907 18.376 24.4907 13H22.9907ZM13.3704 3.25C7.22 3.25 2.25 8.29561 2.25 14.5H3.75C3.75 9.10641 8.06594 4.75 13.3704 4.75V3.25ZM30.4167 25V20.5H28.9167V25H30.4167ZM17.8148 28.75H26.7037V27.25H17.8148V28.75ZM28.9167 25C28.9167 26.2515 27.9171 27.25 26.7037 27.25V28.75C28.7631 28.75 30.4167 27.0623 30.4167 25H28.9167ZM23.1895 11.5812C26.5608 13.0952 28.9167 16.5168 28.9167 20.5H30.4167C30.4167 15.9129 27.702 11.9633 23.804 10.2128L23.1895 11.5812ZM14.8519 4.75C18.6843 4.75 21.9083 7.43824 22.7669 11.0696L24.2266 10.7244C23.2145 6.44351 19.4074 3.25 14.8519 3.25V4.75ZM22.7669 11.0696C22.9131 11.6881 22.9907 12.3343 22.9907 13H24.4907C24.4907 12.2173 24.3994 11.4553 24.2266 10.7244L22.7669 11.0696ZM8.72363 22.2472C10.0441 26.0298 13.6109 28.75 17.8148 28.75V27.25C14.2781 27.25 11.2599 24.9614 10.1398 21.7528L8.72363 22.2472ZM14.8519 21.25H9.43172V22.75H14.8519V21.25ZM9.43172 21.25H5.96296V22.75H9.43172V21.25Z" fill="#252631"/>
</svg>
