<svg width="343" height="136" viewBox="0 0 343 136" fill="none" xmlns="http://www.w3.org/2000/svg">
<rect width="343" height="136" rx="8" fill="#F1F6FF"/>
<path d="M166.167 29.3332C166.167 27.8604 167.36 26.6665 168.833 26.6665H179.5C180.973 26.6665 182.167 27.8604 182.167 29.3332V39.9998C182.167 41.4726 180.973 42.6665 179.5 42.6665H168.833C167.36 42.6665 166.167 41.4726 166.167 39.9998V29.3332Z" stroke="#4D7CFE" stroke-width="1.5" stroke-linejoin="round"/>
<path d="M164.833 46.6667C164.833 48.1394 163.639 49.3333 162.167 49.3333C160.694 49.3333 159.5 48.1394 159.5 46.6667C159.5 45.1939 160.694 44 162.167 44C163.639 44 164.833 45.1939 164.833 46.6667Z" stroke="#4D7CFE" stroke-width="1.5"/>
<path d="M162.167 43.9998V25.3332C162.167 23.8604 160.973 22.6665 159.5 22.6665H158.167" stroke="#4D7CFE" stroke-width="1.5" stroke-linecap="round" stroke-linejoin="round"/>
<path d="M164.833 46.6665H184.833" stroke="#4D7CFE" stroke-width="1.5" stroke-linecap="round" stroke-linejoin="round"/>
<path d="M172.833 30.6665H175.5" stroke="#4D7CFE" stroke-width="1.5" stroke-linecap="round" stroke-linejoin="round"/>
<path d="M49.594 85C49.5007 85 49.4213 84.9673 49.356 84.902C49.2907 84.8367 49.258 84.7573 49.258 84.664V75.536C49.258 75.4427 49.2907 75.3633 49.356 75.298C49.4213 75.2327 49.5007 75.2 49.594 75.2H50.896C50.9893 75.2 51.0687 75.2327 51.134 75.298C51.1993 75.3633 51.232 75.4427 51.232 75.536V83.334H55.67C55.7727 83.334 55.8567 83.3667 55.922 83.432C55.9873 83.4973 56.02 83.5813 56.02 83.684V84.664C56.02 84.7573 55.9873 84.8367 55.922 84.902C55.8567 84.9673 55.7727 85 55.67 85H49.594ZM56.7771 85C56.7024 85 56.6324 84.972 56.5671 84.916C56.5111 84.86 56.4831 84.79 56.4831 84.706C56.4831 84.6687 56.4924 84.6267 56.5111 84.58L59.8851 75.55C59.9131 75.4567 59.9644 75.3773 60.0391 75.312C60.1231 75.2373 60.2351 75.2 60.3751 75.2H61.9011C62.0411 75.2 62.1484 75.2373 62.2231 75.312C62.2978 75.3773 62.3538 75.4567 62.3911 75.55L65.7651 84.58C65.7744 84.6267 65.7791 84.6687 65.7791 84.706C65.7791 84.79 65.7511 84.86 65.6951 84.916C65.6391 84.972 65.5738 85 65.4991 85H64.2811C64.1504 85 64.0524 84.972 63.9871 84.916C63.9311 84.8507 63.8938 84.79 63.8751 84.734L63.2171 83.026H59.0591L58.4011 84.734C58.3824 84.79 58.3404 84.8507 58.2751 84.916C58.2191 84.972 58.1258 85 57.9951 85H56.7771ZM59.5491 81.416H62.7271L61.1311 77.09L59.5491 81.416ZM67.4221 85C67.3288 85 67.2495 84.9673 67.1841 84.902C67.1188 84.8367 67.0861 84.7573 67.0861 84.664V75.55C67.0861 75.4473 67.1188 75.3633 67.1841 75.298C67.2495 75.2327 67.3288 75.2 67.4221 75.2H71.1741C71.9021 75.2 72.5368 75.3167 73.0781 75.55C73.6195 75.774 74.0395 76.1193 74.3381 76.586C74.6368 77.0433 74.7861 77.6173 74.7861 78.308C74.7861 79.008 74.6368 79.5867 74.3381 80.044C74.0395 80.492 73.6195 80.828 73.0781 81.052C72.5368 81.276 71.9021 81.388 71.1741 81.388H69.0881V84.664C69.0881 84.7573 69.0555 84.8367 68.9901 84.902C68.9341 84.9673 68.8548 85 68.7521 85H67.4221ZM69.0601 79.834H71.1041C71.6455 79.834 72.0608 79.708 72.3501 79.456C72.6395 79.1947 72.7841 78.812 72.7841 78.308C72.7841 77.8413 72.6488 77.468 72.3781 77.188C72.1075 76.8987 71.6828 76.754 71.1041 76.754H69.0601V79.834ZM80.0807 85.14C79.25 85.14 78.536 85.0047 77.9387 84.734C77.3413 84.454 76.8747 84.0293 76.5387 83.46C76.2027 82.8813 76.0207 82.1627 75.9927 81.304C75.9833 80.9027 75.9787 80.506 75.9787 80.114C75.9787 79.722 75.9833 79.3207 75.9927 78.91C76.0207 78.0607 76.2073 77.3513 76.5527 76.782C76.898 76.2127 77.3693 75.7833 77.9667 75.494C78.5733 75.2047 79.278 75.06 80.0807 75.06C80.8833 75.06 81.588 75.2047 82.1947 75.494C82.8013 75.7833 83.2773 76.2127 83.6227 76.782C83.968 77.3513 84.1547 78.0607 84.1827 78.91C84.2013 79.3207 84.2107 79.722 84.2107 80.114C84.2107 80.506 84.2013 80.9027 84.1827 81.304C84.1547 82.1627 83.9727 82.8813 83.6367 83.46C83.3007 84.0293 82.8293 84.454 82.2227 84.734C81.6253 85.0047 80.9113 85.14 80.0807 85.14ZM80.0807 83.53C80.6873 83.53 81.182 83.3527 81.5647 82.998C81.9473 82.634 82.1527 82.046 82.1807 81.234C82.1993 80.8233 82.2087 80.4453 82.2087 80.1C82.2087 79.7453 82.1993 79.3673 82.1807 78.966C82.162 78.4247 82.0593 77.986 81.8727 77.65C81.6953 77.3047 81.4527 77.0573 81.1447 76.908C80.8367 76.7493 80.482 76.67 80.0807 76.67C79.6887 76.67 79.3387 76.7493 79.0307 76.908C78.7227 77.0573 78.4753 77.3047 78.2887 77.65C78.1113 77.986 78.0133 78.4247 77.9947 78.966C77.9853 79.3673 77.9807 79.7453 77.9807 80.1C77.9807 80.4453 77.9853 80.8233 77.9947 81.234C78.0227 82.046 78.228 82.634 78.6107 82.998C78.9933 83.3527 79.4833 83.53 80.0807 83.53ZM86.385 85C86.2917 85 86.2124 84.9673 86.147 84.902C86.0817 84.8367 86.049 84.7573 86.049 84.664V75.55C86.049 75.4473 86.0817 75.3633 86.147 75.298C86.2124 75.2327 86.2917 75.2 86.385 75.2H90.011C91.1404 75.2 92.0317 75.4613 92.685 75.984C93.3384 76.5067 93.665 77.2673 93.665 78.266C93.665 78.9567 93.4924 79.5307 93.147 79.988C92.811 80.4453 92.3584 80.7767 91.789 80.982L93.833 84.552C93.861 84.608 93.875 84.6593 93.875 84.706C93.875 84.79 93.8424 84.86 93.777 84.916C93.721 84.972 93.6557 85 93.581 85H92.307C92.1484 85 92.027 84.958 91.943 84.874C91.859 84.79 91.7937 84.706 91.747 84.622L89.941 81.304H87.995V84.664C87.995 84.7573 87.9624 84.8367 87.897 84.902C87.841 84.9673 87.7617 85 87.659 85H86.385ZM87.995 79.722H89.969C90.5384 79.722 90.963 79.596 91.243 79.344C91.523 79.0827 91.663 78.7187 91.663 78.252C91.663 77.7853 91.523 77.4213 91.243 77.16C90.9724 76.8893 90.5477 76.754 89.969 76.754H87.995V79.722ZM94.867 85C94.7923 85 94.7223 84.972 94.657 84.916C94.601 84.86 94.573 84.79 94.573 84.706C94.573 84.6687 94.5823 84.6267 94.601 84.58L97.975 75.55C98.003 75.4567 98.0543 75.3773 98.129 75.312C98.213 75.2373 98.325 75.2 98.465 75.2H99.991C100.131 75.2 100.238 75.2373 100.313 75.312C100.388 75.3773 100.444 75.4567 100.481 75.55L103.855 84.58C103.864 84.6267 103.869 84.6687 103.869 84.706C103.869 84.79 103.841 84.86 103.785 84.916C103.729 84.972 103.664 85 103.589 85H102.371C102.24 85 102.142 84.972 102.077 84.916C102.021 84.8507 101.984 84.79 101.965 84.734L101.307 83.026H97.149L96.491 84.734C96.4723 84.79 96.4303 84.8507 96.365 84.916C96.309 84.972 96.2156 85 96.085 85H94.867ZM97.639 81.416H100.817L99.221 77.09L97.639 81.416ZM105.512 85C105.419 85 105.339 84.9673 105.274 84.902C105.209 84.8367 105.176 84.7573 105.176 84.664V75.55C105.176 75.4473 105.209 75.3633 105.274 75.298C105.339 75.2327 105.419 75.2 105.512 75.2H106.59C106.721 75.2 106.814 75.2327 106.87 75.298C106.935 75.354 106.977 75.396 106.996 75.424L111.028 81.696V75.55C111.028 75.4473 111.056 75.3633 111.112 75.298C111.177 75.2327 111.261 75.2 111.364 75.2H112.54C112.643 75.2 112.727 75.2327 112.792 75.298C112.857 75.3633 112.89 75.4473 112.89 75.55V84.65C112.89 84.7527 112.857 84.8367 112.792 84.902C112.727 84.9673 112.647 85 112.554 85H111.462C111.331 85 111.238 84.9673 111.182 84.902C111.126 84.8367 111.084 84.7947 111.056 84.776L107.038 78.644V84.664C107.038 84.7573 107.005 84.8367 106.94 84.902C106.875 84.9673 106.791 85 106.688 85H105.512ZM121.676 85.14C120.808 85.14 120.08 85.014 119.492 84.762C118.913 84.5007 118.47 84.1647 118.162 83.754C117.863 83.334 117.704 82.8953 117.686 82.438C117.686 82.354 117.714 82.284 117.77 82.228C117.826 82.172 117.896 82.144 117.98 82.144H119.226C119.347 82.144 119.436 82.172 119.492 82.228C119.557 82.2747 119.613 82.3353 119.66 82.41C119.716 82.5873 119.823 82.7647 119.982 82.942C120.14 83.11 120.355 83.25 120.626 83.362C120.906 83.474 121.256 83.53 121.676 83.53C122.348 83.53 122.847 83.418 123.174 83.194C123.51 82.97 123.678 82.6667 123.678 82.284C123.678 82.0133 123.589 81.7987 123.412 81.64C123.234 81.472 122.959 81.3227 122.586 81.192C122.222 81.052 121.736 80.9073 121.13 80.758C120.43 80.59 119.842 80.3893 119.366 80.156C118.899 79.9133 118.544 79.61 118.302 79.246C118.068 78.882 117.952 78.42 117.952 77.86C117.952 77.3187 118.096 76.838 118.386 76.418C118.684 75.998 119.104 75.6667 119.646 75.424C120.196 75.1813 120.85 75.06 121.606 75.06C122.212 75.06 122.749 75.144 123.216 75.312C123.682 75.4707 124.07 75.6853 124.378 75.956C124.686 76.2173 124.919 76.502 125.078 76.81C125.246 77.1087 125.334 77.4027 125.344 77.692C125.344 77.7667 125.316 77.8367 125.26 77.902C125.213 77.958 125.143 77.986 125.05 77.986H123.748C123.673 77.986 123.598 77.9673 123.524 77.93C123.449 77.8927 123.388 77.8227 123.342 77.72C123.286 77.4307 123.104 77.1833 122.796 76.978C122.488 76.7727 122.091 76.67 121.606 76.67C121.102 76.67 120.696 76.7633 120.388 76.95C120.08 77.1367 119.926 77.426 119.926 77.818C119.926 78.0793 120 78.2987 120.15 78.476C120.308 78.644 120.556 78.7933 120.892 78.924C121.237 79.0547 121.69 79.1947 122.25 79.344C123.043 79.5213 123.692 79.7267 124.196 79.96C124.7 80.1933 125.068 80.492 125.302 80.856C125.535 81.2107 125.652 81.6633 125.652 82.214C125.652 82.83 125.484 83.3573 125.148 83.796C124.821 84.2253 124.359 84.5567 123.762 84.79C123.164 85.0233 122.469 85.14 121.676 85.14ZM129.785 85C129.692 85 129.613 84.9673 129.547 84.902C129.482 84.8367 129.449 84.7573 129.449 84.664V81.5L126.145 75.648C126.136 75.6293 126.127 75.606 126.117 75.578C126.108 75.55 126.103 75.522 126.103 75.494C126.103 75.41 126.131 75.34 126.187 75.284C126.243 75.228 126.309 75.2 126.383 75.2H127.629C127.741 75.2 127.83 75.228 127.895 75.284C127.97 75.34 128.021 75.4007 128.049 75.466L130.429 79.54L132.795 75.466C132.833 75.4007 132.884 75.34 132.949 75.284C133.024 75.228 133.117 75.2 133.229 75.2H134.461C134.545 75.2 134.615 75.228 134.671 75.284C134.727 75.34 134.755 75.41 134.755 75.494C134.755 75.522 134.751 75.55 134.741 75.578C134.741 75.606 134.732 75.6293 134.713 75.648L131.409 81.5V84.664C131.409 84.7573 131.377 84.8367 131.311 84.902C131.246 84.9673 131.162 85 131.059 85H129.785ZM136.506 85C136.413 85 136.333 84.9673 136.268 84.902C136.203 84.8367 136.17 84.7573 136.17 84.664V75.536C136.17 75.4427 136.203 75.3633 136.268 75.298C136.333 75.2327 136.413 75.2 136.506 75.2H137.822C137.925 75.2 138.004 75.2327 138.06 75.298C138.125 75.3633 138.158 75.4427 138.158 75.536V84.664C138.158 84.7573 138.125 84.8367 138.06 84.902C138.004 84.9673 137.925 85 137.822 85H136.506ZM140.69 85C140.596 85 140.517 84.9673 140.452 84.902C140.386 84.8367 140.354 84.7573 140.354 84.664V75.55C140.354 75.4473 140.386 75.3633 140.452 75.298C140.517 75.2327 140.596 75.2 140.69 75.2H144.316C145.445 75.2 146.336 75.4613 146.99 75.984C147.643 76.5067 147.97 77.2673 147.97 78.266C147.97 78.9567 147.797 79.5307 147.452 79.988C147.116 80.4453 146.663 80.7767 146.094 80.982L148.138 84.552C148.166 84.608 148.18 84.6593 148.18 84.706C148.18 84.79 148.147 84.86 148.082 84.916C148.026 84.972 147.96 85 147.886 85H146.612C146.453 85 146.332 84.958 146.248 84.874C146.164 84.79 146.098 84.706 146.052 84.622L144.246 81.304H142.3V84.664C142.3 84.7573 142.267 84.8367 142.202 84.902C142.146 84.9673 142.066 85 141.964 85H140.69ZM142.3 79.722H144.274C144.843 79.722 145.268 79.596 145.548 79.344C145.828 79.0827 145.968 78.7187 145.968 78.252C145.968 77.7853 145.828 77.4213 145.548 77.16C145.277 76.8893 144.852 76.754 144.274 76.754H142.3V79.722ZM150.11 85C150.016 85 149.937 84.9673 149.872 84.902C149.806 84.8367 149.774 84.7573 149.774 84.664V75.55C149.774 75.4473 149.806 75.3633 149.872 75.298C149.937 75.2327 150.016 75.2 150.11 75.2H151.342C151.444 75.2 151.528 75.2327 151.594 75.298C151.659 75.3633 151.692 75.4473 151.692 75.55V78.826L154.856 75.452C154.893 75.4053 154.954 75.354 155.038 75.298C155.131 75.2327 155.252 75.2 155.402 75.2H156.788C156.862 75.2 156.928 75.228 156.984 75.284C157.049 75.34 157.082 75.41 157.082 75.494C157.082 75.5593 157.063 75.6153 157.026 75.662L153.176 79.89L157.292 84.524C157.338 84.58 157.362 84.6407 157.362 84.706C157.362 84.79 157.329 84.86 157.264 84.916C157.208 84.972 157.142 85 157.068 85H155.626C155.467 85 155.341 84.9673 155.248 84.902C155.164 84.8273 155.108 84.776 155.08 84.748L151.692 81.038V84.664C151.692 84.7573 151.659 84.8367 151.594 84.902C151.528 84.9673 151.444 85 151.342 85H150.11ZM158.017 85C157.943 85 157.873 84.972 157.807 84.916C157.751 84.86 157.723 84.79 157.723 84.706C157.723 84.6687 157.733 84.6267 157.751 84.58L161.125 75.55C161.153 75.4567 161.205 75.3773 161.279 75.312C161.363 75.2373 161.475 75.2 161.615 75.2H163.141C163.281 75.2 163.389 75.2373 163.463 75.312C163.538 75.3773 163.594 75.4567 163.631 75.55L167.005 84.58C167.015 84.6267 167.019 84.6687 167.019 84.706C167.019 84.79 166.991 84.86 166.935 84.916C166.879 84.972 166.814 85 166.739 85H165.521C165.391 85 165.293 84.972 165.227 84.916C165.171 84.8507 165.134 84.79 165.115 84.734L164.457 83.026H160.299L159.641 84.734C159.623 84.79 159.581 84.8507 159.515 84.916C159.459 84.972 159.366 85 159.235 85H158.017ZM160.789 81.416H163.967L162.371 77.09L160.789 81.416ZM168.662 85C168.569 85 168.49 84.972 168.424 84.916C168.359 84.8507 168.326 84.7667 168.326 84.664V75.55C168.326 75.4473 168.359 75.3633 168.424 75.298C168.49 75.2327 168.569 75.2 168.662 75.2H169.936C170.039 75.2 170.118 75.2327 170.174 75.298C170.24 75.3633 170.272 75.4473 170.272 75.55V79.162H174.402V75.55C174.402 75.4473 174.435 75.3633 174.5 75.298C174.566 75.2327 174.645 75.2 174.738 75.2H175.998C176.101 75.2 176.185 75.2327 176.25 75.298C176.316 75.3633 176.348 75.4473 176.348 75.55V84.664C176.348 84.7573 176.316 84.8367 176.25 84.902C176.185 84.9673 176.101 85 175.998 85H174.738C174.645 85 174.566 84.9673 174.5 84.902C174.435 84.8367 174.402 84.7573 174.402 84.664V80.912H170.272V84.664C170.272 84.7573 170.24 84.8367 170.174 84.902C170.118 84.9673 170.039 85 169.936 85H168.662ZM180.754 85C180.679 85 180.609 84.972 180.544 84.916C180.488 84.86 180.46 84.79 180.46 84.706C180.46 84.6687 180.469 84.6267 180.488 84.58L183.862 75.55C183.89 75.4567 183.941 75.3773 184.016 75.312C184.1 75.2373 184.212 75.2 184.352 75.2H185.878C186.018 75.2 186.125 75.2373 186.2 75.312C186.274 75.3773 186.33 75.4567 186.368 75.55L189.742 84.58C189.751 84.6267 189.756 84.6687 189.756 84.706C189.756 84.79 189.728 84.86 189.672 84.916C189.616 84.972 189.55 85 189.476 85H188.258C188.127 85 188.029 84.972 187.964 84.916C187.908 84.8507 187.87 84.79 187.852 84.734L187.194 83.026H183.036L182.378 84.734C182.359 84.79 182.317 84.8507 182.252 84.916C182.196 84.972 182.102 85 181.972 85H180.754ZM183.526 81.416H186.704L185.108 77.09L183.526 81.416ZM191.399 85C191.305 85 191.226 84.9673 191.161 84.902C191.095 84.8367 191.063 84.7573 191.063 84.664V75.55C191.063 75.4473 191.095 75.3633 191.161 75.298C191.226 75.2327 191.305 75.2 191.399 75.2H192.477C192.607 75.2 192.701 75.2327 192.757 75.298C192.822 75.354 192.864 75.396 192.883 75.424L196.915 81.696V75.55C196.915 75.4473 196.943 75.3633 196.999 75.298C197.064 75.2327 197.148 75.2 197.251 75.2H198.427C198.529 75.2 198.613 75.2327 198.679 75.298C198.744 75.3633 198.777 75.4473 198.777 75.55V84.65C198.777 84.7527 198.744 84.8367 198.679 84.902C198.613 84.9673 198.534 85 198.441 85H197.349C197.218 85 197.125 84.9673 197.069 84.902C197.013 84.8367 196.971 84.7947 196.943 84.776L192.925 78.644V84.664C192.925 84.7573 192.892 84.8367 192.827 84.902C192.761 84.9673 192.677 85 192.575 85H191.399ZM203.453 85C203.36 85 203.28 84.9673 203.215 84.902C203.15 84.8367 203.117 84.7573 203.117 84.664V76.922H200.527C200.434 76.922 200.354 76.8893 200.289 76.824C200.224 76.7587 200.191 76.6793 200.191 76.586V75.55C200.191 75.4473 200.224 75.3633 200.289 75.298C200.354 75.2327 200.434 75.2 200.527 75.2H207.667C207.77 75.2 207.854 75.2327 207.919 75.298C207.984 75.3633 208.017 75.4473 208.017 75.55V76.586C208.017 76.6793 207.984 76.7587 207.919 76.824C207.854 76.8893 207.77 76.922 207.667 76.922H205.091V84.664C205.091 84.7573 205.058 84.8367 204.993 84.902C204.928 84.9673 204.844 85 204.741 85H203.453ZM207.81 85C207.736 85 207.666 84.972 207.6 84.916C207.544 84.86 207.516 84.79 207.516 84.706C207.516 84.6687 207.526 84.6267 207.544 84.58L210.918 75.55C210.946 75.4567 210.998 75.3773 211.072 75.312C211.156 75.2373 211.268 75.2 211.408 75.2H212.934C213.074 75.2 213.182 75.2373 213.256 75.312C213.331 75.3773 213.387 75.4567 213.424 75.55L216.798 84.58C216.808 84.6267 216.812 84.6687 216.812 84.706C216.812 84.79 216.784 84.86 216.728 84.916C216.672 84.972 216.607 85 216.532 85H215.314C215.184 85 215.086 84.972 215.02 84.916C214.964 84.8507 214.927 84.79 214.908 84.734L214.25 83.026H210.092L209.434 84.734C209.416 84.79 209.374 84.8507 209.308 84.916C209.252 84.972 209.159 85 209.028 85H207.81ZM210.582 81.416H213.76L212.164 77.09L210.582 81.416ZM218.455 85C218.362 85 218.283 84.9673 218.217 84.902C218.152 84.8367 218.119 84.7573 218.119 84.664V75.55C218.119 75.4473 218.152 75.3633 218.217 75.298C218.283 75.2327 218.362 75.2 218.455 75.2H222.081C223.211 75.2 224.102 75.4613 224.755 75.984C225.409 76.5067 225.735 77.2673 225.735 78.266C225.735 78.9567 225.563 79.5307 225.217 79.988C224.881 80.4453 224.429 80.7767 223.859 80.982L225.903 84.552C225.931 84.608 225.945 84.6593 225.945 84.706C225.945 84.79 225.913 84.86 225.847 84.916C225.791 84.972 225.726 85 225.651 85H224.377C224.219 85 224.097 84.958 224.013 84.874C223.929 84.79 223.864 84.706 223.817 84.622L222.011 81.304H220.065V84.664C220.065 84.7573 220.033 84.8367 219.967 84.902C219.911 84.9673 219.832 85 219.729 85H218.455ZM220.065 79.722H222.039C222.609 79.722 223.033 79.596 223.313 79.344C223.593 79.0827 223.733 78.7187 223.733 78.252C223.733 77.7853 223.593 77.4213 223.313 77.16C223.043 76.8893 222.618 76.754 222.039 76.754H220.065V79.722ZM229.767 85C229.693 85 229.623 84.972 229.557 84.916C229.501 84.86 229.473 84.79 229.473 84.706C229.473 84.6687 229.483 84.6267 229.501 84.58L232.875 75.55C232.903 75.4567 232.955 75.3773 233.029 75.312C233.113 75.2373 233.225 75.2 233.365 75.2H234.891C235.031 75.2 235.139 75.2373 235.213 75.312C235.288 75.3773 235.344 75.4567 235.381 75.55L238.755 84.58C238.765 84.6267 238.769 84.6687 238.769 84.706C238.769 84.79 238.741 84.86 238.685 84.916C238.629 84.972 238.564 85 238.489 85H237.271C237.141 85 237.043 84.972 236.977 84.916C236.921 84.8507 236.884 84.79 236.865 84.734L236.207 83.026H232.049L231.391 84.734C231.373 84.79 231.331 84.8507 231.265 84.916C231.209 84.972 231.116 85 230.985 85H229.767ZM232.539 81.416H235.717L234.121 77.09L232.539 81.416ZM240.412 85C240.319 85 240.24 84.9673 240.174 84.902C240.109 84.8367 240.076 84.7573 240.076 84.664V75.55C240.076 75.4473 240.109 75.3633 240.174 75.298C240.24 75.2327 240.319 75.2 240.412 75.2H241.49C241.621 75.2 241.714 75.2327 241.77 75.298C241.836 75.354 241.878 75.396 241.896 75.424L245.928 81.696V75.55C245.928 75.4473 245.956 75.3633 246.012 75.298C246.078 75.2327 246.162 75.2 246.264 75.2H247.44C247.543 75.2 247.627 75.2327 247.692 75.298C247.758 75.3633 247.79 75.4473 247.79 75.55V84.65C247.79 84.7527 247.758 84.8367 247.692 84.902C247.627 84.9673 247.548 85 247.454 85H246.362C246.232 85 246.138 84.9673 246.082 84.902C246.026 84.8367 245.984 84.7947 245.956 84.776L241.938 78.644V84.664C241.938 84.7573 241.906 84.8367 241.84 84.902C241.775 84.9673 241.691 85 241.588 85H240.412ZM253.783 85.14C252.924 85.14 252.191 84.9907 251.585 84.692C250.987 84.3933 250.521 83.964 250.185 83.404C249.858 82.8347 249.681 82.158 249.653 81.374C249.643 80.9727 249.639 80.5433 249.639 80.086C249.639 79.6193 249.643 79.1807 249.653 78.77C249.681 77.9953 249.858 77.3327 250.185 76.782C250.521 76.2313 250.992 75.8067 251.599 75.508C252.215 75.2093 252.943 75.06 253.783 75.06C254.464 75.06 255.061 75.1533 255.575 75.34C256.088 75.5173 256.513 75.7507 256.849 76.04C257.194 76.32 257.451 76.6233 257.619 76.95C257.796 77.2767 257.889 77.58 257.899 77.86C257.908 77.944 257.885 78.014 257.829 78.07C257.773 78.126 257.698 78.154 257.605 78.154H256.163C256.069 78.154 255.999 78.1353 255.953 78.098C255.906 78.0607 255.864 78.0047 255.827 77.93C255.752 77.734 255.635 77.5427 255.477 77.356C255.318 77.16 255.103 76.9967 254.833 76.866C254.562 76.7353 254.212 76.67 253.783 76.67C253.148 76.67 252.639 76.838 252.257 77.174C251.883 77.51 251.683 78.0653 251.655 78.84C251.627 79.652 251.627 80.4733 251.655 81.304C251.683 82.0973 251.888 82.6667 252.271 83.012C252.663 83.3573 253.176 83.53 253.811 83.53C254.231 83.53 254.604 83.4553 254.931 83.306C255.267 83.1567 255.528 82.9233 255.715 82.606C255.911 82.2887 256.009 81.8827 256.009 81.388V80.954H254.301C254.207 80.954 254.128 80.9213 254.063 80.856C253.997 80.7907 253.965 80.7067 253.965 80.604V79.862C253.965 79.7593 253.997 79.6753 254.063 79.61C254.128 79.5447 254.207 79.512 254.301 79.512H257.647C257.749 79.512 257.829 79.5447 257.885 79.61C257.95 79.6753 257.983 79.7593 257.983 79.862V81.332C257.983 82.116 257.81 82.7927 257.465 83.362C257.129 83.9313 256.643 84.37 256.009 84.678C255.383 84.986 254.641 85.14 253.783 85.14ZM263.586 85.14C262.727 85.14 261.994 84.9907 261.388 84.692C260.79 84.3933 260.324 83.964 259.988 83.404C259.661 82.8347 259.484 82.158 259.456 81.374C259.446 80.9727 259.442 80.5433 259.442 80.086C259.442 79.6193 259.446 79.1807 259.456 78.77C259.484 77.9953 259.661 77.3327 259.988 76.782C260.324 76.2313 260.795 75.8067 261.402 75.508C262.018 75.2093 262.746 75.06 263.586 75.06C264.267 75.06 264.864 75.1533 265.378 75.34C265.891 75.5173 266.316 75.7507 266.652 76.04C266.997 76.32 267.254 76.6233 267.422 76.95C267.599 77.2767 267.692 77.58 267.702 77.86C267.711 77.944 267.688 78.014 267.632 78.07C267.576 78.126 267.501 78.154 267.408 78.154H265.966C265.872 78.154 265.802 78.1353 265.756 78.098C265.709 78.0607 265.667 78.0047 265.63 77.93C265.555 77.734 265.438 77.5427 265.28 77.356C265.121 77.16 264.906 76.9967 264.636 76.866C264.365 76.7353 264.015 76.67 263.586 76.67C262.951 76.67 262.442 76.838 262.06 77.174C261.686 77.51 261.486 78.0653 261.458 78.84C261.43 79.652 261.43 80.4733 261.458 81.304C261.486 82.0973 261.691 82.6667 262.074 83.012C262.466 83.3573 262.979 83.53 263.614 83.53C264.034 83.53 264.407 83.4553 264.734 83.306C265.07 83.1567 265.331 82.9233 265.518 82.606C265.714 82.2887 265.812 81.8827 265.812 81.388V80.954H264.104C264.01 80.954 263.931 80.9213 263.866 80.856C263.8 80.7907 263.768 80.7067 263.768 80.604V79.862C263.768 79.7593 263.8 79.6753 263.866 79.61C263.931 79.5447 264.01 79.512 264.104 79.512H267.45C267.552 79.512 267.632 79.5447 267.688 79.61C267.753 79.6753 267.786 79.7593 267.786 79.862V81.332C267.786 82.116 267.613 82.7927 267.268 83.362C266.932 83.9313 266.446 84.37 265.812 84.678C265.186 84.986 264.444 85.14 263.586 85.14ZM273.346 85.14C272.516 85.14 271.802 85.0047 271.204 84.734C270.607 84.454 270.14 84.0293 269.804 83.46C269.468 82.8813 269.286 82.1627 269.258 81.304C269.249 80.9027 269.244 80.506 269.244 80.114C269.244 79.722 269.249 79.3207 269.258 78.91C269.286 78.0607 269.473 77.3513 269.818 76.782C270.164 76.2127 270.635 75.7833 271.232 75.494C271.839 75.2047 272.544 75.06 273.346 75.06C274.149 75.06 274.854 75.2047 275.46 75.494C276.067 75.7833 276.543 76.2127 276.888 76.782C277.234 77.3513 277.42 78.0607 277.448 78.91C277.467 79.3207 277.476 79.722 277.476 80.114C277.476 80.506 277.467 80.9027 277.448 81.304C277.42 82.1627 277.238 82.8813 276.902 83.46C276.566 84.0293 276.095 84.454 275.488 84.734C274.891 85.0047 274.177 85.14 273.346 85.14ZM273.346 83.53C273.953 83.53 274.448 83.3527 274.83 82.998C275.213 82.634 275.418 82.046 275.446 81.234C275.465 80.8233 275.474 80.4453 275.474 80.1C275.474 79.7453 275.465 79.3673 275.446 78.966C275.428 78.4247 275.325 77.986 275.138 77.65C274.961 77.3047 274.718 77.0573 274.41 76.908C274.102 76.7493 273.748 76.67 273.346 76.67C272.954 76.67 272.604 76.7493 272.296 76.908C271.988 77.0573 271.741 77.3047 271.554 77.65C271.377 77.986 271.279 78.4247 271.26 78.966C271.251 79.3673 271.246 79.7453 271.246 80.1C271.246 80.4453 271.251 80.8233 271.26 81.234C271.288 82.046 271.494 82.634 271.876 82.998C272.259 83.3527 272.749 83.53 273.346 83.53ZM281.629 85C281.536 85 281.456 84.9673 281.391 84.902C281.326 84.8367 281.293 84.7573 281.293 84.664V76.922H278.703C278.61 76.922 278.53 76.8893 278.465 76.824C278.4 76.7587 278.367 76.6793 278.367 76.586V75.55C278.367 75.4473 278.4 75.3633 278.465 75.298C278.53 75.2327 278.61 75.2 278.703 75.2H285.843C285.946 75.2 286.03 75.2327 286.095 75.298C286.16 75.3633 286.193 75.4473 286.193 75.55V76.586C286.193 76.6793 286.16 76.7587 286.095 76.824C286.03 76.8893 285.946 76.922 285.843 76.922H283.267V84.664C283.267 84.7573 283.234 84.8367 283.169 84.902C283.104 84.9673 283.02 85 282.917 85H281.629ZM285.986 85C285.911 85 285.841 84.972 285.776 84.916C285.72 84.86 285.692 84.79 285.692 84.706C285.692 84.6687 285.701 84.6267 285.72 84.58L289.094 75.55C289.122 75.4567 289.173 75.3773 289.248 75.312C289.332 75.2373 289.444 75.2 289.584 75.2H291.11C291.25 75.2 291.357 75.2373 291.432 75.312C291.507 75.3773 291.563 75.4567 291.6 75.55L294.974 84.58C294.983 84.6267 294.988 84.6687 294.988 84.706C294.988 84.79 294.96 84.86 294.904 84.916C294.848 84.972 294.783 85 294.708 85H293.49C293.359 85 293.261 84.972 293.196 84.916C293.14 84.8507 293.103 84.79 293.084 84.734L292.426 83.026H288.268L287.61 84.734C287.591 84.79 287.549 84.8507 287.484 84.916C287.428 84.972 287.335 85 287.204 85H285.986ZM288.758 81.416H291.936L290.34 77.09L288.758 81.416ZM131.584 109C131.491 109 131.412 108.967 131.346 108.902C131.281 108.837 131.248 108.757 131.248 108.664V99.55C131.248 99.4473 131.281 99.3633 131.346 99.298C131.412 99.2327 131.491 99.2 131.584 99.2H132.816C132.919 99.2 133.003 99.2327 133.068 99.298C133.134 99.3633 133.166 99.4473 133.166 99.55V102.826L136.33 99.452C136.368 99.4053 136.428 99.354 136.512 99.298C136.606 99.2327 136.727 99.2 136.876 99.2H138.262C138.337 99.2 138.402 99.228 138.458 99.284C138.524 99.34 138.556 99.41 138.556 99.494C138.556 99.5593 138.538 99.6153 138.5 99.662L134.65 103.89L138.766 108.524C138.813 108.58 138.836 108.641 138.836 108.706C138.836 108.79 138.804 108.86 138.738 108.916C138.682 108.972 138.617 109 138.542 109H137.1C136.942 109 136.816 108.967 136.722 108.902C136.638 108.827 136.582 108.776 136.554 108.748L133.166 105.038V108.664C133.166 108.757 133.134 108.837 133.068 108.902C133.003 108.967 132.919 109 132.816 109H131.584ZM143.354 109.14C142.523 109.14 141.809 109.005 141.212 108.734C140.615 108.454 140.148 108.029 139.812 107.46C139.476 106.881 139.294 106.163 139.266 105.304C139.257 104.903 139.252 104.506 139.252 104.114C139.252 103.722 139.257 103.321 139.266 102.91C139.294 102.061 139.481 101.351 139.826 100.782C140.171 100.213 140.643 99.7833 141.24 99.494C141.847 99.2047 142.551 99.06 143.354 99.06C144.157 99.06 144.861 99.2047 145.468 99.494C146.075 99.7833 146.551 100.213 146.896 100.782C147.241 101.351 147.428 102.061 147.456 102.91C147.475 103.321 147.484 103.722 147.484 104.114C147.484 104.506 147.475 104.903 147.456 105.304C147.428 106.163 147.246 106.881 146.91 107.46C146.574 108.029 146.103 108.454 145.496 108.734C144.899 109.005 144.185 109.14 143.354 109.14ZM143.354 107.53C143.961 107.53 144.455 107.353 144.838 106.998C145.221 106.634 145.426 106.046 145.454 105.234C145.473 104.823 145.482 104.445 145.482 104.1C145.482 103.745 145.473 103.367 145.454 102.966C145.435 102.425 145.333 101.986 145.146 101.65C144.969 101.305 144.726 101.057 144.418 100.908C144.11 100.749 143.755 100.67 143.354 100.67C142.962 100.67 142.612 100.749 142.304 100.908C141.996 101.057 141.749 101.305 141.562 101.65C141.385 101.986 141.287 102.425 141.268 102.966C141.259 103.367 141.254 103.745 141.254 104.1C141.254 104.445 141.259 104.823 141.268 105.234C141.296 106.046 141.501 106.634 141.884 106.998C142.267 107.353 142.757 107.53 143.354 107.53ZM149.672 109C149.57 109 149.486 108.967 149.42 108.902C149.355 108.837 149.322 108.757 149.322 108.664V99.55C149.322 99.4473 149.355 99.3633 149.42 99.298C149.486 99.2327 149.57 99.2 149.672 99.2H150.778C150.909 99.2 151.007 99.2373 151.072 99.312C151.138 99.3773 151.18 99.4287 151.198 99.466L153.9 104.506L156.63 99.466C156.649 99.4287 156.691 99.3773 156.756 99.312C156.822 99.2373 156.92 99.2 157.05 99.2H158.142C158.245 99.2 158.329 99.2327 158.394 99.298C158.46 99.3633 158.492 99.4473 158.492 99.55V108.664C158.492 108.757 158.46 108.837 158.394 108.902C158.329 108.967 158.245 109 158.142 109H156.966C156.864 109 156.78 108.967 156.714 108.902C156.658 108.837 156.63 108.757 156.63 108.664V102.602L154.67 106.34C154.624 106.424 154.563 106.499 154.488 106.564C154.414 106.62 154.316 106.648 154.194 106.648H153.62C153.49 106.648 153.387 106.62 153.312 106.564C153.247 106.499 153.191 106.424 153.144 106.34L151.184 102.602V108.664C151.184 108.757 151.152 108.837 151.086 108.902C151.021 108.967 150.942 109 150.848 109H149.672ZM164.576 109.14C163.764 109.14 163.059 109.005 162.462 108.734C161.865 108.454 161.403 108.029 161.076 107.46C160.749 106.881 160.586 106.144 160.586 105.248V99.55C160.586 99.4473 160.619 99.3633 160.684 99.298C160.749 99.2327 160.829 99.2 160.922 99.2H162.196C162.299 99.2 162.378 99.2327 162.434 99.298C162.499 99.3633 162.532 99.4473 162.532 99.55V105.248C162.532 106.013 162.714 106.583 163.078 106.956C163.442 107.32 163.941 107.502 164.576 107.502C165.211 107.502 165.705 107.32 166.06 106.956C166.424 106.583 166.606 106.013 166.606 105.248V99.55C166.606 99.4473 166.639 99.3633 166.704 99.298C166.769 99.2327 166.853 99.2 166.956 99.2H168.216C168.319 99.2 168.398 99.2327 168.454 99.298C168.519 99.3633 168.552 99.4473 168.552 99.55V105.248C168.552 106.144 168.389 106.881 168.062 107.46C167.745 108.029 167.287 108.454 166.69 108.734C166.102 109.005 165.397 109.14 164.576 109.14ZM170.987 109C170.893 109 170.814 108.967 170.749 108.902C170.683 108.837 170.651 108.757 170.651 108.664V99.55C170.651 99.4473 170.683 99.3633 170.749 99.298C170.814 99.2327 170.893 99.2 170.987 99.2H172.065C172.195 99.2 172.289 99.2327 172.345 99.298C172.41 99.354 172.452 99.396 172.471 99.424L176.503 105.696V99.55C176.503 99.4473 176.531 99.3633 176.587 99.298C176.652 99.2327 176.736 99.2 176.839 99.2H178.015C178.117 99.2 178.201 99.2327 178.267 99.298C178.332 99.3633 178.365 99.4473 178.365 99.55V108.65C178.365 108.753 178.332 108.837 178.267 108.902C178.201 108.967 178.122 109 178.029 109H176.937C176.806 109 176.713 108.967 176.657 108.902C176.601 108.837 176.559 108.795 176.531 108.776L172.513 102.644V108.664C172.513 108.757 172.48 108.837 172.415 108.902C172.349 108.967 172.265 109 172.163 109H170.987ZM180.885 109C180.792 109 180.712 108.967 180.647 108.902C180.582 108.837 180.549 108.757 180.549 108.664V99.536C180.549 99.4427 180.582 99.3633 180.647 99.298C180.712 99.2327 180.792 99.2 180.885 99.2H182.201C182.304 99.2 182.383 99.2327 182.439 99.298C182.504 99.3633 182.537 99.4427 182.537 99.536V108.664C182.537 108.757 182.504 108.837 182.439 108.902C182.383 108.967 182.304 109 182.201 109H180.885ZM187.225 109C187.131 109 187.052 108.967 186.987 108.902C186.921 108.837 186.889 108.757 186.889 108.664V100.922H184.299C184.205 100.922 184.126 100.889 184.061 100.824C183.995 100.759 183.963 100.679 183.963 100.586V99.55C183.963 99.4473 183.995 99.3633 184.061 99.298C184.126 99.2327 184.205 99.2 184.299 99.2H191.439C191.541 99.2 191.625 99.2327 191.691 99.298C191.756 99.3633 191.789 99.4473 191.789 99.55V100.586C191.789 100.679 191.756 100.759 191.691 100.824C191.625 100.889 191.541 100.922 191.439 100.922H188.863V108.664C188.863 108.757 188.83 108.837 188.765 108.902C188.699 108.967 188.615 109 188.513 109H187.225ZM191.582 109C191.507 109 191.437 108.972 191.372 108.916C191.316 108.86 191.288 108.79 191.288 108.706C191.288 108.669 191.297 108.627 191.316 108.58L194.69 99.55C194.718 99.4567 194.769 99.3773 194.844 99.312C194.928 99.2373 195.04 99.2 195.18 99.2H196.706C196.846 99.2 196.953 99.2373 197.028 99.312C197.102 99.3773 197.158 99.4567 197.196 99.55L200.57 108.58C200.579 108.627 200.584 108.669 200.584 108.706C200.584 108.79 200.556 108.86 200.5 108.916C200.444 108.972 200.378 109 200.304 109H199.086C198.955 109 198.857 108.972 198.792 108.916C198.736 108.851 198.698 108.79 198.68 108.734L198.022 107.026H193.864L193.206 108.734C193.187 108.79 193.145 108.851 193.08 108.916C193.024 108.972 192.93 109 192.8 109H191.582ZM194.354 105.416H197.532L195.936 101.09L194.354 105.416ZM205.156 109.14C204.288 109.14 203.56 109.014 202.972 108.762C202.393 108.501 201.95 108.165 201.642 107.754C201.343 107.334 201.185 106.895 201.166 106.438C201.166 106.354 201.194 106.284 201.25 106.228C201.306 106.172 201.376 106.144 201.46 106.144H202.706C202.827 106.144 202.916 106.172 202.972 106.228C203.037 106.275 203.093 106.335 203.14 106.41C203.196 106.587 203.303 106.765 203.462 106.942C203.621 107.11 203.835 107.25 204.106 107.362C204.386 107.474 204.736 107.53 205.156 107.53C205.828 107.53 206.327 107.418 206.654 107.194C206.99 106.97 207.158 106.667 207.158 106.284C207.158 106.013 207.069 105.799 206.892 105.64C206.715 105.472 206.439 105.323 206.066 105.192C205.702 105.052 205.217 104.907 204.61 104.758C203.91 104.59 203.322 104.389 202.846 104.156C202.379 103.913 202.025 103.61 201.782 103.246C201.549 102.882 201.432 102.42 201.432 101.86C201.432 101.319 201.577 100.838 201.866 100.418C202.165 99.998 202.585 99.6667 203.126 99.424C203.677 99.1813 204.33 99.06 205.086 99.06C205.693 99.06 206.229 99.144 206.696 99.312C207.163 99.4707 207.55 99.6853 207.858 99.956C208.166 100.217 208.399 100.502 208.558 100.81C208.726 101.109 208.815 101.403 208.824 101.692C208.824 101.767 208.796 101.837 208.74 101.902C208.693 101.958 208.623 101.986 208.53 101.986H207.228C207.153 101.986 207.079 101.967 207.004 101.93C206.929 101.893 206.869 101.823 206.822 101.72C206.766 101.431 206.584 101.183 206.276 100.978C205.968 100.773 205.571 100.67 205.086 100.67C204.582 100.67 204.176 100.763 203.868 100.95C203.56 101.137 203.406 101.426 203.406 101.818C203.406 102.079 203.481 102.299 203.63 102.476C203.789 102.644 204.036 102.793 204.372 102.924C204.717 103.055 205.17 103.195 205.73 103.344C206.523 103.521 207.172 103.727 207.676 103.96C208.18 104.193 208.549 104.492 208.782 104.856C209.015 105.211 209.132 105.663 209.132 106.214C209.132 106.83 208.964 107.357 208.628 107.796C208.301 108.225 207.839 108.557 207.242 108.79C206.645 109.023 205.949 109.14 205.156 109.14Z" fill="#4D7CFE"/>
</svg>
