<svg width="343" height="129" viewBox="0 0 343 129" fill="none" xmlns="http://www.w3.org/2000/svg">
<rect width="343" height="129" rx="8" fill="#F1F6FF"/>
<path d="M158.167 29.3333C158.167 26.3878 160.554 24 163.5 24L179.5 24C182.445 24 184.833 26.3878 184.833 29.3333V42.6667C184.833 45.6122 182.445 48 179.5 48H163.5C160.554 48 158.167 45.6122 158.167 42.6667V29.3333Z" stroke="#4D7CFE" stroke-width="1.5" stroke-linejoin="round"/>
<path d="M184.833 32L184.833 40H179.5C177.291 40 175.5 38.2091 175.5 36C175.5 33.7909 177.291 32 179.5 32L184.833 32Z" stroke="#4D7CFE" stroke-width="1.5" stroke-linejoin="round"/>
<path d="M83.0764 85C82.9831 85 82.9038 84.9673 82.8384 84.902C82.7731 84.8367 82.7404 84.7573 82.7404 84.664V75.536C82.7404 75.4427 82.7731 75.3633 82.8384 75.298C82.9038 75.2327 82.9831 75.2 83.0764 75.2H84.3784C84.4718 75.2 84.5511 75.2327 84.6164 75.298C84.6818 75.3633 84.7144 75.4427 84.7144 75.536V83.334H89.1524C89.2551 83.334 89.3391 83.3667 89.4044 83.432C89.4698 83.4973 89.5024 83.5813 89.5024 83.684V84.664C89.5024 84.7573 89.4698 84.8367 89.4044 84.902C89.3391 84.9673 89.2551 85 89.1524 85H83.0764ZM90.2595 85C90.1849 85 90.1149 84.972 90.0495 84.916C89.9935 84.86 89.9655 84.79 89.9655 84.706C89.9655 84.6687 89.9749 84.6267 89.9935 84.58L93.3675 75.55C93.3955 75.4567 93.4469 75.3773 93.5215 75.312C93.6055 75.2373 93.7175 75.2 93.8575 75.2H95.3835C95.5235 75.2 95.6309 75.2373 95.7055 75.312C95.7802 75.3773 95.8362 75.4567 95.8735 75.55L99.2475 84.58C99.2569 84.6267 99.2615 84.6687 99.2615 84.706C99.2615 84.79 99.2335 84.86 99.1775 84.916C99.1215 84.972 99.0562 85 98.9815 85H97.7635C97.6329 85 97.5349 84.972 97.4695 84.916C97.4135 84.8507 97.3762 84.79 97.3575 84.734L96.6995 83.026H92.5415L91.8835 84.734C91.8649 84.79 91.8229 84.8507 91.7575 84.916C91.7015 84.972 91.6082 85 91.4775 85H90.2595ZM93.0315 81.416H96.2095L94.6135 77.09L93.0315 81.416ZM100.905 85C100.811 85 100.732 84.9673 100.667 84.902C100.601 84.8367 100.569 84.7573 100.569 84.664V75.55C100.569 75.4473 100.601 75.3633 100.667 75.298C100.732 75.2327 100.811 75.2 100.905 75.2H104.657C105.385 75.2 106.019 75.3167 106.561 75.55C107.102 75.774 107.522 76.1193 107.821 76.586C108.119 77.0433 108.269 77.6173 108.269 78.308C108.269 79.008 108.119 79.5867 107.821 80.044C107.522 80.492 107.102 80.828 106.561 81.052C106.019 81.276 105.385 81.388 104.657 81.388H102.571V84.664C102.571 84.7573 102.538 84.8367 102.473 84.902C102.417 84.9673 102.337 85 102.235 85H100.905ZM102.543 79.834H104.587C105.128 79.834 105.543 79.708 105.833 79.456C106.122 79.1947 106.267 78.812 106.267 78.308C106.267 77.8413 106.131 77.468 105.861 77.188C105.59 76.8987 105.165 76.754 104.587 76.754H102.543V79.834ZM113.563 85.14C112.732 85.14 112.018 85.0047 111.421 84.734C110.824 84.454 110.357 84.0293 110.021 83.46C109.685 82.8813 109.503 82.1627 109.475 81.304C109.466 80.9027 109.461 80.506 109.461 80.114C109.461 79.722 109.466 79.3207 109.475 78.91C109.503 78.0607 109.69 77.3513 110.035 76.782C110.38 76.2127 110.852 75.7833 111.449 75.494C112.056 75.2047 112.76 75.06 113.563 75.06C114.366 75.06 115.07 75.2047 115.677 75.494C116.284 75.7833 116.76 76.2127 117.105 76.782C117.45 77.3513 117.637 78.0607 117.665 78.91C117.684 79.3207 117.693 79.722 117.693 80.114C117.693 80.506 117.684 80.9027 117.665 81.304C117.637 82.1627 117.455 82.8813 117.119 83.46C116.783 84.0293 116.312 84.454 115.705 84.734C115.108 85.0047 114.394 85.14 113.563 85.14ZM113.563 83.53C114.17 83.53 114.664 83.3527 115.047 82.998C115.43 82.634 115.635 82.046 115.663 81.234C115.682 80.8233 115.691 80.4453 115.691 80.1C115.691 79.7453 115.682 79.3673 115.663 78.966C115.644 78.4247 115.542 77.986 115.355 77.65C115.178 77.3047 114.935 77.0573 114.627 76.908C114.319 76.7493 113.964 76.67 113.563 76.67C113.171 76.67 112.821 76.7493 112.513 76.908C112.205 77.0573 111.958 77.3047 111.771 77.65C111.594 77.986 111.496 78.4247 111.477 78.966C111.468 79.3673 111.463 79.7453 111.463 80.1C111.463 80.4453 111.468 80.8233 111.477 81.234C111.505 82.046 111.71 82.634 112.093 82.998C112.476 83.3527 112.966 83.53 113.563 83.53ZM119.867 85C119.774 85 119.695 84.9673 119.629 84.902C119.564 84.8367 119.531 84.7573 119.531 84.664V75.55C119.531 75.4473 119.564 75.3633 119.629 75.298C119.695 75.2327 119.774 75.2 119.867 75.2H123.493C124.623 75.2 125.514 75.4613 126.167 75.984C126.821 76.5067 127.147 77.2673 127.147 78.266C127.147 78.9567 126.975 79.5307 126.629 79.988C126.293 80.4453 125.841 80.7767 125.271 80.982L127.315 84.552C127.343 84.608 127.357 84.6593 127.357 84.706C127.357 84.79 127.325 84.86 127.259 84.916C127.203 84.972 127.138 85 127.063 85H125.789C125.631 85 125.509 84.958 125.425 84.874C125.341 84.79 125.276 84.706 125.229 84.622L123.423 81.304H121.477V84.664C121.477 84.7573 121.445 84.8367 121.379 84.902C121.323 84.9673 121.244 85 121.141 85H119.867ZM121.477 79.722H123.451C124.021 79.722 124.445 79.596 124.725 79.344C125.005 79.0827 125.145 78.7187 125.145 78.252C125.145 77.7853 125.005 77.4213 124.725 77.16C124.455 76.8893 124.03 76.754 123.451 76.754H121.477V79.722ZM128.349 85C128.275 85 128.205 84.972 128.139 84.916C128.083 84.86 128.055 84.79 128.055 84.706C128.055 84.6687 128.065 84.6267 128.083 84.58L131.457 75.55C131.485 75.4567 131.537 75.3773 131.611 75.312C131.695 75.2373 131.807 75.2 131.947 75.2H133.473C133.613 75.2 133.721 75.2373 133.795 75.312C133.87 75.3773 133.926 75.4567 133.963 75.55L137.337 84.58C137.347 84.6267 137.351 84.6687 137.351 84.706C137.351 84.79 137.323 84.86 137.267 84.916C137.211 84.972 137.146 85 137.071 85H135.853C135.723 85 135.625 84.972 135.559 84.916C135.503 84.8507 135.466 84.79 135.447 84.734L134.789 83.026H130.631L129.973 84.734C129.955 84.79 129.913 84.8507 129.847 84.916C129.791 84.972 129.698 85 129.567 85H128.349ZM131.121 81.416H134.299L132.703 77.09L131.121 81.416ZM138.994 85C138.901 85 138.822 84.9673 138.756 84.902C138.691 84.8367 138.658 84.7573 138.658 84.664V75.55C138.658 75.4473 138.691 75.3633 138.756 75.298C138.822 75.2327 138.901 75.2 138.994 75.2H140.072C140.203 75.2 140.296 75.2327 140.352 75.298C140.418 75.354 140.46 75.396 140.478 75.424L144.51 81.696V75.55C144.51 75.4473 144.538 75.3633 144.594 75.298C144.66 75.2327 144.744 75.2 144.846 75.2H146.022C146.125 75.2 146.209 75.2327 146.274 75.298C146.34 75.3633 146.372 75.4473 146.372 75.55V84.65C146.372 84.7527 146.34 84.8367 146.274 84.902C146.209 84.9673 146.13 85 146.036 85H144.944C144.814 85 144.72 84.9673 144.664 84.902C144.608 84.8367 144.566 84.7947 144.538 84.776L140.52 78.644V84.664C140.52 84.7573 140.488 84.8367 140.422 84.902C140.357 84.9673 140.273 85 140.17 85H138.994ZM152.092 85C151.999 85 151.919 84.9673 151.854 84.902C151.789 84.8367 151.756 84.7573 151.756 84.664V75.55C151.756 75.4473 151.789 75.3633 151.854 75.298C151.919 75.2327 151.999 75.2 152.092 75.2H155.508C156.451 75.2 157.225 75.3447 157.832 75.634C158.448 75.9233 158.91 76.3527 159.218 76.922C159.535 77.4913 159.699 78.1867 159.708 79.008C159.727 79.4187 159.736 79.7827 159.736 80.1C159.736 80.4173 159.727 80.7767 159.708 81.178C159.689 82.046 159.531 82.7647 159.232 83.334C158.933 83.894 158.481 84.314 157.874 84.594C157.277 84.8647 156.511 85 155.578 85H152.092ZM153.702 83.39H155.508C156.031 83.39 156.455 83.3153 156.782 83.166C157.109 83.0167 157.347 82.7787 157.496 82.452C157.655 82.116 157.739 81.6773 157.748 81.136C157.757 80.856 157.762 80.6133 157.762 80.408C157.771 80.1933 157.771 79.9833 157.762 79.778C157.762 79.5633 157.757 79.3207 157.748 79.05C157.729 78.2847 157.538 77.72 157.174 77.356C156.81 76.992 156.231 76.81 155.438 76.81H153.702V83.39ZM160.806 85C160.732 85 160.662 84.972 160.596 84.916C160.54 84.86 160.512 84.79 160.512 84.706C160.512 84.6687 160.522 84.6267 160.54 84.58L163.914 75.55C163.942 75.4567 163.994 75.3773 164.068 75.312C164.152 75.2373 164.264 75.2 164.404 75.2H165.93C166.07 75.2 166.178 75.2373 166.252 75.312C166.327 75.3773 166.383 75.4567 166.42 75.55L169.794 84.58C169.804 84.6267 169.808 84.6687 169.808 84.706C169.808 84.79 169.78 84.86 169.724 84.916C169.668 84.972 169.603 85 169.528 85H168.31C168.18 85 168.082 84.972 168.016 84.916C167.96 84.8507 167.923 84.79 167.904 84.734L167.246 83.026H163.088L162.43 84.734C162.412 84.79 162.37 84.8507 162.304 84.916C162.248 84.972 162.155 85 162.024 85H160.806ZM163.578 81.416H166.756L165.16 77.09L163.578 81.416ZM171.465 85C171.363 85 171.279 84.9673 171.213 84.902C171.148 84.8367 171.115 84.7573 171.115 84.664V75.55C171.115 75.4473 171.148 75.3633 171.213 75.298C171.279 75.2327 171.363 75.2 171.465 75.2H172.571C172.702 75.2 172.8 75.2373 172.865 75.312C172.931 75.3773 172.973 75.4287 172.991 75.466L175.693 80.506L178.423 75.466C178.442 75.4287 178.484 75.3773 178.549 75.312C178.615 75.2373 178.713 75.2 178.843 75.2H179.935C180.038 75.2 180.122 75.2327 180.187 75.298C180.253 75.3633 180.285 75.4473 180.285 75.55V84.664C180.285 84.7573 180.253 84.8367 180.187 84.902C180.122 84.9673 180.038 85 179.935 85H178.759C178.657 85 178.573 84.9673 178.507 84.902C178.451 84.8367 178.423 84.7573 178.423 84.664V78.602L176.463 82.34C176.417 82.424 176.356 82.4987 176.281 82.564C176.207 82.62 176.109 82.648 175.987 82.648H175.413C175.283 82.648 175.18 82.62 175.105 82.564C175.04 82.4987 174.984 82.424 174.937 82.34L172.977 78.602V84.664C172.977 84.7573 172.945 84.8367 172.879 84.902C172.814 84.9673 172.735 85 172.641 85H171.465ZM182.799 85C182.706 85 182.626 84.9673 182.561 84.902C182.496 84.8367 182.463 84.7573 182.463 84.664V75.55C182.463 75.4473 182.496 75.3633 182.561 75.298C182.626 75.2327 182.706 75.2 182.799 75.2H186.551C187.279 75.2 187.914 75.3167 188.455 75.55C188.996 75.774 189.416 76.1193 189.715 76.586C190.014 77.0433 190.163 77.6173 190.163 78.308C190.163 79.008 190.014 79.5867 189.715 80.044C189.416 80.492 188.996 80.828 188.455 81.052C187.914 81.276 187.279 81.388 186.551 81.388H184.465V84.664C184.465 84.7573 184.432 84.8367 184.367 84.902C184.311 84.9673 184.232 85 184.129 85H182.799ZM184.437 79.834H186.481C187.022 79.834 187.438 79.708 187.727 79.456C188.016 79.1947 188.161 78.812 188.161 78.308C188.161 77.8413 188.026 77.468 187.755 77.188C187.484 76.8987 187.06 76.754 186.481 76.754H184.437V79.834ZM190.474 85C190.4 85 190.33 84.972 190.264 84.916C190.208 84.86 190.18 84.79 190.18 84.706C190.18 84.6687 190.19 84.6267 190.208 84.58L193.582 75.55C193.61 75.4567 193.662 75.3773 193.736 75.312C193.82 75.2373 193.932 75.2 194.072 75.2H195.598C195.738 75.2 195.846 75.2373 195.92 75.312C195.995 75.3773 196.051 75.4567 196.088 75.55L199.462 84.58C199.472 84.6267 199.476 84.6687 199.476 84.706C199.476 84.79 199.448 84.86 199.392 84.916C199.336 84.972 199.271 85 199.196 85H197.978C197.848 85 197.75 84.972 197.684 84.916C197.628 84.8507 197.591 84.79 197.572 84.734L196.914 83.026H192.756L192.098 84.734C192.08 84.79 192.038 84.8507 191.972 84.916C191.916 84.972 191.823 85 191.692 85H190.474ZM193.246 81.416H196.424L194.828 77.09L193.246 81.416ZM201.119 85C201.026 85 200.947 84.9673 200.881 84.902C200.816 84.8367 200.783 84.7573 200.783 84.664V75.55C200.783 75.4473 200.816 75.3633 200.881 75.298C200.947 75.2327 201.026 75.2 201.119 75.2H202.351C202.454 75.2 202.538 75.2327 202.603 75.298C202.669 75.3633 202.701 75.4473 202.701 75.55V78.826L205.865 75.452C205.903 75.4053 205.963 75.354 206.047 75.298C206.141 75.2327 206.262 75.2 206.411 75.2H207.797C207.872 75.2 207.937 75.228 207.993 75.284C208.059 75.34 208.091 75.41 208.091 75.494C208.091 75.5593 208.073 75.6153 208.035 75.662L204.185 79.89L208.301 84.524C208.348 84.58 208.371 84.6407 208.371 84.706C208.371 84.79 208.339 84.86 208.273 84.916C208.217 84.972 208.152 85 208.077 85H206.635C206.477 85 206.351 84.9673 206.257 84.902C206.173 84.8273 206.117 84.776 206.089 84.748L202.701 81.038V84.664C202.701 84.7573 202.669 84.8367 202.603 84.902C202.538 84.9673 202.454 85 202.351 85H201.119ZM216.135 85.14C215.267 85.14 214.539 85.014 213.951 84.762C213.372 84.5007 212.929 84.1647 212.621 83.754C212.322 83.334 212.163 82.8953 212.145 82.438C212.145 82.354 212.173 82.284 212.229 82.228C212.285 82.172 212.355 82.144 212.439 82.144H213.685C213.806 82.144 213.895 82.172 213.951 82.228C214.016 82.2747 214.072 82.3353 214.119 82.41C214.175 82.5873 214.282 82.7647 214.441 82.942C214.599 83.11 214.814 83.25 215.085 83.362C215.365 83.474 215.715 83.53 216.135 83.53C216.807 83.53 217.306 83.418 217.633 83.194C217.969 82.97 218.137 82.6667 218.137 82.284C218.137 82.0133 218.048 81.7987 217.871 81.64C217.693 81.472 217.418 81.3227 217.045 81.192C216.681 81.052 216.195 80.9073 215.589 80.758C214.889 80.59 214.301 80.3893 213.825 80.156C213.358 79.9133 213.003 79.61 212.761 79.246C212.527 78.882 212.411 78.42 212.411 77.86C212.411 77.3187 212.555 76.838 212.845 76.418C213.143 75.998 213.563 75.6667 214.105 75.424C214.655 75.1813 215.309 75.06 216.065 75.06C216.671 75.06 217.208 75.144 217.675 75.312C218.141 75.4707 218.529 75.6853 218.837 75.956C219.145 76.2173 219.378 76.502 219.537 76.81C219.705 77.1087 219.793 77.4027 219.803 77.692C219.803 77.7667 219.775 77.8367 219.719 77.902C219.672 77.958 219.602 77.986 219.509 77.986H218.207C218.132 77.986 218.057 77.9673 217.983 77.93C217.908 77.8927 217.847 77.8227 217.801 77.72C217.745 77.4307 217.563 77.1833 217.255 76.978C216.947 76.7727 216.55 76.67 216.065 76.67C215.561 76.67 215.155 76.7633 214.847 76.95C214.539 77.1367 214.385 77.426 214.385 77.818C214.385 78.0793 214.459 78.2987 214.609 78.476C214.767 78.644 215.015 78.7933 215.351 78.924C215.696 79.0547 216.149 79.1947 216.709 79.344C217.502 79.5213 218.151 79.7267 218.655 79.96C219.159 80.1933 219.527 80.492 219.761 80.856C219.994 81.2107 220.111 81.6633 220.111 82.214C220.111 82.83 219.943 83.3573 219.607 83.796C219.28 84.2253 218.818 84.5567 218.221 84.79C217.623 85.0233 216.928 85.14 216.135 85.14ZM225.481 85.14C224.65 85.14 223.936 85.0047 223.339 84.734C222.742 84.454 222.275 84.0293 221.939 83.46C221.603 82.8813 221.421 82.1627 221.393 81.304C221.384 80.9027 221.379 80.506 221.379 80.114C221.379 79.722 221.384 79.3207 221.393 78.91C221.421 78.0607 221.608 77.3513 221.953 76.782C222.298 76.2127 222.77 75.7833 223.367 75.494C223.974 75.2047 224.678 75.06 225.481 75.06C226.284 75.06 226.988 75.2047 227.595 75.494C228.202 75.7833 228.678 76.2127 229.023 76.782C229.368 77.3513 229.555 78.0607 229.583 78.91C229.602 79.3207 229.611 79.722 229.611 80.114C229.611 80.506 229.602 80.9027 229.583 81.304C229.555 82.1627 229.373 82.8813 229.037 83.46C228.701 84.0293 228.23 84.454 227.623 84.734C227.026 85.0047 226.312 85.14 225.481 85.14ZM225.481 83.53C226.088 83.53 226.582 83.3527 226.965 82.998C227.348 82.634 227.553 82.046 227.581 81.234C227.6 80.8233 227.609 80.4453 227.609 80.1C227.609 79.7453 227.6 79.3673 227.581 78.966C227.562 78.4247 227.46 77.986 227.273 77.65C227.096 77.3047 226.853 77.0573 226.545 76.908C226.237 76.7493 225.882 76.67 225.481 76.67C225.089 76.67 224.739 76.7493 224.431 76.908C224.123 77.0573 223.876 77.3047 223.689 77.65C223.512 77.986 223.414 78.4247 223.395 78.966C223.386 79.3673 223.381 79.7453 223.381 80.1C223.381 80.4453 223.386 80.8233 223.395 81.234C223.423 82.046 223.628 82.634 224.011 82.998C224.394 83.3527 224.884 83.53 225.481 83.53ZM234.851 85.14C233.983 85.14 233.255 85.014 232.667 84.762C232.089 84.5007 231.645 84.1647 231.337 83.754C231.039 83.334 230.88 82.8953 230.861 82.438C230.861 82.354 230.889 82.284 230.945 82.228C231.001 82.172 231.071 82.144 231.155 82.144H232.401C232.523 82.144 232.611 82.172 232.667 82.228C232.733 82.2747 232.789 82.3353 232.835 82.41C232.891 82.5873 232.999 82.7647 233.157 82.942C233.316 83.11 233.531 83.25 233.801 83.362C234.081 83.474 234.431 83.53 234.851 83.53C235.523 83.53 236.023 83.418 236.349 83.194C236.685 82.97 236.853 82.6667 236.853 82.284C236.853 82.0133 236.765 81.7987 236.587 81.64C236.41 81.472 236.135 81.3227 235.761 81.192C235.397 81.052 234.912 80.9073 234.305 80.758C233.605 80.59 233.017 80.3893 232.541 80.156C232.075 79.9133 231.72 79.61 231.477 79.246C231.244 78.882 231.127 78.42 231.127 77.86C231.127 77.3187 231.272 76.838 231.561 76.418C231.86 75.998 232.28 75.6667 232.821 75.424C233.372 75.1813 234.025 75.06 234.781 75.06C235.388 75.06 235.925 75.144 236.391 75.312C236.858 75.4707 237.245 75.6853 237.553 75.956C237.861 76.2173 238.095 76.502 238.253 76.81C238.421 77.1087 238.51 77.4027 238.519 77.692C238.519 77.7667 238.491 77.8367 238.435 77.902C238.389 77.958 238.319 77.986 238.225 77.986H236.923C236.849 77.986 236.774 77.9673 236.699 77.93C236.625 77.8927 236.564 77.8227 236.517 77.72C236.461 77.4307 236.279 77.1833 235.971 76.978C235.663 76.7727 235.267 76.67 234.781 76.67C234.277 76.67 233.871 76.7633 233.563 76.95C233.255 77.1367 233.101 77.426 233.101 77.818C233.101 78.0793 233.176 78.2987 233.325 78.476C233.484 78.644 233.731 78.7933 234.067 78.924C234.413 79.0547 234.865 79.1947 235.425 79.344C236.219 79.5213 236.867 79.7267 237.371 79.96C237.875 80.1933 238.244 80.492 238.477 80.856C238.711 81.2107 238.827 81.6633 238.827 82.214C238.827 82.83 238.659 83.3573 238.323 83.796C237.997 84.2253 237.535 84.5567 236.937 84.79C236.34 85.0233 235.645 85.14 234.851 85.14ZM240.768 85C240.675 85 240.595 84.9673 240.53 84.902C240.465 84.8367 240.432 84.7573 240.432 84.664V75.536C240.432 75.4427 240.465 75.3633 240.53 75.298C240.595 75.2327 240.675 75.2 240.768 75.2H242.084C242.187 75.2 242.266 75.2327 242.322 75.298C242.387 75.3633 242.42 75.4427 242.42 75.536V84.664C242.42 84.7573 242.387 84.8367 242.322 84.902C242.266 84.9673 242.187 85 242.084 85H240.768ZM244.013 85C243.939 85 243.869 84.972 243.803 84.916C243.747 84.86 243.719 84.79 243.719 84.706C243.719 84.6687 243.729 84.6267 243.747 84.58L247.121 75.55C247.149 75.4567 247.201 75.3773 247.275 75.312C247.359 75.2373 247.471 75.2 247.611 75.2H249.137C249.277 75.2 249.385 75.2373 249.459 75.312C249.534 75.3773 249.59 75.4567 249.627 75.55L253.001 84.58C253.011 84.6267 253.015 84.6687 253.015 84.706C253.015 84.79 252.987 84.86 252.931 84.916C252.875 84.972 252.81 85 252.735 85H251.517C251.387 85 251.289 84.972 251.223 84.916C251.167 84.8507 251.13 84.79 251.111 84.734L250.453 83.026H246.295L245.637 84.734C245.619 84.79 245.577 84.8507 245.511 84.916C245.455 84.972 245.362 85 245.231 85H244.013ZM246.785 81.416H249.963L248.367 77.09L246.785 81.416ZM254.658 85C254.565 85 254.486 84.9673 254.42 84.902C254.355 84.8367 254.322 84.7573 254.322 84.664V75.536C254.322 75.4427 254.355 75.3633 254.42 75.298C254.486 75.2327 254.565 75.2 254.658 75.2H255.96C256.054 75.2 256.133 75.2327 256.198 75.298C256.264 75.3633 256.296 75.4427 256.296 75.536V83.334H260.734C260.837 83.334 260.921 83.3667 260.986 83.432C261.052 83.4973 261.084 83.5813 261.084 83.684V84.664C261.084 84.7573 261.052 84.8367 260.986 84.902C260.921 84.9673 260.837 85 260.734 85H254.658Z" fill="#4D7CFE"/>
<path d="M31.1009 105C31.0076 105 30.9283 104.972 30.8629 104.916C30.8069 104.851 30.7789 104.771 30.7789 104.678V96.446H28.0909C27.9976 96.446 27.9183 96.418 27.8529 96.362C27.7969 96.2967 27.7689 96.2173 27.7689 96.124V95.536C27.7689 95.4333 27.7969 95.354 27.8529 95.298C27.9183 95.2327 27.9976 95.2 28.0909 95.2H34.8389C34.9416 95.2 35.0209 95.2327 35.0769 95.298C35.1423 95.354 35.1749 95.4333 35.1749 95.536V96.124C35.1749 96.2173 35.1423 96.2967 35.0769 96.362C35.0209 96.418 34.9416 96.446 34.8389 96.446H32.1649V104.678C32.1649 104.771 32.1323 104.851 32.0669 104.916C32.0109 104.972 31.9316 105 31.8289 105H31.1009ZM38.1205 105.14C37.1592 105.14 36.3939 104.846 35.8245 104.258C35.2552 103.661 34.9425 102.849 34.8865 101.822C34.8772 101.701 34.8725 101.547 34.8725 101.36C34.8725 101.164 34.8772 101.005 34.8865 100.884C34.9239 100.221 35.0779 99.6427 35.3485 99.148C35.6192 98.644 35.9879 98.2567 36.4545 97.986C36.9305 97.7153 37.4859 97.58 38.1205 97.58C38.8299 97.58 39.4225 97.7293 39.8985 98.028C40.3839 98.3267 40.7525 98.7513 41.0045 99.302C41.2565 99.8527 41.3825 100.497 41.3825 101.234V101.472C41.3825 101.575 41.3499 101.654 41.2845 101.71C41.2285 101.766 41.1539 101.794 41.0605 101.794H36.2165C36.2165 101.803 36.2165 101.822 36.2165 101.85C36.2165 101.878 36.2165 101.901 36.2165 101.92C36.2352 102.303 36.3192 102.662 36.4685 102.998C36.6179 103.325 36.8325 103.591 37.1125 103.796C37.3925 104.001 37.7285 104.104 38.1205 104.104C38.4565 104.104 38.7365 104.053 38.9605 103.95C39.1845 103.847 39.3665 103.735 39.5065 103.614C39.6465 103.483 39.7399 103.385 39.7865 103.32C39.8705 103.199 39.9359 103.129 39.9825 103.11C40.0292 103.082 40.1039 103.068 40.2065 103.068H40.8785C40.9719 103.068 41.0465 103.096 41.1025 103.152C41.1679 103.199 41.1959 103.269 41.1865 103.362C41.1772 103.502 41.1025 103.675 40.9625 103.88C40.8225 104.076 40.6219 104.272 40.3605 104.468C40.0992 104.664 39.7819 104.827 39.4085 104.958C39.0352 105.079 38.6059 105.14 38.1205 105.14ZM36.2165 100.828H40.0525V100.786C40.0525 100.366 39.9732 99.9927 39.8145 99.666C39.6652 99.3393 39.4459 99.0827 39.1565 98.896C38.8672 98.7 38.5219 98.602 38.1205 98.602C37.7192 98.602 37.3739 98.7 37.0845 98.896C36.8045 99.0827 36.5899 99.3393 36.4405 99.666C36.2912 99.9927 36.2165 100.366 36.2165 100.786V100.828ZM43.3785 105C43.2852 105 43.2058 104.972 43.1405 104.916C43.0845 104.851 43.0565 104.771 43.0565 104.678V98.042C43.0565 97.9487 43.0845 97.874 43.1405 97.818C43.2058 97.7527 43.2852 97.72 43.3785 97.72H44.0365C44.1298 97.72 44.2045 97.7527 44.2605 97.818C44.3258 97.874 44.3585 97.9487 44.3585 98.042V98.658C44.6012 98.3407 44.9045 98.084 45.2685 97.888C45.6418 97.6827 46.1178 97.58 46.6965 97.58C47.3032 97.58 47.8165 97.7153 48.2365 97.986C48.6658 98.2473 48.9878 98.616 49.2025 99.092C49.4172 99.5587 49.5245 100.105 49.5245 100.73V104.678C49.5245 104.771 49.4965 104.851 49.4405 104.916C49.3845 104.972 49.3098 105 49.2165 105H48.5165C48.4232 105 48.3438 104.972 48.2785 104.916C48.2225 104.851 48.1945 104.771 48.1945 104.678V100.8C48.1945 100.147 48.0358 99.638 47.7185 99.274C47.4012 98.9007 46.9345 98.714 46.3185 98.714C45.7398 98.714 45.2732 98.9007 44.9185 99.274C44.5732 99.638 44.4005 100.147 44.4005 100.8V104.678C44.4005 104.771 44.3678 104.851 44.3025 104.916C44.2465 104.972 44.1718 105 44.0785 105H43.3785ZM53.5767 105.14C53.1101 105.14 52.6854 105.047 52.3027 104.86C51.9201 104.673 51.6121 104.421 51.3787 104.104C51.1454 103.787 51.0287 103.427 51.0287 103.026C51.0287 102.382 51.2901 101.869 51.8127 101.486C52.3354 101.103 53.0167 100.851 53.8567 100.73L55.9427 100.436V100.03C55.9427 99.582 55.8121 99.232 55.5507 98.98C55.2987 98.728 54.8834 98.602 54.3047 98.602C53.8847 98.602 53.5441 98.686 53.2827 98.854C53.0307 99.022 52.8534 99.2367 52.7507 99.498C52.6947 99.638 52.5967 99.708 52.4567 99.708H51.8267C51.7241 99.708 51.6447 99.68 51.5887 99.624C51.5421 99.5587 51.5187 99.484 51.5187 99.4C51.5187 99.26 51.5701 99.0873 51.6727 98.882C51.7847 98.6767 51.9527 98.476 52.1767 98.28C52.4007 98.084 52.6854 97.9207 53.0307 97.79C53.3854 97.65 53.8147 97.58 54.3187 97.58C54.8787 97.58 55.3501 97.6547 55.7327 97.804C56.1154 97.944 56.4141 98.1353 56.6287 98.378C56.8527 98.6207 57.0114 98.896 57.1047 99.204C57.2074 99.512 57.2587 99.8247 57.2587 100.142V104.678C57.2587 104.771 57.2261 104.851 57.1607 104.916C57.1047 104.972 57.0301 105 56.9367 105H56.2927C56.1901 105 56.1107 104.972 56.0547 104.916C55.9987 104.851 55.9707 104.771 55.9707 104.678V104.076C55.8494 104.244 55.6861 104.412 55.4807 104.58C55.2754 104.739 55.0187 104.874 54.7107 104.986C54.4027 105.089 54.0247 105.14 53.5767 105.14ZM53.8707 104.09C54.2534 104.09 54.6034 104.011 54.9207 103.852C55.2381 103.684 55.4854 103.427 55.6627 103.082C55.8494 102.737 55.9427 102.303 55.9427 101.78V101.388L54.3187 101.626C53.6561 101.719 53.1567 101.878 52.8207 102.102C52.4847 102.317 52.3167 102.592 52.3167 102.928C52.3167 103.189 52.3914 103.409 52.5407 103.586C52.6994 103.754 52.8954 103.88 53.1287 103.964C53.3714 104.048 53.6187 104.09 53.8707 104.09ZM62.2534 108.08C61.6187 108.08 61.096 107.996 60.6854 107.828C60.284 107.66 59.9667 107.455 59.7334 107.212C59.5094 106.979 59.346 106.741 59.2434 106.498C59.15 106.265 59.0987 106.078 59.0894 105.938C59.08 105.845 59.108 105.765 59.1734 105.7C59.248 105.635 59.3274 105.602 59.4114 105.602H60.0834C60.1674 105.602 60.2374 105.621 60.2934 105.658C60.3494 105.695 60.396 105.775 60.4334 105.896C60.4894 106.036 60.5734 106.19 60.6854 106.358C60.7974 106.535 60.97 106.685 61.2034 106.806C61.4367 106.937 61.7634 107.002 62.1834 107.002C62.622 107.002 62.9907 106.941 63.2894 106.82C63.588 106.708 63.812 106.503 63.9614 106.204C64.12 105.915 64.1994 105.513 64.1994 105V104.048C63.9754 104.337 63.6814 104.58 63.3174 104.776C62.9534 104.963 62.496 105.056 61.9454 105.056C61.4227 105.056 60.9747 104.967 60.6014 104.79C60.228 104.603 59.92 104.356 59.6774 104.048C59.444 103.731 59.2667 103.371 59.1454 102.97C59.0334 102.569 58.968 102.149 58.9494 101.71C58.94 101.449 58.94 101.192 58.9494 100.94C58.968 100.501 59.0334 100.081 59.1454 99.68C59.2667 99.2787 59.444 98.9193 59.6774 98.602C59.92 98.2847 60.228 98.0373 60.6014 97.86C60.9747 97.6733 61.4227 97.58 61.9454 97.58C62.5054 97.58 62.9674 97.6873 63.3314 97.902C63.7047 98.1073 64.008 98.3593 64.2414 98.658V98.056C64.2414 97.9627 64.2694 97.8833 64.3254 97.818C64.3907 97.7527 64.47 97.72 64.5634 97.72H65.2074C65.3007 97.72 65.38 97.7527 65.4454 97.818C65.5107 97.8833 65.5434 97.9627 65.5434 98.056V104.846C65.5434 105.471 65.436 106.027 65.2214 106.512C65.016 106.997 64.6707 107.38 64.1854 107.66C63.7094 107.94 63.0654 108.08 62.2534 108.08ZM62.2254 103.936C62.692 103.936 63.0654 103.829 63.3454 103.614C63.6347 103.399 63.8447 103.129 63.9754 102.802C64.1154 102.475 64.19 102.144 64.1994 101.808C64.2087 101.677 64.2134 101.519 64.2134 101.332C64.2134 101.136 64.2087 100.973 64.1994 100.842C64.19 100.506 64.1154 100.175 63.9754 99.848C63.8447 99.5213 63.6347 99.2507 63.3454 99.036C63.0654 98.8213 62.692 98.714 62.2254 98.714C61.7587 98.714 61.3854 98.8213 61.1054 99.036C60.8254 99.2413 60.6247 99.5167 60.5034 99.862C60.382 100.198 60.312 100.562 60.2934 100.954C60.284 101.197 60.284 101.444 60.2934 101.696C60.312 102.088 60.382 102.457 60.5034 102.802C60.6247 103.138 60.8254 103.413 61.1054 103.628C61.3854 103.833 61.7587 103.936 62.2254 103.936ZM69.6549 105.14C69.1882 105.14 68.7635 105.047 68.3809 104.86C67.9982 104.673 67.6902 104.421 67.4569 104.104C67.2235 103.787 67.1069 103.427 67.1069 103.026C67.1069 102.382 67.3682 101.869 67.8909 101.486C68.4135 101.103 69.0949 100.851 69.9349 100.73L72.0209 100.436V100.03C72.0209 99.582 71.8902 99.232 71.6289 98.98C71.3769 98.728 70.9615 98.602 70.3829 98.602C69.9629 98.602 69.6222 98.686 69.3609 98.854C69.1089 99.022 68.9315 99.2367 68.8289 99.498C68.7729 99.638 68.6749 99.708 68.5349 99.708H67.9049C67.8022 99.708 67.7229 99.68 67.6669 99.624C67.6202 99.5587 67.5969 99.484 67.5969 99.4C67.5969 99.26 67.6482 99.0873 67.7509 98.882C67.8629 98.6767 68.0309 98.476 68.2549 98.28C68.4789 98.084 68.7635 97.9207 69.1089 97.79C69.4635 97.65 69.8929 97.58 70.3969 97.58C70.9569 97.58 71.4282 97.6547 71.8109 97.804C72.1935 97.944 72.4922 98.1353 72.7069 98.378C72.9309 98.6207 73.0895 98.896 73.1829 99.204C73.2855 99.512 73.3369 99.8247 73.3369 100.142V104.678C73.3369 104.771 73.3042 104.851 73.2389 104.916C73.1829 104.972 73.1082 105 73.0149 105H72.3709C72.2682 105 72.1889 104.972 72.1329 104.916C72.0769 104.851 72.0489 104.771 72.0489 104.678V104.076C71.9275 104.244 71.7642 104.412 71.5589 104.58C71.3535 104.739 71.0969 104.874 70.7889 104.986C70.4809 105.089 70.1029 105.14 69.6549 105.14ZM69.9489 104.09C70.3315 104.09 70.6815 104.011 70.9989 103.852C71.3162 103.684 71.5635 103.427 71.7409 103.082C71.9275 102.737 72.0209 102.303 72.0209 101.78V101.388L70.3969 101.626C69.7342 101.719 69.2349 101.878 68.8989 102.102C68.5629 102.317 68.3949 102.592 68.3949 102.928C68.3949 103.189 68.4695 103.409 68.6189 103.586C68.7775 103.754 68.9735 103.88 69.2069 103.964C69.4495 104.048 69.6969 104.09 69.9489 104.09ZM79.2851 105C79.1825 105 79.1031 104.972 79.0471 104.916C78.9911 104.851 78.9631 104.771 78.9631 104.678V95.536C78.9631 95.4333 78.9911 95.354 79.0471 95.298C79.1031 95.2327 79.1825 95.2 79.2851 95.2H79.9851C80.0878 95.2 80.1671 95.2327 80.2231 95.298C80.2885 95.354 80.3211 95.4333 80.3211 95.536V99.008L84.0591 95.424C84.0965 95.3867 84.1571 95.34 84.2411 95.284C84.3345 95.228 84.4558 95.2 84.6051 95.2H85.3611C85.4358 95.2 85.5011 95.228 85.5571 95.284C85.6131 95.34 85.6411 95.4053 85.6411 95.48C85.6411 95.5547 85.6225 95.6153 85.5851 95.662L81.2591 99.89L85.8651 104.524C85.9118 104.58 85.9351 104.645 85.9351 104.72C85.9351 104.795 85.9071 104.86 85.8511 104.916C85.7951 104.972 85.7298 105 85.6551 105H84.8711C84.7125 105 84.5911 104.972 84.5071 104.916C84.4231 104.851 84.3625 104.804 84.3251 104.776L80.3211 100.828V104.678C80.3211 104.771 80.2885 104.851 80.2231 104.916C80.1671 104.972 80.0878 105 79.9851 105H79.2851ZM89.6635 105.14C88.7022 105.14 87.9368 104.846 87.3675 104.258C86.7982 103.661 86.4855 102.849 86.4295 101.822C86.4202 101.701 86.4155 101.547 86.4155 101.36C86.4155 101.164 86.4202 101.005 86.4295 100.884C86.4668 100.221 86.6208 99.6427 86.8915 99.148C87.1622 98.644 87.5308 98.2567 87.9975 97.986C88.4735 97.7153 89.0288 97.58 89.6635 97.58C90.3728 97.58 90.9655 97.7293 91.4415 98.028C91.9268 98.3267 92.2955 98.7513 92.5475 99.302C92.7995 99.8527 92.9255 100.497 92.9255 101.234V101.472C92.9255 101.575 92.8928 101.654 92.8275 101.71C92.7715 101.766 92.6968 101.794 92.6035 101.794H87.7595C87.7595 101.803 87.7595 101.822 87.7595 101.85C87.7595 101.878 87.7595 101.901 87.7595 101.92C87.7782 102.303 87.8622 102.662 88.0115 102.998C88.1608 103.325 88.3755 103.591 88.6555 103.796C88.9355 104.001 89.2715 104.104 89.6635 104.104C89.9995 104.104 90.2795 104.053 90.5035 103.95C90.7275 103.847 90.9095 103.735 91.0495 103.614C91.1895 103.483 91.2828 103.385 91.3295 103.32C91.4135 103.199 91.4788 103.129 91.5255 103.11C91.5722 103.082 91.6468 103.068 91.7495 103.068H92.4215C92.5148 103.068 92.5895 103.096 92.6455 103.152C92.7108 103.199 92.7388 103.269 92.7295 103.362C92.7202 103.502 92.6455 103.675 92.5055 103.88C92.3655 104.076 92.1648 104.272 91.9035 104.468C91.6422 104.664 91.3248 104.827 90.9515 104.958C90.5782 105.079 90.1488 105.14 89.6635 105.14ZM87.7595 100.828H91.5955V100.786C91.5955 100.366 91.5162 99.9927 91.3575 99.666C91.2082 99.3393 90.9888 99.0827 90.6995 98.896C90.4102 98.7 90.0648 98.602 89.6635 98.602C89.2622 98.602 88.9168 98.7 88.6275 98.896C88.3475 99.0827 88.1328 99.3393 87.9835 99.666C87.8342 99.9927 87.7595 100.366 87.7595 100.786V100.828ZM94.9215 105C94.8281 105 94.7488 104.972 94.6835 104.916C94.6275 104.851 94.5995 104.771 94.5995 104.678V98.056C94.5995 97.9627 94.6275 97.8833 94.6835 97.818C94.7488 97.7527 94.8281 97.72 94.9215 97.72H95.5655C95.6588 97.72 95.7381 97.7527 95.8035 97.818C95.8688 97.8833 95.9015 97.9627 95.9015 98.056V98.672C96.0881 98.3547 96.3448 98.1167 96.6715 97.958C96.9981 97.7993 97.3901 97.72 97.8475 97.72H98.4075C98.5008 97.72 98.5755 97.7527 98.6315 97.818C98.6875 97.874 98.7155 97.9487 98.7155 98.042V98.616C98.7155 98.7093 98.6875 98.784 98.6315 98.84C98.5755 98.896 98.5008 98.924 98.4075 98.924H97.5675C97.0635 98.924 96.6668 99.0733 96.3775 99.372C96.0881 99.6613 95.9435 100.058 95.9435 100.562V104.678C95.9435 104.771 95.9108 104.851 95.8455 104.916C95.7801 104.972 95.7008 105 95.6075 105H94.9215ZM98.7278 107.66C98.6345 107.66 98.5598 107.627 98.5038 107.562C98.4385 107.506 98.4058 107.431 98.4058 107.338V106.862C98.4058 106.769 98.4385 106.689 98.5038 106.624C98.5598 106.568 98.6345 106.54 98.7278 106.54H98.9238C99.2598 106.54 99.5072 106.475 99.6658 106.344C99.8245 106.223 99.9272 106.059 99.9738 105.854C100.03 105.649 100.058 105.415 100.058 105.154V98.042C100.058 97.9487 100.086 97.874 100.142 97.818C100.207 97.7527 100.287 97.72 100.38 97.72H101.066C101.159 97.72 101.234 97.7527 101.29 97.818C101.355 97.874 101.388 97.9487 101.388 98.042V105.168C101.388 105.663 101.309 106.097 101.15 106.47C101.001 106.843 100.753 107.133 100.408 107.338C100.063 107.553 99.5912 107.66 98.9938 107.66H98.7278ZM100.268 96.362C100.175 96.362 100.095 96.334 100.03 96.278C99.9738 96.2127 99.9458 96.1333 99.9458 96.04V95.284C99.9458 95.1907 99.9738 95.116 100.03 95.06C100.095 94.9947 100.175 94.962 100.268 94.962H101.164C101.257 94.962 101.337 94.9947 101.402 95.06C101.467 95.116 101.5 95.1907 101.5 95.284V96.04C101.5 96.1333 101.467 96.2127 101.402 96.278C101.337 96.334 101.257 96.362 101.164 96.362H100.268ZM105.503 105.14C105.036 105.14 104.611 105.047 104.229 104.86C103.846 104.673 103.538 104.421 103.305 104.104C103.071 103.787 102.955 103.427 102.955 103.026C102.955 102.382 103.216 101.869 103.739 101.486C104.261 101.103 104.943 100.851 105.783 100.73L107.869 100.436V100.03C107.869 99.582 107.738 99.232 107.477 98.98C107.225 98.728 106.809 98.602 106.231 98.602C105.811 98.602 105.47 98.686 105.209 98.854C104.957 99.022 104.779 99.2367 104.677 99.498C104.621 99.638 104.523 99.708 104.383 99.708H103.753C103.65 99.708 103.571 99.68 103.515 99.624C103.468 99.5587 103.445 99.484 103.445 99.4C103.445 99.26 103.496 99.0873 103.599 98.882C103.711 98.6767 103.879 98.476 104.103 98.28C104.327 98.084 104.611 97.9207 104.957 97.79C105.311 97.65 105.741 97.58 106.245 97.58C106.805 97.58 107.276 97.6547 107.659 97.804C108.041 97.944 108.34 98.1353 108.555 98.378C108.779 98.6207 108.937 98.896 109.031 99.204C109.133 99.512 109.185 99.8247 109.185 100.142V104.678C109.185 104.771 109.152 104.851 109.087 104.916C109.031 104.972 108.956 105 108.863 105H108.219C108.116 105 108.037 104.972 107.981 104.916C107.925 104.851 107.897 104.771 107.897 104.678V104.076C107.775 104.244 107.612 104.412 107.407 104.58C107.201 104.739 106.945 104.874 106.637 104.986C106.329 105.089 105.951 105.14 105.503 105.14ZM105.797 104.09C106.179 104.09 106.529 104.011 106.847 103.852C107.164 103.684 107.411 103.427 107.589 103.082C107.775 102.737 107.869 102.303 107.869 101.78V101.388L106.245 101.626C105.582 101.719 105.083 101.878 104.747 102.102C104.411 102.317 104.243 102.592 104.243 102.928C104.243 103.189 104.317 103.409 104.467 103.586C104.625 103.754 104.821 103.88 105.055 103.964C105.297 104.048 105.545 104.09 105.797 104.09ZM116.919 105C116.826 105 116.747 104.972 116.681 104.916C116.625 104.851 116.597 104.771 116.597 104.678V96.446H113.909C113.816 96.446 113.737 96.418 113.671 96.362C113.615 96.2967 113.587 96.2173 113.587 96.124V95.536C113.587 95.4333 113.615 95.354 113.671 95.298C113.737 95.2327 113.816 95.2 113.909 95.2H120.657C120.76 95.2 120.839 95.2327 120.895 95.298C120.961 95.354 120.993 95.4333 120.993 95.536V96.124C120.993 96.2173 120.961 96.2967 120.895 96.362C120.839 96.418 120.76 96.446 120.657 96.446H117.983V104.678C117.983 104.771 117.951 104.851 117.885 104.916C117.829 104.972 117.75 105 117.647 105H116.919ZM123.939 105.14C122.978 105.14 122.212 104.846 121.643 104.258C121.074 103.661 120.761 102.849 120.705 101.822C120.696 101.701 120.691 101.547 120.691 101.36C120.691 101.164 120.696 101.005 120.705 100.884C120.742 100.221 120.896 99.6427 121.167 99.148C121.438 98.644 121.806 98.2567 122.273 97.986C122.749 97.7153 123.304 97.58 123.939 97.58C124.648 97.58 125.241 97.7293 125.717 98.028C126.202 98.3267 126.571 98.7513 126.823 99.302C127.075 99.8527 127.201 100.497 127.201 101.234V101.472C127.201 101.575 127.168 101.654 127.103 101.71C127.047 101.766 126.972 101.794 126.879 101.794H122.035C122.035 101.803 122.035 101.822 122.035 101.85C122.035 101.878 122.035 101.901 122.035 101.92C122.054 102.303 122.138 102.662 122.287 102.998C122.436 103.325 122.651 103.591 122.931 103.796C123.211 104.001 123.547 104.104 123.939 104.104C124.275 104.104 124.555 104.053 124.779 103.95C125.003 103.847 125.185 103.735 125.325 103.614C125.465 103.483 125.558 103.385 125.605 103.32C125.689 103.199 125.754 103.129 125.801 103.11C125.848 103.082 125.922 103.068 126.025 103.068H126.697C126.79 103.068 126.865 103.096 126.921 103.152C126.986 103.199 127.014 103.269 127.005 103.362C126.996 103.502 126.921 103.675 126.781 103.88C126.641 104.076 126.44 104.272 126.179 104.468C125.918 104.664 125.6 104.827 125.227 104.958C124.854 105.079 124.424 105.14 123.939 105.14ZM122.035 100.828H125.871V100.786C125.871 100.366 125.792 99.9927 125.633 99.666C125.484 99.3393 125.264 99.0827 124.975 98.896C124.686 98.7 124.34 98.602 123.939 98.602C123.538 98.602 123.192 98.7 122.903 98.896C122.623 99.0827 122.408 99.3393 122.259 99.666C122.11 99.9927 122.035 100.366 122.035 100.786V100.828ZM129.197 105C129.104 105 129.024 104.972 128.959 104.916C128.903 104.851 128.875 104.771 128.875 104.678V98.056C128.875 97.9627 128.903 97.8833 128.959 97.818C129.024 97.7527 129.104 97.72 129.197 97.72H129.841C129.934 97.72 130.014 97.7527 130.079 97.818C130.144 97.8833 130.177 97.9627 130.177 98.056V98.672C130.364 98.3547 130.62 98.1167 130.947 97.958C131.274 97.7993 131.666 97.72 132.123 97.72H132.683C132.776 97.72 132.851 97.7527 132.907 97.818C132.963 97.874 132.991 97.9487 132.991 98.042V98.616C132.991 98.7093 132.963 98.784 132.907 98.84C132.851 98.896 132.776 98.924 132.683 98.924H131.843C131.339 98.924 130.942 99.0733 130.653 99.372C130.364 99.6613 130.219 100.058 130.219 100.562V104.678C130.219 104.771 130.186 104.851 130.121 104.916C130.056 104.972 129.976 105 129.883 105H129.197ZM136.713 105.14C136.191 105.14 135.743 105.075 135.369 104.944C134.996 104.813 134.693 104.655 134.459 104.468C134.226 104.281 134.049 104.095 133.927 103.908C133.815 103.721 133.755 103.572 133.745 103.46C133.736 103.357 133.769 103.278 133.843 103.222C133.918 103.166 133.993 103.138 134.067 103.138H134.683C134.739 103.138 134.781 103.147 134.809 103.166C134.847 103.175 134.893 103.213 134.949 103.278C135.071 103.409 135.206 103.539 135.355 103.67C135.505 103.801 135.687 103.908 135.901 103.992C136.125 104.076 136.401 104.118 136.727 104.118C137.203 104.118 137.595 104.029 137.903 103.852C138.211 103.665 138.365 103.395 138.365 103.04C138.365 102.807 138.3 102.62 138.169 102.48C138.048 102.34 137.824 102.214 137.497 102.102C137.18 101.99 136.741 101.873 136.181 101.752C135.621 101.621 135.178 101.463 134.851 101.276C134.525 101.08 134.291 100.851 134.151 100.59C134.011 100.319 133.941 100.016 133.941 99.68C133.941 99.3347 134.044 99.0033 134.249 98.686C134.455 98.3593 134.753 98.0933 135.145 97.888C135.547 97.6827 136.046 97.58 136.643 97.58C137.129 97.58 137.544 97.6407 137.889 97.762C138.235 97.8833 138.519 98.0373 138.743 98.224C138.967 98.4013 139.135 98.5787 139.247 98.756C139.359 98.9333 139.42 99.0827 139.429 99.204C139.439 99.2973 139.411 99.3767 139.345 99.442C139.28 99.498 139.205 99.526 139.121 99.526H138.533C138.468 99.526 138.412 99.512 138.365 99.484C138.328 99.456 138.291 99.4233 138.253 99.386C138.16 99.2647 138.048 99.1433 137.917 99.022C137.796 98.9007 137.633 98.8027 137.427 98.728C137.231 98.644 136.97 98.602 136.643 98.602C136.177 98.602 135.827 98.7 135.593 98.896C135.36 99.092 135.243 99.3393 135.243 99.638C135.243 99.8153 135.295 99.974 135.397 100.114C135.5 100.254 135.696 100.38 135.985 100.492C136.275 100.604 136.704 100.725 137.273 100.856C137.889 100.977 138.375 101.141 138.729 101.346C139.084 101.551 139.336 101.789 139.485 102.06C139.635 102.331 139.709 102.643 139.709 102.998C139.709 103.39 139.593 103.749 139.359 104.076C139.135 104.403 138.799 104.664 138.351 104.86C137.913 105.047 137.367 105.14 136.713 105.14ZM144.228 105.14C143.267 105.14 142.501 104.846 141.932 104.258C141.363 103.661 141.05 102.849 140.994 101.822C140.985 101.701 140.98 101.547 140.98 101.36C140.98 101.164 140.985 101.005 140.994 100.884C141.031 100.221 141.185 99.6427 141.456 99.148C141.727 98.644 142.095 98.2567 142.562 97.986C143.038 97.7153 143.593 97.58 144.228 97.58C144.937 97.58 145.53 97.7293 146.006 98.028C146.491 98.3267 146.86 98.7513 147.112 99.302C147.364 99.8527 147.49 100.497 147.49 101.234V101.472C147.49 101.575 147.457 101.654 147.392 101.71C147.336 101.766 147.261 101.794 147.168 101.794H142.324C142.324 101.803 142.324 101.822 142.324 101.85C142.324 101.878 142.324 101.901 142.324 101.92C142.343 102.303 142.427 102.662 142.576 102.998C142.725 103.325 142.94 103.591 143.22 103.796C143.5 104.001 143.836 104.104 144.228 104.104C144.564 104.104 144.844 104.053 145.068 103.95C145.292 103.847 145.474 103.735 145.614 103.614C145.754 103.483 145.847 103.385 145.894 103.32C145.978 103.199 146.043 103.129 146.09 103.11C146.137 103.082 146.211 103.068 146.314 103.068H146.986C147.079 103.068 147.154 103.096 147.21 103.152C147.275 103.199 147.303 103.269 147.294 103.362C147.285 103.502 147.21 103.675 147.07 103.88C146.93 104.076 146.729 104.272 146.468 104.468C146.207 104.664 145.889 104.827 145.516 104.958C145.143 105.079 144.713 105.14 144.228 105.14ZM142.324 100.828H146.16V100.786C146.16 100.366 146.081 99.9927 145.922 99.666C145.773 99.3393 145.553 99.0827 145.264 98.896C144.975 98.7 144.629 98.602 144.228 98.602C143.827 98.602 143.481 98.7 143.192 98.896C142.912 99.0827 142.697 99.3393 142.548 99.666C142.399 99.9927 142.324 100.366 142.324 100.786V100.828ZM149.486 105C149.393 105 149.313 104.972 149.248 104.916C149.192 104.851 149.164 104.771 149.164 104.678V98.056C149.164 97.9627 149.192 97.8833 149.248 97.818C149.313 97.7527 149.393 97.72 149.486 97.72H150.13C150.223 97.72 150.303 97.7527 150.368 97.818C150.433 97.8833 150.466 97.9627 150.466 98.056V98.672C150.653 98.3547 150.909 98.1167 151.236 97.958C151.563 97.7993 151.955 97.72 152.412 97.72H152.972C153.065 97.72 153.14 97.7527 153.196 97.818C153.252 97.874 153.28 97.9487 153.28 98.042V98.616C153.28 98.7093 153.252 98.784 153.196 98.84C153.14 98.896 153.065 98.924 152.972 98.924H152.132C151.628 98.924 151.231 99.0733 150.942 99.372C150.653 99.6613 150.508 100.058 150.508 100.562V104.678C150.508 104.771 150.475 104.851 150.41 104.916C150.345 104.972 150.265 105 150.172 105H149.486ZM156.403 105.14C155.936 105.14 155.512 105.047 155.129 104.86C154.746 104.673 154.438 104.421 154.205 104.104C153.972 103.787 153.855 103.427 153.855 103.026C153.855 102.382 154.116 101.869 154.639 101.486C155.162 101.103 155.843 100.851 156.683 100.73L158.769 100.436V100.03C158.769 99.582 158.638 99.232 158.377 98.98C158.125 98.728 157.71 98.602 157.131 98.602C156.711 98.602 156.37 98.686 156.109 98.854C155.857 99.022 155.68 99.2367 155.577 99.498C155.521 99.638 155.423 99.708 155.283 99.708H154.653C154.55 99.708 154.471 99.68 154.415 99.624C154.368 99.5587 154.345 99.484 154.345 99.4C154.345 99.26 154.396 99.0873 154.499 98.882C154.611 98.6767 154.779 98.476 155.003 98.28C155.227 98.084 155.512 97.9207 155.857 97.79C156.212 97.65 156.641 97.58 157.145 97.58C157.705 97.58 158.176 97.6547 158.559 97.804C158.942 97.944 159.24 98.1353 159.455 98.378C159.679 98.6207 159.838 98.896 159.931 99.204C160.034 99.512 160.085 99.8247 160.085 100.142V104.678C160.085 104.771 160.052 104.851 159.987 104.916C159.931 104.972 159.856 105 159.763 105H159.119C159.016 105 158.937 104.972 158.881 104.916C158.825 104.851 158.797 104.771 158.797 104.678V104.076C158.676 104.244 158.512 104.412 158.307 104.58C158.102 104.739 157.845 104.874 157.537 104.986C157.229 105.089 156.851 105.14 156.403 105.14ZM156.697 104.09C157.08 104.09 157.43 104.011 157.747 103.852C158.064 103.684 158.312 103.427 158.489 103.082C158.676 102.737 158.769 102.303 158.769 101.78V101.388L157.145 101.626C156.482 101.719 155.983 101.878 155.647 102.102C155.311 102.317 155.143 102.592 155.143 102.928C155.143 103.189 155.218 103.409 155.367 103.586C155.526 103.754 155.722 103.88 155.955 103.964C156.198 104.048 156.445 104.09 156.697 104.09ZM162.434 107.66C162.34 107.66 162.261 107.627 162.196 107.562C162.14 107.506 162.112 107.431 162.112 107.338V98.042C162.112 97.9487 162.14 97.874 162.196 97.818C162.261 97.7527 162.34 97.72 162.434 97.72H163.078C163.171 97.72 163.246 97.7527 163.302 97.818C163.367 97.874 163.4 97.9487 163.4 98.042V98.658C163.624 98.35 163.922 98.0933 164.296 97.888C164.669 97.6827 165.136 97.58 165.696 97.58C166.218 97.58 166.662 97.6687 167.026 97.846C167.399 98.0233 167.702 98.266 167.936 98.574C168.178 98.882 168.36 99.232 168.482 99.624C168.603 100.016 168.668 100.436 168.678 100.884C168.687 101.033 168.692 101.192 168.692 101.36C168.692 101.528 168.687 101.687 168.678 101.836C168.668 102.275 168.603 102.695 168.482 103.096C168.36 103.488 168.178 103.838 167.936 104.146C167.702 104.445 167.399 104.687 167.026 104.874C166.662 105.051 166.218 105.14 165.696 105.14C165.154 105.14 164.697 105.042 164.324 104.846C163.96 104.641 163.661 104.389 163.428 104.09V107.338C163.428 107.431 163.4 107.506 163.344 107.562C163.288 107.627 163.208 107.66 163.106 107.66H162.434ZM165.402 104.006C165.887 104.006 166.265 103.903 166.536 103.698C166.816 103.483 167.016 103.208 167.138 102.872C167.259 102.527 167.329 102.158 167.348 101.766C167.357 101.495 167.357 101.225 167.348 100.954C167.329 100.562 167.259 100.198 167.138 99.862C167.016 99.5167 166.816 99.2413 166.536 99.036C166.265 98.8213 165.887 98.714 165.402 98.714C164.944 98.714 164.571 98.8213 164.282 99.036C164.002 99.2507 163.792 99.526 163.652 99.862C163.521 100.189 163.446 100.525 163.428 100.87C163.418 101.019 163.414 101.197 163.414 101.402C163.414 101.607 163.418 101.789 163.428 101.948C163.437 102.275 163.512 102.597 163.652 102.914C163.801 103.231 164.02 103.493 164.31 103.698C164.599 103.903 164.963 104.006 165.402 104.006ZM176.851 105.14C176.207 105.14 175.642 105.023 175.157 104.79C174.672 104.557 174.294 104.235 174.023 103.824C173.752 103.404 173.617 102.923 173.617 102.382C173.617 101.953 173.706 101.579 173.883 101.262C174.07 100.935 174.312 100.646 174.611 100.394C174.91 100.142 175.236 99.9133 175.591 99.708C175.152 99.2413 174.84 98.8307 174.653 98.476C174.476 98.1213 174.387 97.7527 174.387 97.37C174.387 96.95 174.494 96.5673 174.709 96.222C174.924 95.8767 175.227 95.5967 175.619 95.382C176.011 95.1673 176.473 95.06 177.005 95.06C177.518 95.06 177.966 95.1627 178.349 95.368C178.741 95.5733 179.044 95.8487 179.259 96.194C179.474 96.5393 179.581 96.9267 179.581 97.356C179.581 97.7667 179.483 98.126 179.287 98.434C179.091 98.742 178.83 99.0173 178.503 99.26C178.186 99.5027 177.836 99.7313 177.453 99.946L179.833 102.284C179.982 102.023 180.122 101.719 180.253 101.374C180.393 101.029 180.5 100.623 180.575 100.156C180.603 99.9693 180.706 99.876 180.883 99.876H181.499C181.583 99.876 181.653 99.904 181.709 99.96C181.765 100.016 181.793 100.086 181.793 100.17C181.784 100.375 181.751 100.595 181.695 100.828C181.648 101.061 181.574 101.309 181.471 101.57C181.378 101.831 181.261 102.093 181.121 102.354C180.99 102.606 180.836 102.858 180.659 103.11L182.087 104.524C182.171 104.599 182.213 104.669 182.213 104.734C182.213 104.818 182.19 104.883 182.143 104.93C182.096 104.977 182.026 105 181.933 105H181.149C181.056 105 180.976 104.986 180.911 104.958C180.855 104.93 180.808 104.897 180.771 104.86L179.847 103.95C179.483 104.305 179.054 104.594 178.559 104.818C178.064 105.033 177.495 105.14 176.851 105.14ZM176.851 104.02C177.224 104.02 177.598 103.945 177.971 103.796C178.344 103.637 178.69 103.404 179.007 103.096L176.389 100.534C175.988 100.758 175.638 101.015 175.339 101.304C175.05 101.584 174.905 101.934 174.905 102.354C174.905 102.709 174.994 103.012 175.171 103.264C175.358 103.507 175.6 103.693 175.899 103.824C176.198 103.955 176.515 104.02 176.851 104.02ZM176.683 99.134C176.982 98.966 177.257 98.798 177.509 98.63C177.77 98.462 177.976 98.2753 178.125 98.07C178.284 97.8647 178.363 97.6313 178.363 97.37C178.363 96.9967 178.232 96.698 177.971 96.474C177.71 96.25 177.388 96.138 177.005 96.138C176.641 96.138 176.319 96.25 176.039 96.474C175.768 96.6887 175.633 96.992 175.633 97.384C175.633 97.5427 175.661 97.706 175.717 97.874C175.782 98.0327 175.89 98.21 176.039 98.406C176.188 98.602 176.403 98.8447 176.683 99.134ZM190.957 105C190.854 105 190.775 104.972 190.719 104.916C190.663 104.851 190.635 104.771 190.635 104.678V95.536C190.635 95.4333 190.663 95.354 190.719 95.298C190.775 95.2327 190.854 95.2 190.957 95.2H194.135C195.096 95.2 195.871 95.3447 196.459 95.634C197.047 95.9233 197.476 96.3527 197.747 96.922C198.018 97.482 198.158 98.1727 198.167 98.994C198.176 99.414 198.181 99.7827 198.181 100.1C198.181 100.417 198.176 100.781 198.167 101.192C198.148 102.051 198.004 102.765 197.733 103.334C197.472 103.894 197.052 104.314 196.473 104.594C195.904 104.865 195.148 105 194.205 105H190.957ZM192.007 103.81H194.135C194.779 103.81 195.292 103.721 195.675 103.544C196.058 103.367 196.333 103.082 196.501 102.69C196.678 102.298 196.772 101.78 196.781 101.136C196.8 100.856 196.809 100.613 196.809 100.408C196.809 100.193 196.809 99.9833 196.809 99.778C196.809 99.5633 196.8 99.3207 196.781 99.05C196.762 98.1447 196.548 97.4773 196.137 97.048C195.726 96.6093 195.036 96.39 194.065 96.39H192.007V103.81ZM203.087 105.14C202.378 105.14 201.785 105.005 201.309 104.734C200.833 104.463 200.469 104.09 200.217 103.614C199.965 103.129 199.825 102.578 199.797 101.962C199.788 101.803 199.783 101.603 199.783 101.36C199.783 101.108 199.788 100.907 199.797 100.758C199.825 100.133 199.965 99.582 200.217 99.106C200.479 98.63 200.847 98.2567 201.323 97.986C201.799 97.7153 202.387 97.58 203.087 97.58C203.787 97.58 204.375 97.7153 204.851 97.986C205.327 98.2567 205.691 98.63 205.943 99.106C206.205 99.582 206.349 100.133 206.377 100.758C206.387 100.907 206.391 101.108 206.391 101.36C206.391 101.603 206.387 101.803 206.377 101.962C206.349 102.578 206.209 103.129 205.957 103.614C205.705 104.09 205.341 104.463 204.865 104.734C204.389 105.005 203.797 105.14 203.087 105.14ZM203.087 104.062C203.666 104.062 204.128 103.88 204.473 103.516C204.819 103.143 205.005 102.601 205.033 101.892C205.043 101.752 205.047 101.575 205.047 101.36C205.047 101.145 205.043 100.968 205.033 100.828C205.005 100.119 204.819 99.582 204.473 99.218C204.128 98.8447 203.666 98.658 203.087 98.658C202.509 98.658 202.042 98.8447 201.687 99.218C201.342 99.582 201.16 100.119 201.141 100.828C201.132 100.968 201.127 101.145 201.127 101.36C201.127 101.575 201.132 101.752 201.141 101.892C201.16 102.601 201.342 103.143 201.687 103.516C202.042 103.88 202.509 104.062 203.087 104.062ZM208.466 105C208.373 105 208.294 104.972 208.228 104.916C208.172 104.851 208.144 104.771 208.144 104.678V98.042C208.144 97.9487 208.172 97.874 208.228 97.818C208.294 97.7527 208.373 97.72 208.466 97.72H209.124C209.218 97.72 209.292 97.7527 209.348 97.818C209.414 97.874 209.446 97.9487 209.446 98.042V98.658C209.689 98.3407 209.992 98.084 210.356 97.888C210.73 97.6827 211.206 97.58 211.784 97.58C212.391 97.58 212.904 97.7153 213.324 97.986C213.754 98.2473 214.076 98.616 214.29 99.092C214.505 99.5587 214.612 100.105 214.612 100.73V104.678C214.612 104.771 214.584 104.851 214.528 104.916C214.472 104.972 214.398 105 214.304 105H213.604C213.511 105 213.432 104.972 213.366 104.916C213.31 104.851 213.282 104.771 213.282 104.678V100.8C213.282 100.147 213.124 99.638 212.806 99.274C212.489 98.9007 212.022 98.714 211.406 98.714C210.828 98.714 210.361 98.9007 210.006 99.274C209.661 99.638 209.488 100.147 209.488 100.8V104.678C209.488 104.771 209.456 104.851 209.39 104.916C209.334 104.972 209.26 105 209.166 105H208.466ZM218.665 105.14C218.198 105.14 217.773 105.047 217.391 104.86C217.008 104.673 216.7 104.421 216.467 104.104C216.233 103.787 216.117 103.427 216.117 103.026C216.117 102.382 216.378 101.869 216.901 101.486C217.423 101.103 218.105 100.851 218.945 100.73L221.031 100.436V100.03C221.031 99.582 220.9 99.232 220.639 98.98C220.387 98.728 219.971 98.602 219.393 98.602C218.973 98.602 218.632 98.686 218.371 98.854C218.119 99.022 217.941 99.2367 217.839 99.498C217.783 99.638 217.685 99.708 217.545 99.708H216.915C216.812 99.708 216.733 99.68 216.677 99.624C216.63 99.5587 216.607 99.484 216.607 99.4C216.607 99.26 216.658 99.0873 216.761 98.882C216.873 98.6767 217.041 98.476 217.265 98.28C217.489 98.084 217.773 97.9207 218.119 97.79C218.473 97.65 218.903 97.58 219.407 97.58C219.967 97.58 220.438 97.6547 220.821 97.804C221.203 97.944 221.502 98.1353 221.717 98.378C221.941 98.6207 222.099 98.896 222.193 99.204C222.295 99.512 222.347 99.8247 222.347 100.142V104.678C222.347 104.771 222.314 104.851 222.249 104.916C222.193 104.972 222.118 105 222.025 105H221.381C221.278 105 221.199 104.972 221.143 104.916C221.087 104.851 221.059 104.771 221.059 104.678V104.076C220.937 104.244 220.774 104.412 220.569 104.58C220.363 104.739 220.107 104.874 219.799 104.986C219.491 105.089 219.113 105.14 218.665 105.14ZM218.959 104.09C219.341 104.09 219.691 104.011 220.009 103.852C220.326 103.684 220.573 103.427 220.751 103.082C220.937 102.737 221.031 102.303 221.031 101.78V101.388L219.407 101.626C218.744 101.719 218.245 101.878 217.909 102.102C217.573 102.317 217.405 102.592 217.405 102.928C217.405 103.189 217.479 103.409 217.629 103.586C217.787 103.754 217.983 103.88 218.217 103.964C218.459 104.048 218.707 104.09 218.959 104.09ZM226.879 105.14C226.357 105.14 225.909 105.075 225.535 104.944C225.162 104.813 224.859 104.655 224.625 104.468C224.392 104.281 224.215 104.095 224.093 103.908C223.981 103.721 223.921 103.572 223.911 103.46C223.902 103.357 223.935 103.278 224.009 103.222C224.084 103.166 224.159 103.138 224.233 103.138H224.849C224.905 103.138 224.947 103.147 224.975 103.166C225.013 103.175 225.059 103.213 225.115 103.278C225.237 103.409 225.372 103.539 225.521 103.67C225.671 103.801 225.853 103.908 226.067 103.992C226.291 104.076 226.567 104.118 226.893 104.118C227.369 104.118 227.761 104.029 228.069 103.852C228.377 103.665 228.531 103.395 228.531 103.04C228.531 102.807 228.466 102.62 228.335 102.48C228.214 102.34 227.99 102.214 227.663 102.102C227.346 101.99 226.907 101.873 226.347 101.752C225.787 101.621 225.344 101.463 225.017 101.276C224.691 101.08 224.457 100.851 224.317 100.59C224.177 100.319 224.107 100.016 224.107 99.68C224.107 99.3347 224.21 99.0033 224.415 98.686C224.621 98.3593 224.919 98.0933 225.311 97.888C225.713 97.6827 226.212 97.58 226.809 97.58C227.295 97.58 227.71 97.6407 228.055 97.762C228.401 97.8833 228.685 98.0373 228.909 98.224C229.133 98.4013 229.301 98.5787 229.413 98.756C229.525 98.9333 229.586 99.0827 229.595 99.204C229.605 99.2973 229.577 99.3767 229.511 99.442C229.446 99.498 229.371 99.526 229.287 99.526H228.699C228.634 99.526 228.578 99.512 228.531 99.484C228.494 99.456 228.457 99.4233 228.419 99.386C228.326 99.2647 228.214 99.1433 228.083 99.022C227.962 98.9007 227.799 98.8027 227.593 98.728C227.397 98.644 227.136 98.602 226.809 98.602C226.343 98.602 225.993 98.7 225.759 98.896C225.526 99.092 225.409 99.3393 225.409 99.638C225.409 99.8153 225.461 99.974 225.563 100.114C225.666 100.254 225.862 100.38 226.151 100.492C226.441 100.604 226.87 100.725 227.439 100.856C228.055 100.977 228.541 101.141 228.895 101.346C229.25 101.551 229.502 101.789 229.651 102.06C229.801 102.331 229.875 102.643 229.875 102.998C229.875 103.39 229.759 103.749 229.525 104.076C229.301 104.403 228.965 104.664 228.517 104.86C228.079 105.047 227.533 105.14 226.879 105.14ZM231.818 105C231.725 105 231.645 104.972 231.58 104.916C231.524 104.851 231.496 104.771 231.496 104.678V98.042C231.496 97.9487 231.524 97.874 231.58 97.818C231.645 97.7527 231.725 97.72 231.818 97.72H232.49C232.583 97.72 232.658 97.7527 232.714 97.818C232.77 97.874 232.798 97.9487 232.798 98.042V104.678C232.798 104.771 232.77 104.851 232.714 104.916C232.658 104.972 232.583 105 232.49 105H231.818ZM231.706 96.362C231.613 96.362 231.533 96.334 231.468 96.278C231.412 96.2127 231.384 96.1333 231.384 96.04V95.284C231.384 95.1907 231.412 95.116 231.468 95.06C231.533 94.9947 231.613 94.962 231.706 94.962H232.588C232.681 94.962 232.756 94.9947 232.812 95.06C232.877 95.116 232.91 95.1907 232.91 95.284V96.04C232.91 96.1333 232.877 96.2127 232.812 96.278C232.756 96.334 232.681 96.362 232.588 96.362H231.706ZM240.609 105C240.515 105 240.436 104.972 240.371 104.916C240.315 104.851 240.287 104.771 240.287 104.678V96.446H237.599C237.505 96.446 237.426 96.418 237.361 96.362C237.305 96.2967 237.277 96.2173 237.277 96.124V95.536C237.277 95.4333 237.305 95.354 237.361 95.298C237.426 95.2327 237.505 95.2 237.599 95.2H244.347C244.449 95.2 244.529 95.2327 244.585 95.298C244.65 95.354 244.683 95.4333 244.683 95.536V96.124C244.683 96.2173 244.65 96.2967 244.585 96.362C244.529 96.418 244.449 96.446 244.347 96.446H241.673V104.678C241.673 104.771 241.64 104.851 241.575 104.916C241.519 104.972 241.439 105 241.337 105H240.609ZM247.628 105.14C246.667 105.14 245.902 104.846 245.332 104.258C244.763 103.661 244.45 102.849 244.394 101.822C244.385 101.701 244.38 101.547 244.38 101.36C244.38 101.164 244.385 101.005 244.394 100.884C244.432 100.221 244.586 99.6427 244.856 99.148C245.127 98.644 245.496 98.2567 245.962 97.986C246.438 97.7153 246.994 97.58 247.628 97.58C248.338 97.58 248.93 97.7293 249.406 98.028C249.892 98.3267 250.26 98.7513 250.512 99.302C250.764 99.8527 250.89 100.497 250.89 101.234V101.472C250.89 101.575 250.858 101.654 250.792 101.71C250.736 101.766 250.662 101.794 250.568 101.794H245.724C245.724 101.803 245.724 101.822 245.724 101.85C245.724 101.878 245.724 101.901 245.724 101.92C245.743 102.303 245.827 102.662 245.976 102.998C246.126 103.325 246.34 103.591 246.62 103.796C246.9 104.001 247.236 104.104 247.628 104.104C247.964 104.104 248.244 104.053 248.468 103.95C248.692 103.847 248.874 103.735 249.014 103.614C249.154 103.483 249.248 103.385 249.294 103.32C249.378 103.199 249.444 103.129 249.49 103.11C249.537 103.082 249.612 103.068 249.714 103.068H250.386C250.48 103.068 250.554 103.096 250.61 103.152C250.676 103.199 250.704 103.269 250.694 103.362C250.685 103.502 250.61 103.675 250.47 103.88C250.33 104.076 250.13 104.272 249.868 104.468C249.607 104.664 249.29 104.827 248.916 104.958C248.543 105.079 248.114 105.14 247.628 105.14ZM245.724 100.828H249.56V100.786C249.56 100.366 249.481 99.9927 249.322 99.666C249.173 99.3393 248.954 99.0827 248.664 98.896C248.375 98.7 248.03 98.602 247.628 98.602C247.227 98.602 246.882 98.7 246.592 98.896C246.312 99.0827 246.098 99.3393 245.948 99.666C245.799 99.9927 245.724 100.366 245.724 100.786V100.828ZM252.886 105C252.793 105 252.714 104.972 252.648 104.916C252.592 104.851 252.564 104.771 252.564 104.678V98.056C252.564 97.9627 252.592 97.8833 252.648 97.818C252.714 97.7527 252.793 97.72 252.886 97.72H253.53C253.624 97.72 253.703 97.7527 253.768 97.818C253.834 97.8833 253.866 97.9627 253.866 98.056V98.672C254.053 98.3547 254.31 98.1167 254.636 97.958C254.963 97.7993 255.355 97.72 255.812 97.72H256.372C256.466 97.72 256.54 97.7527 256.596 97.818C256.652 97.874 256.68 97.9487 256.68 98.042V98.616C256.68 98.7093 256.652 98.784 256.596 98.84C256.54 98.896 256.466 98.924 256.372 98.924H255.532C255.028 98.924 254.632 99.0733 254.342 99.372C254.053 99.6613 253.908 100.058 253.908 100.562V104.678C253.908 104.771 253.876 104.851 253.81 104.916C253.745 104.972 253.666 105 253.572 105H252.886ZM260.403 105.14C259.88 105.14 259.432 105.075 259.059 104.944C258.685 104.813 258.382 104.655 258.149 104.468C257.915 104.281 257.738 104.095 257.617 103.908C257.505 103.721 257.444 103.572 257.435 103.46C257.425 103.357 257.458 103.278 257.533 103.222C257.607 103.166 257.682 103.138 257.757 103.138H258.373C258.429 103.138 258.471 103.147 258.499 103.166C258.536 103.175 258.583 103.213 258.639 103.278C258.76 103.409 258.895 103.539 259.045 103.67C259.194 103.801 259.376 103.908 259.591 103.992C259.815 104.076 260.09 104.118 260.417 104.118C260.893 104.118 261.285 104.029 261.593 103.852C261.901 103.665 262.055 103.395 262.055 103.04C262.055 102.807 261.989 102.62 261.859 102.48C261.737 102.34 261.513 102.214 261.187 102.102C260.869 101.99 260.431 101.873 259.871 101.752C259.311 101.621 258.867 101.463 258.541 101.276C258.214 101.08 257.981 100.851 257.841 100.59C257.701 100.319 257.631 100.016 257.631 99.68C257.631 99.3347 257.733 99.0033 257.939 98.686C258.144 98.3593 258.443 98.0933 258.835 97.888C259.236 97.6827 259.735 97.58 260.333 97.58C260.818 97.58 261.233 97.6407 261.579 97.762C261.924 97.8833 262.209 98.0373 262.433 98.224C262.657 98.4013 262.825 98.5787 262.937 98.756C263.049 98.9333 263.109 99.0827 263.119 99.204C263.128 99.2973 263.1 99.3767 263.035 99.442C262.969 99.498 262.895 99.526 262.811 99.526H262.223C262.157 99.526 262.101 99.512 262.055 99.484C262.017 99.456 261.98 99.4233 261.943 99.386C261.849 99.2647 261.737 99.1433 261.607 99.022C261.485 98.9007 261.322 98.8027 261.117 98.728C260.921 98.644 260.659 98.602 260.333 98.602C259.866 98.602 259.516 98.7 259.283 98.896C259.049 99.092 258.933 99.3393 258.933 99.638C258.933 99.8153 258.984 99.974 259.087 100.114C259.189 100.254 259.385 100.38 259.675 100.492C259.964 100.604 260.393 100.725 260.963 100.856C261.579 100.977 262.064 101.141 262.419 101.346C262.773 101.551 263.025 101.789 263.175 102.06C263.324 102.331 263.399 102.643 263.399 102.998C263.399 103.39 263.282 103.749 263.049 104.076C262.825 104.403 262.489 104.664 262.041 104.86C261.602 105.047 261.056 105.14 260.403 105.14ZM267.049 105.14C266.583 105.14 266.158 105.047 265.775 104.86C265.393 104.673 265.085 104.421 264.851 104.104C264.618 103.787 264.501 103.427 264.501 103.026C264.501 102.382 264.763 101.869 265.285 101.486C265.808 101.103 266.489 100.851 267.329 100.73L269.415 100.436V100.03C269.415 99.582 269.285 99.232 269.023 98.98C268.771 98.728 268.356 98.602 267.777 98.602C267.357 98.602 267.017 98.686 266.755 98.854C266.503 99.022 266.326 99.2367 266.223 99.498C266.167 99.638 266.069 99.708 265.929 99.708H265.299C265.197 99.708 265.117 99.68 265.061 99.624C265.015 99.5587 264.991 99.484 264.991 99.4C264.991 99.26 265.043 99.0873 265.145 98.882C265.257 98.6767 265.425 98.476 265.649 98.28C265.873 98.084 266.158 97.9207 266.503 97.79C266.858 97.65 267.287 97.58 267.791 97.58C268.351 97.58 268.823 97.6547 269.205 97.804C269.588 97.944 269.887 98.1353 270.101 98.378C270.325 98.6207 270.484 98.896 270.577 99.204C270.68 99.512 270.731 99.8247 270.731 100.142V104.678C270.731 104.771 270.699 104.851 270.633 104.916C270.577 104.972 270.503 105 270.409 105H269.765C269.663 105 269.583 104.972 269.527 104.916C269.471 104.851 269.443 104.771 269.443 104.678V104.076C269.322 104.244 269.159 104.412 268.953 104.58C268.748 104.739 268.491 104.874 268.183 104.986C267.875 105.089 267.497 105.14 267.049 105.14ZM267.343 104.09C267.726 104.09 268.076 104.011 268.393 103.852C268.711 103.684 268.958 103.427 269.135 103.082C269.322 102.737 269.415 102.303 269.415 101.78V101.388L267.791 101.626C267.129 101.719 266.629 101.878 266.293 102.102C265.957 102.317 265.789 102.592 265.789 102.928C265.789 103.189 265.864 103.409 266.013 103.586C266.172 103.754 266.368 103.88 266.601 103.964C266.844 104.048 267.091 104.09 267.343 104.09ZM273.08 105C272.987 105 272.907 104.972 272.842 104.916C272.786 104.851 272.758 104.771 272.758 104.678V95.382C272.758 95.2887 272.786 95.214 272.842 95.158C272.907 95.0927 272.987 95.06 273.08 95.06H273.738C273.841 95.06 273.92 95.0927 273.976 95.158C274.032 95.214 274.06 95.2887 274.06 95.382V104.678C274.06 104.771 274.032 104.851 273.976 104.916C273.92 104.972 273.841 105 273.738 105H273.08ZM278.864 105.14C278.267 105.14 277.758 105.009 277.338 104.748C276.928 104.477 276.615 104.104 276.4 103.628C276.186 103.152 276.078 102.606 276.078 101.99V98.042C276.078 97.9487 276.106 97.874 276.162 97.818C276.228 97.7527 276.307 97.72 276.4 97.72H277.1C277.194 97.72 277.268 97.7527 277.324 97.818C277.39 97.874 277.422 97.9487 277.422 98.042V101.92C277.422 103.311 278.029 104.006 279.242 104.006C279.821 104.006 280.283 103.824 280.628 103.46C280.983 103.087 281.16 102.573 281.16 101.92V98.042C281.16 97.9487 281.188 97.874 281.244 97.818C281.31 97.7527 281.389 97.72 281.482 97.72H282.168C282.271 97.72 282.35 97.7527 282.406 97.818C282.462 97.874 282.49 97.9487 282.49 98.042V104.678C282.49 104.771 282.462 104.851 282.406 104.916C282.35 104.972 282.271 105 282.168 105H281.524C281.431 105 281.352 104.972 281.286 104.916C281.23 104.851 281.202 104.771 281.202 104.678V104.062C280.95 104.389 280.642 104.65 280.278 104.846C279.924 105.042 279.452 105.14 278.864 105.14ZM284.892 105C284.799 105 284.72 104.972 284.654 104.916C284.598 104.851 284.57 104.771 284.57 104.678V98.056C284.57 97.9627 284.598 97.8833 284.654 97.818C284.72 97.7527 284.799 97.72 284.892 97.72H285.536C285.63 97.72 285.709 97.7527 285.774 97.818C285.84 97.8833 285.872 97.9627 285.872 98.056V98.672C286.059 98.3547 286.316 98.1167 286.642 97.958C286.969 97.7993 287.361 97.72 287.818 97.72H288.378C288.472 97.72 288.546 97.7527 288.602 97.818C288.658 97.874 288.686 97.9487 288.686 98.042V98.616C288.686 98.7093 288.658 98.784 288.602 98.84C288.546 98.896 288.472 98.924 288.378 98.924H287.538C287.034 98.924 286.638 99.0733 286.348 99.372C286.059 99.6613 285.914 100.058 285.914 100.562V104.678C285.914 104.771 285.882 104.851 285.816 104.916C285.751 104.972 285.672 105 285.578 105H284.892ZM290.225 105C290.131 105 290.052 104.972 289.987 104.916C289.931 104.851 289.903 104.771 289.903 104.678V95.382C289.903 95.2887 289.931 95.214 289.987 95.158C290.052 95.0927 290.131 95.06 290.225 95.06H290.883C290.976 95.06 291.051 95.0927 291.107 95.158C291.172 95.214 291.205 95.2887 291.205 95.382V100.254L293.963 97.958C294.075 97.8647 294.159 97.804 294.215 97.776C294.28 97.7387 294.383 97.72 294.523 97.72H295.265C295.349 97.72 295.419 97.748 295.475 97.804C295.531 97.86 295.559 97.93 295.559 98.014C295.559 98.0513 295.545 98.0933 295.517 98.14C295.498 98.1867 295.456 98.2333 295.391 98.28L292.157 100.968L295.741 104.454C295.853 104.547 295.909 104.631 295.909 104.706C295.909 104.79 295.881 104.86 295.825 104.916C295.769 104.972 295.699 105 295.615 105H294.887C294.747 105 294.644 104.986 294.579 104.958C294.513 104.921 294.429 104.855 294.327 104.762L291.205 101.78V104.678C291.205 104.771 291.172 104.851 291.107 104.916C291.051 104.972 290.976 105 290.883 105H290.225ZM299.001 105.14C298.534 105.14 298.109 105.047 297.727 104.86C297.344 104.673 297.036 104.421 296.803 104.104C296.569 103.787 296.453 103.427 296.453 103.026C296.453 102.382 296.714 101.869 297.237 101.486C297.759 101.103 298.441 100.851 299.281 100.73L301.367 100.436V100.03C301.367 99.582 301.236 99.232 300.975 98.98C300.723 98.728 300.307 98.602 299.729 98.602C299.309 98.602 298.968 98.686 298.707 98.854C298.455 99.022 298.277 99.2367 298.175 99.498C298.119 99.638 298.021 99.708 297.881 99.708H297.251C297.148 99.708 297.069 99.68 297.013 99.624C296.966 99.5587 296.943 99.484 296.943 99.4C296.943 99.26 296.994 99.0873 297.097 98.882C297.209 98.6767 297.377 98.476 297.601 98.28C297.825 98.084 298.109 97.9207 298.455 97.79C298.809 97.65 299.239 97.58 299.743 97.58C300.303 97.58 300.774 97.6547 301.157 97.804C301.539 97.944 301.838 98.1353 302.053 98.378C302.277 98.6207 302.435 98.896 302.529 99.204C302.631 99.512 302.683 99.8247 302.683 100.142V104.678C302.683 104.771 302.65 104.851 302.585 104.916C302.529 104.972 302.454 105 302.361 105H301.717C301.614 105 301.535 104.972 301.479 104.916C301.423 104.851 301.395 104.771 301.395 104.678V104.076C301.273 104.244 301.11 104.412 300.905 104.58C300.699 104.739 300.443 104.874 300.135 104.986C299.827 105.089 299.449 105.14 299.001 105.14ZM299.295 104.09C299.677 104.09 300.027 104.011 300.345 103.852C300.662 103.684 300.909 103.427 301.087 103.082C301.273 102.737 301.367 102.303 301.367 101.78V101.388L299.743 101.626C299.08 101.719 298.581 101.878 298.245 102.102C297.909 102.317 297.741 102.592 297.741 102.928C297.741 103.189 297.815 103.409 297.965 103.586C298.123 103.754 298.319 103.88 298.553 103.964C298.795 104.048 299.043 104.09 299.295 104.09ZM305.017 105C304.924 105 304.845 104.972 304.779 104.916C304.723 104.851 304.695 104.771 304.695 104.678V98.042C304.695 97.9487 304.723 97.874 304.779 97.818C304.845 97.7527 304.924 97.72 305.017 97.72H305.675C305.769 97.72 305.843 97.7527 305.899 97.818C305.965 97.874 305.997 97.9487 305.997 98.042V98.658C306.24 98.3407 306.543 98.084 306.907 97.888C307.281 97.6827 307.757 97.58 308.335 97.58C308.942 97.58 309.455 97.7153 309.875 97.986C310.305 98.2473 310.627 98.616 310.841 99.092C311.056 99.5587 311.163 100.105 311.163 100.73V104.678C311.163 104.771 311.135 104.851 311.079 104.916C311.023 104.972 310.949 105 310.855 105H310.155C310.062 105 309.983 104.972 309.917 104.916C309.861 104.851 309.833 104.771 309.833 104.678V100.8C309.833 100.147 309.675 99.638 309.357 99.274C309.04 98.9007 308.573 98.714 307.957 98.714C307.379 98.714 306.912 98.9007 306.557 99.274C306.212 99.638 306.039 100.147 306.039 100.8V104.678C306.039 104.771 306.007 104.851 305.941 104.916C305.885 104.972 305.811 105 305.717 105H305.017Z" fill="#4D7CFE"/>
</svg>
