<svg width="343" height="136" viewBox="0 0 343 136" fill="none" xmlns="http://www.w3.org/2000/svg">
<rect width="343" height="136" rx="8" fill="#F1F6FF"/>
<path d="M158.917 22.6665C158.917 22.2523 158.581 21.9165 158.167 21.9165C157.752 21.9165 157.417 22.2523 157.417 22.6665H158.917ZM184.833 50.0832C185.247 50.0832 185.583 49.7474 185.583 49.3332C185.583 48.919 185.247 48.5832 184.833 48.5832V50.0832ZM176.167 31.2498C175.752 31.2498 175.417 31.5856 175.417 31.9998C175.417 32.4141 175.752 32.7498 176.167 32.7498V31.2498ZM179.868 32.7369L179.198 33.0723V33.0723L179.868 32.7369ZM180.162 35.0019C180.348 35.3724 180.798 35.5226 181.169 35.3373C181.539 35.1521 181.689 34.7016 181.504 34.3311L180.162 35.0019ZM179.46 33.0777L179.872 32.4505L178.617 31.6281L178.206 32.2553L179.46 33.0777ZM175.186 38.2303L174.558 37.8191L175.186 38.2303ZM172.93 38.1897L172.288 38.5781L172.93 38.1897ZM170.386 33.9866L169.744 34.375L170.386 33.9866ZM168.074 34.0401L167.415 33.6818L168.074 34.0401ZM164.174 39.6416C163.976 40.0055 164.111 40.4609 164.475 40.6587C164.839 40.8566 165.294 40.722 165.492 40.3581L164.174 39.6416ZM157.417 22.6665V43.9998H158.917V22.6665H157.417ZM163.5 50.0832H184.833V48.5832H163.5V50.0832ZM157.417 43.9998C157.417 47.3596 160.14 50.0832 163.5 50.0832V48.5832C160.969 48.5832 158.917 46.5311 158.917 43.9998H157.417ZM176.167 32.7498H178.676V31.2498H176.167V32.7498ZM179.198 33.0723L180.162 35.0019L181.504 34.3311L180.539 32.4015L179.198 33.0723ZM178.676 32.7498C178.897 32.7498 179.099 32.8747 179.198 33.0723L180.539 32.4015C180.186 31.6957 179.465 31.2498 178.676 31.2498V32.7498ZM178.206 32.2553L174.558 37.8191L175.813 38.6415L179.46 33.0777L178.206 32.2553ZM173.572 37.8014L171.027 33.5982L169.744 34.375L172.288 38.5781L173.572 37.8014ZM167.415 33.6818L164.174 39.6416L165.492 40.3581L168.733 34.3984L167.415 33.6818ZM171.027 33.5982C170.195 32.2224 168.183 32.269 167.415 33.6818L168.733 34.3984C168.948 34.0028 169.511 33.9897 169.744 34.375L171.027 33.5982ZM174.558 37.8191C174.323 38.1781 173.794 38.1685 173.572 37.8014L172.288 38.5781C173.082 39.8895 174.973 39.9235 175.813 38.6415L174.558 37.8191Z" fill="#4D7CFE"/>
<path d="M44.4182 85C44.3156 85 44.2316 84.9673 44.1662 84.902C44.1009 84.8367 44.0682 84.7527 44.0682 84.65V75.55C44.0682 75.4473 44.1009 75.3633 44.1662 75.298C44.2316 75.2327 44.3156 75.2 44.4182 75.2H45.9722C46.0749 75.2 46.1589 75.2327 46.2242 75.298C46.2896 75.3633 46.3222 75.4473 46.3222 75.55V83.124H50.6622C50.7649 83.124 50.8489 83.1567 50.9142 83.222C50.9796 83.2873 51.0122 83.3713 51.0122 83.474V84.65C51.0122 84.7527 50.9796 84.8367 50.9142 84.902C50.8489 84.9673 50.7649 85 50.6622 85H44.4182ZM51.7247 85C51.6407 85 51.5707 84.972 51.5147 84.916C51.4587 84.8507 51.4307 84.7807 51.4307 84.706C51.4307 84.6593 51.4354 84.6173 51.4447 84.58L54.7767 75.578C54.8047 75.4753 54.8607 75.3867 54.9447 75.312C55.0287 75.2373 55.1454 75.2 55.2947 75.2H57.0867C57.236 75.2 57.3527 75.2373 57.4367 75.312C57.5207 75.3867 57.5767 75.4753 57.6047 75.578L60.9367 84.58C60.946 84.6173 60.9507 84.6593 60.9507 84.706C60.9507 84.7807 60.9227 84.8507 60.8667 84.916C60.8107 84.972 60.7407 85 60.6567 85H59.2007C59.0607 85 58.958 84.9673 58.8927 84.902C58.8274 84.8367 58.7854 84.776 58.7667 84.72L58.1647 83.152H54.2167L53.6147 84.72C53.596 84.776 53.554 84.8367 53.4887 84.902C53.4234 84.9673 53.3207 85 53.1807 85H51.7247ZM54.7347 81.346H57.6327L56.1907 77.314L54.7347 81.346ZM62.5061 85C62.4035 85 62.3195 84.9673 62.2541 84.902C62.1888 84.8367 62.1561 84.7527 62.1561 84.65V75.55C62.1561 75.4473 62.1888 75.3633 62.2541 75.298C62.3195 75.2327 62.4035 75.2 62.5061 75.2H66.3281C67.0841 75.2 67.7375 75.3167 68.2881 75.55C68.8481 75.7833 69.2821 76.138 69.5901 76.614C69.9075 77.0807 70.0661 77.664 70.0661 78.364C70.0661 79.0733 69.9075 79.6613 69.5901 80.128C69.2821 80.5853 68.8481 80.926 68.2881 81.15C67.7375 81.374 67.0841 81.486 66.3281 81.486H64.4521V84.65C64.4521 84.7527 64.4195 84.8367 64.3541 84.902C64.2888 84.9673 64.2048 85 64.1021 85H62.5061ZM64.4101 79.75H66.2581C66.7341 79.75 67.1028 79.6333 67.3641 79.4C67.6348 79.1667 67.7701 78.8167 67.7701 78.35C67.7701 77.9393 67.6488 77.6033 67.4061 77.342C67.1728 77.0807 66.7901 76.95 66.2581 76.95H64.4101V79.75ZM75.386 85.14C74.5367 85.14 73.804 85 73.188 84.72C72.572 84.44 72.0913 84.02 71.746 83.46C71.4007 82.8907 71.214 82.1767 71.186 81.318C71.1767 80.9167 71.172 80.52 71.172 80.128C71.172 79.7267 71.1767 79.3207 71.186 78.91C71.214 78.07 71.4007 77.3653 71.746 76.796C72.1007 76.2173 72.586 75.7833 73.202 75.494C73.8273 75.2047 74.5553 75.06 75.386 75.06C76.2073 75.06 76.926 75.2047 77.542 75.494C78.1673 75.7833 78.6573 76.2173 79.012 76.796C79.3667 77.3653 79.5533 78.07 79.572 78.91C79.5907 79.3207 79.6 79.7267 79.6 80.128C79.6 80.52 79.5907 80.9167 79.572 81.318C79.544 82.1767 79.3573 82.8907 79.012 83.46C78.6667 84.02 78.186 84.44 77.57 84.72C76.954 85 76.226 85.14 75.386 85.14ZM75.386 83.334C75.9273 83.334 76.3707 83.1707 76.716 82.844C77.0707 82.508 77.2573 81.976 77.276 81.248C77.2947 80.8373 77.304 80.4547 77.304 80.1C77.304 79.736 77.2947 79.3533 77.276 78.952C77.2667 78.4667 77.178 78.07 77.01 77.762C76.842 77.454 76.618 77.23 76.338 77.09C76.0673 76.9407 75.75 76.866 75.386 76.866C75.022 76.866 74.7 76.9407 74.42 77.09C74.14 77.23 73.916 77.454 73.748 77.762C73.5893 78.07 73.5007 78.4667 73.482 78.952C73.4727 79.3533 73.468 79.736 73.468 80.1C73.468 80.4547 73.4727 80.8373 73.482 81.248C73.51 81.976 73.6967 82.508 74.042 82.844C74.3873 83.1707 74.8353 83.334 75.386 83.334ZM81.6878 85C81.5851 85 81.5011 84.9673 81.4358 84.902C81.3704 84.8367 81.3378 84.7527 81.3378 84.65V75.55C81.3378 75.4473 81.3704 75.3633 81.4358 75.298C81.5011 75.2327 81.5851 75.2 81.6878 75.2H85.3978C86.5644 75.2 87.4838 75.4707 88.1558 76.012C88.8278 76.544 89.1638 77.314 89.1638 78.322C89.1638 79.0033 89.0004 79.5727 88.6738 80.03C88.3471 80.4873 87.9084 80.828 87.3578 81.052L89.3318 84.552C89.3598 84.608 89.3738 84.6593 89.3738 84.706C89.3738 84.7807 89.3458 84.8507 89.2898 84.916C89.2338 84.972 89.1638 85 89.0798 85H87.5258C87.3578 85 87.2318 84.958 87.1478 84.874C87.0638 84.7807 87.0031 84.6967 86.9658 84.622L85.2578 81.416H83.5638V84.65C83.5638 84.7527 83.5311 84.8367 83.4658 84.902C83.4004 84.9673 83.3164 85 83.2138 85H81.6878ZM83.5638 79.638H85.3558C85.8691 79.638 86.2471 79.5213 86.4898 79.288C86.7418 79.0547 86.8678 78.728 86.8678 78.308C86.8678 77.888 86.7464 77.5567 86.5038 77.314C86.2611 77.0713 85.8784 76.95 85.3558 76.95H83.5638V79.638ZM90.3067 85C90.2227 85 90.1527 84.972 90.0967 84.916C90.0407 84.8507 90.0127 84.7807 90.0127 84.706C90.0127 84.6593 90.0174 84.6173 90.0267 84.58L93.3587 75.578C93.3867 75.4753 93.4427 75.3867 93.5267 75.312C93.6107 75.2373 93.7274 75.2 93.8767 75.2H95.6687C95.8181 75.2 95.9347 75.2373 96.0187 75.312C96.1027 75.3867 96.1587 75.4753 96.1867 75.578L99.5187 84.58C99.5281 84.6173 99.5327 84.6593 99.5327 84.706C99.5327 84.7807 99.5047 84.8507 99.4487 84.916C99.3927 84.972 99.3227 85 99.2387 85H97.7827C97.6427 85 97.5401 84.9673 97.4747 84.902C97.4094 84.8367 97.3674 84.776 97.3487 84.72L96.7467 83.152H92.7987L92.1967 84.72C92.1781 84.776 92.1361 84.8367 92.0707 84.902C92.0054 84.9673 91.9027 85 91.7627 85H90.3067ZM93.3167 81.346H96.2147L94.7727 77.314L93.3167 81.346ZM101.088 85C100.985 85 100.901 84.9673 100.836 84.902C100.771 84.8367 100.738 84.7527 100.738 84.65V75.55C100.738 75.4473 100.771 75.3633 100.836 75.298C100.901 75.2327 100.985 75.2 101.088 75.2H102.362C102.502 75.2 102.605 75.2327 102.67 75.298C102.735 75.3633 102.777 75.4147 102.796 75.452L106.534 81.29V75.55C106.534 75.4473 106.567 75.3633 106.632 75.298C106.697 75.2327 106.777 75.2 106.87 75.2H108.298C108.401 75.2 108.485 75.2327 108.55 75.298C108.615 75.3633 108.648 75.4473 108.648 75.55V84.65C108.648 84.7433 108.615 84.8273 108.55 84.902C108.485 84.9673 108.401 85 108.298 85H107.01C106.87 85 106.767 84.9673 106.702 84.902C106.646 84.8273 106.604 84.776 106.576 84.748L102.852 79.092V84.65C102.852 84.7527 102.819 84.8367 102.754 84.902C102.689 84.9673 102.605 85 102.502 85H101.088ZM114.158 85C114.056 85 113.972 84.9673 113.906 84.902C113.841 84.8367 113.808 84.7527 113.808 84.65V75.55C113.808 75.4473 113.841 75.3633 113.906 75.298C113.972 75.2327 114.056 75.2 114.158 75.2H117.98C118.736 75.2 119.39 75.3167 119.94 75.55C120.5 75.7833 120.934 76.138 121.242 76.614C121.56 77.0807 121.718 77.664 121.718 78.364C121.718 79.0733 121.56 79.6613 121.242 80.128C120.934 80.5853 120.5 80.926 119.94 81.15C119.39 81.374 118.736 81.486 117.98 81.486H116.104V84.65C116.104 84.7527 116.072 84.8367 116.006 84.902C115.941 84.9673 115.857 85 115.754 85H114.158ZM116.062 79.75H117.91C118.386 79.75 118.755 79.6333 119.016 79.4C119.287 79.1667 119.422 78.8167 119.422 78.35C119.422 77.9393 119.301 77.6033 119.058 77.342C118.825 77.0807 118.442 76.95 117.91 76.95H116.062V79.75ZM123.496 85C123.394 85 123.31 84.9673 123.244 84.902C123.179 84.8367 123.146 84.7527 123.146 84.65V75.55C123.146 75.4473 123.179 75.3633 123.244 75.298C123.31 75.2327 123.394 75.2 123.496 75.2H127.206C128.373 75.2 129.292 75.4707 129.964 76.012C130.636 76.544 130.972 77.314 130.972 78.322C130.972 79.0033 130.809 79.5727 130.482 80.03C130.156 80.4873 129.717 80.828 129.166 81.052L131.14 84.552C131.168 84.608 131.182 84.6593 131.182 84.706C131.182 84.7807 131.154 84.8507 131.098 84.916C131.042 84.972 130.972 85 130.888 85H129.334C129.166 85 129.04 84.958 128.956 84.874C128.872 84.7807 128.812 84.6967 128.774 84.622L127.066 81.416H125.372V84.65C125.372 84.7527 125.34 84.8367 125.274 84.902C125.209 84.9673 125.125 85 125.022 85H123.496ZM125.372 79.638H127.164C127.678 79.638 128.056 79.5213 128.298 79.288C128.55 79.0547 128.676 78.728 128.676 78.308C128.676 77.888 128.555 77.5567 128.312 77.314C128.07 77.0713 127.687 76.95 127.164 76.95H125.372V79.638ZM136.54 85.14C135.691 85.14 134.958 85 134.342 84.72C133.726 84.44 133.246 84.02 132.9 83.46C132.555 82.8907 132.368 82.1767 132.34 81.318C132.331 80.9167 132.326 80.52 132.326 80.128C132.326 79.7267 132.331 79.3207 132.34 78.91C132.368 78.07 132.555 77.3653 132.9 76.796C133.255 76.2173 133.74 75.7833 134.356 75.494C134.982 75.2047 135.71 75.06 136.54 75.06C137.362 75.06 138.08 75.2047 138.696 75.494C139.322 75.7833 139.812 76.2173 140.166 76.796C140.521 77.3653 140.708 78.07 140.726 78.91C140.745 79.3207 140.754 79.7267 140.754 80.128C140.754 80.52 140.745 80.9167 140.726 81.318C140.698 82.1767 140.512 82.8907 140.166 83.46C139.821 84.02 139.34 84.44 138.724 84.72C138.108 85 137.38 85.14 136.54 85.14ZM136.54 83.334C137.082 83.334 137.525 83.1707 137.87 82.844C138.225 82.508 138.412 81.976 138.43 81.248C138.449 80.8373 138.458 80.4547 138.458 80.1C138.458 79.736 138.449 79.3533 138.43 78.952C138.421 78.4667 138.332 78.07 138.164 77.762C137.996 77.454 137.772 77.23 137.492 77.09C137.222 76.9407 136.904 76.866 136.54 76.866C136.176 76.866 135.854 76.9407 135.574 77.09C135.294 77.23 135.07 77.454 134.902 77.762C134.744 78.07 134.655 78.4667 134.636 78.952C134.627 79.3533 134.622 79.736 134.622 80.1C134.622 80.4547 134.627 80.8373 134.636 81.248C134.664 81.976 134.851 82.508 135.196 82.844C135.542 83.1707 135.99 83.334 136.54 83.334ZM146.426 85.14C145.549 85.14 144.797 84.9953 144.172 84.706C143.556 84.4073 143.075 83.978 142.73 83.418C142.394 82.8487 142.212 82.1627 142.184 81.36C142.175 80.9587 142.17 80.5293 142.17 80.072C142.17 79.6147 142.175 79.1807 142.184 78.77C142.212 77.986 142.394 77.3187 142.73 76.768C143.075 76.2173 143.561 75.7973 144.186 75.508C144.821 75.2093 145.567 75.06 146.426 75.06C147.117 75.06 147.723 75.1487 148.246 75.326C148.769 75.5033 149.207 75.7367 149.562 76.026C149.917 76.306 150.187 76.614 150.374 76.95C150.561 77.286 150.659 77.608 150.668 77.916C150.668 78 150.64 78.0747 150.584 78.14C150.528 78.196 150.453 78.224 150.36 78.224H148.624C148.531 78.224 148.456 78.2053 148.4 78.168C148.353 78.1307 148.311 78.0747 148.274 78C148.209 77.832 148.101 77.664 147.952 77.496C147.812 77.3187 147.621 77.1693 147.378 77.048C147.135 76.9267 146.818 76.866 146.426 76.866C145.838 76.866 145.371 77.02 145.026 77.328C144.69 77.636 144.508 78.14 144.48 78.84C144.452 79.6427 144.452 80.4593 144.48 81.29C144.508 82.018 144.695 82.5407 145.04 82.858C145.395 83.1753 145.866 83.334 146.454 83.334C146.837 83.334 147.177 83.2687 147.476 83.138C147.784 82.998 148.027 82.7833 148.204 82.494C148.381 82.2047 148.47 81.836 148.47 81.388V81.038H146.944C146.851 81.038 146.771 81.0053 146.706 80.94C146.641 80.8653 146.608 80.7813 146.608 80.688V79.792C146.608 79.6893 146.641 79.6053 146.706 79.54C146.771 79.4747 146.851 79.442 146.944 79.442H150.374C150.477 79.442 150.561 79.4747 150.626 79.54C150.691 79.6053 150.724 79.6893 150.724 79.792V81.318C150.724 82.1207 150.547 82.8067 150.192 83.376C149.847 83.9453 149.347 84.384 148.694 84.692C148.05 84.9907 147.294 85.14 146.426 85.14ZM152.782 85C152.679 85 152.595 84.9673 152.53 84.902C152.464 84.8367 152.432 84.7527 152.432 84.65V75.55C152.432 75.4473 152.464 75.3633 152.53 75.298C152.595 75.2327 152.679 75.2 152.782 75.2H156.492C157.658 75.2 158.578 75.4707 159.25 76.012C159.922 76.544 160.258 77.314 160.258 78.322C160.258 79.0033 160.094 79.5727 159.768 80.03C159.441 80.4873 159.002 80.828 158.452 81.052L160.426 84.552C160.454 84.608 160.468 84.6593 160.468 84.706C160.468 84.7807 160.44 84.8507 160.384 84.916C160.328 84.972 160.258 85 160.174 85H158.62C158.452 85 158.326 84.958 158.242 84.874C158.158 84.7807 158.097 84.6967 158.06 84.622L156.352 81.416H154.658V84.65C154.658 84.7527 154.625 84.8367 154.56 84.902C154.494 84.9673 154.41 85 154.308 85H152.782ZM154.658 79.638H156.45C156.963 79.638 157.341 79.5213 157.584 79.288C157.836 79.0547 157.962 78.728 157.962 78.308C157.962 77.888 157.84 77.5567 157.598 77.314C157.355 77.0713 156.972 76.95 156.45 76.95H154.658V79.638ZM162.324 85C162.222 85 162.138 84.9673 162.072 84.902C162.007 84.8367 161.974 84.7527 161.974 84.65V75.55C161.974 75.4473 162.007 75.3633 162.072 75.298C162.138 75.2327 162.222 75.2 162.324 75.2H168.666C168.769 75.2 168.853 75.2327 168.918 75.298C168.984 75.3633 169.016 75.4473 169.016 75.55V76.67C169.016 76.7633 168.984 76.8427 168.918 76.908C168.853 76.9733 168.769 77.006 168.666 77.006H164.13V79.204H168.358C168.461 79.204 168.545 79.2367 168.61 79.302C168.676 79.3673 168.708 79.4513 168.708 79.554V80.59C168.708 80.6833 168.676 80.7627 168.61 80.828C168.545 80.8933 168.461 80.926 168.358 80.926H164.13V83.194H168.778C168.881 83.194 168.965 83.2267 169.03 83.292C169.096 83.3573 169.128 83.4413 169.128 83.544V84.65C169.128 84.7527 169.096 84.8367 169.03 84.902C168.965 84.9673 168.881 85 168.778 85H162.324ZM174.321 85.14C173.425 85.14 172.674 85.0093 172.067 84.748C171.47 84.4867 171.017 84.146 170.709 83.726C170.401 83.306 170.238 82.858 170.219 82.382C170.219 82.3073 170.247 82.242 170.303 82.186C170.359 82.1207 170.429 82.088 170.513 82.088H172.011C172.132 82.088 172.226 82.116 172.291 82.172C172.356 82.2187 172.417 82.2793 172.473 82.354C172.538 82.5127 172.641 82.6667 172.781 82.816C172.93 82.9653 173.131 83.0913 173.383 83.194C173.635 83.2873 173.948 83.334 174.321 83.334C174.928 83.334 175.38 83.236 175.679 83.04C175.987 82.844 176.141 82.578 176.141 82.242C176.141 81.9993 176.057 81.8033 175.889 81.654C175.73 81.5047 175.474 81.3693 175.119 81.248C174.774 81.1267 174.312 80.996 173.733 80.856C173.033 80.7067 172.436 80.5153 171.941 80.282C171.456 80.0393 171.087 79.7313 170.835 79.358C170.592 78.9753 170.471 78.504 170.471 77.944C170.471 77.384 170.625 76.8893 170.933 76.46C171.241 76.0213 171.675 75.6807 172.235 75.438C172.795 75.186 173.462 75.06 174.237 75.06C174.862 75.06 175.413 75.144 175.889 75.312C176.374 75.48 176.776 75.6993 177.093 75.97C177.42 76.2407 177.667 76.53 177.835 76.838C178.003 77.146 178.092 77.4447 178.101 77.734C178.101 77.8087 178.073 77.8787 178.017 77.944C177.961 78 177.891 78.028 177.807 78.028H176.239C176.146 78.028 176.062 78.0093 175.987 77.972C175.912 77.9347 175.852 77.8693 175.805 77.776C175.749 77.5333 175.581 77.3233 175.301 77.146C175.03 76.9593 174.676 76.866 174.237 76.866C173.78 76.866 173.416 76.95 173.145 77.118C172.884 77.286 172.753 77.5427 172.753 77.888C172.753 78.112 172.818 78.3033 172.949 78.462C173.089 78.6113 173.318 78.7467 173.635 78.868C173.962 78.98 174.391 79.106 174.923 79.246C175.744 79.414 176.412 79.6147 176.925 79.848C177.438 80.0813 177.816 80.3847 178.059 80.758C178.302 81.122 178.423 81.584 178.423 82.144C178.423 82.7693 178.246 83.306 177.891 83.754C177.546 84.202 177.065 84.5473 176.449 84.79C175.842 85.0233 175.133 85.14 174.321 85.14ZM187.019 85.14C186.198 85.14 185.479 85.0047 184.863 84.734C184.247 84.454 183.771 84.0293 183.435 83.46C183.099 82.8813 182.931 82.1487 182.931 81.262V75.55C182.931 75.4473 182.964 75.3633 183.029 75.298C183.095 75.2327 183.179 75.2 183.281 75.2H184.807C184.91 75.2 184.994 75.2327 185.059 75.298C185.125 75.3633 185.157 75.4473 185.157 75.55V81.248C185.157 81.9387 185.321 82.452 185.647 82.788C185.974 83.124 186.431 83.292 187.019 83.292C187.598 83.292 188.051 83.124 188.377 82.788C188.704 82.452 188.867 81.9387 188.867 81.248V75.55C188.867 75.4473 188.9 75.3633 188.965 75.298C189.04 75.2327 189.124 75.2 189.217 75.2H190.757C190.851 75.2 190.93 75.2327 190.995 75.298C191.061 75.3633 191.093 75.4473 191.093 75.55V81.262C191.093 82.1487 190.925 82.8813 190.589 83.46C190.253 84.0293 189.782 84.454 189.175 84.734C188.569 85.0047 187.85 85.14 187.019 85.14ZM196.606 85.14C195.71 85.14 194.959 85.0093 194.352 84.748C193.755 84.4867 193.302 84.146 192.994 83.726C192.686 83.306 192.523 82.858 192.504 82.382C192.504 82.3073 192.532 82.242 192.588 82.186C192.644 82.1207 192.714 82.088 192.798 82.088H194.296C194.417 82.088 194.511 82.116 194.576 82.172C194.641 82.2187 194.702 82.2793 194.758 82.354C194.823 82.5127 194.926 82.6667 195.066 82.816C195.215 82.9653 195.416 83.0913 195.668 83.194C195.92 83.2873 196.233 83.334 196.606 83.334C197.213 83.334 197.665 83.236 197.964 83.04C198.272 82.844 198.426 82.578 198.426 82.242C198.426 81.9993 198.342 81.8033 198.174 81.654C198.015 81.5047 197.759 81.3693 197.404 81.248C197.059 81.1267 196.597 80.996 196.018 80.856C195.318 80.7067 194.721 80.5153 194.226 80.282C193.741 80.0393 193.372 79.7313 193.12 79.358C192.877 78.9753 192.756 78.504 192.756 77.944C192.756 77.384 192.91 76.8893 193.218 76.46C193.526 76.0213 193.96 75.6807 194.52 75.438C195.08 75.186 195.747 75.06 196.522 75.06C197.147 75.06 197.698 75.144 198.174 75.312C198.659 75.48 199.061 75.6993 199.378 75.97C199.705 76.2407 199.952 76.53 200.12 76.838C200.288 77.146 200.377 77.4447 200.386 77.734C200.386 77.8087 200.358 77.8787 200.302 77.944C200.246 78 200.176 78.028 200.092 78.028H198.524C198.431 78.028 198.347 78.0093 198.272 77.972C198.197 77.9347 198.137 77.8693 198.09 77.776C198.034 77.5333 197.866 77.3233 197.586 77.146C197.315 76.9593 196.961 76.866 196.522 76.866C196.065 76.866 195.701 76.95 195.43 77.118C195.169 77.286 195.038 77.5427 195.038 77.888C195.038 78.112 195.103 78.3033 195.234 78.462C195.374 78.6113 195.603 78.7467 195.92 78.868C196.247 78.98 196.676 79.106 197.208 79.246C198.029 79.414 198.697 79.6147 199.21 79.848C199.723 80.0813 200.101 80.3847 200.344 80.758C200.587 81.122 200.708 81.584 200.708 82.144C200.708 82.7693 200.531 83.306 200.176 83.754C199.831 84.202 199.35 84.5473 198.734 84.79C198.127 85.0233 197.418 85.14 196.606 85.14ZM201.486 85C201.402 85 201.332 84.972 201.276 84.916C201.22 84.8507 201.192 84.7807 201.192 84.706C201.192 84.6593 201.197 84.6173 201.206 84.58L204.538 75.578C204.566 75.4753 204.622 75.3867 204.706 75.312C204.79 75.2373 204.907 75.2 205.056 75.2H206.848C206.998 75.2 207.114 75.2373 207.198 75.312C207.282 75.3867 207.338 75.4753 207.366 75.578L210.698 84.58C210.708 84.6173 210.712 84.6593 210.712 84.706C210.712 84.7807 210.684 84.8507 210.628 84.916C210.572 84.972 210.502 85 210.418 85H208.962C208.822 85 208.72 84.9673 208.654 84.902C208.589 84.8367 208.547 84.776 208.528 84.72L207.926 83.152H203.978L203.376 84.72C203.358 84.776 203.316 84.8367 203.25 84.902C203.185 84.9673 203.082 85 202.942 85H201.486ZM204.496 81.346H207.394L205.952 77.314L204.496 81.346ZM212.268 85C212.165 85 212.081 84.9673 212.016 84.902C211.951 84.8367 211.918 84.7527 211.918 84.65V75.55C211.918 75.4473 211.951 75.3633 212.016 75.298C212.081 75.2327 212.165 75.2 212.268 75.2H213.794C213.897 75.2 213.981 75.2327 214.046 75.298C214.111 75.3633 214.144 75.4473 214.144 75.55V79.05H217.938V75.55C217.938 75.4473 217.971 75.3633 218.036 75.298C218.101 75.2327 218.185 75.2 218.288 75.2H219.814C219.917 75.2 220.001 75.2327 220.066 75.298C220.131 75.3633 220.164 75.4473 220.164 75.55V84.65C220.164 84.7527 220.131 84.8367 220.066 84.902C220.001 84.9673 219.917 85 219.814 85H218.288C218.185 85 218.101 84.9673 218.036 84.902C217.971 84.8367 217.938 84.7527 217.938 84.65V81.038H214.144V84.65C214.144 84.7527 214.111 84.8367 214.046 84.902C213.981 84.9673 213.897 85 213.794 85H212.268ZM221.666 85C221.582 85 221.512 84.972 221.456 84.916C221.4 84.8507 221.372 84.7807 221.372 84.706C221.372 84.6593 221.377 84.6173 221.386 84.58L224.718 75.578C224.746 75.4753 224.802 75.3867 224.886 75.312C224.97 75.2373 225.087 75.2 225.236 75.2H227.028C227.177 75.2 227.294 75.2373 227.378 75.312C227.462 75.3867 227.518 75.4753 227.546 75.578L230.878 84.58C230.887 84.6173 230.892 84.6593 230.892 84.706C230.892 84.7807 230.864 84.8507 230.808 84.916C230.752 84.972 230.682 85 230.598 85H229.142C229.002 85 228.899 84.9673 228.834 84.902C228.769 84.8367 228.727 84.776 228.708 84.72L228.106 83.152H224.158L223.556 84.72C223.537 84.776 223.495 84.8367 223.43 84.902C223.365 84.9673 223.262 85 223.122 85H221.666ZM224.676 81.346H227.574L226.132 77.314L224.676 81.346ZM233.902 85C233.818 85 233.748 84.972 233.692 84.916C233.636 84.8507 233.608 84.7807 233.608 84.706C233.608 84.6593 233.613 84.6173 233.622 84.58L236.954 75.578C236.982 75.4753 237.038 75.3867 237.122 75.312C237.206 75.2373 237.323 75.2 237.472 75.2H239.264C239.414 75.2 239.53 75.2373 239.614 75.312C239.698 75.3867 239.754 75.4753 239.782 75.578L243.114 84.58C243.124 84.6173 243.128 84.6593 243.128 84.706C243.128 84.7807 243.1 84.8507 243.044 84.916C242.988 84.972 242.918 85 242.834 85H241.378C241.238 85 241.136 84.9673 241.07 84.902C241.005 84.8367 240.963 84.776 240.944 84.72L240.342 83.152H236.394L235.792 84.72C235.774 84.776 235.732 84.8367 235.666 84.902C235.601 84.9673 235.498 85 235.358 85H233.902ZM236.912 81.346H239.81L238.368 77.314L236.912 81.346ZM244.684 85C244.581 85 244.497 84.9673 244.432 84.902C244.367 84.8367 244.334 84.7527 244.334 84.65V75.55C244.334 75.4473 244.367 75.3633 244.432 75.298C244.497 75.2327 244.581 75.2 244.684 75.2H245.958C246.098 75.2 246.201 75.2327 246.266 75.298C246.331 75.3633 246.373 75.4147 246.392 75.452L250.13 81.29V75.55C250.13 75.4473 250.163 75.3633 250.228 75.298C250.293 75.2327 250.373 75.2 250.466 75.2H251.894C251.997 75.2 252.081 75.2327 252.146 75.298C252.211 75.3633 252.244 75.4473 252.244 75.55V84.65C252.244 84.7433 252.211 84.8273 252.146 84.902C252.081 84.9673 251.997 85 251.894 85H250.606C250.466 85 250.363 84.9673 250.298 84.902C250.242 84.8273 250.2 84.776 250.172 84.748L246.448 79.092V84.65C246.448 84.7527 246.415 84.8367 246.35 84.902C246.285 84.9673 246.201 85 246.098 85H244.684ZM258.248 85.14C257.371 85.14 256.62 84.9953 255.994 84.706C255.378 84.4073 254.898 83.978 254.552 83.418C254.216 82.8487 254.034 82.1627 254.006 81.36C253.997 80.9587 253.992 80.5293 253.992 80.072C253.992 79.6147 253.997 79.1807 254.006 78.77C254.034 77.986 254.216 77.3187 254.552 76.768C254.898 76.2173 255.383 75.7973 256.008 75.508C256.643 75.2093 257.39 75.06 258.248 75.06C258.939 75.06 259.546 75.1487 260.068 75.326C260.591 75.5033 261.03 75.7367 261.384 76.026C261.739 76.306 262.01 76.614 262.196 76.95C262.383 77.286 262.481 77.608 262.49 77.916C262.49 78 262.462 78.0747 262.406 78.14C262.35 78.196 262.276 78.224 262.182 78.224H260.446C260.353 78.224 260.278 78.2053 260.222 78.168C260.176 78.1307 260.134 78.0747 260.096 78C260.031 77.832 259.924 77.664 259.774 77.496C259.634 77.3187 259.443 77.1693 259.2 77.048C258.958 76.9267 258.64 76.866 258.248 76.866C257.66 76.866 257.194 77.02 256.848 77.328C256.512 77.636 256.33 78.14 256.302 78.84C256.274 79.6427 256.274 80.4593 256.302 81.29C256.33 82.018 256.517 82.5407 256.862 82.858C257.217 83.1753 257.688 83.334 258.276 83.334C258.659 83.334 259 83.2687 259.298 83.138C259.606 82.998 259.849 82.7833 260.026 82.494C260.204 82.2047 260.292 81.836 260.292 81.388V81.038H258.766C258.673 81.038 258.594 81.0053 258.528 80.94C258.463 80.8653 258.43 80.7813 258.43 80.688V79.792C258.43 79.6893 258.463 79.6053 258.528 79.54C258.594 79.4747 258.673 79.442 258.766 79.442H262.196C262.299 79.442 262.383 79.4747 262.448 79.54C262.514 79.6053 262.546 79.6893 262.546 79.792V81.318C262.546 82.1207 262.369 82.8067 262.014 83.376C261.669 83.9453 261.17 84.384 260.516 84.692C259.872 84.9907 259.116 85.14 258.248 85.14ZM268.188 85.14C267.31 85.14 266.559 84.9953 265.934 84.706C265.318 84.4073 264.837 83.978 264.492 83.418C264.156 82.8487 263.974 82.1627 263.946 81.36C263.936 80.9587 263.932 80.5293 263.932 80.072C263.932 79.6147 263.936 79.1807 263.946 78.77C263.974 77.986 264.156 77.3187 264.492 76.768C264.837 76.2173 265.322 75.7973 265.948 75.508C266.582 75.2093 267.329 75.06 268.188 75.06C268.878 75.06 269.485 75.1487 270.008 75.326C270.53 75.5033 270.969 75.7367 271.324 76.026C271.678 76.306 271.949 76.614 272.136 76.95C272.322 77.286 272.42 77.608 272.43 77.916C272.43 78 272.402 78.0747 272.346 78.14C272.29 78.196 272.215 78.224 272.122 78.224H270.386C270.292 78.224 270.218 78.2053 270.162 78.168C270.115 78.1307 270.073 78.0747 270.036 78C269.97 77.832 269.863 77.664 269.714 77.496C269.574 77.3187 269.382 77.1693 269.14 77.048C268.897 76.9267 268.58 76.866 268.188 76.866C267.6 76.866 267.133 77.02 266.788 77.328C266.452 77.636 266.27 78.14 266.242 78.84C266.214 79.6427 266.214 80.4593 266.242 81.29C266.27 82.018 266.456 82.5407 266.802 82.858C267.156 83.1753 267.628 83.334 268.216 83.334C268.598 83.334 268.939 83.2687 269.238 83.138C269.546 82.998 269.788 82.7833 269.966 82.494C270.143 82.2047 270.232 81.836 270.232 81.388V81.038H268.706C268.612 81.038 268.533 81.0053 268.468 80.94C268.402 80.8653 268.37 80.7813 268.37 80.688V79.792C268.37 79.6893 268.402 79.6053 268.468 79.54C268.533 79.4747 268.612 79.442 268.706 79.442H272.136C272.238 79.442 272.322 79.4747 272.388 79.54C272.453 79.6053 272.486 79.6893 272.486 79.792V81.318C272.486 82.1207 272.308 82.8067 271.954 83.376C271.608 83.9453 271.109 84.384 270.456 84.692C269.812 84.9907 269.056 85.14 268.188 85.14ZM278.085 85.14C277.236 85.14 276.503 85 275.887 84.72C275.271 84.44 274.791 84.02 274.445 83.46C274.1 82.8907 273.913 82.1767 273.885 81.318C273.876 80.9167 273.871 80.52 273.871 80.128C273.871 79.7267 273.876 79.3207 273.885 78.91C273.913 78.07 274.1 77.3653 274.445 76.796C274.8 76.2173 275.285 75.7833 275.901 75.494C276.527 75.2047 277.255 75.06 278.085 75.06C278.907 75.06 279.625 75.2047 280.241 75.494C280.867 75.7833 281.357 76.2173 281.711 76.796C282.066 77.3653 282.253 78.07 282.271 78.91C282.29 79.3207 282.299 79.7267 282.299 80.128C282.299 80.52 282.29 80.9167 282.271 81.318C282.243 82.1767 282.057 82.8907 281.711 83.46C281.366 84.02 280.885 84.44 280.269 84.72C279.653 85 278.925 85.14 278.085 85.14ZM278.085 83.334C278.627 83.334 279.07 83.1707 279.415 82.844C279.77 82.508 279.957 81.976 279.975 81.248C279.994 80.8373 280.003 80.4547 280.003 80.1C280.003 79.736 279.994 79.3533 279.975 78.952C279.966 78.4667 279.877 78.07 279.709 77.762C279.541 77.454 279.317 77.23 279.037 77.09C278.767 76.9407 278.449 76.866 278.085 76.866C277.721 76.866 277.399 76.9407 277.119 77.09C276.839 77.23 276.615 77.454 276.447 77.762C276.289 78.07 276.2 78.4667 276.181 78.952C276.172 79.3533 276.167 79.736 276.167 80.1C276.167 80.4547 276.172 80.8373 276.181 81.248C276.209 81.976 276.396 82.508 276.741 82.844C277.087 83.1707 277.535 83.334 278.085 83.334ZM286.379 85C286.276 85 286.192 84.9673 286.127 84.902C286.062 84.8367 286.029 84.7527 286.029 84.65V77.146H283.481C283.388 77.146 283.308 77.1133 283.243 77.048C283.178 76.9827 283.145 76.9033 283.145 76.81V75.55C283.145 75.4473 283.178 75.3633 283.243 75.298C283.308 75.2327 283.388 75.2 283.481 75.2H290.817C290.92 75.2 291.004 75.2327 291.069 75.298C291.134 75.3633 291.167 75.4473 291.167 75.55V76.81C291.167 76.9033 291.134 76.9827 291.069 77.048C291.004 77.1133 290.92 77.146 290.817 77.146H288.283V84.65C288.283 84.7527 288.25 84.8367 288.185 84.902C288.12 84.9673 288.036 85 287.933 85H286.379ZM290.928 85C290.844 85 290.774 84.972 290.718 84.916C290.662 84.8507 290.634 84.7807 290.634 84.706C290.634 84.6593 290.638 84.6173 290.648 84.58L293.98 75.578C294.008 75.4753 294.064 75.3867 294.148 75.312C294.232 75.2373 294.348 75.2 294.498 75.2H296.29C296.439 75.2 296.556 75.2373 296.64 75.312C296.724 75.3867 296.78 75.4753 296.808 75.578L300.14 84.58C300.149 84.6173 300.154 84.6593 300.154 84.706C300.154 84.7807 300.126 84.8507 300.07 84.916C300.014 84.972 299.944 85 299.86 85H298.404C298.264 85 298.161 84.9673 298.096 84.902C298.03 84.8367 297.988 84.776 297.97 84.72L297.368 83.152H293.42L292.818 84.72C292.799 84.776 292.757 84.8367 292.692 84.902C292.626 84.9673 292.524 85 292.384 85H290.928ZM293.938 81.346H296.836L295.394 77.314L293.938 81.346ZM130.968 109C130.865 109 130.781 108.967 130.716 108.902C130.651 108.837 130.618 108.753 130.618 108.65V99.55C130.618 99.4473 130.651 99.3633 130.716 99.298C130.781 99.2327 130.865 99.2 130.968 99.2H132.452C132.555 99.2 132.639 99.2327 132.704 99.298C132.769 99.3633 132.802 99.4473 132.802 99.55V102.742L135.686 99.466C135.723 99.41 135.784 99.354 135.868 99.298C135.961 99.2327 136.083 99.2 136.232 99.2H137.926C138.01 99.2 138.08 99.2327 138.136 99.298C138.192 99.354 138.22 99.4193 138.22 99.494C138.22 99.5593 138.201 99.6153 138.164 99.662L134.566 103.89L138.43 108.538C138.467 108.575 138.486 108.631 138.486 108.706C138.486 108.781 138.458 108.851 138.402 108.916C138.346 108.972 138.276 109 138.192 109H136.442C136.274 109 136.148 108.963 136.064 108.888C135.98 108.813 135.924 108.762 135.896 108.734L132.802 105.15V108.65C132.802 108.753 132.769 108.837 132.704 108.902C132.639 108.967 132.555 109 132.452 109H130.968ZM143.082 109.14C142.233 109.14 141.5 109 140.884 108.72C140.268 108.44 139.788 108.02 139.442 107.46C139.097 106.891 138.91 106.177 138.882 105.318C138.873 104.917 138.868 104.52 138.868 104.128C138.868 103.727 138.873 103.321 138.882 102.91C138.91 102.07 139.097 101.365 139.442 100.796C139.797 100.217 140.282 99.7833 140.898 99.494C141.524 99.2047 142.252 99.06 143.082 99.06C143.904 99.06 144.622 99.2047 145.238 99.494C145.864 99.7833 146.354 100.217 146.708 100.796C147.063 101.365 147.25 102.07 147.268 102.91C147.287 103.321 147.296 103.727 147.296 104.128C147.296 104.52 147.287 104.917 147.268 105.318C147.24 106.177 147.054 106.891 146.708 107.46C146.363 108.02 145.882 108.44 145.266 108.72C144.65 109 143.922 109.14 143.082 109.14ZM143.082 107.334C143.624 107.334 144.067 107.171 144.412 106.844C144.767 106.508 144.954 105.976 144.972 105.248C144.991 104.837 145 104.455 145 104.1C145 103.736 144.991 103.353 144.972 102.952C144.963 102.467 144.874 102.07 144.706 101.762C144.538 101.454 144.314 101.23 144.034 101.09C143.764 100.941 143.446 100.866 143.082 100.866C142.718 100.866 142.396 100.941 142.116 101.09C141.836 101.23 141.612 101.454 141.444 101.762C141.286 102.07 141.197 102.467 141.178 102.952C141.169 103.353 141.164 103.736 141.164 104.1C141.164 104.455 141.169 104.837 141.178 105.248C141.206 105.976 141.393 106.508 141.738 106.844C142.084 107.171 142.532 107.334 143.082 107.334ZM149.384 109C149.291 109 149.207 108.967 149.132 108.902C149.067 108.837 149.034 108.753 149.034 108.65V99.55C149.034 99.4473 149.067 99.3633 149.132 99.298C149.207 99.2327 149.291 99.2 149.384 99.2H150.686C150.826 99.2 150.929 99.2373 150.994 99.312C151.069 99.3867 151.12 99.4427 151.148 99.48L153.724 104.226L156.328 99.48C156.347 99.4427 156.389 99.3867 156.454 99.312C156.529 99.2373 156.636 99.2 156.776 99.2H158.078C158.181 99.2 158.265 99.2327 158.33 99.298C158.395 99.3633 158.428 99.4473 158.428 99.55V108.65C158.428 108.753 158.395 108.837 158.33 108.902C158.265 108.967 158.181 109 158.078 109H156.65C156.557 109 156.477 108.967 156.412 108.902C156.347 108.837 156.314 108.753 156.314 108.65V102.994L154.536 106.326C154.489 106.41 154.429 106.485 154.354 106.55C154.279 106.615 154.181 106.648 154.06 106.648H153.402C153.281 106.648 153.183 106.615 153.108 106.55C153.033 106.485 152.973 106.41 152.926 106.326L151.148 102.994V108.65C151.148 108.753 151.115 108.837 151.05 108.902C150.985 108.967 150.905 109 150.812 109H149.384ZM164.509 109.14C163.687 109.14 162.969 109.005 162.353 108.734C161.737 108.454 161.261 108.029 160.925 107.46C160.589 106.881 160.421 106.149 160.421 105.262V99.55C160.421 99.4473 160.453 99.3633 160.519 99.298C160.584 99.2327 160.668 99.2 160.771 99.2H162.297C162.399 99.2 162.483 99.2327 162.549 99.298C162.614 99.3633 162.647 99.4473 162.647 99.55V105.248C162.647 105.939 162.81 106.452 163.137 106.788C163.463 107.124 163.921 107.292 164.509 107.292C165.087 107.292 165.54 107.124 165.867 106.788C166.193 106.452 166.357 105.939 166.357 105.248V99.55C166.357 99.4473 166.389 99.3633 166.455 99.298C166.529 99.2327 166.613 99.2 166.707 99.2H168.247C168.34 99.2 168.419 99.2327 168.485 99.298C168.55 99.3633 168.583 99.4473 168.583 99.55V105.262C168.583 106.149 168.415 106.881 168.079 107.46C167.743 108.029 167.271 108.454 166.665 108.734C166.058 109.005 165.339 109.14 164.509 109.14ZM170.917 109C170.815 109 170.731 108.967 170.665 108.902C170.6 108.837 170.567 108.753 170.567 108.65V99.55C170.567 99.4473 170.6 99.3633 170.665 99.298C170.731 99.2327 170.815 99.2 170.917 99.2H172.191C172.331 99.2 172.434 99.2327 172.499 99.298C172.565 99.3633 172.607 99.4147 172.625 99.452L176.363 105.29V99.55C176.363 99.4473 176.396 99.3633 176.461 99.298C176.527 99.2327 176.606 99.2 176.699 99.2H178.127C178.23 99.2 178.314 99.2327 178.379 99.298C178.445 99.3633 178.477 99.4473 178.477 99.55V108.65C178.477 108.743 178.445 108.827 178.379 108.902C178.314 108.967 178.23 109 178.127 109H176.839C176.699 109 176.597 108.967 176.531 108.902C176.475 108.827 176.433 108.776 176.405 108.748L172.681 103.092V108.65C172.681 108.753 172.649 108.837 172.583 108.902C172.518 108.967 172.434 109 172.331 109H170.917ZM180.898 109C180.795 109 180.711 108.967 180.646 108.902C180.58 108.837 180.548 108.753 180.548 108.65V99.55C180.548 99.4473 180.58 99.3633 180.646 99.298C180.711 99.2327 180.795 99.2 180.898 99.2H182.48C182.582 99.2 182.666 99.2327 182.732 99.298C182.797 99.3633 182.83 99.4473 182.83 99.55V108.65C182.83 108.753 182.797 108.837 182.732 108.902C182.666 108.967 182.582 109 182.48 109H180.898ZM187.401 109C187.299 109 187.215 108.967 187.149 108.902C187.084 108.837 187.051 108.753 187.051 108.65V101.146H184.503C184.41 101.146 184.331 101.113 184.265 101.048C184.2 100.983 184.167 100.903 184.167 100.81V99.55C184.167 99.4473 184.2 99.3633 184.265 99.298C184.331 99.2327 184.41 99.2 184.503 99.2H191.839C191.942 99.2 192.026 99.2327 192.091 99.298C192.157 99.3633 192.189 99.4473 192.189 99.55V100.81C192.189 100.903 192.157 100.983 192.091 101.048C192.026 101.113 191.942 101.146 191.839 101.146H189.305V108.65C189.305 108.753 189.273 108.837 189.207 108.902C189.142 108.967 189.058 109 188.955 109H187.401ZM191.95 109C191.866 109 191.796 108.972 191.74 108.916C191.684 108.851 191.656 108.781 191.656 108.706C191.656 108.659 191.661 108.617 191.67 108.58L195.002 99.578C195.03 99.4753 195.086 99.3867 195.17 99.312C195.254 99.2373 195.371 99.2 195.52 99.2H197.312C197.462 99.2 197.578 99.2373 197.662 99.312C197.746 99.3867 197.802 99.4753 197.83 99.578L201.162 108.58C201.172 108.617 201.176 108.659 201.176 108.706C201.176 108.781 201.148 108.851 201.092 108.916C201.036 108.972 200.966 109 200.882 109H199.426C199.286 109 199.184 108.967 199.118 108.902C199.053 108.837 199.011 108.776 198.992 108.72L198.39 107.152H194.442L193.84 108.72C193.822 108.776 193.78 108.837 193.714 108.902C193.649 108.967 193.546 109 193.406 109H191.95ZM194.96 105.346H197.858L196.416 101.314L194.96 105.346ZM205.759 109.14C204.863 109.14 204.112 109.009 203.505 108.748C202.908 108.487 202.455 108.146 202.147 107.726C201.839 107.306 201.676 106.858 201.657 106.382C201.657 106.307 201.685 106.242 201.741 106.186C201.797 106.121 201.867 106.088 201.951 106.088H203.449C203.571 106.088 203.664 106.116 203.729 106.172C203.795 106.219 203.855 106.279 203.911 106.354C203.977 106.513 204.079 106.667 204.219 106.816C204.369 106.965 204.569 107.091 204.821 107.194C205.073 107.287 205.386 107.334 205.759 107.334C206.366 107.334 206.819 107.236 207.117 107.04C207.425 106.844 207.579 106.578 207.579 106.242C207.579 105.999 207.495 105.803 207.327 105.654C207.169 105.505 206.912 105.369 206.557 105.248C206.212 105.127 205.75 104.996 205.171 104.856C204.471 104.707 203.874 104.515 203.379 104.282C202.894 104.039 202.525 103.731 202.273 103.358C202.031 102.975 201.909 102.504 201.909 101.944C201.909 101.384 202.063 100.889 202.371 100.46C202.679 100.021 203.113 99.6807 203.673 99.438C204.233 99.186 204.901 99.06 205.675 99.06C206.301 99.06 206.851 99.144 207.327 99.312C207.813 99.48 208.214 99.6993 208.531 99.97C208.858 100.241 209.105 100.53 209.273 100.838C209.441 101.146 209.53 101.445 209.539 101.734C209.539 101.809 209.511 101.879 209.455 101.944C209.399 102 209.329 102.028 209.245 102.028H207.677C207.584 102.028 207.5 102.009 207.425 101.972C207.351 101.935 207.29 101.869 207.243 101.776C207.187 101.533 207.019 101.323 206.739 101.146C206.469 100.959 206.114 100.866 205.675 100.866C205.218 100.866 204.854 100.95 204.583 101.118C204.322 101.286 204.191 101.543 204.191 101.888C204.191 102.112 204.257 102.303 204.387 102.462C204.527 102.611 204.756 102.747 205.073 102.868C205.4 102.98 205.829 103.106 206.361 103.246C207.183 103.414 207.85 103.615 208.363 103.848C208.877 104.081 209.255 104.385 209.497 104.758C209.74 105.122 209.861 105.584 209.861 106.144C209.861 106.769 209.684 107.306 209.329 107.754C208.984 108.202 208.503 108.547 207.887 108.79C207.281 109.023 206.571 109.14 205.759 109.14Z" fill="#4D7CFE"/>
</svg>
