<svg width="343" height="136" viewBox="0 0 343 136" fill="none" xmlns="http://www.w3.org/2000/svg">
<rect width="343" height="136" rx="8" fill="#F1F6FF"/>
<ellipse cx="171.5" cy="41.9998" rx="8" ry="3.33333" stroke="#4D7CFE" stroke-width="1.5" stroke-linejoin="round"/>
<circle cx="171.5" cy="30.6665" r="4" stroke="#4D7CFE" stroke-width="1.5" stroke-linejoin="round"/>
<path fill-rule="evenodd" clip-rule="evenodd" d="M163.615 37.959C162.178 38.0603 160.871 38.339 159.841 38.7512C159.185 39.0134 158.604 39.3444 158.175 39.7503C157.744 40.1577 157.417 40.6923 157.417 41.3332C157.417 41.974 157.744 42.5087 158.175 42.9161C158.604 43.322 159.185 43.6529 159.841 43.9151C160.409 44.1426 161.062 44.3295 161.775 44.4682C161.334 43.9192 161.035 43.3262 160.906 42.7041C160.727 42.647 160.557 42.5863 160.398 42.5224C159.847 42.3021 159.451 42.0584 159.206 41.8262C158.962 41.5956 158.917 41.4287 158.917 41.3332C158.917 41.2376 158.962 41.0708 159.206 40.8401C159.451 40.6079 159.847 40.3643 160.398 40.1439C160.75 40.0028 161.152 39.8773 161.593 39.7719C162.072 39.0988 162.761 38.4859 163.615 37.959Z" fill="#4D7CFE"/>
<path fill-rule="evenodd" clip-rule="evenodd" d="M182.094 42.7041C181.965 43.3262 181.666 43.9192 181.225 44.4682C181.938 44.3295 182.591 44.1426 183.159 43.9151C183.815 43.6529 184.396 43.322 184.825 42.9161C185.256 42.5087 185.584 41.974 185.584 41.3332C185.584 40.6923 185.256 40.1577 184.825 39.7503C184.396 39.3444 183.815 39.0134 183.159 38.7512C182.129 38.339 180.822 38.0603 179.385 37.959C180.239 38.4859 180.929 39.0988 181.407 39.7719C181.848 39.8773 182.25 40.0028 182.602 40.1439C183.153 40.3643 183.549 40.6079 183.794 40.8401C184.038 41.0708 184.084 41.2376 184.084 41.3332C184.084 41.4287 184.038 41.5956 183.794 41.8262C183.549 42.0584 183.153 42.3021 182.602 42.5224C182.443 42.5863 182.273 42.647 182.094 42.7041Z" fill="#4D7CFE"/>
<path fill-rule="evenodd" clip-rule="evenodd" d="M177.407 33.7604C177.17 34.2109 176.884 34.6311 176.555 35.0135C177.035 35.2709 177.584 35.4168 178.166 35.4168C180.053 35.4168 181.583 33.8871 181.583 32.0002C181.583 30.1132 180.053 28.5835 178.166 28.5835C178.056 28.5835 177.947 28.5887 177.84 28.5989C177.994 29.0727 178.097 29.5699 178.141 30.0837C178.15 30.0836 178.158 30.0835 178.166 30.0835C179.225 30.0835 180.083 30.9416 180.083 32.0002C180.083 33.0587 179.225 33.9168 178.166 33.9168C177.897 33.9168 177.64 33.861 177.407 33.7604Z" fill="#4D7CFE"/>
<path fill-rule="evenodd" clip-rule="evenodd" d="M165.16 28.5989C165.052 28.5887 164.943 28.5835 164.833 28.5835C162.946 28.5835 161.417 30.1132 161.417 32.0002C161.417 33.8871 162.946 35.4168 164.833 35.4168C165.416 35.4168 165.965 35.2709 166.445 35.0135C166.116 34.6311 165.829 34.2109 165.593 33.7604C165.36 33.861 165.103 33.9168 164.833 33.9168C163.775 33.9168 162.917 33.0587 162.917 32.0002C162.917 30.9416 163.775 30.0835 164.833 30.0835C164.842 30.0835 164.85 30.0836 164.858 30.0837C164.903 29.5699 165.006 29.0727 165.16 28.5989Z" fill="#4D7CFE"/>
<path d="M56.388 85C56.2853 85 56.2013 84.9673 56.136 84.902C56.0706 84.8367 56.038 84.7527 56.038 84.65V75.55C56.038 75.4473 56.0706 75.3633 56.136 75.298C56.2013 75.2327 56.2853 75.2 56.388 75.2H57.942C58.0446 75.2 58.1286 75.2327 58.194 75.298C58.2593 75.3633 58.292 75.4473 58.292 75.55V83.124H62.632C62.7346 83.124 62.8186 83.1567 62.884 83.222C62.9493 83.2873 62.982 83.3713 62.982 83.474V84.65C62.982 84.7527 62.9493 84.8367 62.884 84.902C62.8186 84.9673 62.7346 85 62.632 85H56.388ZM63.6944 85C63.6104 85 63.5404 84.972 63.4844 84.916C63.4284 84.8507 63.4004 84.7807 63.4004 84.706C63.4004 84.6593 63.4051 84.6173 63.4144 84.58L66.7464 75.578C66.7744 75.4753 66.8304 75.3867 66.9144 75.312C66.9984 75.2373 67.1151 75.2 67.2644 75.2H69.0564C69.2058 75.2 69.3224 75.2373 69.4064 75.312C69.4904 75.3867 69.5464 75.4753 69.5744 75.578L72.9064 84.58C72.9158 84.6173 72.9204 84.6593 72.9204 84.706C72.9204 84.7807 72.8924 84.8507 72.8364 84.916C72.7804 84.972 72.7104 85 72.6264 85H71.1704C71.0304 85 70.9278 84.9673 70.8624 84.902C70.7971 84.8367 70.7551 84.776 70.7364 84.72L70.1344 83.152H66.1864L65.5844 84.72C65.5658 84.776 65.5238 84.8367 65.4584 84.902C65.3931 84.9673 65.2904 85 65.1504 85H63.6944ZM66.7044 81.346H69.6024L68.1604 77.314L66.7044 81.346ZM74.4758 85C74.3732 85 74.2892 84.9673 74.2238 84.902C74.1585 84.8367 74.1258 84.7527 74.1258 84.65V75.55C74.1258 75.4473 74.1585 75.3633 74.2238 75.298C74.2892 75.2327 74.3732 75.2 74.4758 75.2H78.2978C79.0538 75.2 79.7072 75.3167 80.2578 75.55C80.8178 75.7833 81.2518 76.138 81.5598 76.614C81.8772 77.0807 82.0358 77.664 82.0358 78.364C82.0358 79.0733 81.8772 79.6613 81.5598 80.128C81.2518 80.5853 80.8178 80.926 80.2578 81.15C79.7072 81.374 79.0538 81.486 78.2978 81.486H76.4218V84.65C76.4218 84.7527 76.3892 84.8367 76.3238 84.902C76.2585 84.9673 76.1745 85 76.0718 85H74.4758ZM76.3798 79.75H78.2278C78.7038 79.75 79.0725 79.6333 79.3338 79.4C79.6045 79.1667 79.7398 78.8167 79.7398 78.35C79.7398 77.9393 79.6185 77.6033 79.3758 77.342C79.1425 77.0807 78.7598 76.95 78.2278 76.95H76.3798V79.75ZM87.3557 85.14C86.5064 85.14 85.7737 85 85.1577 84.72C84.5417 84.44 84.0611 84.02 83.7157 83.46C83.3704 82.8907 83.1837 82.1767 83.1557 81.318C83.1464 80.9167 83.1417 80.52 83.1417 80.128C83.1417 79.7267 83.1464 79.3207 83.1557 78.91C83.1837 78.07 83.3704 77.3653 83.7157 76.796C84.0704 76.2173 84.5557 75.7833 85.1717 75.494C85.7971 75.2047 86.5251 75.06 87.3557 75.06C88.1771 75.06 88.8957 75.2047 89.5117 75.494C90.1371 75.7833 90.6271 76.2173 90.9817 76.796C91.3364 77.3653 91.5231 78.07 91.5417 78.91C91.5604 79.3207 91.5697 79.7267 91.5697 80.128C91.5697 80.52 91.5604 80.9167 91.5417 81.318C91.5137 82.1767 91.3271 82.8907 90.9817 83.46C90.6364 84.02 90.1557 84.44 89.5397 84.72C88.9237 85 88.1957 85.14 87.3557 85.14ZM87.3557 83.334C87.8971 83.334 88.3404 83.1707 88.6857 82.844C89.0404 82.508 89.2271 81.976 89.2457 81.248C89.2644 80.8373 89.2737 80.4547 89.2737 80.1C89.2737 79.736 89.2644 79.3533 89.2457 78.952C89.2364 78.4667 89.1477 78.07 88.9797 77.762C88.8117 77.454 88.5877 77.23 88.3077 77.09C88.0371 76.9407 87.7197 76.866 87.3557 76.866C86.9917 76.866 86.6697 76.9407 86.3897 77.09C86.1097 77.23 85.8857 77.454 85.7177 77.762C85.5591 78.07 85.4704 78.4667 85.4517 78.952C85.4424 79.3533 85.4377 79.736 85.4377 80.1C85.4377 80.4547 85.4424 80.8373 85.4517 81.248C85.4797 81.976 85.6664 82.508 86.0117 82.844C86.3571 83.1707 86.8051 83.334 87.3557 83.334ZM93.6575 85C93.5548 85 93.4708 84.9673 93.4055 84.902C93.3402 84.8367 93.3075 84.7527 93.3075 84.65V75.55C93.3075 75.4473 93.3402 75.3633 93.4055 75.298C93.4708 75.2327 93.5548 75.2 93.6575 75.2H97.3675C98.5342 75.2 99.4535 75.4707 100.125 76.012C100.797 76.544 101.133 77.314 101.133 78.322C101.133 79.0033 100.97 79.5727 100.643 80.03C100.317 80.4873 99.8782 80.828 99.3275 81.052L101.301 84.552C101.329 84.608 101.343 84.6593 101.343 84.706C101.343 84.7807 101.315 84.8507 101.259 84.916C101.203 84.972 101.133 85 101.049 85H99.4955C99.3275 85 99.2015 84.958 99.1175 84.874C99.0335 84.7807 98.9728 84.6967 98.9355 84.622L97.2275 81.416H95.5335V84.65C95.5335 84.7527 95.5008 84.8367 95.4355 84.902C95.3702 84.9673 95.2862 85 95.1835 85H93.6575ZM95.5335 79.638H97.3255C97.8388 79.638 98.2168 79.5213 98.4595 79.288C98.7115 79.0547 98.8375 78.728 98.8375 78.308C98.8375 77.888 98.7162 77.5567 98.4735 77.314C98.2308 77.0713 97.8482 76.95 97.3255 76.95H95.5335V79.638ZM102.276 85C102.192 85 102.122 84.972 102.066 84.916C102.01 84.8507 101.982 84.7807 101.982 84.706C101.982 84.6593 101.987 84.6173 101.996 84.58L105.328 75.578C105.356 75.4753 105.412 75.3867 105.496 75.312C105.58 75.2373 105.697 75.2 105.846 75.2H107.638C107.788 75.2 107.904 75.2373 107.988 75.312C108.072 75.3867 108.128 75.4753 108.156 75.578L111.488 84.58C111.498 84.6173 111.502 84.6593 111.502 84.706C111.502 84.7807 111.474 84.8507 111.418 84.916C111.362 84.972 111.292 85 111.208 85H109.752C109.612 85 109.51 84.9673 109.444 84.902C109.379 84.8367 109.337 84.776 109.318 84.72L108.716 83.152H104.768L104.166 84.72C104.148 84.776 104.106 84.8367 104.04 84.902C103.975 84.9673 103.872 85 103.732 85H102.276ZM105.286 81.346H108.184L106.742 77.314L105.286 81.346ZM113.058 85C112.955 85 112.871 84.9673 112.806 84.902C112.741 84.8367 112.708 84.7527 112.708 84.65V75.55C112.708 75.4473 112.741 75.3633 112.806 75.298C112.871 75.2327 112.955 75.2 113.058 75.2H114.332C114.472 75.2 114.575 75.2327 114.64 75.298C114.705 75.3633 114.747 75.4147 114.766 75.452L118.504 81.29V75.55C118.504 75.4473 118.537 75.3633 118.602 75.298C118.667 75.2327 118.747 75.2 118.84 75.2H120.268C120.371 75.2 120.455 75.2327 120.52 75.298C120.585 75.3633 120.618 75.4473 120.618 75.55V84.65C120.618 84.7433 120.585 84.8273 120.52 84.902C120.455 84.9673 120.371 85 120.268 85H118.98C118.84 85 118.737 84.9673 118.672 84.902C118.616 84.8273 118.574 84.776 118.546 84.748L114.822 79.092V84.65C114.822 84.7527 114.789 84.8367 114.724 84.902C114.659 84.9673 114.575 85 114.472 85H113.058ZM126.128 85C126.026 85 125.942 84.9673 125.876 84.902C125.811 84.8367 125.778 84.7527 125.778 84.65V75.55C125.778 75.4473 125.811 75.3633 125.876 75.298C125.942 75.2327 126.026 75.2 126.128 75.2H129.95C130.706 75.2 131.36 75.3167 131.91 75.55C132.47 75.7833 132.904 76.138 133.212 76.614C133.53 77.0807 133.688 77.664 133.688 78.364C133.688 79.0733 133.53 79.6613 133.212 80.128C132.904 80.5853 132.47 80.926 131.91 81.15C131.36 81.374 130.706 81.486 129.95 81.486H128.074V84.65C128.074 84.7527 128.042 84.8367 127.976 84.902C127.911 84.9673 127.827 85 127.724 85H126.128ZM128.032 79.75H129.88C130.356 79.75 130.725 79.6333 130.986 79.4C131.257 79.1667 131.392 78.8167 131.392 78.35C131.392 77.9393 131.271 77.6033 131.028 77.342C130.795 77.0807 130.412 76.95 129.88 76.95H128.032V79.75ZM135.466 85C135.363 85 135.279 84.9673 135.214 84.902C135.149 84.8367 135.116 84.7527 135.116 84.65V75.55C135.116 75.4473 135.149 75.3633 135.214 75.298C135.279 75.2327 135.363 75.2 135.466 75.2H141.808C141.911 75.2 141.995 75.2327 142.06 75.298C142.125 75.3633 142.158 75.4473 142.158 75.55V76.67C142.158 76.7633 142.125 76.8427 142.06 76.908C141.995 76.9733 141.911 77.006 141.808 77.006H137.272V79.204H141.5C141.603 79.204 141.687 79.2367 141.752 79.302C141.817 79.3673 141.85 79.4513 141.85 79.554V80.59C141.85 80.6833 141.817 80.7627 141.752 80.828C141.687 80.8933 141.603 80.926 141.5 80.926H137.272V83.194H141.92C142.023 83.194 142.107 83.2267 142.172 83.292C142.237 83.3573 142.27 83.4413 142.27 83.544V84.65C142.27 84.7527 142.237 84.8367 142.172 84.902C142.107 84.9673 142.023 85 141.92 85H135.466ZM144.284 85C144.182 85 144.098 84.9673 144.032 84.902C143.967 84.8367 143.934 84.7527 143.934 84.65V75.55C143.934 75.4473 143.967 75.3633 144.032 75.298C144.098 75.2327 144.182 75.2 144.284 75.2H145.558C145.698 75.2 145.801 75.2327 145.866 75.298C145.932 75.3633 145.974 75.4147 145.992 75.452L149.73 81.29V75.55C149.73 75.4473 149.763 75.3633 149.828 75.298C149.894 75.2327 149.973 75.2 150.066 75.2H151.494C151.597 75.2 151.681 75.2327 151.746 75.298C151.812 75.3633 151.844 75.4473 151.844 75.55V84.65C151.844 84.7433 151.812 84.8273 151.746 84.902C151.681 84.9673 151.597 85 151.494 85H150.206C150.066 85 149.964 84.9673 149.898 84.902C149.842 84.8273 149.8 84.776 149.772 84.748L146.048 79.092V84.65C146.048 84.7527 146.016 84.8367 145.95 84.902C145.885 84.9673 145.801 85 145.698 85H144.284ZM157.849 85.14C156.972 85.14 156.22 84.9953 155.595 84.706C154.979 84.4073 154.498 83.978 154.153 83.418C153.817 82.8487 153.635 82.1627 153.607 81.36C153.598 80.9587 153.593 80.5293 153.593 80.072C153.593 79.6147 153.598 79.1807 153.607 78.77C153.635 77.986 153.817 77.3187 154.153 76.768C154.498 76.2173 154.984 75.7973 155.609 75.508C156.244 75.2093 156.99 75.06 157.849 75.06C158.54 75.06 159.146 75.1487 159.669 75.326C160.192 75.5033 160.63 75.7367 160.985 76.026C161.34 76.306 161.61 76.614 161.797 76.95C161.984 77.286 162.082 77.608 162.091 77.916C162.091 78 162.063 78.0747 162.007 78.14C161.951 78.196 161.876 78.224 161.783 78.224H160.047C159.954 78.224 159.879 78.2053 159.823 78.168C159.776 78.1307 159.734 78.0747 159.697 78C159.632 77.832 159.524 77.664 159.375 77.496C159.235 77.3187 159.044 77.1693 158.801 77.048C158.558 76.9267 158.241 76.866 157.849 76.866C157.261 76.866 156.794 77.02 156.449 77.328C156.113 77.636 155.931 78.14 155.903 78.84C155.875 79.6427 155.875 80.4593 155.903 81.29C155.931 82.018 156.118 82.5407 156.463 82.858C156.818 83.1753 157.289 83.334 157.877 83.334C158.26 83.334 158.6 83.2687 158.899 83.138C159.207 82.998 159.45 82.7833 159.627 82.494C159.804 82.2047 159.893 81.836 159.893 81.388V81.038H158.367C158.274 81.038 158.194 81.0053 158.129 80.94C158.064 80.8653 158.031 80.7813 158.031 80.688V79.792C158.031 79.6893 158.064 79.6053 158.129 79.54C158.194 79.4747 158.274 79.442 158.367 79.442H161.797C161.9 79.442 161.984 79.4747 162.049 79.54C162.114 79.6053 162.147 79.6893 162.147 79.792V81.318C162.147 82.1207 161.97 82.8067 161.615 83.376C161.27 83.9453 160.77 84.384 160.117 84.692C159.473 84.9907 158.717 85.14 157.849 85.14ZM167.858 85.14C167.037 85.14 166.318 85.0047 165.702 84.734C165.086 84.454 164.61 84.0293 164.274 83.46C163.938 82.8813 163.77 82.1487 163.77 81.262V75.55C163.77 75.4473 163.803 75.3633 163.868 75.298C163.934 75.2327 164.018 75.2 164.12 75.2H165.646C165.749 75.2 165.833 75.2327 165.898 75.298C165.964 75.3633 165.996 75.4473 165.996 75.55V81.248C165.996 81.9387 166.16 82.452 166.486 82.788C166.813 83.124 167.27 83.292 167.858 83.292C168.437 83.292 168.89 83.124 169.216 82.788C169.543 82.452 169.706 81.9387 169.706 81.248V75.55C169.706 75.4473 169.739 75.3633 169.804 75.298C169.879 75.2327 169.963 75.2 170.056 75.2H171.596C171.69 75.2 171.769 75.2327 171.834 75.298C171.9 75.3633 171.932 75.4473 171.932 75.55V81.262C171.932 82.1487 171.764 82.8813 171.428 83.46C171.092 84.0293 170.621 84.454 170.014 84.734C169.408 85.0047 168.689 85.14 167.858 85.14ZM174.267 85C174.164 85 174.08 84.9673 174.015 84.902C173.95 84.8367 173.917 84.7527 173.917 84.65V75.55C173.917 75.4473 173.95 75.3633 174.015 75.298C174.08 75.2327 174.164 75.2 174.267 75.2H177.977C179.144 75.2 180.063 75.4707 180.735 76.012C181.407 76.544 181.743 77.314 181.743 78.322C181.743 79.0033 181.58 79.5727 181.253 80.03C180.926 80.4873 180.488 80.828 179.937 81.052L181.911 84.552C181.939 84.608 181.953 84.6593 181.953 84.706C181.953 84.7807 181.925 84.8507 181.869 84.916C181.813 84.972 181.743 85 181.659 85H180.105C179.937 85 179.811 84.958 179.727 84.874C179.643 84.7807 179.582 84.6967 179.545 84.622L177.837 81.416H176.143V84.65C176.143 84.7527 176.11 84.8367 176.045 84.902C175.98 84.9673 175.896 85 175.793 85H174.267ZM176.143 79.638H177.935C178.448 79.638 178.826 79.5213 179.069 79.288C179.321 79.0547 179.447 78.728 179.447 78.308C179.447 77.888 179.326 77.5567 179.083 77.314C178.84 77.0713 178.458 76.95 177.935 76.95H176.143V79.638ZM187.464 85.14C186.642 85.14 185.924 85.0047 185.308 84.734C184.692 84.454 184.216 84.0293 183.88 83.46C183.544 82.8813 183.376 82.1487 183.376 81.262V75.55C183.376 75.4473 183.408 75.3633 183.474 75.298C183.539 75.2327 183.623 75.2 183.726 75.2H185.252C185.354 75.2 185.438 75.2327 185.504 75.298C185.569 75.3633 185.602 75.4473 185.602 75.55V81.248C185.602 81.9387 185.765 82.452 186.092 82.788C186.418 83.124 186.876 83.292 187.464 83.292C188.042 83.292 188.495 83.124 188.822 82.788C189.148 82.452 189.312 81.9387 189.312 81.248V75.55C189.312 75.4473 189.344 75.3633 189.41 75.298C189.484 75.2327 189.568 75.2 189.662 75.2H191.202C191.295 75.2 191.374 75.2327 191.44 75.298C191.505 75.3633 191.538 75.4473 191.538 75.55V81.262C191.538 82.1487 191.37 82.8813 191.034 83.46C190.698 84.0293 190.226 84.454 189.62 84.734C189.013 85.0047 188.294 85.14 187.464 85.14ZM197.05 85.14C196.154 85.14 195.403 85.0093 194.796 84.748C194.199 84.4867 193.746 84.146 193.438 83.726C193.13 83.306 192.967 82.858 192.948 82.382C192.948 82.3073 192.976 82.242 193.032 82.186C193.088 82.1207 193.158 82.088 193.242 82.088H194.74C194.862 82.088 194.955 82.116 195.02 82.172C195.086 82.2187 195.146 82.2793 195.202 82.354C195.268 82.5127 195.37 82.6667 195.51 82.816C195.66 82.9653 195.86 83.0913 196.112 83.194C196.364 83.2873 196.677 83.334 197.05 83.334C197.657 83.334 198.11 83.236 198.408 83.04C198.716 82.844 198.87 82.578 198.87 82.242C198.87 81.9993 198.786 81.8033 198.618 81.654C198.46 81.5047 198.203 81.3693 197.848 81.248C197.503 81.1267 197.041 80.996 196.462 80.856C195.762 80.7067 195.165 80.5153 194.67 80.282C194.185 80.0393 193.816 79.7313 193.564 79.358C193.322 78.9753 193.2 78.504 193.2 77.944C193.2 77.384 193.354 76.8893 193.662 76.46C193.97 76.0213 194.404 75.6807 194.964 75.438C195.524 75.186 196.192 75.06 196.966 75.06C197.592 75.06 198.142 75.144 198.618 75.312C199.104 75.48 199.505 75.6993 199.822 75.97C200.149 76.2407 200.396 76.53 200.564 76.838C200.732 77.146 200.821 77.4447 200.83 77.734C200.83 77.8087 200.802 77.8787 200.746 77.944C200.69 78 200.62 78.028 200.536 78.028H198.968C198.875 78.028 198.791 78.0093 198.716 77.972C198.642 77.9347 198.581 77.8693 198.534 77.776C198.478 77.5333 198.31 77.3233 198.03 77.146C197.76 76.9593 197.405 76.866 196.966 76.866C196.509 76.866 196.145 76.95 195.874 77.118C195.613 77.286 195.482 77.5427 195.482 77.888C195.482 78.112 195.548 78.3033 195.678 78.462C195.818 78.6113 196.047 78.7467 196.364 78.868C196.691 78.98 197.12 79.106 197.652 79.246C198.474 79.414 199.141 79.6147 199.654 79.848C200.168 80.0813 200.546 80.3847 200.788 80.758C201.031 81.122 201.152 81.584 201.152 82.144C201.152 82.7693 200.975 83.306 200.62 83.754C200.275 84.202 199.794 84.5473 199.178 84.79C198.572 85.0233 197.862 85.14 197.05 85.14ZM202.403 86.05C202.328 86.05 202.263 86.0173 202.207 85.952C202.16 85.896 202.142 85.826 202.151 85.742L202.543 83.194C202.562 83.0727 202.608 82.9653 202.683 82.872C202.758 82.7787 202.87 82.732 203.019 82.732H204.475C204.55 82.732 204.61 82.76 204.657 82.816C204.713 82.8627 204.741 82.9233 204.741 82.998C204.741 83.054 204.732 83.11 204.713 83.166L203.733 85.672C203.696 85.7653 203.64 85.8493 203.565 85.924C203.5 86.008 203.392 86.05 203.243 86.05H202.403ZM208.616 85C208.532 85 208.462 84.972 208.406 84.916C208.35 84.8507 208.322 84.7807 208.322 84.706C208.322 84.6593 208.327 84.6173 208.336 84.58L211.668 75.578C211.696 75.4753 211.752 75.3867 211.836 75.312C211.92 75.2373 212.037 75.2 212.186 75.2H213.978C214.128 75.2 214.244 75.2373 214.328 75.312C214.412 75.3867 214.468 75.4753 214.496 75.578L217.828 84.58C217.838 84.6173 217.842 84.6593 217.842 84.706C217.842 84.7807 217.814 84.8507 217.758 84.916C217.702 84.972 217.632 85 217.548 85H216.092C215.952 85 215.85 84.9673 215.784 84.902C215.719 84.8367 215.677 84.776 215.658 84.72L215.056 83.152H211.108L210.506 84.72C210.488 84.776 210.446 84.8367 210.38 84.902C210.315 84.9673 210.212 85 210.072 85H208.616ZM211.626 81.346H214.524L213.082 77.314L211.626 81.346ZM219.398 85C219.295 85 219.211 84.9673 219.146 84.902C219.08 84.8367 219.048 84.7527 219.048 84.65V75.55C219.048 75.4473 219.08 75.3633 219.146 75.298C219.211 75.2327 219.295 75.2 219.398 75.2H220.672C220.812 75.2 220.914 75.2327 220.98 75.298C221.045 75.3633 221.087 75.4147 221.106 75.452L224.844 81.29V75.55C224.844 75.4473 224.876 75.3633 224.942 75.298C225.007 75.2327 225.086 75.2 225.18 75.2H226.608C226.71 75.2 226.794 75.2327 226.86 75.298C226.925 75.3633 226.958 75.4473 226.958 75.55V84.65C226.958 84.7433 226.925 84.8273 226.86 84.902C226.794 84.9673 226.71 85 226.608 85H225.32C225.18 85 225.077 84.9673 225.012 84.902C224.956 84.8273 224.914 84.776 224.886 84.748L221.162 79.092V84.65C221.162 84.7527 221.129 84.8367 221.064 84.902C220.998 84.9673 220.914 85 220.812 85H219.398ZM232.962 85.14C232.085 85.14 231.334 84.9953 230.708 84.706C230.092 84.4073 229.612 83.978 229.266 83.418C228.93 82.8487 228.748 82.1627 228.72 81.36C228.711 80.9587 228.706 80.5293 228.706 80.072C228.706 79.6147 228.711 79.1807 228.72 78.77C228.748 77.986 228.93 77.3187 229.266 76.768C229.612 76.2173 230.097 75.7973 230.722 75.508C231.357 75.2093 232.104 75.06 232.962 75.06C233.653 75.06 234.26 75.1487 234.782 75.326C235.305 75.5033 235.744 75.7367 236.098 76.026C236.453 76.306 236.724 76.614 236.91 76.95C237.097 77.286 237.195 77.608 237.204 77.916C237.204 78 237.176 78.0747 237.12 78.14C237.064 78.196 236.99 78.224 236.896 78.224H235.16C235.067 78.224 234.992 78.2053 234.936 78.168C234.89 78.1307 234.848 78.0747 234.81 78C234.745 77.832 234.638 77.664 234.488 77.496C234.348 77.3187 234.157 77.1693 233.914 77.048C233.672 76.9267 233.354 76.866 232.962 76.866C232.374 76.866 231.908 77.02 231.562 77.328C231.226 77.636 231.044 78.14 231.016 78.84C230.988 79.6427 230.988 80.4593 231.016 81.29C231.044 82.018 231.231 82.5407 231.576 82.858C231.931 83.1753 232.402 83.334 232.99 83.334C233.373 83.334 233.714 83.2687 234.012 83.138C234.32 82.998 234.563 82.7833 234.74 82.494C234.918 82.2047 235.006 81.836 235.006 81.388V81.038H233.48C233.387 81.038 233.308 81.0053 233.242 80.94C233.177 80.8653 233.144 80.7813 233.144 80.688V79.792C233.144 79.6893 233.177 79.6053 233.242 79.54C233.308 79.4747 233.387 79.442 233.48 79.442H236.91C237.013 79.442 237.097 79.4747 237.162 79.54C237.228 79.6053 237.26 79.6893 237.26 79.792V81.318C237.26 82.1207 237.083 82.8067 236.728 83.376C236.383 83.9453 235.884 84.384 235.23 84.692C234.586 84.9907 233.83 85.14 232.962 85.14ZM242.902 85.14C242.024 85.14 241.273 84.9953 240.648 84.706C240.032 84.4073 239.551 83.978 239.206 83.418C238.87 82.8487 238.688 82.1627 238.66 81.36C238.65 80.9587 238.646 80.5293 238.646 80.072C238.646 79.6147 238.65 79.1807 238.66 78.77C238.688 77.986 238.87 77.3187 239.206 76.768C239.551 76.2173 240.036 75.7973 240.662 75.508C241.296 75.2093 242.043 75.06 242.902 75.06C243.592 75.06 244.199 75.1487 244.722 75.326C245.244 75.5033 245.683 75.7367 246.038 76.026C246.392 76.306 246.663 76.614 246.85 76.95C247.036 77.286 247.134 77.608 247.144 77.916C247.144 78 247.116 78.0747 247.06 78.14C247.004 78.196 246.929 78.224 246.836 78.224H245.1C245.006 78.224 244.932 78.2053 244.876 78.168C244.829 78.1307 244.787 78.0747 244.75 78C244.684 77.832 244.577 77.664 244.428 77.496C244.288 77.3187 244.096 77.1693 243.854 77.048C243.611 76.9267 243.294 76.866 242.902 76.866C242.314 76.866 241.847 77.02 241.502 77.328C241.166 77.636 240.984 78.14 240.956 78.84C240.928 79.6427 240.928 80.4593 240.956 81.29C240.984 82.018 241.17 82.5407 241.516 82.858C241.87 83.1753 242.342 83.334 242.93 83.334C243.312 83.334 243.653 83.2687 243.952 83.138C244.26 82.998 244.502 82.7833 244.68 82.494C244.857 82.2047 244.946 81.836 244.946 81.388V81.038H243.42C243.326 81.038 243.247 81.0053 243.182 80.94C243.116 80.8653 243.084 80.7813 243.084 80.688V79.792C243.084 79.6893 243.116 79.6053 243.182 79.54C243.247 79.4747 243.326 79.442 243.42 79.442H246.85C246.952 79.442 247.036 79.4747 247.102 79.54C247.167 79.6053 247.2 79.6893 247.2 79.792V81.318C247.2 82.1207 247.022 82.8067 246.668 83.376C246.322 83.9453 245.823 84.384 245.17 84.692C244.526 84.9907 243.77 85.14 242.902 85.14ZM252.799 85.14C251.95 85.14 251.217 85 250.601 84.72C249.985 84.44 249.504 84.02 249.159 83.46C248.814 82.8907 248.627 82.1767 248.599 81.318C248.59 80.9167 248.585 80.52 248.585 80.128C248.585 79.7267 248.59 79.3207 248.599 78.91C248.627 78.07 248.814 77.3653 249.159 76.796C249.514 76.2173 249.999 75.7833 250.615 75.494C251.24 75.2047 251.968 75.06 252.799 75.06C253.62 75.06 254.339 75.2047 254.955 75.494C255.58 75.7833 256.07 76.2173 256.425 76.796C256.78 77.3653 256.966 78.07 256.985 78.91C257.004 79.3207 257.013 79.7267 257.013 80.128C257.013 80.52 257.004 80.9167 256.985 81.318C256.957 82.1767 256.77 82.8907 256.425 83.46C256.08 84.02 255.599 84.44 254.983 84.72C254.367 85 253.639 85.14 252.799 85.14ZM252.799 83.334C253.34 83.334 253.784 83.1707 254.129 82.844C254.484 82.508 254.67 81.976 254.689 81.248C254.708 80.8373 254.717 80.4547 254.717 80.1C254.717 79.736 254.708 79.3533 254.689 78.952C254.68 78.4667 254.591 78.07 254.423 77.762C254.255 77.454 254.031 77.23 253.751 77.09C253.48 76.9407 253.163 76.866 252.799 76.866C252.435 76.866 252.113 76.9407 251.833 77.09C251.553 77.23 251.329 77.454 251.161 77.762C251.002 78.07 250.914 78.4667 250.895 78.952C250.886 79.3533 250.881 79.736 250.881 80.1C250.881 80.4547 250.886 80.8373 250.895 81.248C250.923 81.976 251.11 82.508 251.455 82.844C251.8 83.1707 252.248 83.334 252.799 83.334ZM261.093 85C260.99 85 260.906 84.9673 260.841 84.902C260.775 84.8367 260.743 84.7527 260.743 84.65V77.146H258.195C258.101 77.146 258.022 77.1133 257.957 77.048C257.891 76.9827 257.859 76.9033 257.859 76.81V75.55C257.859 75.4473 257.891 75.3633 257.957 75.298C258.022 75.2327 258.101 75.2 258.195 75.2H265.531C265.633 75.2 265.717 75.2327 265.783 75.298C265.848 75.3633 265.881 75.4473 265.881 75.55V76.81C265.881 76.9033 265.848 76.9827 265.783 77.048C265.717 77.1133 265.633 77.146 265.531 77.146H262.997V84.65C262.997 84.7527 262.964 84.8367 262.899 84.902C262.833 84.9673 262.749 85 262.647 85H261.093ZM265.642 85C265.558 85 265.488 84.972 265.432 84.916C265.376 84.8507 265.348 84.7807 265.348 84.706C265.348 84.6593 265.352 84.6173 265.362 84.58L268.694 75.578C268.722 75.4753 268.778 75.3867 268.862 75.312C268.946 75.2373 269.062 75.2 269.212 75.2H271.004C271.153 75.2 271.27 75.2373 271.354 75.312C271.438 75.3867 271.494 75.4753 271.522 75.578L274.854 84.58C274.863 84.6173 274.868 84.6593 274.868 84.706C274.868 84.7807 274.84 84.8507 274.784 84.916C274.728 84.972 274.658 85 274.574 85H273.118C272.978 85 272.875 84.9673 272.81 84.902C272.744 84.8367 272.702 84.776 272.684 84.72L272.082 83.152H268.134L267.532 84.72C267.513 84.776 267.471 84.8367 267.406 84.902C267.34 84.9673 267.238 85 267.098 85H265.642ZM268.652 81.346H271.55L270.108 77.314L268.652 81.346ZM281.915 85.14C281.215 85.14 280.604 85.028 280.081 84.804C279.559 84.5707 279.153 84.2393 278.863 83.81C278.574 83.3807 278.429 82.8767 278.429 82.298C278.429 81.8873 278.509 81.5233 278.667 81.206C278.835 80.8887 279.064 80.604 279.353 80.352C279.643 80.0907 279.974 79.8527 280.347 79.638C279.965 79.2273 279.689 78.854 279.521 78.518C279.363 78.182 279.283 77.8367 279.283 77.482C279.283 77.0527 279.395 76.656 279.619 76.292C279.843 75.928 280.175 75.634 280.613 75.41C281.052 75.1767 281.589 75.06 282.223 75.06C282.821 75.06 283.329 75.172 283.749 75.396C284.169 75.6107 284.491 75.9 284.715 76.264C284.939 76.628 285.051 77.0247 285.051 77.454C285.051 77.8367 284.963 78.182 284.785 78.49C284.617 78.7887 284.384 79.0593 284.085 79.302C283.787 79.5447 283.446 79.778 283.063 80.002L284.897 81.836C284.991 81.6773 285.107 81.458 285.247 81.178C285.387 80.898 285.513 80.5387 285.625 80.1C285.653 79.9507 285.751 79.876 285.919 79.876H287.137C287.221 79.876 287.287 79.904 287.333 79.96C287.389 80.0067 287.417 80.072 287.417 80.156C287.408 80.3333 287.366 80.5433 287.291 80.786C287.217 81.0193 287.114 81.2667 286.983 81.528C286.853 81.7893 286.708 82.046 286.549 82.298C286.391 82.55 286.232 82.7833 286.073 82.998L287.599 84.538C287.665 84.6127 287.697 84.6827 287.697 84.748C287.697 84.8227 287.674 84.8833 287.627 84.93C287.581 84.9767 287.515 85 287.431 85H285.821C285.728 85 285.653 84.986 285.597 84.958C285.541 84.9207 285.49 84.888 285.443 84.86L284.743 84.188C284.37 84.496 283.95 84.734 283.483 84.902C283.026 85.0607 282.503 85.14 281.915 85.14ZM281.915 83.53C282.223 83.53 282.513 83.4833 282.783 83.39C283.063 83.2873 283.32 83.124 283.553 82.9L281.481 80.87C281.192 81.0287 280.945 81.22 280.739 81.444C280.534 81.6587 280.431 81.92 280.431 82.228C280.431 82.4987 280.501 82.732 280.641 82.928C280.781 83.124 280.963 83.2733 281.187 83.376C281.421 83.4787 281.663 83.53 281.915 83.53ZM281.971 78.84C282.205 78.7093 282.419 78.5833 282.615 78.462C282.811 78.3313 282.965 78.1913 283.077 78.042C283.189 77.8833 283.245 77.706 283.245 77.51C283.245 77.2207 283.147 76.992 282.951 76.824C282.755 76.656 282.513 76.572 282.223 76.572C281.953 76.572 281.715 76.656 281.509 76.824C281.304 76.992 281.201 77.2207 281.201 77.51C281.201 77.6407 281.225 77.7713 281.271 77.902C281.318 78.0233 281.397 78.1587 281.509 78.308C281.621 78.4573 281.775 78.6347 281.971 78.84ZM107.528 109C107.425 109 107.341 108.967 107.276 108.902C107.21 108.837 107.178 108.753 107.178 108.65V99.55C107.178 99.4473 107.21 99.3633 107.276 99.298C107.341 99.2327 107.425 99.2 107.528 99.2H109.11C109.212 99.2 109.296 99.2327 109.362 99.298C109.427 99.3633 109.46 99.4473 109.46 99.55V108.65C109.46 108.753 109.427 108.837 109.362 108.902C109.296 108.967 109.212 109 109.11 109H107.528ZM115.529 109.14C114.708 109.14 113.989 109.005 113.373 108.734C112.757 108.454 112.281 108.029 111.945 107.46C111.609 106.881 111.441 106.149 111.441 105.262V99.55C111.441 99.4473 111.474 99.3633 111.539 99.298C111.605 99.2327 111.689 99.2 111.791 99.2H113.317C113.42 99.2 113.504 99.2327 113.569 99.298C113.635 99.3633 113.667 99.4473 113.667 99.55V105.248C113.667 105.939 113.831 106.452 114.157 106.788C114.484 107.124 114.941 107.292 115.529 107.292C116.108 107.292 116.561 107.124 116.887 106.788C117.214 106.452 117.377 105.939 117.377 105.248V99.55C117.377 99.4473 117.41 99.3633 117.475 99.298C117.55 99.2327 117.634 99.2 117.727 99.2H119.267C119.361 99.2 119.44 99.2327 119.505 99.298C119.571 99.3633 119.603 99.4473 119.603 99.55V105.262C119.603 106.149 119.435 106.881 119.099 107.46C118.763 108.029 118.292 108.454 117.685 108.734C117.079 109.005 116.36 109.14 115.529 109.14ZM121.938 109C121.835 109 121.751 108.967 121.686 108.902C121.62 108.837 121.588 108.753 121.588 108.65V99.55C121.588 99.4473 121.62 99.3633 121.686 99.298C121.751 99.2327 121.835 99.2 121.938 99.2H125.648C126.814 99.2 127.734 99.4707 128.406 100.012C129.078 100.544 129.414 101.314 129.414 102.322C129.414 103.003 129.25 103.573 128.924 104.03C128.597 104.487 128.158 104.828 127.608 105.052L129.582 108.552C129.61 108.608 129.624 108.659 129.624 108.706C129.624 108.781 129.596 108.851 129.54 108.916C129.484 108.972 129.414 109 129.33 109H127.776C127.608 109 127.482 108.958 127.398 108.874C127.314 108.781 127.253 108.697 127.216 108.622L125.508 105.416H123.814V108.65C123.814 108.753 123.781 108.837 123.716 108.902C123.65 108.967 123.566 109 123.464 109H121.938ZM123.814 103.638H125.606C126.119 103.638 126.497 103.521 126.74 103.288C126.992 103.055 127.118 102.728 127.118 102.308C127.118 101.888 126.996 101.557 126.754 101.314C126.511 101.071 126.128 100.95 125.606 100.95H123.814V103.638ZM130.557 109C130.473 109 130.403 108.972 130.347 108.916C130.291 108.851 130.263 108.781 130.263 108.706C130.263 108.659 130.267 108.617 130.277 108.58L133.609 99.578C133.637 99.4753 133.693 99.3867 133.777 99.312C133.861 99.2373 133.977 99.2 134.127 99.2H135.919C136.068 99.2 136.185 99.2373 136.269 99.312C136.353 99.3867 136.409 99.4753 136.437 99.578L139.769 108.58C139.778 108.617 139.783 108.659 139.783 108.706C139.783 108.781 139.755 108.851 139.699 108.916C139.643 108.972 139.573 109 139.489 109H138.033C137.893 109 137.79 108.967 137.725 108.902C137.659 108.837 137.617 108.776 137.599 108.72L136.997 107.152H133.049L132.447 108.72C132.428 108.776 132.386 108.837 132.321 108.902C132.255 108.967 132.153 109 132.013 109H130.557ZM133.567 105.346H136.465L135.023 101.314L133.567 105.346ZM141.338 109C141.235 109 141.151 108.967 141.086 108.902C141.021 108.837 140.988 108.753 140.988 108.65V99.55C140.988 99.4473 141.021 99.3633 141.086 99.298C141.151 99.2327 141.235 99.2 141.338 99.2H142.612C142.752 99.2 142.855 99.2327 142.92 99.298C142.985 99.3633 143.027 99.4147 143.046 99.452L146.784 105.29V99.55C146.784 99.4473 146.817 99.3633 146.882 99.298C146.947 99.2327 147.027 99.2 147.12 99.2H148.548C148.651 99.2 148.735 99.2327 148.8 99.298C148.865 99.3633 148.898 99.4473 148.898 99.55V108.65C148.898 108.743 148.865 108.827 148.8 108.902C148.735 108.967 148.651 109 148.548 109H147.26C147.12 109 147.017 108.967 146.952 108.902C146.896 108.827 146.854 108.776 146.826 108.748L143.102 103.092V108.65C143.102 108.753 143.069 108.837 143.004 108.902C142.939 108.967 142.855 109 142.752 109H141.338ZM154.408 109C154.306 109 154.222 108.967 154.156 108.902C154.091 108.837 154.058 108.753 154.058 108.65V99.55C154.058 99.4473 154.091 99.3633 154.156 99.298C154.222 99.2327 154.306 99.2 154.408 99.2H155.892C155.995 99.2 156.079 99.2327 156.144 99.298C156.21 99.3633 156.242 99.4473 156.242 99.55V102.742L159.126 99.466C159.164 99.41 159.224 99.354 159.308 99.298C159.402 99.2327 159.523 99.2 159.672 99.2H161.366C161.45 99.2 161.52 99.2327 161.576 99.298C161.632 99.354 161.66 99.4193 161.66 99.494C161.66 99.5593 161.642 99.6153 161.604 99.662L158.006 103.89L161.87 108.538C161.908 108.575 161.926 108.631 161.926 108.706C161.926 108.781 161.898 108.851 161.842 108.916C161.786 108.972 161.716 109 161.632 109H159.882C159.714 109 159.588 108.963 159.504 108.888C159.42 108.813 159.364 108.762 159.336 108.734L156.242 105.15V108.65C156.242 108.753 156.21 108.837 156.144 108.902C156.079 108.967 155.995 109 155.892 109H154.408ZM166.523 109.14C165.673 109.14 164.941 109 164.325 108.72C163.709 108.44 163.228 108.02 162.883 107.46C162.537 106.891 162.351 106.177 162.323 105.318C162.313 104.917 162.309 104.52 162.309 104.128C162.309 103.727 162.313 103.321 162.323 102.91C162.351 102.07 162.537 101.365 162.883 100.796C163.237 100.217 163.723 99.7833 164.339 99.494C164.964 99.2047 165.692 99.06 166.523 99.06C167.344 99.06 168.063 99.2047 168.679 99.494C169.304 99.7833 169.794 100.217 170.149 100.796C170.503 101.365 170.69 102.07 170.709 102.91C170.727 103.321 170.737 103.727 170.737 104.128C170.737 104.52 170.727 104.917 170.709 105.318C170.681 106.177 170.494 106.891 170.149 107.46C169.803 108.02 169.323 108.44 168.707 108.72C168.091 109 167.363 109.14 166.523 109.14ZM166.523 107.334C167.064 107.334 167.507 107.171 167.853 106.844C168.207 106.508 168.394 105.976 168.413 105.248C168.431 104.837 168.441 104.455 168.441 104.1C168.441 103.736 168.431 103.353 168.413 102.952C168.403 102.467 168.315 102.07 168.147 101.762C167.979 101.454 167.755 101.23 167.475 101.09C167.204 100.941 166.887 100.866 166.523 100.866C166.159 100.866 165.837 100.941 165.557 101.09C165.277 101.23 165.053 101.454 164.885 101.762C164.726 102.07 164.637 102.467 164.619 102.952C164.609 103.353 164.605 103.736 164.605 104.1C164.605 104.455 164.609 104.837 164.619 105.248C164.647 105.976 164.833 106.508 165.179 106.844C165.524 107.171 165.972 107.334 166.523 107.334ZM172.824 109C172.731 109 172.647 108.967 172.572 108.902C172.507 108.837 172.474 108.753 172.474 108.65V99.55C172.474 99.4473 172.507 99.3633 172.572 99.298C172.647 99.2327 172.731 99.2 172.824 99.2H174.126C174.266 99.2 174.369 99.2373 174.434 99.312C174.509 99.3867 174.56 99.4427 174.588 99.48L177.164 104.226L179.768 99.48C179.787 99.4427 179.829 99.3867 179.894 99.312C179.969 99.2373 180.076 99.2 180.216 99.2H181.518C181.621 99.2 181.705 99.2327 181.77 99.298C181.836 99.3633 181.868 99.4473 181.868 99.55V108.65C181.868 108.753 181.836 108.837 181.77 108.902C181.705 108.967 181.621 109 181.518 109H180.09C179.997 109 179.918 108.967 179.852 108.902C179.787 108.837 179.754 108.753 179.754 108.65V102.994L177.976 106.326C177.93 106.41 177.869 106.485 177.794 106.55C177.72 106.615 177.622 106.648 177.5 106.648H176.842C176.721 106.648 176.623 106.615 176.548 106.55C176.474 106.485 176.413 106.41 176.366 106.326L174.588 102.994V108.65C174.588 108.753 174.556 108.837 174.49 108.902C174.425 108.967 174.346 109 174.252 109H172.824ZM187.949 109.14C187.128 109.14 186.409 109.005 185.793 108.734C185.177 108.454 184.701 108.029 184.365 107.46C184.029 106.881 183.861 106.149 183.861 105.262V99.55C183.861 99.4473 183.894 99.3633 183.959 99.298C184.025 99.2327 184.109 99.2 184.211 99.2H185.737C185.84 99.2 185.924 99.2327 185.989 99.298C186.055 99.3633 186.087 99.4473 186.087 99.55V105.248C186.087 105.939 186.251 106.452 186.577 106.788C186.904 107.124 187.361 107.292 187.949 107.292C188.528 107.292 188.981 107.124 189.307 106.788C189.634 106.452 189.797 105.939 189.797 105.248V99.55C189.797 99.4473 189.83 99.3633 189.895 99.298C189.97 99.2327 190.054 99.2 190.147 99.2H191.687C191.781 99.2 191.86 99.2327 191.925 99.298C191.991 99.3633 192.023 99.4473 192.023 99.55V105.262C192.023 106.149 191.855 106.881 191.519 107.46C191.183 108.029 190.712 108.454 190.105 108.734C189.499 109.005 188.78 109.14 187.949 109.14ZM194.358 109C194.255 109 194.171 108.967 194.106 108.902C194.04 108.837 194.008 108.753 194.008 108.65V99.55C194.008 99.4473 194.04 99.3633 194.106 99.298C194.171 99.2327 194.255 99.2 194.358 99.2H195.632C195.772 99.2 195.874 99.2327 195.94 99.298C196.005 99.3633 196.047 99.4147 196.066 99.452L199.804 105.29V99.55C199.804 99.4473 199.836 99.3633 199.902 99.298C199.967 99.2327 200.046 99.2 200.14 99.2H201.568C201.67 99.2 201.754 99.2327 201.82 99.298C201.885 99.3633 201.918 99.4473 201.918 99.55V108.65C201.918 108.743 201.885 108.827 201.82 108.902C201.754 108.967 201.67 109 201.568 109H200.28C200.14 109 200.037 108.967 199.972 108.902C199.916 108.827 199.874 108.776 199.846 108.748L196.122 103.092V108.65C196.122 108.753 196.089 108.837 196.024 108.902C195.958 108.967 195.874 109 195.772 109H194.358ZM204.338 109C204.235 109 204.151 108.967 204.086 108.902C204.021 108.837 203.988 108.753 203.988 108.65V99.55C203.988 99.4473 204.021 99.3633 204.086 99.298C204.151 99.2327 204.235 99.2 204.338 99.2H205.92C206.023 99.2 206.107 99.2327 206.172 99.298C206.237 99.3633 206.27 99.4473 206.27 99.55V108.65C206.27 108.753 206.237 108.837 206.172 108.902C206.107 108.967 206.023 109 205.92 109H204.338ZM210.842 109C210.739 109 210.655 108.967 210.59 108.902C210.524 108.837 210.492 108.753 210.492 108.65V101.146H207.944C207.85 101.146 207.771 101.113 207.706 101.048C207.64 100.983 207.608 100.903 207.608 100.81V99.55C207.608 99.4473 207.64 99.3633 207.706 99.298C207.771 99.2327 207.85 99.2 207.944 99.2H215.28C215.382 99.2 215.466 99.2327 215.532 99.298C215.597 99.3633 215.63 99.4473 215.63 99.55V100.81C215.63 100.903 215.597 100.983 215.532 101.048C215.466 101.113 215.382 101.146 215.28 101.146H212.746V108.65C212.746 108.753 212.713 108.837 212.648 108.902C212.582 108.967 212.498 109 212.396 109H210.842ZM215.391 109C215.307 109 215.237 108.972 215.181 108.916C215.125 108.851 215.097 108.781 215.097 108.706C215.097 108.659 215.101 108.617 215.111 108.58L218.443 99.578C218.471 99.4753 218.527 99.3867 218.611 99.312C218.695 99.2373 218.811 99.2 218.961 99.2H220.753C220.902 99.2 221.019 99.2373 221.103 99.312C221.187 99.3867 221.243 99.4753 221.271 99.578L224.603 108.58C224.612 108.617 224.617 108.659 224.617 108.706C224.617 108.781 224.589 108.851 224.533 108.916C224.477 108.972 224.407 109 224.323 109H222.867C222.727 109 222.624 108.967 222.559 108.902C222.493 108.837 222.451 108.776 222.433 108.72L221.831 107.152H217.883L217.281 108.72C217.262 108.776 217.22 108.837 217.155 108.902C217.089 108.967 216.987 109 216.847 109H215.391ZM218.401 105.346H221.299L219.857 101.314L218.401 105.346ZM229.2 109.14C228.304 109.14 227.552 109.009 226.946 108.748C226.348 108.487 225.896 108.146 225.588 107.726C225.28 107.306 225.116 106.858 225.098 106.382C225.098 106.307 225.126 106.242 225.182 106.186C225.238 106.121 225.308 106.088 225.392 106.088H226.89C227.011 106.088 227.104 106.116 227.17 106.172C227.235 106.219 227.296 106.279 227.352 106.354C227.417 106.513 227.52 106.667 227.66 106.816C227.809 106.965 228.01 107.091 228.262 107.194C228.514 107.287 228.826 107.334 229.2 107.334C229.806 107.334 230.259 107.236 230.558 107.04C230.866 106.844 231.02 106.578 231.02 106.242C231.02 105.999 230.936 105.803 230.768 105.654C230.609 105.505 230.352 105.369 229.998 105.248C229.652 105.127 229.19 104.996 228.612 104.856C227.912 104.707 227.314 104.515 226.82 104.282C226.334 104.039 225.966 103.731 225.714 103.358C225.471 102.975 225.35 102.504 225.35 101.944C225.35 101.384 225.504 100.889 225.812 100.46C226.12 100.021 226.554 99.6807 227.114 99.438C227.674 99.186 228.341 99.06 229.116 99.06C229.741 99.06 230.292 99.144 230.768 99.312C231.253 99.48 231.654 99.6993 231.972 99.97C232.298 100.241 232.546 100.53 232.714 100.838C232.882 101.146 232.97 101.445 232.98 101.734C232.98 101.809 232.952 101.879 232.896 101.944C232.84 102 232.77 102.028 232.686 102.028H231.118C231.024 102.028 230.94 102.009 230.866 101.972C230.791 101.935 230.73 101.869 230.684 101.776C230.628 101.533 230.46 101.323 230.18 101.146C229.909 100.959 229.554 100.866 229.116 100.866C228.658 100.866 228.294 100.95 228.024 101.118C227.762 101.286 227.632 101.543 227.632 101.888C227.632 102.112 227.697 102.303 227.828 102.462C227.968 102.611 228.196 102.747 228.514 102.868C228.84 102.98 229.27 103.106 229.802 103.246C230.623 103.414 231.29 103.615 231.804 103.848C232.317 104.081 232.695 104.385 232.938 104.758C233.18 105.122 233.302 105.584 233.302 106.144C233.302 106.769 233.124 107.306 232.77 107.754C232.424 108.202 231.944 108.547 231.328 108.79C230.721 109.023 230.012 109.14 229.2 109.14Z" fill="#4D7CFE"/>
</svg>
