<svg width="25" height="24" viewBox="0 0 25 24" fill="none" xmlns="http://www.w3.org/2000/svg">
<ellipse cx="10.25" cy="17.5" rx="7" ry="3.5" stroke="#778CA2" stroke-width="1.5" stroke-linejoin="round"/>
<circle cx="10.25" cy="7" r="4" stroke="#778CA2" stroke-width="1.5" stroke-linejoin="round"/>
<path fill-rule="evenodd" clip-rule="evenodd" d="M15.2943 10.2498C14.9723 10.7487 14.5783 11.1968 14.127 11.5793C14.4814 11.6904 14.8585 11.7502 15.2496 11.7502C17.3207 11.7502 18.9996 10.0713 18.9996 8.00024C18.9996 6.04446 17.5024 4.43838 15.5916 4.26562C15.8578 4.78459 16.0506 5.34742 16.1563 5.94039C16.9474 6.28911 17.4996 7.08019 17.4996 8.00024C17.4996 9.22794 16.5163 10.226 15.2943 10.2498Z" fill="#778CA2"/>
<path fill-rule="evenodd" clip-rule="evenodd" d="M19.2492 17.5565C19.2391 18.1707 19.0643 18.7608 18.7504 19.3111C19.1188 19.2097 19.4639 19.0923 19.7807 18.9603C20.3779 18.7115 20.9101 18.3961 21.3045 18.0076C21.7015 17.6165 21.9996 17.1066 21.9996 16.5002C21.9996 15.8938 21.7015 15.3839 21.3045 14.9928C20.9101 14.6043 20.3779 14.2889 19.7807 14.0401C18.7581 13.614 17.4402 13.3396 15.999 13.2686C17.0012 13.7776 17.8197 14.4172 18.3847 15.1445C18.6824 15.2277 18.9567 15.3218 19.2038 15.4247C19.6925 15.6283 20.0389 15.8517 20.2518 16.0614C20.462 16.2685 20.4996 16.4163 20.4996 16.5002C20.4996 16.5841 20.462 16.7319 20.2518 16.939C20.0456 17.1421 19.714 17.3581 19.2492 17.5565Z" fill="#778CA2"/>
</svg>
