<svg width="65" height="24" viewBox="0 0 65 24" fill="none" xmlns="http://www.w3.org/2000/svg">
<path d="M12.9264 6H3.07413C1.55971 6 0.770432 7.75699 1.79763 8.84156L3.85729 11.0163C4.1535 11.329 4.31798 11.7391 4.31798 12.1647V16.3035C4.31798 17.9157 6.41093 18.6156 7.42644 17.343L14.2977 8.73263C15.1852 7.62047 14.372 6 12.9264 6Z" stroke="#98A9BC" stroke-width="1.5" stroke-linecap="round" stroke-linejoin="round"/>
<path d="M28.68 17.15C27.81 17.15 27.08 17.02 26.49 16.76C25.9 16.49 25.445 16.145 25.125 15.725C24.815 15.295 24.65 14.84 24.63 14.36C24.63 14.28 24.66 14.21 24.72 14.15C24.79 14.08 24.87 14.045 24.96 14.045H25.725C25.845 14.045 25.935 14.075 25.995 14.135C26.055 14.195 26.095 14.265 26.115 14.345C26.165 14.585 26.285 14.825 26.475 15.065C26.675 15.295 26.95 15.49 27.3 15.65C27.66 15.8 28.12 15.875 28.68 15.875C29.54 15.875 30.17 15.725 30.57 15.425C30.98 15.115 31.185 14.705 31.185 14.195C31.185 13.845 31.075 13.565 30.855 13.355C30.645 13.135 30.32 12.94 29.88 12.77C29.44 12.6 28.87 12.415 28.17 12.215C27.44 12.005 26.835 11.775 26.355 11.525C25.875 11.275 25.515 10.965 25.275 10.595C25.045 10.225 24.93 9.755 24.93 9.185C24.93 8.645 25.075 8.165 25.365 7.745C25.655 7.315 26.07 6.975 26.61 6.725C27.16 6.475 27.825 6.35 28.605 6.35C29.225 6.35 29.765 6.435 30.225 6.605C30.695 6.765 31.085 6.985 31.395 7.265C31.705 7.535 31.94 7.83 32.1 8.15C32.26 8.46 32.345 8.765 32.355 9.065C32.355 9.135 32.33 9.205 32.28 9.275C32.23 9.335 32.15 9.365 32.04 9.365H31.245C31.175 9.365 31.1 9.345 31.02 9.305C30.95 9.265 30.895 9.19 30.855 9.08C30.795 8.67 30.565 8.325 30.165 8.045C29.765 7.765 29.245 7.625 28.605 7.625C27.955 7.625 27.425 7.75 27.015 8C26.615 8.25 26.415 8.64 26.415 9.17C26.415 9.51 26.51 9.795 26.7 10.025C26.89 10.245 27.19 10.44 27.6 10.61C28.01 10.78 28.545 10.96 29.205 11.15C30.005 11.37 30.66 11.605 31.17 11.855C31.68 12.095 32.055 12.4 32.295 12.77C32.545 13.13 32.67 13.595 32.67 14.165C32.67 14.795 32.505 15.335 32.175 15.785C31.845 16.225 31.38 16.565 30.78 16.805C30.19 17.035 29.49 17.15 28.68 17.15ZM34.8011 17C34.7011 17 34.6161 16.97 34.5461 16.91C34.4861 16.84 34.4561 16.755 34.4561 16.655V6.695C34.4561 6.595 34.4861 6.515 34.5461 6.455C34.6161 6.385 34.7011 6.35 34.8011 6.35H35.5511C35.6611 6.35 35.7461 6.385 35.8061 6.455C35.8661 6.515 35.8961 6.595 35.8961 6.695V10.19C36.1661 9.85 36.4961 9.575 36.8861 9.365C37.2761 9.155 37.7711 9.05 38.3711 9.05C39.0211 9.05 39.5711 9.195 40.0211 9.485C40.4811 9.765 40.8261 10.16 41.0561 10.67C41.2961 11.17 41.4161 11.755 41.4161 12.425V16.655C41.4161 16.755 41.3861 16.84 41.3261 16.91C41.2661 16.97 41.1811 17 41.0711 17H40.3211C40.2211 17 40.1361 16.97 40.0661 16.91C40.0061 16.84 39.9761 16.755 39.9761 16.655V12.5C39.9761 11.8 39.8061 11.255 39.4661 10.865C39.1261 10.465 38.6261 10.265 37.9661 10.265C37.3461 10.265 36.8461 10.465 36.4661 10.865C36.0861 11.255 35.8961 11.8 35.8961 12.5V16.655C35.8961 16.755 35.8661 16.84 35.8061 16.91C35.7461 16.97 35.6611 17 35.5511 17H34.8011ZM45.7567 17.15C45.2567 17.15 44.8017 17.05 44.3917 16.85C43.9817 16.65 43.6517 16.38 43.4017 16.04C43.1517 15.7 43.0267 15.315 43.0267 14.885C43.0267 14.195 43.3067 13.645 43.8667 13.235C44.4267 12.825 45.1567 12.555 46.0567 12.425L48.2917 12.11V11.675C48.2917 11.195 48.1517 10.82 47.8717 10.55C47.6017 10.28 47.1567 10.145 46.5367 10.145C46.0867 10.145 45.7217 10.235 45.4417 10.415C45.1717 10.595 44.9817 10.825 44.8717 11.105C44.8117 11.255 44.7067 11.33 44.5567 11.33H43.8817C43.7717 11.33 43.6867 11.3 43.6267 11.24C43.5767 11.17 43.5517 11.09 43.5517 11C43.5517 10.85 43.6067 10.665 43.7167 10.445C43.8367 10.225 44.0167 10.01 44.2567 9.8C44.4967 9.59 44.8017 9.415 45.1717 9.275C45.5517 9.125 46.0117 9.05 46.5517 9.05C47.1517 9.05 47.6567 9.13 48.0667 9.29C48.4767 9.44 48.7967 9.645 49.0267 9.905C49.2667 10.165 49.4367 10.46 49.5367 10.79C49.6467 11.12 49.7017 11.455 49.7017 11.795V16.655C49.7017 16.755 49.6667 16.84 49.5967 16.91C49.5367 16.97 49.4567 17 49.3567 17H48.6667C48.5567 17 48.4717 16.97 48.4117 16.91C48.3517 16.84 48.3217 16.755 48.3217 16.655V16.01C48.1917 16.19 48.0167 16.37 47.7967 16.55C47.5767 16.72 47.3017 16.865 46.9717 16.985C46.6417 17.095 46.2367 17.15 45.7567 17.15ZM46.0717 16.025C46.4817 16.025 46.8567 15.94 47.1967 15.77C47.5367 15.59 47.8017 15.315 47.9917 14.945C48.1917 14.575 48.2917 14.11 48.2917 13.55V13.13L46.5517 13.385C45.8417 13.485 45.3067 13.655 44.9467 13.895C44.5867 14.125 44.4067 14.42 44.4067 14.78C44.4067 15.06 44.4867 15.295 44.6467 15.485C44.8167 15.665 45.0267 15.8 45.2767 15.89C45.5367 15.98 45.8017 16.025 46.0717 16.025ZM52.203 17C52.103 17 52.018 16.97 51.948 16.91C51.888 16.84 51.858 16.755 51.858 16.655V9.56C51.858 9.46 51.888 9.375 51.948 9.305C52.018 9.235 52.103 9.2 52.203 9.2H52.893C52.993 9.2 53.078 9.235 53.148 9.305C53.218 9.375 53.253 9.46 53.253 9.56V10.22C53.453 9.88 53.728 9.625 54.078 9.455C54.428 9.285 54.848 9.2 55.338 9.2H55.938C56.038 9.2 56.118 9.235 56.178 9.305C56.238 9.365 56.268 9.445 56.268 9.545V10.16C56.268 10.26 56.238 10.34 56.178 10.4C56.118 10.46 56.038 10.49 55.938 10.49H55.038C54.498 10.49 54.073 10.65 53.763 10.97C53.453 11.28 53.298 11.705 53.298 12.245V16.655C53.298 16.755 53.263 16.84 53.193 16.91C53.123 16.97 53.038 17 52.938 17H52.203ZM60.5148 17.15C59.4848 17.15 58.6648 16.835 58.0548 16.205C57.4448 15.565 57.1098 14.695 57.0498 13.595C57.0398 13.465 57.0348 13.3 57.0348 13.1C57.0348 12.89 57.0398 12.72 57.0498 12.59C57.0898 11.88 57.2548 11.26 57.5448 10.73C57.8348 10.19 58.2298 9.775 58.7298 9.485C59.2398 9.195 59.8348 9.05 60.5148 9.05C61.2748 9.05 61.9098 9.21 62.4198 9.53C62.9398 9.85 63.3348 10.305 63.6048 10.895C63.8748 11.485 64.0098 12.175 64.0098 12.965V13.22C64.0098 13.33 63.9748 13.415 63.9048 13.475C63.8448 13.535 63.7648 13.565 63.6648 13.565H58.4748C58.4748 13.575 58.4748 13.595 58.4748 13.625C58.4748 13.655 58.4748 13.68 58.4748 13.7C58.4948 14.11 58.5848 14.495 58.7448 14.855C58.9048 15.205 59.1348 15.49 59.4348 15.71C59.7348 15.93 60.0948 16.04 60.5148 16.04C60.8748 16.04 61.1748 15.985 61.4148 15.875C61.6548 15.765 61.8498 15.645 61.9998 15.515C62.1498 15.375 62.2498 15.27 62.2998 15.2C62.3898 15.07 62.4598 14.995 62.5098 14.975C62.5598 14.945 62.6398 14.93 62.7498 14.93H63.4698C63.5698 14.93 63.6498 14.96 63.7098 15.02C63.7798 15.07 63.8098 15.145 63.7998 15.245C63.7898 15.395 63.7098 15.58 63.5598 15.8C63.4098 16.01 63.1948 16.22 62.9148 16.43C62.6348 16.64 62.2948 16.815 61.8948 16.955C61.4948 17.085 61.0348 17.15 60.5148 17.15ZM58.4748 12.53H62.5848V12.485C62.5848 12.035 62.4998 11.635 62.3298 11.285C62.1698 10.935 61.9348 10.66 61.6248 10.46C61.3148 10.25 60.9448 10.145 60.5148 10.145C60.0848 10.145 59.7148 10.25 59.4048 10.46C59.1048 10.66 58.8748 10.935 58.7148 11.285C58.5548 11.635 58.4748 12.035 58.4748 12.485V12.53Z" fill="#98A9BC"/>
</svg>
