<svg width="277" height="392" viewBox="0 0 277 392" fill="none" xmlns="http://www.w3.org/2000/svg">
<g clip-path="url(#clip0_1306_65)">
<path fill-rule="evenodd" clip-rule="evenodd" d="M263.391 -157.691C324.312 -218.613 423.086 -218.613 484.008 -157.691V-157.691C544.93 -96.7696 544.93 2.00418 484.008 62.926L266.926 280.008C206.004 340.93 107.231 340.93 46.3088 280.008V280.008C-14.613 219.086 -14.613 120.312 46.3088 59.3904L263.391 -157.691Z" fill="#F4414C"/>
<path fill-rule="evenodd" clip-rule="evenodd" d="M210.311 390.154C223.738 390.154 234.622 379.27 234.622 365.843C234.622 352.416 223.738 341.532 210.311 341.532C196.884 341.532 186 352.416 186 365.843C186 379.27 196.884 390.154 210.311 390.154Z" fill="#F36069"/>
<path fill-rule="evenodd" clip-rule="evenodd" d="M240.457 347.366C246.633 347.366 251.64 342.359 251.64 336.183C251.64 330.007 246.633 325 240.457 325C234.281 325 229.274 330.007 229.274 336.183C229.274 342.359 234.281 347.366 240.457 347.366Z" fill="#F36069"/>
</g>
<defs>
<clipPath id="clip0_1306_65">
<rect width="277" height="392" fill="white"/>
</clipPath>
</defs>
</svg>
