<svg width="25" height="24" viewBox="0 0 25 24" fill="none" xmlns="http://www.w3.org/2000/svg">
<circle cx="3" cy="3" r="3" transform="matrix(1 0 0 -1 9.125 12)" stroke="#778CA2" stroke-width="1.5" stroke-linejoin="round"/>
<path d="M19.1239 21.8743C20.8497 21.4306 22.125 19.8642 22.125 18V6C22.125 3.79086 20.3341 2 18.125 2H6.125C3.91586 2 2.125 3.79086 2.125 6V18C2.125 19.8642 3.40032 21.4306 5.12611 21.8743M19.1239 21.8743C18.8046 21.9563 18.4699 22 18.125 22H6.125C5.7801 22 5.44539 21.9563 5.12611 21.8743M19.1239 21.8743C19.0568 18.0663 15.949 15 12.125 15C8.30101 15 5.19318 18.0663 5.12611 21.8743" stroke="#778CA2" stroke-width="1.5"/>
</svg>
