<svg width="25" height="24" viewBox="0 0 25 24" fill="none" xmlns="http://www.w3.org/2000/svg">
<path d="M18.75 15V21M5.75 8.25464C7.01578 8.45067 8.42778 8.77657 9.75 9.28788M5.75 12.2546C6.38949 12.3537 7.0663 12.4859 7.75 12.6584M12.75 6.05337V21C12.5105 21 12.2709 20.9285 12.0668 20.7855C9.94313 19.2974 6.96271 18.623 4.74433 18.3723C3.64642 18.2483 2.75 17.3311 2.75 16.2V4.93518C2.75 3.80402 3.64642 2.88721 4.74433 3.01127C6.96271 3.26195 9.94313 3.93632 12.0668 5.42445C12.475 5.71045 13.025 5.71045 13.4332 5.42445C15.5569 3.93632 18.5373 3.26195 20.7557 3.01127C21.8536 2.88721 22.75 3.80402 22.75 4.93518V14M21.75 18H15.75" stroke="#778CA2" stroke-width="1.5" stroke-linecap="round" stroke-linejoin="round"/>
</svg>
