<svg width="25" height="24" viewBox="0 0 25 24" fill="none" xmlns="http://www.w3.org/2000/svg">
<path d="M20.625 12V18C20.625 20.2091 18.8341 22 16.625 22H8.625C6.41586 22 4.625 20.2091 4.625 18V12" stroke="#778CA2" stroke-width="1.5"/>
<path d="M17.3939 2H7.85646C6.03911 2 4.40485 3.24476 3.7299 5.14305L2.97192 7.27487C2.74247 7.92019 2.58387 8.61074 2.75122 9.27488C3.14757 10.8478 4.43344 12 5.95854 12C7.79949 12 9.29187 10.3211 9.29187 8.25C9.29187 10.3211 10.7843 12 12.6252 12C14.4662 12 15.9585 10.3211 15.9585 8.25C15.9585 10.3211 17.4509 12 19.2919 12C20.817 12 22.1028 10.8478 22.4992 9.27488C22.6665 8.61074 22.5079 7.92019 22.2785 7.27487L21.5205 5.14305C20.8456 3.24475 19.2113 2 17.3939 2Z" stroke="#778CA2" stroke-width="1.5" stroke-linejoin="round"/>
<path d="M9.625 17C11.9811 18.3404 13.2726 18.3263 15.625 17" stroke="#778CA2" stroke-width="1.5" stroke-linecap="round" stroke-linejoin="round"/>
</svg>
