<svg width="80" height="80" viewBox="0 0 80 80" fill="none" xmlns="http://www.w3.org/2000/svg">
<path d="M24.5947 38.9141L25.7217 40.041L26.8486 38.9141L25.7217 37.7871L24.5947 38.9141Z" fill="#608EDD"/>
<path d="M14.0428 56.8153L16.0039 58.7764L17.965 56.8153L16.0039 54.8542L14.0428 56.8153Z" fill="#608EDD"/>
<path d="M5.31254 31.0205L7.75977 33.4678L10.207 31.0205L7.75977 28.5733L5.31254 31.0205Z" fill="#608EDD"/>
<path d="M16.3994 27.2871C18.9278 27.2871 20.9775 25.2374 20.9775 22.709C20.9775 20.1806 18.9278 18.1309 16.3994 18.1309C13.871 18.1309 11.8213 20.1806 11.8213 22.709C11.8213 25.2374 13.871 27.2871 16.3994 27.2871Z" fill="#608EDD"/>
<path d="M41.0859 33.4667L34.4297 29.373C34.4297 29.373 34.5859 21.6152 33.3047 22.537C32.0234 23.4589 31.9297 26.9277 31.9297 26.9277L26.9844 23.2714L19.6172 27.1152L24.5312 31.4589L31.3984 35.9667L43.1797 44.2089L41.0859 33.4667Z" fill="white"/>
<path d="M41.0859 33.4667L34.4297 29.373C34.4297 29.373 34.5859 21.6152 33.3047 22.537C32.0234 23.4589 31.9297 26.9277 31.9297 26.9277L26.9844 23.2714L19.6172 27.1152L24.5312 31.4589L31.5938 36.0995L43.1797 44.2089L41.0859 33.4667Z" stroke="#111C3A" stroke-width="0.390625" stroke-miterlimit="10" stroke-linecap="round"/>
<path d="M72.6719 33.5449L74.7969 67.1152H49.0312L49.6328 42.334L54.5859 34.3574L59.8906 30.4199L72.6719 33.5449Z" fill="#608EDD"/>
<path d="M59.8926 30.4199L56.5254 24.7246L63.3379 22.8809L67.3613 29.0449L60.377 34.123L59.8926 30.4199Z" fill="white"/>
<path d="M59.8926 30.4199L56.5254 24.7246L63.3379 22.8809L67.3613 29.0449L60.377 34.123L59.8926 30.4199Z" stroke="#111C3A" stroke-width="0.390625" stroke-miterlimit="10" stroke-linecap="round"/>
<path d="M56.8059 18.2002C55.5169 19.0595 54.6419 20.4033 54.3919 21.9345C54.0715 23.8799 53.8216 26.6767 54.5247 28.6767C55.7044 32.0439 61.884 27.2236 61.884 27.2236L64.4856 24.6142C64.4856 24.6142 65.8294 17.1142 62.634 16.3564C60.759 15.9111 58.4231 17.122 56.8059 18.2002Z" fill="white"/>
<path d="M64.4856 24.6142C64.4856 24.6142 65.8294 17.1142 62.634 16.3564C60.7669 15.9111 58.4309 17.122 56.8059 18.2002C55.5169 19.0595 54.6419 20.4033 54.3919 21.9345C54.0715 23.8799 53.8216 26.6767 54.5247 28.6767C55.7044 32.0439 61.884 27.2236 61.884 27.2236" stroke="#111C3A" stroke-width="0.390625" stroke-miterlimit="10" stroke-linecap="round"/>
<path d="M54.0645 36.248L54.5879 34.3574L59.8926 30.4199" stroke="#111C3A" stroke-width="0.390625" stroke-miterlimit="10" stroke-linecap="round"/>
<path d="M18.501 17.2559H16.3994V28.5684H18.501V17.2559Z" fill="white"/>
<path d="M18.501 17.2559H16.3994V28.5684H18.501V17.2559Z" stroke="#111C3A" stroke-width="0.390625" stroke-miterlimit="10" stroke-linecap="round"/>
<path d="M56.8447 21.3965H55.6416V24.3887H56.8447V21.3965Z" fill="white"/>
<path d="M56.8447 21.3965H55.6416V24.3887H56.8447V21.3965Z" stroke="#111C3A" stroke-width="0.390625" stroke-miterlimit="10" stroke-linecap="round"/>
<path d="M18.501 27.4824L55.6416 24.1543V21.6387L18.501 18.3027V27.4824Z" fill="black"/>
<path d="M18.501 27.4824L55.6416 24.1543V21.6387L18.501 18.3027V27.4824Z" stroke="#111C3A" stroke-width="0.390625" stroke-miterlimit="10" stroke-linecap="round"/>
<path d="M67.3604 39.6699C70.2944 39.6699 72.6729 37.2914 72.6729 34.3574C72.6729 31.4234 70.2944 29.0449 67.3604 29.0449C64.4263 29.0449 62.0479 31.4234 62.0479 34.3574C62.0479 37.2914 64.4263 39.6699 67.3604 39.6699Z" fill="#608EDD"/>
<path d="M64.8535 29.6777L55.3145 35.0527L60.377 44.1543L69.7754 39.084L64.8535 29.6777Z" fill="#608EDD"/>
<path d="M55.3143 35.0528L51.4081 37.3262L43.1034 26.1153C39.6346 21.0371 34.6502 18.8653 28.5018 18.8731L25.6112 18.8809C25.2127 18.8809 24.8143 18.9981 24.4862 19.2246C24.0331 19.5371 23.744 20.0293 25.1034 20.4824L27.1502 21.084L25.8456 21.4746C25.3377 21.6309 24.9002 21.959 24.6424 22.4121C24.3924 22.8496 24.3456 23.3496 25.1971 23.5528C25.4393 23.6074 25.6971 23.6231 25.9471 23.5996L29.8768 23.2481L26.2752 24.334C25.7831 24.4824 25.3456 24.8028 25.0877 25.2481C24.8065 25.7246 24.7987 26.2403 26.1112 26.1856L30.8534 25.4043L27.9784 27.7715C27.6659 28.0293 27.4471 28.3887 27.3846 28.7949C27.3143 29.2793 27.494 29.709 28.744 29.0918C30.9237 28.0137 32.9706 26.4746 32.9706 26.4746C32.9706 26.4746 33.1112 29.084 36.7831 29.3574L42.3768 44.2168C44.1112 48.5449 49.2518 50.3731 53.3299 48.0918L60.4002 44.1387L55.3143 35.0528Z" fill="white"/>
<path d="M55.3143 35.0528L51.4081 37.3262L43.1034 26.1153C39.6346 21.0371 34.6502 18.8653 28.5018 18.8731L25.6112 18.8809C25.2127 18.8809 24.8143 18.9981 24.4862 19.2246C24.0331 19.5371 23.744 20.0293 25.1034 20.4824L27.1502 21.084L25.8456 21.4746C25.3377 21.6309 24.9002 21.959 24.6424 22.4121C24.3924 22.8496 24.3456 23.3496 25.1971 23.5528C25.4393 23.6074 25.6971 23.6231 25.9471 23.5996L29.8768 23.2481L26.2752 24.334C25.7831 24.4824 25.3456 24.8028 25.0877 25.2481C24.8065 25.7246 24.7987 26.2403 26.1112 26.1856L30.8534 25.4043L27.9784 27.7715C27.6659 28.0293 27.4471 28.3887 27.3846 28.7949C27.3143 29.2793 27.494 29.709 28.744 29.0918C30.9237 28.0137 32.9706 26.4746 32.9706 26.4746C32.9706 26.4746 33.1112 29.084 36.7831 29.3574L42.3768 44.2168C44.1112 48.5449 49.2518 50.3731 53.3299 48.0918L60.4002 44.1387L55.3143 35.0528Z" stroke="#111C3A" stroke-width="0.390625" stroke-miterlimit="10" stroke-linecap="round"/>
<path d="M26.8438 21.1855C26.8438 21.1855 27.3672 20.9668 28.7656 20.8105" stroke="#111C3A" stroke-width="0.390625" stroke-miterlimit="10" stroke-linecap="round"/>
<path d="M29.6729 23.2871L31.5947 22.9121" stroke="#111C3A" stroke-width="0.390625" stroke-miterlimit="10" stroke-linecap="round"/>
<path d="M30.4375 25.7559L32.3594 24.5371" stroke="#111C3A" stroke-width="0.390625" stroke-miterlimit="10" stroke-linecap="round"/>
<path d="M36.2129 29.3105C36.2129 29.3105 37.2676 29.5371 38.4316 29.3809" stroke="#111C3A" stroke-width="0.390625" stroke-miterlimit="10" stroke-linecap="round"/>
<path d="M59.8516 44.4512L66.1641 41.0293" stroke="#111C3A" stroke-width="0.390625" stroke-miterlimit="10" stroke-linecap="round"/>
<path d="M55.3145 35.0527L60.1973 32.2949" stroke="#111C3A" stroke-width="0.390625" stroke-miterlimit="10" stroke-linecap="round"/>
<path d="M52.9304 19.8883C53.6882 20.2789 54.696 20.5601 56.0554 20.6305L60.2664 20.1617C60.2664 20.1617 61.8914 23.6617 63.7273 24.0055C65.5632 24.3492 66.8914 22.4508 67.1414 17.9742C67.3836 13.6305 63.6804 15.2086 63.6804 15.2086C63.6804 15.2086 52.8757 10.2555 51.2429 14.818C50.4382 17.0601 50.8054 18.7945 52.9304 19.8883Z" fill="black"/>
<path d="M52.9304 19.8883C53.6882 20.2789 54.696 20.5601 56.0554 20.6305L60.2664 20.1617C60.2664 20.1617 61.8914 23.6617 63.7273 24.0055C65.5632 24.3492 66.8914 22.4508 67.1414 17.9742C67.3835 13.6305 63.6804 15.2086 63.6804 15.2086C63.6804 15.2086 52.8757 10.2555 51.2429 14.818C50.4382 17.0601 50.8054 18.7945 52.9304 19.8883Z" stroke="#111C3A" stroke-width="0.390625" stroke-miterlimit="10" stroke-linecap="round"/>
<path d="M61.9385 22.724C61.9385 22.724 62.8213 19.6537 64.0869 20.4349C64.6963 20.8099 65.0791 21.6146 65.3135 22.3412C65.5791 23.1615 65.1963 24.0521 64.4229 24.4271L63.1338 25.0599L61.9385 22.724Z" fill="white"/>
<path d="M61.9385 22.724C61.9385 22.724 62.8213 19.6537 64.0869 20.4349C64.6963 20.8099 65.0791 21.6146 65.3135 22.3412C65.5791 23.1615 65.1963 24.0521 64.4229 24.4271L63.1338 25.0599" stroke="#111C3A" stroke-width="0.390625" stroke-miterlimit="10" stroke-linecap="round"/>
<path d="M62.9854 23.3496C62.9854 23.3496 63.7275 23.0684 63.9932 22.2871" stroke="#111C3A" stroke-width="0.390625" stroke-miterlimit="10" stroke-linecap="round"/>
<path d="M55.9863 27.6699C56.4082 27.7246 56.8535 27.5996 57.1816 27.3262C57.4941 27.0684 57.6895 26.6387 57.6426 26.2324C57.627 26.1309 57.5645 26.0371 57.4473 26.0371C57.3535 26.0371 57.2363 26.1309 57.252 26.2324C57.2754 26.3965 57.252 26.5293 57.1973 26.6777C57.1348 26.8184 57.041 26.9512 56.9082 27.0527C56.7988 27.1387 56.6426 27.209 56.502 27.248C56.3301 27.2949 56.166 27.3027 55.9863 27.2793C55.8848 27.2637 55.791 27.3809 55.791 27.4746C55.791 27.5918 55.8848 27.6543 55.9863 27.6699Z" fill="#111C3A"/>
<path d="M57.4541 21.6074C57.4541 21.6074 58.1182 22.6699 57.6494 24.1855" stroke="#111C3A" stroke-width="0.390625" stroke-miterlimit="10" stroke-linecap="round"/>
<path d="M58.415 22.1387C58.415 22.1387 58.7978 22.748 58.5244 23.623" stroke="#111C3A" stroke-width="0.390625" stroke-miterlimit="10" stroke-linecap="round"/>
<path d="M50.6104 36.2471L52.501 38.9111" stroke="#111C3A" stroke-width="0.390625" stroke-miterlimit="10" stroke-linecap="round"/>
<path d="M1.7041 67.1152H78.2979" stroke="#111C3A" stroke-width="0.390625" stroke-miterlimit="10" stroke-linecap="round"/>
<path d="M35.9004 63.5918H27.2832C24.7051 63.5918 22.6113 61.498 22.6113 58.9199V50.3027C22.6113 47.7246 24.7051 45.6309 27.2832 45.6309H35.9004C38.4785 45.6309 40.5723 47.7246 40.5723 50.3027V58.9199C40.5723 61.498 38.4785 63.5918 35.9004 63.5918Z" stroke="#111C3A" stroke-width="0.390625" stroke-miterlimit="10" stroke-linecap="round"/>
<path d="M35.6279 53.3105C35.6279 51.084 33.8232 49.2715 31.5889 49.2715C29.3623 49.2715 27.5498 51.0762 27.5498 53.3105C27.5498 54.3027 27.9014 55.2012 28.4951 55.9043L31.5889 59.9434L34.6279 55.9668C35.2529 55.2637 35.6279 54.334 35.6279 53.3105ZM31.5967 51.7715C32.4482 51.7715 33.1357 52.459 33.1357 53.3105C33.1357 54.1621 32.4482 54.8496 31.5967 54.8496C30.7451 54.8496 30.0576 54.1621 30.0576 53.3105C30.0576 52.4668 30.7451 51.7715 31.5967 51.7715Z" fill="#608EDD"/>
<path d="M11.0488 51.5225C14.9537 51.5225 18.1191 48.357 18.1191 44.4521C18.1191 40.5473 14.9537 37.3818 11.0488 37.3818C7.144 37.3818 3.97852 40.5473 3.97852 44.4521C3.97852 48.357 7.144 51.5225 11.0488 51.5225Z" fill="black"/>
<path d="M11.54 47.0391H9.71191C9.29004 47.0391 8.94629 46.6953 8.94629 46.2734V45.8828H10.0322V45.9531H11.54C11.8291 45.9531 12.0635 45.7187 12.0635 45.4297C12.0635 45.2422 11.9072 45.0859 11.7197 45.0859H10.376C9.58691 45.0859 8.94629 44.4453 8.94629 43.6562V43.4609C8.94629 42.5703 9.66504 41.8516 10.5557 41.8516H12.3838C12.8057 41.8516 13.1494 42.1953 13.1494 42.6172V43.0625H12.0635V42.9453H10.5557C10.2666 42.9453 10.0322 43.1797 10.0322 43.4688V43.6641C10.0322 43.8516 10.1885 44.0078 10.376 44.0078H11.7197C12.5088 44.0078 13.1494 44.6484 13.1494 45.4375C13.1494 46.3125 12.4307 47.0391 11.54 47.0391Z" fill="white"/>
<path d="M11.5947 46.6807H10.5088V47.8603H11.5947V46.6807Z" fill="white"/>
<path d="M11.5947 41.0479H10.5088V42.3369H11.5947V41.0479Z" fill="white"/>
</svg>
