<svg width="80" height="80" viewBox="0 0 80 80" fill="none" xmlns="http://www.w3.org/2000/svg">
<path d="M65.7344 10.4609H17.3672C15.1094 10.4609 13.2734 12.2891 13.2734 14.5547V64.0234H69.8203V14.5547C69.8281 12.2891 67.9922 10.4609 65.7344 10.4609Z" fill="white"/>
<path d="M65.7812 10.4609H17.3203C15.0859 10.4609 13.2812 12.2734 13.2812 14.5V17.6172H69.8281V14.5C69.8281 12.2656 68.0156 10.4609 65.7812 10.4609Z" fill="#608EDD"/>
<path d="M65.7344 10.4609H17.3672C15.1094 10.4609 13.2734 12.2891 13.2734 14.5547V64.0234H69.8203V14.5547C69.8281 12.2891 67.9922 10.4609 65.7344 10.4609Z" stroke="#111C3A" stroke-width="0.390625" stroke-miterlimit="10" stroke-linecap="round"/>
<path d="M62.1875 45.0703H21.7969C19.9297 45.0703 18.4219 43.5547 18.4219 41.6953V25.6875C18.4219 23.8203 19.9375 22.3125 21.7969 22.3125H62.1875C64.0547 22.3125 65.5625 23.8281 65.5625 25.6875V41.6875C65.5703 43.5547 64.0547 45.0703 62.1875 45.0703Z" stroke="#111C3A" stroke-width="0.390625" stroke-miterlimit="10" stroke-linecap="round"/>
<path d="M49.6172 64.0234H79.7969" stroke="#111C3A" stroke-width="0.390625" stroke-miterlimit="10" stroke-linecap="round"/>
<path d="M40.8594 35.0707C40.8594 35.0707 44.0313 34.1253 47.1094 36.9847C48.9922 38.7347 50.0391 41.2113 50.0391 43.7816V59.0082L38.9297 58.8128L40.8594 35.0707Z" fill="#10002B"/>
<path d="M40.8594 35.0707C40.8594 35.0707 44.0312 34.1253 47.1094 36.9847C48.9922 38.7347 50.0391 41.2113 50.0391 43.7816V59.0082" stroke="#111C3A" stroke-width="0.390625" stroke-miterlimit="10" stroke-linecap="round"/>
<path d="M5.78906 25.2027C5.78906 25.2027 6.75781 23.523 10.1094 23.4683C11.3672 23.4449 12.2969 24.2261 10.375 24.812C10.375 24.812 9.35938 25.1949 8.42188 25.523L5.78906 25.2027Z" fill="white"/>
<path d="M5.78906 25.2027C5.78906 25.2027 6.75781 23.523 10.1094 23.4683C11.3672 23.4449 12.2969 24.2261 10.375 24.812C10.375 24.812 9.35938 25.1949 8.42188 25.523L5.78906 25.2027Z" stroke="#111C3A" stroke-width="0.390625" stroke-miterlimit="10" stroke-linecap="round"/>
<path d="M3.15625 26.1015C3.15625 26.1015 3.25781 24.1718 6.21875 22.6015C7.33594 22.0077 8.50781 22.289 7.07031 23.6718C7.07031 23.6718 6.34375 24.4765 5.64844 25.1874L3.15625 26.1015Z" fill="white"/>
<path d="M3.15625 26.1015C3.15625 26.1015 3.25781 24.1718 6.21875 22.6015C7.33594 22.0077 8.50781 22.289 7.07031 23.6718C7.07031 23.6718 6.34375 24.4765 5.64844 25.1874L3.15625 26.1015Z" stroke="#111C3A" stroke-width="0.390625" stroke-miterlimit="10" stroke-linecap="round"/>
<path d="M43.7578 54.9531L62.0703 56.9297V64.0234H22.9453V61.3281L16.0859 56.2656L20.8281 48.3281L33.4141 55.2812L35.0078 55.1641L43.7578 54.9531Z" fill="#608EDD"/>
<path d="M35.4219 48.7188L35.0078 55.1563L38.5391 60.3203C38.8281 60.7422 39.4453 60.7578 39.7578 60.3438L43.7578 54.9531L42.5078 48.7188H35.4219Z" fill="white"/>
<path d="M35.4219 48.7188L35.0078 55.1563L38.5156 60.2891C38.8125 60.7266 39.4531 60.7344 39.7656 60.3125L43.75 54.9453L42.5703 49.0625" stroke="#111C3A" stroke-width="0.390625" stroke-miterlimit="10" stroke-linecap="round"/>
<path d="M40.8593 35.0703C40.8593 35.0703 32.7031 37.1406 31.7031 44.5859C30.6953 52.0313 40.8593 48.9609 40.8593 48.9609L42.5703 49.0781L46.5859 43.1094C46.5937 43.1094 47.4765 36.25 40.8593 35.0703Z" fill="white"/>
<path d="M46.5936 43.1094C46.5936 43.1094 47.4764 36.2578 40.8592 35.0703C40.8592 35.0703 32.7029 37.1406 31.7029 44.5859C31.0232 49.6094 35.4373 49.8438 38.3748 49.4688" stroke="#111C3A" stroke-width="0.390625" stroke-miterlimit="10" stroke-linecap="round"/>
<path d="M40.8594 35.0702C40.8594 35.0702 41.9219 43.0077 45.1562 43.6405C48.3828 44.2734 48.3828 40.414 48.3828 40.414C48.3828 40.414 45.5078 34.3827 40.8594 35.0702Z" fill="#10002B"/>
<path d="M43.0625 46.9059C43.0625 46.9059 46.375 48.0466 47.1797 47.3981C48.1641 46.6091 48.2031 44.7809 47.1016 43.5153C46.0313 42.2966 43.75 43.695 43.75 43.695L43.0625 46.9059Z" fill="white"/>
<path d="M43.0625 46.9059C43.0625 46.9059 46.375 48.0466 47.1797 47.3981C48.1641 46.6091 48.2031 44.7809 47.1016 43.5153C46.0313 42.2966 43.75 43.695 43.75 43.695" stroke="#111C3A" stroke-width="0.390625" stroke-miterlimit="10" stroke-linecap="round"/>
<path d="M62.0704 56.9297L44.797 60.2734C42.9454 60.6328 41.3048 61.7188 40.2658 63.2969C39.2345 64.8594 38.4845 66.3359 38.6876 68.0391C38.6876 68.0391 39.1095 69.1641 39.9689 68.2734C39.9689 68.2734 40.4611 69.7422 41.4689 68.7656C41.4689 68.7656 41.8439 69.9687 42.8283 69.1797C42.8283 69.1797 42.8361 69.1953 42.8517 69.2109C43.3048 69.7813 44.2189 69.5547 44.3673 68.8359C44.5236 68.0547 44.9767 66.5391 46.172 65.2969C46.172 65.2969 47.7501 65.9297 48.9689 64.0156H64.4064C65.9298 64.0156 67.1095 62.6719 66.9064 61.1641C66.5861 58.7422 64.5157 56.9297 62.0704 56.9297Z" fill="white"/>
<path d="M62.0704 56.9297L44.797 60.2734C42.9454 60.6328 41.3048 61.7187 40.2658 63.2969C39.2345 64.8594 38.4845 66.3359 38.6876 68.0391C38.6876 68.0391 39.1095 69.1641 39.9689 68.2734C39.9689 68.2734 40.4611 69.7422 41.4689 68.7656C41.4689 68.7656 41.8439 69.9687 42.8283 69.1797C42.8283 69.1797 42.8361 69.1953 42.8517 69.2109C43.3048 69.7813 44.2189 69.5547 44.3673 68.8359C44.5236 68.0547 44.9767 66.5391 46.172 65.2969C46.172 65.2969 47.7501 65.9297 48.9689 64.0156H64.4064C65.9298 64.0156 67.1095 62.6719 66.9064 61.1641C66.5861 58.7422 64.5157 56.9297 62.0704 56.9297Z" stroke="#111C3A" stroke-width="0.390625" stroke-miterlimit="10" stroke-linecap="round"/>
<path d="M39.9766 68.3359C39.9766 68.3359 40.125 65.6016 41.4062 64.0234" stroke="#111C3A" stroke-width="0.390625" stroke-miterlimit="10" stroke-linecap="round"/>
<path d="M41.4922 68.7656C41.4922 68.7656 41.6406 66.0313 42.9219 64.4531" stroke="#111C3A" stroke-width="0.390625" stroke-miterlimit="10" stroke-linecap="round"/>
<path d="M42.8516 69.1719C42.8516 69.1719 43 66.4375 44.2812 64.8594" stroke="#111C3A" stroke-width="0.390625" stroke-miterlimit="10" stroke-linecap="round"/>
<path d="M16.5782 56.6644L12.5001 53.8753C10.0235 52.18 8.10948 49.7894 7.00011 47.0003L3.29698 37.6644L0.711047 33.2815C0.0469847 32.1565 0.0391721 30.7659 0.679797 29.6331L2.00011 27.3128C2.64073 26.1878 3.78136 25.43 5.07042 25.2894C6.50792 25.1331 8.63292 25.1253 11.3126 25.7425C13.0314 26.1331 12.0626 26.9456 11.3126 26.9378C10.0548 26.9222 7.50011 27.0862 6.09386 27.1878C5.53917 27.2269 5.1173 27.6878 5.12511 28.2425L5.25792 29.8987C5.26574 30.469 5.73449 30.93 6.31261 30.9222C6.31261 30.9222 10.0235 30.3519 11.0704 31.0394C11.586 31.3753 11.1876 31.969 10.6798 32.1175C10.2501 32.2425 9.31261 32.5394 8.52355 32.7894C7.88292 32.9925 7.6173 33.7581 8.00011 34.3128L12.1329 40.3909C14.4454 43.6175 17.3985 46.3206 20.8204 48.3362L16.5782 56.6644Z" fill="white"/>
<path d="M16.5782 56.6644L12.5001 53.8753C10.0235 52.18 8.10948 49.7894 7.00011 47.0003L3.29698 37.6644L0.711047 33.2815C0.0469847 32.1565 0.0391722 30.7659 0.679797 29.6331L2.00011 27.3128C2.64073 26.1878 3.78136 25.43 5.07042 25.2894C6.50792 25.1331 8.63292 25.1253 11.3126 25.7425C13.0314 26.1331 12.0626 26.9456 11.3126 26.9378C10.0548 26.9222 7.50011 27.0862 6.09386 27.1878C5.53917 27.2269 5.1173 27.6878 5.12511 28.2425L5.25792 29.8987C5.26574 30.469 5.73449 30.93 6.31261 30.9222C6.31261 30.9222 10.0235 30.3519 11.0704 31.0394C11.586 31.3753 11.1876 31.9378 10.6798 32.1175C10.2579 32.2659 9.32824 32.555 8.53917 32.7972C7.89074 33.0003 7.62511 33.7659 8.00792 34.3206L12.1329 40.3831C14.4454 43.6097 17.3985 46.3128 20.8204 48.3284L16.5782 56.6644Z" stroke="#111C3A" stroke-width="0.390625" stroke-miterlimit="10" stroke-linecap="round"/>
<path d="M34.5938 43.7812C34.5938 43.7812 35.1406 45.2422 36.4453 43.9687" stroke="#111C3A" stroke-width="0.390625" stroke-miterlimit="10" stroke-linecap="round"/>
<path d="M39.1881 40.7266C39.0162 41.0625 39.0474 41.4141 39.2584 41.5235C39.4693 41.6328 39.774 41.4531 39.9459 41.1172C40.1178 40.7813 40.0865 40.4297 39.8756 40.3203C39.6724 40.2188 39.3599 40.3985 39.1881 40.7266Z" fill="#040A2E"/>
<path d="M35.9683 39.1641C35.7965 39.5 35.8277 39.8516 36.0387 39.961C36.2496 40.0703 36.5543 39.8906 36.7262 39.5547C36.898 39.2188 36.8668 38.8672 36.6558 38.7578C36.4449 38.6563 36.1402 38.836 35.9683 39.1641Z" fill="#040A2E"/>
<path d="M39.3828 38.7188C39.3828 38.7188 41.1875 39.4531 41.5703 40.9219" stroke="#111C3A" stroke-width="0.390625" stroke-miterlimit="10" stroke-linecap="round"/>
<path d="M36.2344 37.3281C36.2344 37.3281 37.5547 37.4609 38 38.0781" stroke="#111C3A" stroke-width="0.390625" stroke-miterlimit="10" stroke-linecap="round"/>
<path d="M37.6171 38.898C37.2968 39.437 36.8984 39.898 36.4296 40.3199C35.9921 40.7183 35.5 41.273 35.6718 41.9214C35.75 42.2261 35.9765 42.4839 36.2812 42.5699C36.5234 42.6324 36.625 42.2574 36.3828 42.1949C36.125 42.1245 36 41.8355 36.039 41.5855C36.0859 41.2574 36.3203 40.9839 36.5468 40.7652C36.8046 40.5152 37.0703 40.2886 37.3046 40.0152C37.5468 39.7339 37.7656 39.4292 37.9531 39.1089C38.0781 38.8745 37.7421 38.6792 37.6171 38.898Z" fill="#111C3A"/>
<path d="M44.4602 45.5703C45.0383 45.375 45.6633 45.1718 46.2649 45.3984C46.3664 45.4375 46.4758 45.3593 46.5071 45.2656C46.5383 45.1562 46.468 45.0625 46.3743 45.0234C45.7102 44.7734 45.0071 44.9765 44.3664 45.1953C44.1164 45.2734 44.218 45.6484 44.4602 45.5703Z" fill="#111C3A"/>
<path d="M22.9453 63.8437V59.6406" stroke="#111C3A" stroke-width="0.390625" stroke-miterlimit="10" stroke-linecap="round"/>
<path d="M16.5781 56.6641L22.9453 61.3281" stroke="#111C3A" stroke-width="0.390625" stroke-miterlimit="10" stroke-linecap="round"/>
<path d="M37.5781 30.5078H8.125C7.52344 30.5078 7.03125 30.0156 7.03125 29.4141V28.25C7.03125 27.6484 7.52344 27.1562 8.125 27.1562H37.5781C38.1797 27.1562 38.6719 27.6484 38.6719 28.25V29.4141C38.6719 30.0156 38.1797 30.5078 37.5781 30.5078Z" fill="white"/>
<path d="M22.5703 30.5078H8.125C7.52344 30.5078 7.03125 30.0156 7.03125 29.4141V28.25C7.03125 27.6484 7.52344 27.1562 8.125 27.1562H22.5781V30.5078H22.5703Z" fill="#608EDD"/>
<path d="M37.5781 30.5078H8.125C7.52344 30.5078 7.03125 30.0156 7.03125 29.4141V28.25C7.03125 27.6484 7.52344 27.1562 8.125 27.1562H37.5781C38.1797 27.1562 38.6719 27.6484 38.6719 28.25V29.4141C38.6719 30.0156 38.1797 30.5078 37.5781 30.5078Z" stroke="#111C3A" stroke-width="0.390625" stroke-miterlimit="10" stroke-linecap="round"/>
<path d="M12.4212 44.0865C12.9055 43.9927 13.3274 43.7037 13.6087 43.2974C13.6634 43.2115 13.6243 43.0787 13.5384 43.0318C13.4368 42.9771 13.3352 43.0084 13.2727 43.1021C13.2571 43.1255 13.2415 43.149 13.2259 43.1724C13.2337 43.1568 13.2337 43.1568 13.2259 43.1724C13.218 43.1802 13.2102 43.1959 13.2024 43.2037C13.1712 43.2427 13.1321 43.2818 13.093 43.3209C13.054 43.3599 13.0149 43.3912 12.9759 43.4224C12.9524 43.4459 13.0149 43.399 12.968 43.4302C12.9602 43.438 12.9524 43.4459 12.9446 43.4537C12.9212 43.4693 12.8977 43.4849 12.8743 43.5005C12.8352 43.524 12.7884 43.5552 12.7493 43.5787C12.7259 43.5943 12.7024 43.6021 12.6712 43.6177C12.6634 43.6255 12.6477 43.6255 12.6399 43.6334C12.593 43.6568 12.6634 43.6255 12.6321 43.6334C12.5305 43.6724 12.429 43.7037 12.3196 43.7193C12.218 43.7349 12.1555 43.8677 12.1868 43.9615C12.2102 44.063 12.3118 44.1099 12.4212 44.0865Z" fill="#111C3A"/>
<path d="M48.7578 64.3281C48.7578 64.3281 49.2422 63.8047 49.4531 62.8281" stroke="#111C3A" stroke-width="0.390625" stroke-miterlimit="10" stroke-linecap="round"/>
<path d="M18.8092 15.0194C19.157 14.6716 19.157 14.1077 18.8092 13.7599C18.4614 13.4121 17.8975 13.4121 17.5497 13.7599C17.2019 14.1077 17.2019 14.6716 17.5497 15.0194C17.8975 15.3672 18.4614 15.3672 18.8092 15.0194Z" fill="white"/>
<path d="M22.3492 15.0214C22.6971 14.6736 22.6971 14.1096 22.3492 13.7618C22.0014 13.414 21.4375 13.414 21.0897 13.7618C20.7419 14.1096 20.7419 14.6736 21.0897 15.0214C21.4375 15.3692 22.0014 15.3692 22.3492 15.0214Z" fill="white"/>
<path d="M25.9533 14.9515C26.2648 14.5708 26.2087 14.0097 25.8281 13.6982C25.4474 13.3867 24.8863 13.4428 24.5748 13.8234C24.2633 14.2041 24.3193 14.7652 24.7 15.0767C25.0807 15.3882 25.6418 15.3322 25.9533 14.9515Z" fill="white"/>
<path d="M4.23438 64.0234H39.6719" stroke="#111C3A" stroke-width="0.390625" stroke-miterlimit="10" stroke-linecap="round"/>
<path d="M60.3906 13.7031H29.7656V15.0781H60.3906V13.7031Z" fill="white"/>
<path d="M66.2266 36.8125H49.5156V26.5625C49.5156 23.3438 52.125 20.7266 55.3516 20.7266H66.2344C69.4531 20.7266 72.0703 23.3359 72.0703 26.5625V30.9844C72.0547 34.2031 69.4453 36.8125 66.2266 36.8125Z" fill="#10002B"/>
<path d="M65.6016 28.3125C65.6016 28.1016 65.4297 27.9375 65.2187 27.9375H64.4063C64.2734 27.9375 64.1562 27.8516 64.1094 27.7266C64.0781 27.6484 64.0469 27.5781 64.0156 27.5C63.9609 27.375 63.9766 27.2344 64.0781 27.1406L64.6484 26.5703C64.7969 26.4219 64.7969 26.1797 64.6484 26.0312L63.7187 25.1016C63.5703 24.9531 63.3281 24.9531 63.1797 25.1016L62.6016 25.6797C62.5078 25.7734 62.375 25.7969 62.2578 25.7422C62.1719 25.7109 62.0859 25.6719 62.0078 25.6406C61.8906 25.5938 61.8125 25.4766 61.8125 25.3516V24.5312C61.8125 24.3203 61.6406 24.1562 61.4375 24.1562H60.1172C59.9062 24.1562 59.7344 24.3281 59.7344 24.5312V25.3437C59.7344 25.4766 59.6484 25.5938 59.5234 25.6406C59.4453 25.6719 59.3672 25.7031 59.2891 25.7422C59.1641 25.7969 59.0234 25.7812 58.9297 25.6875L58.3594 25.1172C58.2109 24.9687 57.9687 24.9687 57.8203 25.1172L56.8906 26.0547C56.7422 26.2031 56.7422 26.4453 56.8906 26.5937L57.4687 27.1719C57.5625 27.2656 57.5859 27.3984 57.5391 27.5156C57.5078 27.6016 57.4688 27.6875 57.4375 27.7656C57.3906 27.8828 57.2734 27.9609 57.1484 27.9609H56.3281C56.1172 27.9609 55.9531 28.1328 55.9531 28.3437V29.6641C55.9531 29.875 56.125 30.0391 56.3359 30.0391H57.1484C57.2812 30.0391 57.3984 30.125 57.4453 30.25C57.4766 30.3281 57.5078 30.3984 57.5391 30.4766C57.5937 30.6016 57.5781 30.7422 57.4844 30.8359L56.9141 31.4062C56.7656 31.5547 56.7656 31.7969 56.9141 31.9453L57.8516 32.875C58 33.0234 58.2422 33.0234 58.3906 32.875L58.9687 32.2969C59.0625 32.2031 59.1953 32.1797 59.3125 32.2266C59.3984 32.2578 59.4844 32.2969 59.5625 32.3281C59.6797 32.375 59.7578 32.4922 59.7578 32.6172V33.4375C59.7578 33.6484 59.9297 33.8125 60.1406 33.8125H61.4609C61.6719 33.8125 61.8359 33.6406 61.8359 33.4297V32.6172C61.8359 32.4844 61.9219 32.3672 62.0469 32.3203C62.125 32.2891 62.1953 32.2578 62.2734 32.2266C62.3984 32.1719 62.5391 32.1875 62.6328 32.2891L63.2031 32.8594C63.3516 33.0078 63.5938 33.0078 63.7422 32.8594L64.6719 31.9297C64.8203 31.7812 64.8203 31.5391 64.6719 31.3906L64.0938 30.8125C64 30.7187 63.9766 30.5859 64.0312 30.4687C64.1172 30.2734 64.2031 30.0391 64.2031 30.0234H65.2344C65.4453 30.0234 65.6094 29.8516 65.6094 29.6406L65.6016 28.3125ZM60.1094 30.7188C60.0078 30.6797 59.9062 30.6328 59.8125 30.5703C59.625 30.4609 59.4687 30.3125 59.3359 30.1484C59.2656 30.0625 59.2109 29.9766 59.1562 29.8828C59.1016 29.7891 59.0625 29.6953 59.0234 29.5937C58.9844 29.4922 58.9609 29.3906 58.9453 29.2812C58.9062 29.0703 58.9062 28.8516 58.9453 28.6328C59.1641 27.4687 60.375 26.8125 61.4531 27.2266C61.6562 27.3047 61.8438 27.4219 62.0078 27.5625C62.0469 27.6016 62.0859 27.6328 62.125 27.6719C62.3438 27.9062 62.5078 28.1875 62.5859 28.5C62.6562 28.7578 62.6719 29.0312 62.6172 29.3047C62.4062 30.4766 61.1953 31.1328 60.1094 30.7188Z" fill="#608EDD"/>
<path d="M28.91 48.3234L28.0537 49.1797L28.91 50.0359L29.7662 49.1797L28.91 48.3234Z" fill="#608EDD"/>
<path d="M58.9219 40.3291L57.2314 42.0195L58.9219 43.7099L60.6123 42.0195L58.9219 40.3291Z" fill="#608EDD"/>
<path d="M23.4881 39.7648L21.7148 41.5381L23.4881 43.3114L25.2614 41.5381L23.4881 39.7648Z" fill="#608EDD"/>
<path d="M8.26834 57.7531L7.02539 58.9961L8.26834 60.239L9.51129 58.9961L8.26834 57.7531Z" fill="#608EDD"/>
<path d="M37.3438 24.1562V26.0469" stroke="#111C3A" stroke-width="0.390625" stroke-miterlimit="10" stroke-linecap="round"/>
<path d="M40.4688 25.375L39.1328 26.7109" stroke="#111C3A" stroke-width="0.390625" stroke-miterlimit="10" stroke-linecap="round"/>
<path d="M41.6875 28.8359H39.7969" stroke="#111C3A" stroke-width="0.390625" stroke-miterlimit="10" stroke-linecap="round"/>
<path d="M13.2734 17.625H52.7969" stroke="#111C3A" stroke-width="0.390625" stroke-miterlimit="10" stroke-linecap="round"/>
</svg>
