<svg width="80" height="80" viewBox="0 0 80 80" fill="none" xmlns="http://www.w3.org/2000/svg">
<path d="M41.7734 13.9688H6.47656C4.5 13.9688 2.89062 15.5703 2.89062 17.5547V67.4766H45.3594V17.5547C45.3594 15.5703 43.7578 13.9688 41.7734 13.9688Z" fill="white"/>
<path d="M41.9531 13.9688H6.29688C4.41406 13.9688 2.89062 15.4922 2.89062 17.375V19.9141H45.3594V17.375C45.3594 15.4922 43.8359 13.9688 41.9531 13.9688Z" fill="#608EDD"/>
<path d="M41.7734 13.9688H6.47656C4.5 13.9688 2.89062 15.5703 2.89062 17.5547V67.4766H45.3594V17.5547C45.3594 15.5703 43.7578 13.9688 41.7734 13.9688Z" stroke="#111C3A" stroke-width="0.390625" stroke-miterlimit="10" stroke-linecap="round"/>
<path d="M2.89062 19.9141H26.4453" stroke="#111C3A" stroke-width="0.390625" stroke-miterlimit="10" stroke-linecap="round"/>
<path d="M7.93648 17.9939C8.3391 17.8272 8.5303 17.3656 8.36352 16.963C8.19674 16.5603 7.73515 16.3691 7.33253 16.5359C6.92991 16.7027 6.73871 17.1643 6.90549 17.5669C7.07227 17.9695 7.53386 18.1607 7.93648 17.9939Z" fill="white"/>
<path d="M11.6508 17.4434C11.7509 17.0193 11.4883 16.5943 11.0642 16.4941C10.6401 16.394 10.2151 16.6566 10.1149 17.0807C10.0148 17.5048 10.2774 17.9298 10.7015 18.03C11.1256 18.1301 11.5506 17.8675 11.6508 17.4434Z" fill="white"/>
<path d="M14.4365 17.993C14.8391 17.8262 15.0303 17.3646 14.8635 16.962C14.6967 16.5594 14.2352 16.3682 13.8325 16.5349C13.4299 16.7017 13.2387 17.1633 13.4055 17.5659C13.5723 17.9686 14.0339 18.1597 14.4365 17.993Z" fill="white"/>
<path d="M37.5547 16.4688H16.4922V18.0547H37.5547V16.4688Z" fill="white"/>
<path d="M60.6524 37.045L61.4258 37.8184L62.1992 37.045L61.4258 36.2716L60.6524 37.045Z" fill="#608EDD"/>
<path d="M54.7803 31.4708L55.5703 32.2607L56.3603 31.4708L55.5703 30.6808L54.7803 31.4708Z" fill="#608EDD"/>
<path d="M60.6731 26.4505L61.7725 27.5498L62.8718 26.4505L61.7725 25.3512L60.6731 26.4505Z" fill="#608EDD"/>
<path d="M25.125 42.3906H9.71094C8.625 42.3906 7.74219 41.5078 7.74219 40.4219V28.0391C7.74219 26.9531 8.625 26.0703 9.71094 26.0703H25.125C26.2109 26.0703 27.0937 26.9531 27.0937 28.0391V40.4219C27.0937 41.5078 26.2109 42.3906 25.125 42.3906Z" stroke="#111C3A" stroke-width="0.390625" stroke-miterlimit="10" stroke-linecap="round"/>
<path d="M22.9375 51.3594H10.0156C9.14062 51.3594 8.42969 50.6484 8.42969 49.7734V49C8.42969 48.125 9.14062 47.4141 10.0156 47.4141H22.9375C23.8125 47.4141 24.5234 48.125 24.5234 49V49.7734C24.5234 50.6562 23.8125 51.3594 22.9375 51.3594Z" fill="#608EDD"/>
<path d="M8.42969 54.75H27.7812" stroke="#111C3A" stroke-width="0.390625" stroke-miterlimit="10" stroke-linecap="round"/>
<path d="M8.42969 58.3281H27.7812" stroke="#111C3A" stroke-width="0.390625" stroke-miterlimit="10" stroke-linecap="round"/>
<path d="M8.42969 61.9062H18.5938" stroke="#111C3A" stroke-width="0.390625" stroke-miterlimit="10" stroke-linecap="round"/>
<path d="M15.625 31.2188H21.6328L20.6172 35.3594H14.5859L13.6719 30.6094L11.3516 29.7891" stroke="#608EDD" stroke-width="0.78125" stroke-miterlimit="10" stroke-linecap="round"/>
<path d="M16.0159 38.3777C16.4003 37.9933 16.4003 37.37 16.0159 36.9856C15.6315 36.6012 15.0082 36.6012 14.6238 36.9856C14.2394 37.37 14.2394 37.9933 14.6238 38.3777C15.0082 38.7621 15.6315 38.7621 16.0159 38.3777Z" stroke="#608EDD" stroke-width="0.78125" stroke-miterlimit="10" stroke-linecap="round"/>
<path d="M20.5397 37.9056C20.6646 37.3765 20.337 36.8463 19.8079 36.7214C19.2788 36.5964 18.7486 36.9241 18.6237 37.4531C18.4987 37.9822 18.8264 38.5124 19.3555 38.6373C19.8845 38.7623 20.4147 38.4346 20.5397 37.9056Z" stroke="#608EDD" stroke-width="0.78125" stroke-miterlimit="10" stroke-linecap="round"/>
<path d="M71.3129 41.8437L69.9535 41.3516C69.9535 41.3516 69.1801 42.1641 70.2191 42.6328C71.1176 43.0391 71.4379 43.0781 71.4379 43.0781L71.3129 41.8437Z" fill="white"/>
<path d="M71.3129 41.8437L69.9535 41.3516C69.9535 41.3516 69.1801 42.1641 70.2191 42.6328C71.1176 43.0391 71.4379 43.0781 71.4379 43.0781L71.3129 41.8437Z" stroke="#111C3A" stroke-width="0.390625" stroke-miterlimit="10" stroke-linecap="round"/>
<path d="M43.2969 27.7264L36.7422 26.2342C36.7422 26.2342 38.3984 9.82792 51.1406 12.9139C59.5625 14.9529 52.0938 30.4295 52.0938 30.4295L43.2969 27.7264Z" fill="#10002B"/>
<path d="M43.2969 27.7264L36.7422 26.2342C36.7422 26.2342 38.3984 9.82792 51.1406 12.9139C59.5625 14.9529 52.0938 30.4295 52.0938 30.4295L43.2969 27.7264Z" stroke="#111C3A" stroke-width="0.390625" stroke-miterlimit="10" stroke-linecap="round"/>
<path d="M37.4531 27.7266L42.2578 28.4688L47.9844 30.4219L51.7812 31.7656L50.2734 51.1562H36.0312L37.4531 27.7266Z" fill="#608EDD"/>
<path d="M32.8672 40.9609L32.1719 50.7344L38.6797 51.8828L40.2422 40.9609H32.8672Z" fill="white"/>
<path d="M33.7656 30.8047L32.8672 40.9609H40.2422L41.1562 32.1016L33.7656 30.8047Z" fill="#608EDD"/>
<path d="M32.8672 40.9609L32.1719 50.7344L38.6797 51.8828L40.2422 40.9609H32.8672Z" stroke="#111C3A" stroke-width="0.390625" stroke-miterlimit="10" stroke-linecap="round"/>
<path d="M39.2266 51.1562H50.2734L50.7188 54.6562L66.5391 48.5391L67.9297 55.7734L46.8984 61.6484L39.2266 51.1562Z" fill="black"/>
<path d="M28.1719 52.6016C28.1719 52.6016 28.6875 62.9609 38.0859 65.9062H50.2734L35.2578 48.5391L28.1719 52.6016Z" fill="black"/>
<path d="M73.6172 52.6016C73.6172 52.6016 73.1016 62.9609 63.7031 65.9062H51.5156L66.5312 48.5391L73.6172 52.6016Z" fill="black"/>
<path d="M36.3359 61.6559L44.1328 61.695C44.4609 61.695 44.7656 61.8747 44.9375 62.1559L45.3438 62.8512C45.3438 62.8512 47.5703 66.4997 46.7422 66.4997H37.1406L36.0078 67.0153L34.7656 65.9606C34.2188 65.5153 33.8672 64.8356 33.8672 64.0778C33.8672 62.7184 34.9844 61.6247 36.3359 61.6559Z" fill="#9F99AA"/>
<path d="M36.3359 61.6559L44.1328 61.695C44.4609 61.695 44.7656 61.8747 44.9375 62.1559L45.3438 62.8512C45.3438 62.8512 47.5703 66.4997 46.7422 66.4997H37.1406L36.0078 67.0153L34.7656 65.9606C34.2188 65.5153 33.8672 64.8356 33.8672 64.0778C33.8672 62.7184 34.9844 61.6247 36.3359 61.6559Z" stroke="#111C3A" stroke-width="0.390625" stroke-miterlimit="10" stroke-linecap="round"/>
<path d="M72.2355 55.9327C74.0752 54.0929 74.0752 51.1102 72.2355 49.2705C70.3958 47.4307 67.413 47.4307 65.5733 49.2705C63.7336 51.1102 63.7336 54.0929 65.5733 55.9327C67.413 57.7724 70.3958 57.7724 72.2355 55.9327Z" fill="black"/>
<path d="M71.1406 56.7578L53.5 64.9844L50.0156 59.4453L66.5391 48.5391L71.1406 56.7578Z" fill="black"/>
<path d="M53.5 64.9844L48.125 67.4766L45.3438 62.75L50.0156 59.4453L53.5 64.9844Z" fill="white"/>
<path d="M53.5 64.9844L48.1953 67.2188L45.3438 62.75L50.0156 59.4453L53.5 64.9844Z" stroke="#111C3A" stroke-width="0.390625" stroke-miterlimit="10" stroke-linecap="round"/>
<path d="M47.8828 67.4762H37.4297C36.0938 67.4762 35.0078 66.3903 35.0078 65.0544C35.0078 63.695 36.125 62.6012 37.4766 62.6325L45.3438 62.7497L46.0234 63.9059L46.875 63.82C47.2891 63.7809 47.6953 63.984 47.9062 64.3434L48.8047 65.8669C49.2266 66.5778 48.7109 67.4762 47.8828 67.4762Z" fill="#608EDD"/>
<path d="M43.5234 64.3359C43.5234 64.3359 44.0547 65.6875 43.5234 67.4766" stroke="#111C3A" stroke-width="0.390625" stroke-miterlimit="10" stroke-linecap="round"/>
<path d="M41.9766 64.3359C41.9766 64.3359 42.5078 65.6875 41.9766 67.4766" stroke="#111C3A" stroke-width="0.390625" stroke-miterlimit="10" stroke-linecap="round"/>
<path d="M40.4375 64.3359C40.4375 64.3359 40.9688 65.6875 40.4375 67.4766" stroke="#111C3A" stroke-width="0.390625" stroke-miterlimit="10" stroke-linecap="round"/>
<path d="M38.8984 64.3359C38.8984 64.3359 39.4297 65.6875 38.8984 67.4766" stroke="#111C3A" stroke-width="0.390625" stroke-miterlimit="10" stroke-linecap="round"/>
<path d="M65.461 61.6559L57.6641 61.695C57.336 61.695 57.0313 61.8747 56.8594 62.1559L56.4532 62.8512C56.4532 62.8512 54.2266 66.4997 55.0547 66.4997H64.6563L65.7891 67.0153L67.0313 65.9606C67.5782 65.5153 67.9297 64.8356 67.9297 64.0778C67.9297 62.7184 66.8125 61.6247 65.461 61.6559Z" fill="#9F99AA"/>
<path d="M65.461 61.6559L57.6641 61.695C57.336 61.695 57.0313 61.8747 56.8594 62.1559L56.4532 62.8512C56.4532 62.8512 54.2266 66.4997 55.0547 66.4997H64.6563L65.7891 67.0153L67.0313 65.9606C67.5782 65.5153 67.9297 64.8356 67.9297 64.0778C67.9297 62.7184 66.8125 61.6247 65.461 61.6559Z" stroke="#111C3A" stroke-width="0.390625" stroke-miterlimit="10" stroke-linecap="round"/>
<path d="M36.2199 55.9317C38.0596 54.092 38.0596 51.1092 36.2199 49.2695C34.3802 47.4298 31.3974 47.4298 29.5577 49.2695C27.7179 51.1092 27.7179 54.092 29.5577 55.9317C31.3974 57.7714 34.3802 57.7714 36.2199 55.9317Z" fill="black"/>
<path d="M37.4531 35.2109C39.5199 35.2109 41.1953 33.5355 41.1953 31.4687C41.1953 29.402 39.5199 27.7266 37.4531 27.7266C35.3864 27.7266 33.7109 29.402 33.7109 31.4687C33.7109 33.5355 35.3864 35.2109 37.4531 35.2109Z" fill="#608EDD"/>
<path d="M50.6641 38.5156C52.5798 38.5156 54.1328 36.9626 54.1328 35.0469C54.1328 33.1311 52.5798 31.5781 50.6641 31.5781C48.7483 31.5781 47.1953 33.1311 47.1953 35.0469C47.1953 36.9626 48.7483 38.5156 50.6641 38.5156Z" fill="#608EDD"/>
<path d="M30.6562 56.7578L48.2969 64.9844L51.7812 59.4453L35.2578 48.5391L30.6562 56.7578Z" fill="black"/>
<path d="M48.2969 64.9844L53.6719 67.4766L56.4453 62.75L51.7812 59.4453L48.2969 64.9844Z" fill="white"/>
<path d="M48.2969 64.9844L53.5781 67.2188L56.4453 62.75L51.7812 59.4453L48.2969 64.9844Z" stroke="#111C3A" stroke-width="0.390625" stroke-miterlimit="10" stroke-linecap="round"/>
<path d="M53.9141 67.4762H64.3594C65.6954 67.4762 66.7813 66.3903 66.7813 65.0544C66.7813 63.695 65.6641 62.6012 64.3126 62.6325L56.2344 62.695L55.5469 63.8825L54.9141 63.82C54.5001 63.7809 54.0938 63.984 53.8829 64.3434L52.9922 65.8591C52.5704 66.5778 53.086 67.4762 53.9141 67.4762Z" fill="#608EDD"/>
<path d="M58.2732 64.3359C58.2732 64.3359 57.742 65.6875 58.2732 67.4766" stroke="#111C3A" stroke-width="0.390625" stroke-miterlimit="10" stroke-linecap="round"/>
<path d="M59.8123 64.3359C59.8123 64.3359 59.281 65.6875 59.8123 67.4766" stroke="#111C3A" stroke-width="0.390625" stroke-miterlimit="10" stroke-linecap="round"/>
<path d="M61.3592 64.3359C61.3592 64.3359 60.8279 65.6875 61.3592 67.4766" stroke="#111C3A" stroke-width="0.390625" stroke-miterlimit="10" stroke-linecap="round"/>
<path d="M62.8982 64.3359C62.8982 64.3359 62.367 65.6875 62.8982 67.4766" stroke="#111C3A" stroke-width="0.390625" stroke-miterlimit="10" stroke-linecap="round"/>
<path d="M53.9062 33.8281L56.4219 42.5469L50.7656 44.875L47.2969 35.8828L53.9062 33.8281Z" fill="#608EDD"/>
<path d="M47.6172 33.9609L44.3204 32.1719C43.0313 31.4766 42.3282 30.0391 42.5547 28.5938L43.5469 22.25H48.6094L47.6172 33.9609Z" fill="white"/>
<path d="M47.6172 33.9609L44.3204 32.1719C43.0313 31.4766 42.3282 30.0391 42.5547 28.5938L43.5469 22.25H48.6094L47.6172 33.9609Z" stroke="#111C3A" stroke-width="0.390625" stroke-miterlimit="10" stroke-linecap="round"/>
<path d="M35.2578 48.5391L51.7812 59.4453" stroke="white" stroke-width="0.390625" stroke-miterlimit="10" stroke-linecap="round"/>
<path d="M50.9453 58.7187L64.7031 50.6641" stroke="white" stroke-width="0.390625" stroke-miterlimit="10" stroke-linecap="round"/>
<path d="M32.8906 57.7969L48.2969 64.9844" stroke="white" stroke-width="0.390625" stroke-miterlimit="10" stroke-linecap="round"/>
<path d="M60.6484 61.6484L68.3281 58.0703" stroke="white" stroke-width="0.390625" stroke-miterlimit="10" stroke-linecap="round"/>
<path d="M32.8672 40.9609L33.0859 38.5078" stroke="#111C3A" stroke-width="0.390625" stroke-miterlimit="10" stroke-linecap="round"/>
<path d="M40.2422 40.9609L40.8047 37.0547" stroke="#111C3A" stroke-width="0.390625" stroke-miterlimit="10" stroke-linecap="round"/>
<path d="M50.2734 51.1562L51.2187 39.0078" stroke="#111C3A" stroke-width="0.390625" stroke-miterlimit="10" stroke-linecap="round"/>
<path d="M56.4219 42.5465L57.2812 45.859L64.5703 44.8278C65.1016 44.7496 66.3281 44.4606 66.6875 44.0621L66.9375 43.7887L66.7891 40.1715C66.8281 39.9684 66.9219 39.7731 67.0703 39.6246C67.2891 39.3981 67.7656 39.2262 67.8594 40.0465C68.0391 41.5387 68.9297 43.4059 68.9297 43.4059L70.6719 43.1637L72.1562 39.8121C72.5312 39.1559 72.7734 39.3043 72.9141 39.5856C73.0625 39.8746 73.0703 40.2106 72.9687 40.5153L71.7969 43.9215C71.6875 44.2418 71.5156 44.5309 71.2969 44.7809L70.3125 45.8981C69.4687 46.8512 68.4141 47.6012 67.2344 48.0778L58.1172 51.7809C55.8125 52.6793 53.2187 51.5153 52.3672 49.195L50.7734 44.8746L56.4219 42.5465Z" fill="white"/>
<path d="M56.4219 42.5465L57.2812 45.859L64.5703 44.8278C65.1016 44.7496 66.3281 44.4606 66.6875 44.0621L66.9375 43.7887L66.7891 40.1715C66.8281 39.9684 66.9219 39.7731 67.0703 39.6246C67.2891 39.3981 67.7656 39.2262 67.8594 40.0465C68.0391 41.5387 68.9297 43.4059 68.9297 43.4059L70.6719 43.1637L72.1562 39.8121C72.5312 39.1559 72.7734 39.3043 72.9141 39.5856C73.0625 39.8746 73.0703 40.2106 72.9687 40.5153L71.7969 43.9215C71.6875 44.2418 71.5156 44.5309 71.2969 44.7809L70.3125 45.8981C69.4687 46.8512 68.4141 47.6012 67.2344 48.0778L58.1172 51.7809C55.8125 52.6793 53.2187 51.5153 52.3672 49.195L50.7734 44.8746L56.4219 42.5465Z" stroke="#111C3A" stroke-width="0.390625" stroke-miterlimit="10" stroke-linecap="round"/>
<path d="M56.4219 42.5469L55.9609 40.9609" stroke="#111C3A" stroke-width="0.390625" stroke-miterlimit="10" stroke-linecap="round"/>
<path d="M58.2656 45.7188L55.5703 46.1094" stroke="#111C3A" stroke-width="0.390625" stroke-miterlimit="10" stroke-linecap="round"/>
<path d="M52.4687 16.6868C52.4687 16.6868 54.2733 25.6478 50.2812 27.515C48.7265 28.2415 47.3905 27.6634 46.328 26.6868C45.7343 26.14 45.2265 25.4603 44.8124 24.8197C44.078 23.6634 43.6718 22.6165 43.6718 22.6165C43.6718 22.6165 42.7577 17.1009 45.914 15.7259C49.0624 14.3587 51.5937 14.8587 52.4687 16.6868Z" fill="white"/>
<path d="M43.6718 22.6172C43.6718 22.6172 42.7577 17.1016 45.914 15.7266C49.0702 14.3594 51.6015 14.8516 52.4687 16.6797C52.4687 16.6797 54.2733 25.6406 50.2812 27.5078C48.7265 28.2344 47.3905 27.6563 46.328 26.6797" stroke="#111C3A" stroke-width="0.390625" stroke-miterlimit="10" stroke-linecap="round"/>
<path d="M52.3442 16.4606C52.3442 16.4606 48.4458 21.2496 43.5474 20.0075C43.5474 20.0075 41.352 17.9371 42.5083 16.4606C43.6645 14.984 46.9067 13.2809 51.4302 14.4918C51.4302 14.484 52.4302 14.7809 52.3442 16.4606Z" fill="#10002B"/>
<path d="M52.7109 16.0625C52.7109 16.0625 48.4453 21.25 43.5469 20.0078" stroke="#111C3A" stroke-width="0.390625" stroke-miterlimit="10" stroke-linecap="round"/>
<path d="M45.055 21.0937C45.055 21.0937 44.5237 19.3827 43.3675 19.578C42.2112 19.7812 41.7269 21.8671 42.2034 22.7421C42.68 23.6249 44.7737 22.6249 44.7737 22.6249L45.055 21.0937Z" fill="white"/>
<path d="M45.055 21.0937C45.055 21.0937 44.5237 19.3827 43.3675 19.578C42.2112 19.7812 41.7269 21.8671 42.2034 22.7421C42.68 23.6249 44.7737 22.6249 44.7737 22.6249" stroke="#111C3A" stroke-width="0.390625" stroke-miterlimit="10" stroke-linecap="round"/>
<path d="M43.0078 21.2188C43.0078 21.2188 43.4453 21.6875 44.0312 21.6875" stroke="#111C3A" stroke-width="0.390625" stroke-miterlimit="10" stroke-linecap="round"/>
<path d="M71.781 40.6094L70.8513 39.5078C70.8513 39.5078 69.7732 39.8203 70.4451 40.7578C71.0232 41.5625 71.281 41.7578 71.281 41.7578L71.781 40.6094Z" fill="white"/>
<path d="M71.781 40.6094L70.8513 39.5078C70.8513 39.5078 69.7732 39.8203 70.4451 40.7578C71.0232 41.5625 71.281 41.7578 71.281 41.7578L71.781 40.6094Z" stroke="#111C3A" stroke-width="0.390625" stroke-miterlimit="10" stroke-linecap="round"/>
<path d="M49.961 21.211C49.8829 21.547 49.6563 21.7814 49.461 21.7345C49.2657 21.6876 49.1641 21.3751 49.2423 21.0392C49.3204 20.7032 49.5469 20.4689 49.7423 20.5157C49.9376 20.5626 50.0391 20.8751 49.961 21.211Z" fill="#10002B"/>
<path d="M52.5235 21.7657C52.4454 22.1017 52.2188 22.336 52.0235 22.2892C51.8282 22.2423 51.7266 21.9298 51.8048 21.5939C51.8829 21.2579 52.1094 21.0235 52.3048 21.0704C52.5079 21.1173 52.6016 21.4298 52.5235 21.7657Z" fill="#10002B"/>
<path d="M51.0228 21.25C50.8666 21.8906 51.0853 22.5078 51.2182 23.1328C51.3197 23.5937 51.3588 24.1484 51.0385 24.5312C50.9682 24.6093 50.9603 24.7265 51.0385 24.8046C51.1088 24.875 51.2494 24.8828 51.3119 24.8046C51.6869 24.3515 51.726 23.7656 51.6244 23.2031C51.5228 22.5937 51.2416 21.9765 51.39 21.3515C51.4603 21.1093 51.0853 21.0078 51.0228 21.25Z" fill="#111C3A"/>
<path d="M50.1484 25.469C50.1249 25.4769 50.0937 25.4847 50.0703 25.4925C50.0937 25.4847 50.0859 25.4925 50.0624 25.4925C50.0468 25.4925 50.0312 25.4925 50.0234 25.4925C49.9921 25.4925 49.9687 25.4925 49.9374 25.4847C49.9531 25.4847 49.9609 25.4847 49.9374 25.4847C49.9218 25.4847 49.8984 25.4769 49.8828 25.4769C49.8359 25.469 49.7578 25.4378 49.7265 25.43C49.7421 25.4378 49.7031 25.4144 49.6953 25.4144C49.6796 25.4065 49.664 25.3987 49.6484 25.3909C49.6171 25.3753 49.5937 25.3597 49.5624 25.344C49.4999 25.305 49.4843 25.2972 49.4296 25.2503C49.3828 25.2034 49.3359 25.1565 49.289 25.1019C49.2812 25.094 49.2812 25.094 49.2734 25.0862C49.2812 25.094 49.2812 25.094 49.2734 25.0862C49.2656 25.0706 49.2578 25.0628 49.2421 25.0472C49.2265 25.0159 49.2109 24.9925 49.1953 24.9612C49.1874 24.9534 49.1874 24.9378 49.1796 24.93C49.1484 24.8753 49.1874 24.9456 49.1718 24.9144C49.1562 24.8831 49.1484 24.8519 49.1406 24.8128C49.0937 24.6565 48.8671 24.6175 48.7812 24.7659C48.7031 24.9144 48.6328 25.0706 48.5859 25.2269C48.4921 25.4925 48.4374 25.805 48.5234 26.0862C48.6171 26.4144 48.9296 26.6487 49.2656 26.6487C49.5703 26.6487 49.8359 26.4612 50.0312 26.2425C50.164 26.1019 50.2812 25.9378 50.3671 25.7659C50.414 25.6722 50.3906 25.555 50.2968 25.5003C50.2109 25.4456 50.0781 25.4769 50.0312 25.5706C50.0156 25.6019 49.9921 25.6409 49.9765 25.6722C49.9531 25.7034 49.9374 25.7425 49.914 25.7737C49.8984 25.7972 49.8828 25.8128 49.8749 25.8362C49.8671 25.844 49.8593 25.8597 49.8515 25.8675C49.8437 25.8753 49.8437 25.8831 49.8359 25.8909C49.8515 25.8675 49.8515 25.8675 49.8437 25.8753C49.7656 25.969 49.6874 26.055 49.5937 26.1331C49.5859 26.1409 49.5624 26.1565 49.6015 26.1331C49.5859 26.1409 49.5781 26.1487 49.5624 26.1565C49.539 26.1722 49.5156 26.1878 49.4843 26.2034C49.4687 26.2112 49.4609 26.219 49.4453 26.2269C49.4374 26.2347 49.3906 26.2503 49.4374 26.2269C49.4062 26.2347 49.3749 26.2503 49.3437 26.2581C49.3359 26.2581 49.3281 26.2581 49.3124 26.2659C49.3671 26.2581 49.3203 26.2659 49.3046 26.2659C49.2734 26.2659 49.2421 26.2659 49.2187 26.2659C49.2734 26.2659 49.1796 26.2581 49.164 26.2503C49.1484 26.2425 49.1328 26.2425 49.1171 26.2347C49.1562 26.2503 49.0937 26.219 49.0859 26.219C49.0624 26.2034 49.039 26.1878 49.0156 26.1722C49.0546 26.2034 49.0078 26.1644 49.0078 26.1644C48.9999 26.1565 48.9843 26.1409 48.9765 26.1331C48.9687 26.1253 48.9453 26.0862 48.9687 26.1253C48.9609 26.1097 48.9531 26.1019 48.9453 26.0862C48.9374 26.0706 48.9296 26.0628 48.9218 26.0472C48.914 26.0394 48.914 26.0315 48.9062 26.0237C48.914 26.0472 48.914 26.0472 48.9062 26.0315C48.8984 26.0081 48.8906 25.9847 48.8828 25.9612C48.8828 25.9456 48.8749 25.93 48.8749 25.9144C48.8593 25.8675 48.8749 25.9534 48.8749 25.9065C48.8749 25.8362 48.8671 25.7737 48.8749 25.7112C48.8749 25.6956 48.8749 25.68 48.8828 25.6644C48.8828 25.6722 48.8749 25.7034 48.8828 25.6722C48.8906 25.6409 48.8906 25.6097 48.8984 25.5784C48.914 25.5159 48.9296 25.4534 48.9453 25.3909C48.9609 25.3362 48.9843 25.2737 49.0078 25.219C49.0156 25.2034 49.0156 25.1956 49.0234 25.18C49.039 25.1487 49.0078 25.219 49.0234 25.1722C49.0312 25.1487 49.0468 25.1253 49.0546 25.1019C49.0781 25.0628 49.0937 25.0159 49.1171 24.9769C48.9999 24.9612 48.8828 24.9456 48.7578 24.93C48.8437 25.2503 49.0781 25.5237 49.3593 25.7034C49.6093 25.8675 49.9453 25.969 50.2421 25.8753C50.3437 25.844 50.4062 25.7425 50.3749 25.6331C50.3593 25.5081 50.2499 25.4378 50.1484 25.469Z" fill="#111C3A"/>
<path d="M48.9446 20.0546C49.4446 19.8514 49.9759 19.7655 50.5149 19.8046C50.6165 19.8124 50.7102 19.7108 50.7102 19.6093C50.7102 19.4999 50.6243 19.4218 50.5149 19.4139C49.9446 19.3749 49.3665 19.4686 48.843 19.6796C48.7415 19.7186 48.679 19.8124 48.7102 19.9218C48.7259 20.0155 48.843 20.0936 48.9446 20.0546Z" fill="#111C3A"/>
<path d="M52.1172 20.0547C52.1407 20.0625 52.1641 20.0703 52.1875 20.0781C52.1719 20.0703 52.1563 20.0625 52.1407 20.0547C52.2422 20.0938 52.336 20.1484 52.4219 20.2187C52.4063 20.2109 52.3985 20.1953 52.3829 20.1875C52.4688 20.25 52.5391 20.3281 52.6094 20.4141C52.6016 20.3984 52.586 20.3906 52.5782 20.375C52.5782 20.375 52.5782 20.3828 52.586 20.3828C52.6172 20.4219 52.6485 20.4609 52.7032 20.4687C52.75 20.4844 52.8125 20.4766 52.8516 20.4453C52.8907 20.4219 52.9297 20.375 52.9375 20.3281C52.9453 20.2813 52.9453 20.2187 52.9141 20.1797C52.8672 20.1172 52.8204 20.0625 52.7657 20.0078C52.711 19.9531 52.6485 19.9062 52.586 19.8594C52.4766 19.7734 52.3438 19.7187 52.211 19.6719C52.1641 19.6562 52.1016 19.6641 52.0625 19.6953C52.0235 19.7188 51.9844 19.7656 51.9766 19.8125C51.9532 19.9219 52.0157 20.0234 52.1172 20.0547Z" fill="#111C3A"/>
<path d="M50.7656 55.7031L50.2734 51.1562L39.4297 51.125" stroke="white" stroke-width="0.390625" stroke-miterlimit="10" stroke-linecap="round"/>
<path d="M1.21094 67.4766H78.7891" stroke="#111C3A" stroke-width="0.390625" stroke-miterlimit="10" stroke-linecap="round"/>
<path d="M74.4297 39.3984H65.625C65.1172 39.3984 64.6953 38.9844 64.6953 38.4688V32.3672H75.3594V38.4688C75.3594 38.9844 74.9453 39.3984 74.4297 39.3984Z" fill="#608EDD"/>
<path d="M75.8516 30.1016H64.1953V32.3672H75.8516V30.1016Z" fill="#608EDD"/>
<path d="M64.6953 32.3672H75.3594" stroke="#111C3A" stroke-width="0.390625" stroke-miterlimit="10" stroke-linecap="round"/>
<path d="M69.9219 29.9453H68.4922C67.7031 29.9453 67.0625 29.3047 67.0625 28.5156C67.0625 27.7266 67.7031 27.0859 68.4922 27.0859C69.2812 27.0859 69.9219 27.7266 69.9219 28.5156V29.9453Z" stroke="#111C3A" stroke-width="0.390625" stroke-miterlimit="10" stroke-linecap="round"/>
<path d="M70.1797 29.9453H71.6094C72.3984 29.9453 73.0391 29.3047 73.0391 28.5156C73.0391 27.7266 72.3984 27.0859 71.6094 27.0859C70.8203 27.0859 70.1797 27.7266 70.1797 28.5156V29.9453Z" stroke="#111C3A" stroke-width="0.390625" stroke-miterlimit="10" stroke-linecap="round"/>
<path d="M77.1719 14.2187V20.2031C77.1719 21.1406 76.4141 21.8984 75.4766 21.8984H61.4375C60.5 21.8984 59.7422 21.1406 59.7422 20.2031V18.7188L58.2188 17.7266C57.8359 17.4766 57.8438 16.9219 58.2188 16.6797L59.7422 15.6953V14.2187C59.7422 13.2812 60.5 12.5234 61.4375 12.5234H75.4766C76.4141 12.5234 77.1719 13.2812 77.1719 14.2187Z" fill="black"/>
<path d="M71.1094 16.2812C71.0234 15.539 70.3906 14.9531 69.6406 14.9297C69.1875 14.914 68.7734 15.0937 68.4844 15.3906C68.2031 15.1015 67.8203 14.9297 67.3906 14.9297C66.5391 14.9297 65.8516 15.6172 65.8516 16.4687C65.8516 16.8828 66.0625 17.2187 66.2812 17.5312C66.6484 18.0625 67.7656 19.0859 68.25 19.5156C68.3828 19.6328 68.5781 19.6328 68.7031 19.5156C69.2109 19.0625 70.4141 17.9453 70.8203 17.375C71.0391 17.0703 71.1641 16.6953 71.1094 16.2812Z" fill="white"/>
</svg>
