<svg width="80" height="80" viewBox="0 0 80 80" fill="none" xmlns="http://www.w3.org/2000/svg">
<path d="M43.3828 13.2266H8.07812C6.10156 13.2266 4.49219 14.8281 4.49219 16.8125V66.7344H46.9609V16.8125C46.9688 14.8359 45.3594 13.2266 43.3828 13.2266Z" fill="white"/>
<path d="M21.0938 37.8359H9.3125C8.29688 37.8359 7.47656 37.0156 7.47656 36C7.47656 34.9844 8.29688 34.1641 9.3125 34.1641H21.0938V37.8359Z" fill="#608EDD"/>
<path d="M34.1172 37.8359H9.3125C8.29688 37.8359 7.47656 37.0156 7.47656 36C7.47656 34.9844 8.29688 34.1641 9.3125 34.1641H34.1094C35.125 34.1641 35.9453 34.9844 35.9453 36C35.9531 37.0156 35.125 37.8359 34.1172 37.8359Z" stroke="#111C3A" stroke-width="0.390625" stroke-miterlimit="10" stroke-linecap="round"/>
<path d="M43.5625 13.2266H7.89844C6.01562 13.2266 4.49219 14.75 4.49219 16.6328V19.1719H46.9609V16.6328C46.9688 14.75 45.4453 13.2266 43.5625 13.2266Z" fill="#608EDD"/>
<path d="M43.3828 13.2266H8.07813C6.10156 13.2266 4.49219 14.8281 4.49219 16.8125V66.7344H46.9609V16.8125C46.9687 14.8359 45.3594 13.2266 43.3828 13.2266Z" stroke="#111C3A" stroke-width="0.390625" stroke-miterlimit="10" stroke-linecap="round"/>
<path d="M4.49219 19.1719H28.0469" stroke="#111C3A" stroke-width="0.390625" stroke-miterlimit="10" stroke-linecap="round"/>
<path d="M10.0013 16.71C10.1015 16.2859 9.83886 15.8609 9.41475 15.7607C8.99064 15.6606 8.56565 15.9232 8.46551 16.3473C8.36536 16.7714 8.62799 17.1964 9.0521 17.2966C9.4762 17.3967 9.90119 17.1341 10.0013 16.71Z" fill="white"/>
<path d="M12.7861 17.2537C13.1887 17.0869 13.3799 16.6253 13.2131 16.2227C13.0464 15.8201 12.5848 15.6289 12.1821 15.7957C11.7795 15.9625 11.5883 16.424 11.7551 16.8267C11.9219 17.2293 12.3835 17.4205 12.7861 17.2537Z" fill="white"/>
<path d="M16.291 17.0833C16.5992 16.7752 16.5992 16.2756 16.291 15.9674C15.9829 15.6593 15.4833 15.6593 15.1751 15.9674C14.867 16.2756 14.867 16.7752 15.1751 17.0833C15.4833 17.3915 15.9829 17.3915 16.291 17.0833Z" fill="white"/>
<path d="M39.1641 15.7344H18.1016V17.3203H39.1641V15.7344Z" fill="white"/>
<path d="M58.2586 31.0144L59.0596 31.8154L59.8606 31.0144L59.0596 30.2134L58.2586 31.0144Z" fill="#608EDD"/>
<path d="M67.0333 42.5763L68.2266 43.7695L69.4198 42.5763L68.2266 41.3831L67.0333 42.5763Z" fill="#608EDD"/>
<path d="M70.9199 30.6542L72.1904 31.9248L73.461 30.6542L72.1904 29.3837L70.9199 30.6542Z" fill="#608EDD"/>
<path d="M45.6416 20.688C45.6416 20.688 42.5635 19.6724 42.4619 17.7193C42.3447 15.5005 44.876 14.3287 47.1807 15.7974C47.1807 15.7974 50.1963 13.6646 51.2041 16.9146C51.2041 16.9146 56.4463 16.0396 55.7822 20.688C55.7822 20.688 60.2588 22.5787 56.3057 26.524C52.3526 30.4693 50.1338 30.2583 50.1338 30.2583L45.6416 20.688Z" fill="#10002B"/>
<path d="M45.6416 20.688C45.6416 20.688 42.5635 19.6724 42.4619 17.7193C42.3447 15.5005 44.876 14.3287 47.1807 15.7974C47.1807 15.7974 50.1963 13.6646 51.2041 16.9146C51.2041 16.9146 56.4463 16.0396 55.7822 20.688C55.7822 20.688 60.2588 22.5787 56.3057 26.524C52.3526 30.4693 50.1338 30.2583 50.1338 30.2583L45.6416 20.688Z" stroke="#111C3A" stroke-width="0.390625" stroke-miterlimit="10" stroke-linecap="round"/>
<path d="M32.6572 36.1953L42.915 33.1641H50.4854L60.2979 36.3281L59.0635 66.7734H34.0713L32.6572 36.1953Z" fill="#608EDD"/>
<path d="M34.0713 45.0947C36.5911 45.0947 38.6338 43.052 38.6338 40.5322C38.6338 38.0124 36.5911 35.9697 34.0713 35.9697C31.5515 35.9697 29.5088 38.0124 29.5088 40.5322C29.5088 43.052 31.5515 45.0947 34.0713 45.0947Z" fill="#608EDD"/>
<path d="M58.5244 45.0947C61.0442 45.0947 63.0869 43.052 63.0869 40.5322C63.0869 38.0124 61.0442 35.9697 58.5244 35.9697C56.0046 35.9697 53.9619 38.0124 53.9619 40.5322C53.9619 43.052 56.0046 45.0947 58.5244 45.0947Z" fill="#608EDD"/>
<path d="M29.5088 40.5322L28.4854 51.1807L37.5791 51.5244L38.6025 41.0791L29.5088 40.5322Z" fill="#608EDD"/>
<path d="M63.0947 40.5322L64.1182 51.1807L55.0244 51.5244L54.001 41.0791L63.0947 40.5322Z" fill="#608EDD"/>
<path d="M28.485 51.1807L28.1959 56.0713C27.8678 61.5947 33.2428 65.6963 38.485 63.9229L47.4772 60.876L38.6334 55.5479L37.3991 55.9307L37.5788 51.54L28.485 51.1807Z" fill="white"/>
<path d="M28.485 51.1807L28.1959 56.0713C27.8678 61.5947 33.2428 65.6963 38.485 63.9229L47.4772 60.876L38.6334 55.5479L37.3991 55.9307L37.5788 51.54L28.485 51.1807Z" stroke="#111C3A" stroke-width="0.390625" stroke-miterlimit="10" stroke-linecap="round"/>
<path d="M64.1182 51.1807L64.5088 55.7432C64.8916 60.2588 60.7822 63.8525 56.3525 62.8604L43.3291 59.9385C42.4775 59.751 41.7432 59.2041 41.3135 58.4463L41.0947 58.0557C40.6885 57.3447 40.001 56.8291 39.2041 56.6416L37.1729 56.165C37.1729 56.165 37.5791 53.5088 43.5244 53.9541C49.4697 54.4072 55.3057 54.6729 55.3057 54.6729L55.0244 51.5244L64.1182 51.1807Z" fill="white"/>
<path d="M64.1182 51.1807L64.5088 55.7432C64.8916 60.2588 60.7822 63.8525 56.3525 62.8604L43.3291 59.9385C42.4775 59.751 41.7432 59.2041 41.3135 58.4463L41.0947 58.0557C40.6885 57.3447 40.001 56.8291 39.2041 56.6416L37.1729 56.165C37.1729 56.165 37.5791 53.5088 43.5244 53.9541C49.4697 54.4072 55.3057 54.6729 55.3057 54.6729L55.0244 51.5244L64.1182 51.1807Z" stroke="#111C3A" stroke-width="0.390625" stroke-miterlimit="10" stroke-linecap="round"/>
<path d="M47.6104 37.8369H46.7744C44.9854 37.8369 43.5322 36.3838 43.5322 34.5947V26.8213H50.8604V34.5947C50.8525 36.3838 49.3994 37.8369 47.6104 37.8369Z" fill="white"/>
<path d="M47.6104 37.8369H46.7744C44.9854 37.8369 43.5322 36.3838 43.5322 34.5947V26.8213H50.8604V34.5947C50.8525 36.3838 49.3994 37.8369 47.6104 37.8369Z" stroke="#111C3A" stroke-width="0.390625" stroke-miterlimit="10" stroke-linecap="round"/>
<path d="M45.4229 19.5943C45.4229 19.5943 40.6104 22.6646 41.3448 28.7349C41.6339 31.1099 43.8995 32.7505 46.2354 32.2271C47.6651 31.9068 49.3604 31.1177 51.1104 29.3833C51.1104 29.3833 54.7432 25.0943 52.1807 21.3208C49.6182 17.5474 45.4229 19.5943 45.4229 19.5943Z" fill="white"/>
<path d="M51.1104 29.3833C51.1104 29.3833 54.7432 25.0943 52.1807 21.3208C49.6182 17.5474 45.4229 19.5943 45.4229 19.5943C45.4229 19.5943 40.6104 22.6646 41.3448 28.7349C41.6339 31.1099 43.8995 32.7505 46.2354 32.2271" stroke="#111C3A" stroke-width="0.390625" stroke-miterlimit="10" stroke-linecap="round"/>
<path d="M46.1416 19.3284C46.1416 19.3284 48.0166 21.5315 50.9541 21.7112C50.9541 21.7112 50.6963 23.4221 51.54 24.2659C51.54 24.2659 50.5947 28.1253 51.4229 28.969C51.4229 28.969 54.4072 28.2424 54.9385 25.8674C55.2275 24.5549 54.5557 22.5159 53.8994 20.9456C53.1104 19.0549 51.3994 17.6721 49.376 17.3674C47.9854 17.1409 46.6025 17.469 46.1416 19.3284Z" fill="#10002B"/>
<path d="M45.9229 19.04C45.9229 19.04 48.0244 21.5322 50.9541 21.7041C50.9541 21.7041 50.6963 23.415 51.54 24.2588C51.54 24.2588 50.5947 28.1182 51.4229 28.9619" stroke="#111C3A" stroke-width="0.390625" stroke-miterlimit="10" stroke-linecap="round"/>
<path d="M50.6728 26.3911C50.6728 26.3911 52.9541 25.2036 53.3369 26.3911C53.7197 27.5786 52.915 30.1645 51.4463 30.0239C49.9775 29.8832 49.665 28.7661 49.665 28.7661L50.6728 26.3911Z" fill="white"/>
<path d="M50.6728 26.3911C50.6728 26.3911 52.9541 25.2036 53.3369 26.3911C53.7197 27.5786 52.915 30.1645 51.4463 30.0239C49.9775 29.8832 49.665 28.7661 49.665 28.7661" stroke="#111C3A" stroke-width="0.390625" stroke-miterlimit="10" stroke-linecap="round"/>
<path d="M54.7822 54.6494L57.626 54.7979" stroke="#111C3A" stroke-width="0.390625" stroke-miterlimit="10" stroke-linecap="round"/>
<path d="M37.1729 56.1729L35.2432 56.7588" stroke="#111C3A" stroke-width="0.390625" stroke-miterlimit="10" stroke-linecap="round"/>
<path d="M28.4854 51.1807L28.7588 48.3291" stroke="#111C3A" stroke-width="0.390625" stroke-miterlimit="10" stroke-linecap="round"/>
<path d="M37.5791 51.5244L37.8291 46.376" stroke="#111C3A" stroke-width="0.390625" stroke-miterlimit="10" stroke-linecap="round"/>
<path d="M55.0244 51.5244L54.5635 46.7979" stroke="#111C3A" stroke-width="0.390625" stroke-miterlimit="10" stroke-linecap="round"/>
<path d="M64.1182 51.1807L63.8994 48.9541" stroke="#111C3A" stroke-width="0.390625" stroke-miterlimit="10" stroke-linecap="round"/>
<path d="M50.8057 27.9463C50.8057 27.9463 51.5947 28.376 52.251 27.9463" stroke="#111C3A" stroke-width="0.390625" stroke-miterlimit="10" stroke-linecap="round"/>
<path d="M43.7659 23.5631C43.6253 23.9147 43.3519 24.1256 43.1409 24.0475C42.93 23.9693 42.8831 23.6178 43.0237 23.2662C43.1644 22.9147 43.4378 22.7037 43.6487 22.7818C43.8519 22.8678 43.9066 23.2115 43.7659 23.5631Z" fill="#10002B"/>
<path d="M46.5158 24.3756C46.3752 24.7272 46.1017 24.9381 45.8908 24.86C45.6877 24.7818 45.633 24.4303 45.7736 24.0787C45.9142 23.7272 46.1877 23.5162 46.3986 23.5943C46.6017 23.6803 46.6564 24.024 46.5158 24.3756Z" fill="#10002B"/>
<path d="M44.4142 23.2892C43.9923 23.8048 43.6564 24.3751 43.4064 24.9923C43.2814 25.297 43.1798 25.6173 43.1095 25.9376C43.0314 26.2736 42.9611 26.6408 43.1251 26.9611C43.2814 27.258 43.672 27.422 43.9689 27.2501C44.1876 27.1251 43.9923 26.7892 43.7736 26.9142C43.7189 26.9455 43.6564 26.9376 43.5861 26.8986C43.4923 26.8439 43.4533 26.758 43.4298 26.6564C43.3751 26.3986 43.4689 26.1095 43.5314 25.8673C43.672 25.3283 43.883 24.8205 44.1642 24.3439C44.3205 24.0705 44.5001 23.8126 44.7033 23.5705C44.7736 23.4923 44.7814 23.3751 44.7033 23.297C44.6251 23.2189 44.4845 23.2111 44.4142 23.2892Z" fill="#111C3A"/>
<path d="M43.976 29.2984C44.3432 28.775 45.0072 28.5016 45.6322 28.6734C45.8744 28.7359 45.976 28.3609 45.7338 28.2984C44.9291 28.0797 44.1088 28.4391 43.64 29.1031C43.5775 29.1891 43.6244 29.3219 43.7103 29.3688C43.8041 29.4234 43.9135 29.3844 43.976 29.2984Z" fill="#111C3A"/>
<path d="M43.1635 22.2268C43.3041 22.2112 43.4369 22.2112 43.5776 22.2268C43.6088 22.2268 43.6401 22.2268 43.6713 22.2346C43.6244 22.2268 43.6791 22.2346 43.6869 22.2346C43.7026 22.2346 43.726 22.2424 43.7416 22.2424C43.8119 22.2581 43.8744 22.2737 43.9448 22.2893C44.0463 22.3128 44.1635 22.2581 44.1869 22.1565C44.2104 22.0549 44.1557 21.9456 44.0541 21.9143C43.7651 21.8362 43.4604 21.8049 43.1635 21.8362C43.0619 21.844 42.9604 21.9221 42.9682 22.0315C42.9682 22.1253 43.0541 22.2346 43.1635 22.2268Z" fill="#111C3A"/>
<path d="M46.0245 22.6187C46.6182 22.7515 47.1338 23.1265 47.4385 23.6499C47.5635 23.8687 47.8995 23.6734 47.7745 23.4546C47.4229 22.8452 46.8135 22.3999 46.126 22.2437C46.0245 22.2202 45.9151 22.2749 45.8838 22.3765C45.8604 22.4702 45.9229 22.5952 46.0245 22.6187Z" fill="#111C3A"/>
<path d="M1.21094 66.7422H78.7891" stroke="#111C3A" stroke-width="0.390625" stroke-miterlimit="10" stroke-linecap="round"/>
<path d="M60.1406 26.4062L61.75 25.1562C62.0703 24.9062 62.4609 24.7734 62.8672 24.7734H73.0391C74.5156 24.7734 75.7109 23.5781 75.7109 22.1016V16.5625C75.7109 15.0859 74.5156 13.8906 73.0391 13.8906H62.6016C61.125 13.8906 59.9297 15.0859 59.9297 16.5625V26.3047C59.9297 26.4141 60.0547 26.4766 60.1406 26.4062Z" fill="black"/>
<path d="M68.4375 20.6016H67.0703V19.9219C67.0703 19.6797 67.1016 19.4922 67.1641 19.3672C67.2266 19.2422 67.3594 19.0781 67.5625 18.8672L68.1719 18.2344C68.2656 18.125 68.3047 17.9844 68.3047 17.8125C68.3047 17.6406 68.2578 17.5 68.1641 17.3828C68.0703 17.2656 67.9453 17.2109 67.7891 17.2109C67.6328 17.2109 67.5 17.2812 67.3984 17.4141C67.2969 17.5469 67.2266 17.7266 67.2031 17.9531H65.7734C65.8359 17.3516 66.0547 16.8828 66.4297 16.5391C66.8047 16.1953 67.2656 16.0234 67.8281 16.0234C68.3906 16.0234 68.8437 16.1797 69.1953 16.4844C69.5469 16.7891 69.7188 17.2109 69.7188 17.75C69.7188 17.9922 69.6875 18.1719 69.625 18.2891C69.5625 18.4062 69.5234 18.4922 69.5 18.5391C69.4766 18.5937 69.4219 18.6641 69.3359 18.7656C69.25 18.8672 69.1875 18.9375 69.1641 18.9609C69.0234 19.1016 68.8828 19.2422 68.7578 19.3672C68.625 19.4922 68.5469 19.5937 68.5 19.6797C68.4609 19.7578 68.4375 19.8828 68.4375 20.0469V20.6016ZM67.2109 22.3125C67.0547 22.1562 66.9844 21.9687 66.9844 21.75C66.9844 21.5312 67.0625 21.3438 67.2109 21.1875C67.3672 21.0313 67.5547 20.9609 67.7734 20.9609C67.9922 20.9609 68.1797 21.0391 68.3359 21.1875C68.4922 21.3438 68.5625 21.5312 68.5625 21.75C68.5625 21.9687 68.4844 22.1562 68.3359 22.3125C68.1797 22.4688 67.9922 22.5391 67.7734 22.5391C67.5469 22.5391 67.3594 22.4688 67.2109 22.3125Z" fill="white"/>
<path d="M11.6953 32.3281V28.1328" stroke="#111C3A" stroke-width="0.390625" stroke-miterlimit="10" stroke-linecap="round"/>
<path d="M14.2891 32.3281V24.2266" stroke="#111C3A" stroke-width="0.390625" stroke-miterlimit="10" stroke-linecap="round"/>
<path d="M16.8828 32.3281V29.6953" stroke="#111C3A" stroke-width="0.390625" stroke-miterlimit="10" stroke-linecap="round"/>
<path d="M19.4766 32.3281V25.7891" stroke="#111C3A" stroke-width="0.390625" stroke-miterlimit="10" stroke-linecap="round"/>
<path d="M22.0703 32.3281V24.2266" stroke="#111C3A" stroke-width="0.390625" stroke-miterlimit="10" stroke-linecap="round"/>
<path d="M24.6641 32.3281V26.5703" stroke="#111C3A" stroke-width="0.390625" stroke-miterlimit="10" stroke-linecap="round"/>
<path d="M27.2578 32.3281V28.9141" stroke="#111C3A" stroke-width="0.390625" stroke-miterlimit="10" stroke-linecap="round"/>
<path d="M29.8516 32.3281V24.2266" stroke="#111C3A" stroke-width="0.390625" stroke-miterlimit="10" stroke-linecap="round"/>
<path d="M32.4453 32.3281V27.3516" stroke="#111C3A" stroke-width="0.390625" stroke-miterlimit="10" stroke-linecap="round"/>
<path d="M19.9531 41.9297H9.63281V50.6328H19.9531V41.9297Z" stroke="#111C3A" stroke-width="0.390625" stroke-miterlimit="10" stroke-linecap="round"/>
<path d="M24.1406 57.5547H11.2188C10.3438 57.5547 9.63281 56.8438 9.63281 55.9688V55.1953C9.63281 54.3203 10.3438 53.6094 11.2188 53.6094H24.1406C25.0156 53.6094 25.7266 54.3203 25.7266 55.1953V55.9688C25.7344 56.8438 25.0234 57.5547 24.1406 57.5547Z" fill="#608EDD"/>
<path d="M9.63281 60.1562H28.9844" stroke="#111C3A" stroke-width="0.390625" stroke-miterlimit="10" stroke-linecap="round"/>
<path d="M9.63281 63.2812H19.3125" stroke="#111C3A" stroke-width="0.390625" stroke-miterlimit="10" stroke-linecap="round"/>
</svg>
