<svg width="80" height="80" viewBox="0 0 80 80" fill="none" xmlns="http://www.w3.org/2000/svg">
<path d="M19.8828 44.3125L22.0312 29.3906C22.5469 25.8281 25.5938 23.1875 29.1953 23.1875C33.0625 23.1875 36.25 26.2344 36.4219 30.1016L37.1953 47.6406L19.8828 44.3125Z" fill="#10002B"/>
<path d="M19.8828 44.3125L22.0312 29.3906C22.5469 25.8281 25.5938 23.1875 29.1953 23.1875C33.0625 23.1875 36.25 26.2344 36.4219 30.1016L37.1953 47.6406L19.8828 44.3125Z" stroke="#111C3A" stroke-width="0.390625" stroke-miterlimit="10" stroke-linecap="round"/>
<path d="M14.0156 42.5625L25.1094 40.6641L36.9141 42.5625L38.8672 52.8828V66.2422H12.9844L14.0156 42.5625Z" fill="#608EDD"/>
<path d="M54.317 23.0797L55.4053 24.168L56.4935 23.0797L55.4053 21.9914L54.317 23.0797Z" fill="#608EDD"/>
<path d="M64.0744 12.6135L65.8809 14.4199L67.6873 12.6135L65.8809 10.8071L64.0744 12.6135Z" fill="#608EDD"/>
<path d="M38.175 15.4123L39.9814 17.2188L41.7879 15.4123L39.9814 13.6059L38.175 15.4123Z" fill="#608EDD"/>
<path d="M67.5141 40.7075L68.3262 41.5195L69.1382 40.7075L68.3262 39.8954L67.5141 40.7075Z" fill="#608EDD"/>
<path d="M1.64062 66.3438H7.99219" stroke="#111C3A" stroke-width="0.390625" stroke-miterlimit="10" stroke-linecap="round"/>
<path d="M60.0312 42.5391L58.2266 41.1328C57.8672 40.8516 57.4297 40.7031 56.9687 40.7031H45.5625C43.9062 40.7031 42.5703 39.3594 42.5703 37.7109V31.5C42.5703 29.8438 43.9141 28.5078 45.5625 28.5078H57.2734C58.9297 28.5078 60.2656 29.8516 60.2656 31.5V42.4219C60.2656 42.5391 60.125 42.6094 60.0312 42.5391Z" fill="black"/>
<path d="M48.3998 34.7745C48.5267 34.237 48.1939 33.6984 47.6564 33.5715C47.119 33.4446 46.5803 33.7774 46.4534 34.3149C46.3265 34.8524 46.6594 35.391 47.1968 35.5179C47.7343 35.6448 48.2729 35.312 48.3998 34.7745Z" fill="white"/>
<path d="M52.1233 35.2481C52.5138 34.8576 52.5138 34.2244 52.1233 33.8339C51.7327 33.4434 51.0996 33.4434 50.7091 33.8339C50.3185 34.2244 50.3185 34.8576 50.7091 35.2481C51.0996 35.6386 51.7327 35.6386 52.1233 35.2481Z" fill="white"/>
<path d="M56.1145 35.2471C56.505 34.8566 56.505 34.2235 56.1145 33.8329C55.7239 33.4424 55.0908 33.4424 54.7003 33.8329C54.3097 34.2235 54.3097 34.8566 54.7003 35.2471C55.0908 35.6377 55.7239 35.6377 56.1145 35.2471Z" fill="white"/>
<path d="M60.8906 33.1641L62.6953 31.7578C63.0547 31.4766 63.4922 31.3281 63.9531 31.3281H75.3672C77.0234 31.3281 78.3594 29.9844 78.3594 28.3359V22.125C78.3594 20.4688 77.0156 19.1328 75.3672 19.1328H63.6562C62 19.1328 60.6641 20.4766 60.6641 22.125V33.0469C60.6641 33.1719 60.7969 33.2422 60.8906 33.1641Z" fill="#608EDD"/>
<path d="M70.2031 26.6484H68.6719V25.8906C68.6719 25.6172 68.7109 25.4062 68.7812 25.2734C68.8516 25.1328 69 24.9453 69.2266 24.7109L69.9141 24.0078C70.0156 23.8906 70.0625 23.7266 70.0625 23.5391C70.0625 23.3437 70.0078 23.1875 69.8984 23.0625C69.7891 22.9375 69.6484 22.8672 69.4766 22.8672C69.3047 22.8672 69.1562 22.9453 69.0391 23.0938C68.9219 23.2422 68.8516 23.4453 68.8203 23.6953H67.2188C67.2891 23.0234 67.5391 22.4922 67.9531 22.1094C68.3672 21.7266 68.8906 21.5312 69.5234 21.5312C70.1484 21.5312 70.6641 21.7031 71.0547 22.0469C71.4453 22.3906 71.6484 22.8672 71.6484 23.4687C71.6484 23.7344 71.6172 23.9375 71.5469 24.0703C71.4766 24.2031 71.4297 24.2969 71.4062 24.3516C71.3828 24.4063 71.3203 24.4922 71.2187 24.6094C71.125 24.7266 71.0547 24.7969 71.0234 24.8281C70.8594 24.9922 70.7109 25.1406 70.5625 25.2812C70.4141 25.4219 70.3203 25.5391 70.2734 25.6328C70.2266 25.7266 70.2031 25.8594 70.2031 26.0391V26.6484ZM68.8203 28.5703C68.6484 28.3984 68.5625 28.1875 68.5625 27.9375C68.5625 27.6875 68.6484 27.4766 68.8203 27.3047C68.9922 27.1328 69.2031 27.0469 69.4531 27.0469C69.7031 27.0469 69.9141 27.1328 70.0859 27.3047C70.2578 27.4766 70.3438 27.6875 70.3438 27.9375C70.3438 28.1875 70.2578 28.3984 70.0859 28.5703C69.9141 28.7422 69.7031 28.8281 69.4531 28.8281C69.2031 28.8281 68.9922 28.7422 68.8203 28.5703Z" fill="white"/>
<path d="M20.9173 49.3082C21.6322 46.2806 19.7574 43.2468 16.7299 42.5319C13.7023 41.817 10.6685 43.6918 9.9536 46.7193C9.23871 49.7469 11.1135 52.7807 14.141 53.4956C17.1686 54.2105 20.2024 52.3357 20.9173 49.3082Z" fill="#608EDD"/>
<path d="M41.3841 49.4009C42.099 46.3734 40.2242 43.3396 37.1967 42.6247C34.1691 41.9098 31.1353 43.7845 30.4204 46.8121C29.7055 49.8396 31.5803 52.8735 34.6078 53.5884C37.6354 54.3033 40.6692 52.4285 41.3841 49.4009Z" fill="#608EDD"/>
<path d="M10.4375 45.4766L5.22656 54.9688L14.2109 59.8906L21.7422 48.2344L10.4375 45.4766Z" fill="#608EDD"/>
<path d="M39.4609 43.7344L50.2812 51.8828L43.1484 60.2969L32.7812 52.8359L39.4609 43.7344Z" fill="#608EDD"/>
<path d="M50.2812 51.8828L54.4609 55.0078C59.2656 58.6016 56.7266 66.2422 50.7266 66.2422H34.9375L44.5 61.2188L43.1484 60.2969L50.2812 51.8828Z" fill="white"/>
<path d="M50.2812 51.8828L54.4609 55.0078C59.2656 58.6016 56.7266 66.2422 50.7266 66.2422H34.9375L44.5 61.2188L43.1484 60.2969L50.2812 51.8828Z" stroke="#111C3A" stroke-width="0.390625" stroke-miterlimit="10" stroke-linecap="round"/>
<path d="M31.4687 36.1797V43.6875H25.6016V33.6328L31.4687 36.1797Z" fill="white"/>
<path d="M31.4687 36.1797V43.6875H25.6016V33.6328L31.4687 36.1797Z" stroke="#111C3A" stroke-width="0.390625" stroke-miterlimit="10" stroke-linecap="round"/>
<path d="M36.7031 30.5553C36.7031 30.5553 37.1953 29.7428 37.5859 30.0084C37.8438 30.1881 38.1484 31.61 38.3281 32.5397C38.4063 32.9616 38.0859 33.3522 37.6563 33.3522H37.6406C37.6328 33.3444 37.1328 31.3366 36.7031 30.5553Z" fill="white"/>
<path d="M36.7031 30.5553C36.7031 30.5553 37.1953 29.7428 37.5859 30.0084C37.8438 30.1881 38.1484 31.61 38.3281 32.5397C38.4063 32.9616 38.0859 33.3522 37.6563 33.3522H37.6406C37.6328 33.3444 37.1328 31.3366 36.7031 30.5553Z" stroke="#111C3A" stroke-width="0.390625" stroke-miterlimit="10" stroke-linecap="round"/>
<path d="M31.695 26.4064C33.0153 26.508 34.2497 27.133 35.1012 28.1486C36.4762 29.7658 38.2419 32.6721 37.6637 36.4455C36.7497 42.3986 25.8903 39.7189 25.8903 39.7189C25.8903 39.7189 20.9762 28.4455 27.5231 26.6721C27.5231 26.6799 29.3434 26.2267 31.695 26.4064Z" fill="white"/>
<path d="M31.695 26.4064C33.0153 26.508 34.2497 27.133 35.1012 28.1486C36.4762 29.7658 38.2419 32.6721 37.6637 36.4455C36.7497 42.3986 25.8903 39.7189 25.8903 39.7189C25.8903 39.7189 20.9762 28.4455 27.5231 26.6721C27.5231 26.6799 29.3434 26.2267 31.695 26.4064Z" stroke="#111C3A" stroke-width="0.390625" stroke-miterlimit="10" stroke-linecap="round"/>
<path d="M23.2889 28.9997C22.8045 34.0465 25.8905 34.8903 25.8905 34.8903C30.6561 30.8043 29.1717 26.4215 29.1717 26.4215C29.1717 26.4215 29.1639 26.3903 29.1561 26.3434C25.6483 25.3043 23.2889 28.9997 23.2889 28.9997Z" fill="#10002B"/>
<path d="M32.0312 25.234C29.0781 24.9215 29.0937 26.0465 29.1562 26.3512C29.2343 26.3746 29.3125 26.3981 29.3906 26.4293C29.3906 26.4293 32.6406 29.3277 35.7812 29.0231C35.7812 29.0231 35.4453 25.5934 32.0312 25.234Z" fill="#10002B"/>
<path d="M29.1719 26.4297C29.1719 26.4297 30.6484 30.8047 25.8906 34.8984" stroke="#111C3A" stroke-width="0.390625" stroke-miterlimit="10" stroke-linecap="round"/>
<path d="M29.1719 26.4297C29.1719 26.4297 32.6406 29.3281 35.7813 29.0234" stroke="#111C3A" stroke-width="0.390625" stroke-miterlimit="10" stroke-linecap="round"/>
<path d="M5.22625 54.9691L3.42157 58.4847C0.913753 63.3675 4.445 69.2347 9.945 69.1957C10.0309 69.1957 10.1169 69.1957 10.2028 69.1879C13.9919 69.0941 17.4684 67.0785 19.5153 63.891L29.6325 47.9379C29.6325 47.9379 32.2263 43.8832 31.32 41.9222C30.4372 40.0238 27.2028 39.1488 27.2731 35.7035C27.2809 35.4535 27.2106 35.2035 27.07 34.9926C26.8591 34.6879 26.5153 34.4222 26.1481 35.1019C26.1481 35.1019 25.6403 33.0551 25.0388 34.0941C25.0388 34.0941 24.32 32.8519 23.7184 34.0551C23.7184 34.0551 23.0856 33.5316 22.7888 34.5316C22.7888 34.5316 20.7419 40.3676 25.1872 44.0629C25.1872 44.0629 12.6325 51.8832 8.90594 56.9847L5.22625 54.9691Z" fill="white"/>
<path d="M5.22625 54.9691L3.42157 58.4847C0.913753 63.3676 4.445 69.2347 9.945 69.1957C10.0309 69.1957 10.1169 69.1957 10.2028 69.1879C13.9919 69.0941 17.4684 67.0785 19.5153 63.891L29.6325 47.9379C29.6325 47.9379 32.2263 43.8832 31.32 41.9222C30.4372 40.0238 27.2028 39.1488 27.2731 35.7035C27.2809 35.4535 27.2106 35.2035 27.07 34.9926C26.8591 34.6879 26.5153 34.4222 26.1481 35.1019C26.1481 35.1019 25.6403 33.0551 25.0388 34.0941C25.0388 34.0941 24.32 32.8519 23.7184 34.0551C23.7184 34.0551 23.0856 33.5316 22.7888 34.5316C22.7888 34.5316 20.7419 40.3676 25.1872 44.0629C25.1872 44.0629 12.6325 51.8832 8.90594 56.9847L5.22625 54.9691Z" stroke="#111C3A" stroke-width="0.390625" stroke-miterlimit="10" stroke-linecap="round"/>
<path d="M23.6407 34.1328C23.6407 34.1328 22.7267 37.6328 24.2892 40.1797" stroke="#111C3A" stroke-width="0.390625" stroke-miterlimit="10" stroke-linecap="round"/>
<path d="M24.9771 34.1328C24.9771 34.1328 23.9771 37.3672 25.563 39.8984" stroke="#111C3A" stroke-width="0.390625" stroke-miterlimit="10" stroke-linecap="round"/>
<path d="M26.0786 35.1797C26.0786 35.1797 25.7192 37.0547 27.1411 39.5625" stroke="#111C3A" stroke-width="0.390625" stroke-miterlimit="10" stroke-linecap="round"/>
<path d="M9.8125 55.8516C9.8125 55.8516 7.90625 57.9375 7.66406 60.0156" stroke="#111C3A" stroke-width="0.390625" stroke-miterlimit="10" stroke-linecap="round"/>
<path d="M38.8672 53.7266V64.1797" stroke="#111C3A" stroke-width="0.390625" stroke-miterlimit="10" stroke-linecap="round"/>
<path d="M5.22656 54.9688L7.07031 51.6094" stroke="#111C3A" stroke-width="0.390625" stroke-miterlimit="10" stroke-linecap="round"/>
<path d="M43.1484 60.2969L38.8672 57.2188" stroke="#111C3A" stroke-width="0.390625" stroke-miterlimit="10" stroke-linecap="round"/>
<path d="M50.2812 51.8828L48.7344 50.7188" stroke="#111C3A" stroke-width="0.390625" stroke-miterlimit="10" stroke-linecap="round"/>
<path d="M43.8672 61.5547L47.6484 59.5391" stroke="#111C3A" stroke-width="0.390625" stroke-miterlimit="10" stroke-linecap="round"/>
<path d="M34.1328 37.0312C34.1328 37.0312 32.7813 37.875 32.1641 36.4062" stroke="#111C3A" stroke-width="0.390625" stroke-miterlimit="10" stroke-linecap="round"/>
<path d="M31.5077 32.8435C31.6483 33.1951 31.5858 33.5545 31.3671 33.6482C31.1483 33.7342 30.8515 33.5232 30.7108 33.1717C30.5702 32.8201 30.6327 32.4607 30.8515 32.367C31.078 32.2732 31.3671 32.4842 31.5077 32.8435Z" fill="#040A2E"/>
<path d="M35.328 31.485C35.4686 31.8365 35.4061 32.1959 35.1874 32.2897C34.9686 32.3756 34.6718 32.1647 34.5311 31.8131C34.3905 31.4615 34.453 31.1022 34.6718 31.0084C34.8905 30.9225 35.1874 31.1334 35.328 31.485Z" fill="#040A2E"/>
<path d="M31.5078 30.7891C31.5078 30.7891 29.6094 31.3594 29.0859 32.8125" stroke="#111C3A" stroke-width="0.390625" stroke-miterlimit="10" stroke-linecap="round"/>
<path d="M34.8359 29.6797C34.8359 29.6797 33.4844 29.6875 32.9766 30.2734" stroke="#111C3A" stroke-width="0.390625" stroke-miterlimit="10" stroke-linecap="round"/>
<path d="M32.9291 31.3125C33.0854 31.6406 33.2651 31.9609 33.4838 32.2578C33.7026 32.5625 33.9526 32.8281 34.1948 33.1016C34.4135 33.3516 34.6245 33.6562 34.6323 34.0078C34.6323 34.2734 34.476 34.5391 34.2026 34.5859C34.101 34.6016 34.0385 34.7344 34.0698 34.8281C34.101 34.9375 34.2026 34.9844 34.312 34.9609C34.5854 34.9141 34.812 34.7109 34.9291 34.4688C35.062 34.1797 35.0541 33.8594 34.9448 33.5625C34.7182 32.9609 34.1791 32.5469 33.812 32.0313C33.6088 31.7422 33.4291 31.4375 33.2807 31.1172C33.2338 31.0234 33.101 31 33.0151 31.0469C32.9057 31.1016 32.8823 31.2187 32.9291 31.3125Z" fill="#111C3A"/>
<path d="M17.7188 66.3438H78.3594" stroke="#111C3A" stroke-width="0.390625" stroke-miterlimit="10" stroke-linecap="round"/>
<path d="M70.8438 64.3906L76.5703 47.8203C76.8984 46.8672 76.1953 45.875 75.1875 45.875H52.0547C51.7812 45.875 51.5312 46.0547 51.4453 46.3203L45.4062 65.2734H29.9219C29.6328 65.2734 29.3906 65.5078 29.3906 65.8047C29.3906 66.0937 29.625 66.3359 29.9219 66.3359H68.125C69.3516 66.3281 70.4453 65.5469 70.8438 64.3906Z" fill="#10002B"/>
<path d="M45.4922 65.0234L51.4297 46.3047C51.5078 46.0469 51.75 45.875 52.0156 45.875C52.4375 45.875 52.7344 46.2812 52.6016 46.6797L46.4297 65.6875C46.3047 66.0625 45.9531 66.3203 45.5547 66.3203H29.9219C29.6328 66.3203 29.3906 66.0859 29.3906 65.7891C29.3906 65.5 29.625 65.2578 29.9219 65.2578H45.1562C45.3047 65.2734 45.4453 65.1719 45.4922 65.0234Z" fill="#9F99AA"/>
<path d="M29.9219 66.3281C29.6328 66.3281 29.3906 66.0938 29.3906 65.7969C29.3906 65.5078 29.625 65.2656 29.9219 65.2656H45.1562C45.3125 65.2656 45.4453 65.1641 45.4922 65.0156L51.4297 46.2969C51.5078 46.0391 51.75 45.8672 52.0156 45.8672" stroke="#111C3A" stroke-width="0.390625" stroke-miterlimit="10" stroke-linecap="round"/>
<path d="M61.375 56.8125L62.5703 59.0391L64.7266 56.8125L63.3672 54.5156L61.375 56.8125Z" fill="white"/>
</svg>
