<svg width="33" height="32" viewBox="0 0 33 32" fill="none" xmlns="http://www.w3.org/2000/svg">
<path d="M12.3335 9.33333L13.0835 9.33333L12.3335 9.33333ZM13.0835 8C13.0835 7.58579 12.7477 7.25 12.3335 7.25C11.9193 7.25 11.5835 7.58579 11.5835 8L13.0835 8ZM21.0835 8C21.0835 7.58579 20.7477 7.25 20.3335 7.25C19.9193 7.25 19.5835 7.58579 19.5835 8H21.0835ZM20.3335 9.33333L21.0835 9.33333V9.33333H20.3335ZM16.3335 13.3333L16.3335 14.0833L16.3335 13.3333ZM13.0835 9.33333L13.0835 8L11.5835 8L11.5835 9.33333L13.0835 9.33333ZM19.5835 8V9.33333H21.0835V8H19.5835ZM16.3335 12.5833C14.5386 12.5833 13.0835 11.1283 13.0835 9.33333L11.5835 9.33333C11.5835 11.9567 13.7101 14.0833 16.3335 14.0833L16.3335 12.5833ZM16.3335 14.0833C18.9568 14.0833 21.0835 11.9567 21.0835 9.33333L19.5835 9.33333C19.5835 11.1283 18.1284 12.5833 16.3335 12.5833L16.3335 14.0833Z" fill="#252631"/>
<path d="M26.4097 8.45654L27.1495 8.33324L27.1495 8.33324L26.4097 8.45654ZM28.6319 21.7899L27.8921 21.9132L27.8921 21.9132L28.6319 21.7899ZM6.25753 8.45654L5.51774 8.33324L5.51774 8.33324L6.25753 8.45654ZM4.03531 21.7899L4.77511 21.9132L4.77511 21.9132L4.03531 21.7899ZM11.5183 4.75H21.1489V3.25H11.5183V4.75ZM25.6699 8.57984L27.8921 21.9132L29.3717 21.6666L27.1495 8.33324L25.6699 8.57984ZM23.3712 27.25H9.29608V28.75H23.3712V27.25ZM5.51774 8.33324L3.29552 21.6666L4.77511 21.9132L6.99733 8.57984L5.51774 8.33324ZM11.5183 3.25C8.54453 3.25 6.00662 5.39993 5.51774 8.33324L6.99733 8.57984C7.36567 6.36981 9.27779 4.75 11.5183 4.75V3.25ZM21.1489 4.75C23.3895 4.75 25.3016 6.36981 25.6699 8.57984L27.1495 8.33324C26.6606 5.39993 24.1227 3.25 21.1489 3.25V4.75ZM27.8921 21.9132C28.3578 24.7069 26.2034 27.25 23.3712 27.25V28.75C27.1303 28.75 29.9897 25.3746 29.3717 21.6666L27.8921 21.9132ZM9.29608 27.25C6.46386 27.25 4.30949 24.7069 4.77511 21.9132L3.29552 21.6666C2.67752 25.3746 5.53695 28.75 9.29608 28.75V27.25Z" fill="#252631"/>
</svg>
