<svg width="80" height="80" viewBox="0 0 80 80" fill="none" xmlns="http://www.w3.org/2000/svg">
<path d="M44.9766 40.0313H12.4531C10.1953 40.0313 8.36719 38.2031 8.36719 35.9453V16.4219C8.36719 14.1641 10.1953 12.3359 12.4531 12.3359H44.9766C47.2344 12.3359 49.0625 14.1641 49.0625 16.4219V35.9453C49.0625 38.2031 47.2344 40.0313 44.9766 40.0313Z" fill="white"/>
<path d="M44.9766 40.0313H12.4531C10.1953 40.0313 8.36719 38.2031 8.36719 35.9453V16.4219C8.36719 14.1641 10.1953 12.3359 12.4531 12.3359H44.9766C47.2344 12.3359 49.0625 14.1641 49.0625 16.4219V35.9453C49.0625 38.2031 47.2344 40.0313 44.9766 40.0313Z" stroke="#111C3A" stroke-width="0.390625" stroke-miterlimit="10" stroke-linecap="round"/>
<path d="M11.5938 35.4141H29.3672" stroke="#111C3A" stroke-width="0.390625" stroke-miterlimit="10" stroke-linecap="round"/>
<path d="M11.5938 32.2891H40.9922" stroke="#111C3A" stroke-width="0.390625" stroke-miterlimit="10" stroke-linecap="round"/>
<path d="M30.2266 29.7266H13.0625C11.9141 29.7266 10.9766 28.7969 10.9766 27.6406V18.0625C10.9766 16.9141 11.9062 15.9766 13.0625 15.9766H30.2266C31.375 15.9766 32.3125 16.9062 32.3125 18.0625V27.6406C32.3125 28.7969 31.375 29.7266 30.2266 29.7266Z" stroke="#111C3A" stroke-width="0.390625" stroke-miterlimit="10" stroke-linecap="round"/>
<path d="M38.3629 28.2604L38.9043 28.8018L39.4457 28.2604L38.9043 27.719L38.3629 28.2604Z" fill="#608EDD"/>
<path d="M35.3999 19.9057L36.792 21.2979L38.1841 19.9057L36.792 18.5136L35.3999 19.9057Z" fill="#608EDD"/>
<path d="M43.2002 15.2705L45.2441 17.3145L47.2881 15.2705L45.2441 13.2265L43.2002 15.2705Z" fill="#608EDD"/>
<path d="M57.9885 24.9854C59.3035 23.6705 59.3035 21.5385 57.9885 20.2236C56.6736 18.9086 54.5416 18.9086 53.2266 20.2236C51.9117 21.5385 51.9117 23.6705 53.2266 24.9854C54.5416 26.3004 56.6736 26.3004 57.9885 24.9854Z" fill="#10002B"/>
<path d="M48.5557 19.7031C44.5166 19.7031 41.2432 22.9766 41.2432 27.0156C41.2432 31.0547 44.5166 34.3281 48.5557 34.3281C52.5947 34.3281 55.8682 31.0547 55.8682 27.0156C55.8603 22.9766 52.5869 19.7031 48.5557 19.7031Z" fill="#10002B"/>
<path d="M59.751 46.3516C62.2449 46.3516 64.2666 44.3298 64.2666 41.8359C64.2666 39.342 62.2449 37.3203 59.751 37.3203C57.2571 37.3203 55.2354 39.342 55.2354 41.8359C55.2354 44.3298 57.2571 46.3516 59.751 46.3516Z" fill="#608EDD"/>
<path d="M43.1093 44.0612C44.8727 42.2977 44.8727 39.4386 43.1093 37.6752C41.3458 35.9117 38.4867 35.9117 36.7233 37.6752C34.9598 39.4386 34.9598 42.2977 36.7233 44.0612C38.4867 45.8246 41.3458 45.8246 43.1093 44.0612Z" fill="#608EDD"/>
<path d="M36.6182 37.7812L29.8369 44.8906L35.6885 51.5859L42.9072 44.2656L36.6182 37.7812Z" fill="#608EDD"/>
<path d="M29.8366 44.8904L27.3601 47.531L22.7351 35.3435C22.7351 35.3435 25.5163 31.367 22.7351 28.6404L22.282 22.6717C22.282 22.6717 21.3444 20.031 20.2898 22.6717L20.5476 27.3592C20.5476 27.3592 19.1569 26.1638 18.6726 27.6404C18.6726 27.6404 17.3913 27.242 17.3054 28.6638C17.3054 28.6638 16.0007 28.3201 15.7116 29.742C15.4304 31.1638 16.6726 32.2263 16.4226 32.8982C15.6101 35.031 17.1648 36.3435 17.1648 36.3435L20.8444 53.8592C21.8288 58.5388 27.6804 60.1638 30.9382 56.6717L35.6804 51.5857L29.8366 44.8904Z" fill="white"/>
<path d="M29.8366 44.8904L27.3601 47.531L22.7351 35.3435C22.7351 35.3435 25.5163 31.367 22.7351 28.6404L22.282 22.6717C22.282 22.6717 21.3445 20.031 20.2898 22.6717L20.5476 27.3592C20.5476 27.3592 19.1569 26.1638 18.6726 27.6404C18.6726 27.6404 17.3913 27.242 17.3054 28.6638C17.3054 28.6638 16.0007 28.3201 15.7116 29.742C15.4304 31.1638 16.6726 32.2263 16.4226 32.8982C15.6101 35.031 17.1648 36.3435 17.1648 36.3435L20.8444 53.8592C21.8288 58.5388 27.6804 60.1638 30.9382 56.6717L35.6804 51.5857L29.8366 44.8904Z" stroke="#111C3A" stroke-width="0.390625" stroke-miterlimit="10" stroke-linecap="round"/>
<path d="M20.6885 28.3358C20.6885 28.3358 22.3838 27.9296 23.0088 28.9374" stroke="#111C3A" stroke-width="0.390625" stroke-miterlimit="10" stroke-linecap="round"/>
<path d="M20.5479 27.3594L20.6885 31.0625C20.6885 31.0625 20.1182 32.5 19.2119 31.1797C19.2119 31.1797 18.626 33.1328 17.6807 31.9531C17.6807 31.9531 17.7744 33.3359 16.4307 32.8984" stroke="#111C3A" stroke-width="0.390625" stroke-miterlimit="10" stroke-linecap="round"/>
<path d="M19.2119 31.1797L18.7979 28.6016" stroke="#111C3A" stroke-width="0.390625" stroke-miterlimit="10" stroke-linecap="round"/>
<path d="M17.6807 31.9531L17.2041 29.6094" stroke="#111C3A" stroke-width="0.390625" stroke-miterlimit="10" stroke-linecap="round"/>
<path d="M21.5705 31.7109C21.5705 31.7109 19.758 32.6484 19.8127 34.6641" stroke="#111C3A" stroke-width="0.390625" stroke-miterlimit="10" stroke-linecap="round"/>
<path d="M27.0166 46.625L27.9619 49.1641" stroke="#111C3A" stroke-width="0.390625" stroke-miterlimit="10" stroke-linecap="round"/>
<path d="M16.7119 35.8203C16.7119 35.8203 17.2119 36.7188 18.2041 36.875" stroke="#111C3A" stroke-width="0.390625" stroke-miterlimit="10" stroke-linecap="round"/>
<path d="M63.8994 40.0312L68.665 47.8984L61.2119 52.6875L55.8916 44.1172L63.8994 40.0312Z" fill="#608EDD"/>
<path d="M39.915 36.3516L47.0479 35.8203H51.0244L60.4541 37.3125L58.9854 67.6719H38.665L37.501 44.6797L39.915 36.3516Z" fill="#608EDD"/>
<path d="M61.2119 52.6875L64.2666 57.3828V67.6641H71.9307L72.5557 59.1406C72.7822 56.2891 72.0869 53.4375 70.5869 51.0078L68.665 47.8984L61.2119 52.6875Z" fill="white"/>
<path d="M61.2119 52.6875L64.2666 57.3828V67.6641H71.9307L72.5557 59.1406C72.7822 56.2891 72.0869 53.4375 70.5869 51.0078L68.665 47.8984L61.2119 52.6875Z" stroke="#111C3A" stroke-width="0.390625" stroke-miterlimit="10" stroke-linecap="round"/>
<path d="M45.4775 32.2891L45.2432 36.6641C47.1182 38.3203 49.9307 38.3203 51.8057 36.6641L51.3213 32.2891H45.4775Z" fill="white"/>
<path d="M45.4771 32.2891L45.2662 36.3359C45.2583 36.5391 45.3365 36.7422 45.4927 36.8828L45.5083 36.8984C47.2271 38.4219 49.8208 38.4219 51.5396 36.8984C51.7037 36.75 51.7896 36.5391 51.7662 36.3203L51.3208 32.2969H45.4771V32.2891Z" stroke="#111C3A" stroke-width="0.390625" stroke-miterlimit="10" stroke-linecap="round"/>
<path d="M43.8683 25.117C43.8683 25.117 42.384 29.8748 44.9699 33.4998C46.2668 35.3123 48.2199 35.3045 49.4074 34.8436C50.5793 34.3826 51.9699 33.3514 52.4621 32.1873C53.1808 30.4764 53.8371 27.367 53.1808 25.117C52.2512 21.9061 48.7277 20.5623 46.8683 21.1873C45.009 21.8045 43.8683 25.117 43.8683 25.117Z" fill="white"/>
<path d="M43.8683 25.117C43.8683 25.117 42.384 29.8748 44.9699 33.4998C46.2668 35.3123 48.2199 35.3045 49.4074 34.8436C50.5793 34.3826 51.7277 33.6951 52.4621 32.1873C53.2668 30.5154 53.8371 27.367 53.1808 25.117C52.2512 21.9061 48.7277 20.5623 46.8683 21.1873C45.009 21.8045 43.8683 25.117 43.8683 25.117Z" stroke="#111C3A" stroke-width="0.390625" stroke-miterlimit="10" stroke-linecap="round"/>
<path d="M43.6643 27.3437C43.6643 27.3437 45.469 23.3437 47.4456 22.9297C47.4456 22.9297 49.1565 28.8593 53.8284 26.7031C53.8284 26.7031 54.219 22.4218 50.1487 21.0703C46.7268 19.9375 44.9534 21.8672 44.9534 21.8672C44.9534 21.8672 42.8518 23.3047 43.6643 27.3437Z" fill="#10002B"/>
<path d="M43.665 27.3438C43.665 27.3438 45.4697 23.3438 47.4463 22.9297C47.4463 22.9297 49.1494 28.5469 53.376 26.7969" stroke="#111C3A" stroke-width="0.390625" stroke-miterlimit="10" stroke-linecap="round"/>
<path d="M52.7041 27.2812C52.7041 27.2812 53.915 26.2812 54.3916 27.1406C54.79 27.8594 54.7666 29.2344 54.04 29.6015C52.9775 30.1406 52.1104 28.8906 52.1104 28.8906L52.7041 27.2812Z" fill="white"/>
<path d="M52.7041 27.2812C52.7041 27.2812 53.915 26.2812 54.3916 27.1406C54.79 27.8594 54.7666 29.2344 54.04 29.6015C52.9775 30.1406 52.1104 28.8906 52.1104 28.8906" stroke="#111C3A" stroke-width="0.390625" stroke-miterlimit="10" stroke-linecap="round"/>
<path d="M53.8604 28.1406C53.8604 28.1406 53.6494 28.4844 53.29 28.3516" stroke="#111C3A" stroke-width="0.390625" stroke-miterlimit="10" stroke-linecap="round"/>
<path d="M46.4307 27.8127C46.4307 28.1486 46.2979 28.422 46.126 28.422C45.9619 28.422 45.8213 28.1486 45.8213 27.8127C45.8213 27.4767 45.9541 27.2033 46.126 27.2033C46.2979 27.1955 46.4307 27.4689 46.4307 27.8127Z" fill="#10002B"/>
<path d="M49.6182 27.8127C49.6182 28.1486 49.4854 28.422 49.3135 28.422C49.1494 28.422 49.0088 28.1486 49.0088 27.8127C49.0088 27.4767 49.1416 27.2033 49.3135 27.2033C49.4775 27.1955 49.6182 27.4689 49.6182 27.8127Z" fill="#10002B"/>
<path d="M46.9852 25.8986C46.3055 25.7033 45.5477 25.9923 45.1571 26.5783C45.1024 26.6642 45.1415 26.797 45.2274 26.8439C45.3211 26.8986 45.4383 26.8595 45.493 26.7736C45.7821 26.3283 46.3758 26.1252 46.8758 26.2736C47.1258 26.3517 47.2274 25.9689 46.9852 25.8986Z" fill="#111C3A"/>
<path d="M48.9848 26.3757C49.0629 26.3757 49.141 26.3757 49.2192 26.3835C49.2035 26.3835 49.1879 26.3757 49.1645 26.3757C49.2895 26.3913 49.4145 26.4303 49.5317 26.4772C49.516 26.4694 49.5004 26.4616 49.4848 26.4538C49.5004 26.4616 49.5239 26.4694 49.5395 26.4772C49.5864 26.5007 49.6332 26.5085 49.6879 26.5007C49.7348 26.485 49.7817 26.4538 49.8051 26.4147C49.852 26.3288 49.8364 26.196 49.7348 26.1491C49.5004 26.0397 49.2426 25.9772 48.9848 25.985C48.8832 25.9928 48.7817 26.071 48.7895 26.1803C48.7895 26.2819 48.8754 26.3835 48.9848 26.3757Z" fill="#111C3A"/>
<path d="M47.6572 32.0937C47.6572 32.0937 48.3994 32.4297 49.1729 31.5" stroke="#111C3A" stroke-width="0.390625" stroke-miterlimit="10" stroke-linecap="round"/>
<path d="M47.6496 27.9063C47.6496 27.9141 47.6417 27.9766 47.6496 27.9532C47.6496 27.9297 47.6417 27.9922 47.6417 28C47.6339 28.0469 47.6183 28.1016 47.6027 28.1485C47.5714 28.2579 47.5324 28.3672 47.4933 28.4766C47.3996 28.7266 47.298 28.9688 47.2121 29.211C47.0792 29.6016 46.8996 30.1954 47.2824 30.5C47.6027 30.7579 48.048 30.6797 48.3449 30.4141C48.5324 30.25 48.2589 29.9688 48.0714 30.1407C47.9699 30.2266 47.8371 30.2891 47.6964 30.2657C47.673 30.2657 47.6417 30.25 47.6183 30.2422C47.6105 30.2422 47.5949 30.2344 47.5871 30.2266C47.5949 30.2266 47.6183 30.2422 47.5871 30.2266C47.5714 30.2188 47.5558 30.211 47.5402 30.1954C47.5167 30.1797 47.5636 30.2188 47.5402 30.1954C47.5324 30.1875 47.5246 30.1797 47.5167 30.1719C47.5089 30.1641 47.5011 30.1563 47.5011 30.1485C47.5089 30.1563 47.5246 30.1797 47.5089 30.1563C47.5011 30.1407 47.4933 30.125 47.4777 30.1094C47.4621 30.0782 47.4855 30.1407 47.4699 30.0938C47.4621 30.0704 47.4542 30.0547 47.4542 30.0313C47.4542 30.0235 47.4542 30.0079 47.4464 30C47.4464 30.0079 47.4464 30.0391 47.4464 30.0079C47.4464 29.9922 47.4464 29.9688 47.4464 29.9532C47.4464 29.9063 47.4464 29.8516 47.4542 29.8047C47.4464 29.8438 47.4621 29.7735 47.4621 29.7657C47.4699 29.7422 47.4699 29.7188 47.4777 29.6954C47.4933 29.6407 47.5011 29.586 47.5167 29.5313C47.548 29.4219 47.5871 29.3125 47.6261 29.2032C47.7042 28.9844 47.798 28.7657 47.8839 28.5391C47.9621 28.3282 48.0402 28.1172 48.048 27.8907C48.048 27.6563 47.6574 27.6563 47.6496 27.9063Z" fill="#111C3A"/>
<path d="M38.665 67.6719L37.5869 46.3594" stroke="#111C3A" stroke-width="0.390625" stroke-miterlimit="10" stroke-linecap="round"/>
<path d="M58.2432 47.8984L61.2119 52.6875" stroke="#111C3A" stroke-width="0.390625" stroke-miterlimit="10" stroke-linecap="round"/>
<path d="M68.665 47.8984L67.3135 45.6641" stroke="#111C3A" stroke-width="0.390625" stroke-miterlimit="10" stroke-linecap="round"/>
<path d="M61.8984 25.7188H72.6953C74.6641 25.7188 76.2656 27.3125 76.2656 29.2891C76.2656 31.2578 74.6719 32.8594 72.6953 32.8594H64.7891C62.2344 35.375 60.1719 34.8125 60.1719 34.8125C61.2266 34.3047 61.7266 33.5391 61.9531 32.8594H61.8984C59.9297 32.8594 58.3281 31.2656 58.3281 29.2891C58.3359 27.3125 59.9297 25.7188 61.8984 25.7188Z" fill="#10002B"/>
<path d="M61.875 28.7578H72.7266C72.9453 28.7578 73.125 28.5781 73.125 28.3594V27.5547C73.125 27.3359 72.9453 27.1562 72.7266 27.1562H61.875C61.6562 27.1562 61.4766 27.3359 61.4766 27.5547V28.3594C61.4766 28.5781 61.6562 28.7578 61.875 28.7578Z" fill="white"/>
<path d="M61.875 31.375H67.3359C67.5547 31.375 67.7344 31.1953 67.7344 30.9766V30.1719C67.7344 29.9531 67.5547 29.7734 67.3359 29.7734H61.875C61.6562 29.7734 61.4766 29.9531 61.4766 30.1719V30.9766C61.4766 31.1953 61.6562 31.375 61.875 31.375Z" fill="white"/>
<path d="M23.0091 24.0434C23.8054 23.2471 23.8054 21.956 23.0091 21.1597C22.2128 20.3634 20.9217 20.3634 20.1254 21.1597C19.3291 21.956 19.3291 23.2471 20.1254 24.0434C20.9217 24.8397 22.2128 24.8397 23.0091 24.0434Z" fill="#608EDD"/>
<path d="M21.4453 17.8047V19.4609" stroke="#111C3A" stroke-width="0.390625" stroke-miterlimit="10" stroke-linecap="round"/>
<path d="M23.875 18.3906L23.0391 19.8203" stroke="#111C3A" stroke-width="0.390625" stroke-miterlimit="10" stroke-linecap="round"/>
<path d="M25.6719 20.1172L24.2422 20.9375" stroke="#111C3A" stroke-width="0.390625" stroke-miterlimit="10" stroke-linecap="round"/>
<path d="M26.3672 22.5078L24.7188 22.5" stroke="#111C3A" stroke-width="0.390625" stroke-miterlimit="10" stroke-linecap="round"/>
<path d="M25.7734 24.9297L24.3438 24.0938" stroke="#111C3A" stroke-width="0.390625" stroke-miterlimit="10" stroke-linecap="round"/>
<path d="M24.0312 26.7266L23.2188 25.2891" stroke="#111C3A" stroke-width="0.390625" stroke-miterlimit="10" stroke-linecap="round"/>
<path d="M19.2188 26.7891L20.0625 25.3672" stroke="#111C3A" stroke-width="0.390625" stroke-miterlimit="10" stroke-linecap="round"/>
<path d="M17.4297 25.0469L18.8828 24.2422" stroke="#111C3A" stroke-width="0.390625" stroke-miterlimit="10" stroke-linecap="round"/>
<path d="M16.7656 22.6406L18.4219 22.6719" stroke="#111C3A" stroke-width="0.390625" stroke-miterlimit="10" stroke-linecap="round"/>
<path d="M17.3984 20.2266L18.8125 21.0859" stroke="#111C3A" stroke-width="0.390625" stroke-miterlimit="10" stroke-linecap="round"/>
<path d="M19.1562 18.4531L19.9531 19.9063" stroke="#111C3A" stroke-width="0.390625" stroke-miterlimit="10" stroke-linecap="round"/>
<path d="M9.35956 65.9219L4.17988 50.9219C3.883 50.0625 4.52363 49.1641 5.42988 49.1641H26.3596C26.6096 49.1641 26.8283 49.3281 26.9064 49.5625L32.3674 66.7109H46.383C46.6486 66.7109 46.8596 66.9219 46.8596 67.1875C46.8596 67.4531 46.6486 67.6641 46.383 67.6641H11.8205C10.7111 67.6719 9.72675 66.9688 9.35956 65.9219Z" fill="#10002B"/>
<path d="M32.2975 66.4922L26.9225 49.5625C26.8522 49.3281 26.6334 49.1719 26.3912 49.1719C26.0084 49.1719 25.7428 49.5391 25.86 49.8984L31.4459 67.0937C31.5553 67.4375 31.8756 67.6641 32.235 67.6641H46.3834C46.649 67.6641 46.86 67.4531 46.86 67.1875C46.86 66.9219 46.649 66.7109 46.3834 66.7109H32.6022C32.4693 66.7109 32.3443 66.625 32.2975 66.4922Z" fill="#9F99AA"/>
<path d="M46.3828 67.6719C46.6484 67.6719 46.8594 67.4609 46.8594 67.1953C46.8594 66.9297 46.6484 66.7187 46.3828 66.7187H32.6016C32.4609 66.7187 32.3359 66.625 32.2969 66.4922L26.9219 49.5625C26.8516 49.3281 26.6328 49.1719 26.3906 49.1719" stroke="#111C3A" stroke-width="0.390625" stroke-miterlimit="10" stroke-linecap="round"/>
<path d="M17.9297 59.0547L16.8516 61.0781L14.8984 59.0547L16.125 56.9844L17.9297 59.0547Z" fill="white"/>
<path d="M1.64062 67.6719H78.3594" stroke="#111C3A" stroke-width="0.390625" stroke-miterlimit="10" stroke-linecap="round"/>
</svg>
