<svg width="342" height="171" viewBox="0 0 342 171" fill="none" xmlns="http://www.w3.org/2000/svg">
<rect width="342" height="171" rx="8" fill="url(#paint0_linear_1310_212)"/>
<g opacity="0.2">
<ellipse cx="297.5" cy="143.063" rx="16.75" ry="6.97917" stroke="white" stroke-width="1.5" stroke-linejoin="round"/>
<circle cx="297.5" cy="119.333" r="8.375" stroke="white" stroke-width="1.5" stroke-linejoin="round"/>
<path fill-rule="evenodd" clip-rule="evenodd" d="M279.592 135.555C277.234 135.826 275.111 136.335 273.393 137.023C272.078 137.549 270.963 138.194 270.165 138.949C269.365 139.705 268.833 140.623 268.833 141.667C268.833 142.71 269.365 143.629 270.165 144.385C270.963 145.14 272.078 145.785 273.393 146.311C274.301 146.675 275.323 146.988 276.433 147.243C276.074 146.671 275.787 146.08 275.577 145.473C274.996 145.305 274.452 145.119 273.95 144.919C272.739 144.434 271.81 143.876 271.195 143.295C270.583 142.716 270.333 142.165 270.333 141.667C270.333 141.169 270.583 140.618 271.195 140.039C271.81 139.457 272.739 138.899 273.95 138.415C274.993 137.998 276.217 137.647 277.575 137.382C278.156 136.739 278.831 136.128 279.592 135.555Z" fill="white"/>
<path fill-rule="evenodd" clip-rule="evenodd" d="M319.423 145.473C319.213 146.08 318.926 146.671 318.567 147.243C319.677 146.988 320.699 146.675 321.607 146.311C322.922 145.785 324.037 145.14 324.835 144.385C325.635 143.629 326.167 142.71 326.167 141.667C326.167 140.623 325.635 139.705 324.835 138.949C324.037 138.194 322.922 137.549 321.607 137.023C319.889 136.335 317.766 135.826 315.408 135.555C316.169 136.128 316.844 136.739 317.424 137.382C318.783 137.647 320.007 137.998 321.05 138.415C322.261 138.899 323.19 139.457 323.804 140.039C324.417 140.618 324.667 141.169 324.667 141.667C324.667 142.165 324.417 142.716 323.804 143.295C323.19 143.876 322.261 144.434 321.05 144.919C320.548 145.119 320.004 145.305 319.423 145.473Z" fill="white"/>
<path fill-rule="evenodd" clip-rule="evenodd" d="M309.463 126.529C309.202 126.963 308.917 127.382 308.611 127.783C309.467 128.215 310.434 128.458 311.458 128.458C314.956 128.458 317.792 125.623 317.792 122.125C317.792 118.627 314.956 115.792 311.458 115.792C311.307 115.792 311.158 115.797 311.009 115.807C311.136 116.293 311.237 116.789 311.31 117.294C311.36 117.292 311.409 117.292 311.458 117.292C314.128 117.292 316.292 119.455 316.292 122.125C316.292 124.794 314.128 126.958 311.458 126.958C310.747 126.958 310.072 126.804 309.463 126.529Z" fill="white"/>
<path fill-rule="evenodd" clip-rule="evenodd" d="M283.991 115.807C283.842 115.797 283.693 115.792 283.542 115.792C280.044 115.792 277.208 118.627 277.208 122.125C277.208 125.623 280.044 128.458 283.542 128.458C284.566 128.458 285.533 128.215 286.389 127.783C286.083 127.382 285.798 126.963 285.537 126.529C284.928 126.804 284.253 126.958 283.542 126.958C280.872 126.958 278.708 124.794 278.708 122.125C278.708 119.455 280.872 117.292 283.542 117.292C283.591 117.292 283.64 117.292 283.69 117.294C283.763 116.789 283.864 116.293 283.991 115.807Z" fill="white"/>
</g>
<path d="M22.24 35.2C21.08 35.2 20.1067 35.0267 19.32 34.68C18.5333 34.32 17.9267 33.86 17.5 33.3C17.0867 32.7267 16.8667 32.12 16.84 31.48C16.84 31.3733 16.88 31.28 16.96 31.2C17.0533 31.1067 17.16 31.06 17.28 31.06H18.3C18.46 31.06 18.58 31.1 18.66 31.18C18.74 31.26 18.7933 31.3533 18.82 31.46C18.8867 31.78 19.0467 32.1 19.3 32.42C19.5667 32.7267 19.9333 32.9867 20.4 33.2C20.88 33.4 21.4933 33.5 22.24 33.5C23.3867 33.5 24.2267 33.3 24.76 32.9C25.3067 32.4867 25.58 31.94 25.58 31.26C25.58 30.7933 25.4333 30.42 25.14 30.14C24.86 29.8467 24.4267 29.5867 23.84 29.36C23.2533 29.1333 22.4933 28.8867 21.56 28.62C20.5867 28.34 19.78 28.0333 19.14 27.7C18.5 27.3667 18.02 26.9533 17.7 26.46C17.3933 25.9667 17.24 25.34 17.24 24.58C17.24 23.86 17.4333 23.22 17.82 22.66C18.2067 22.0867 18.76 21.6333 19.48 21.3C20.2133 20.9667 21.1 20.8 22.14 20.8C22.9667 20.8 23.6867 20.9133 24.3 21.14C24.9267 21.3533 25.4467 21.6467 25.86 22.02C26.2733 22.38 26.5867 22.7733 26.8 23.2C27.0133 23.6133 27.1267 24.02 27.14 24.42C27.14 24.5133 27.1067 24.6067 27.04 24.7C26.9733 24.78 26.8667 24.82 26.72 24.82H25.66C25.5667 24.82 25.4667 24.7933 25.36 24.74C25.2667 24.6867 25.1933 24.5867 25.14 24.44C25.06 23.8933 24.7533 23.4333 24.22 23.06C23.6867 22.6867 22.9933 22.5 22.14 22.5C21.2733 22.5 20.5667 22.6667 20.02 23C19.4867 23.3333 19.22 23.8533 19.22 24.56C19.22 25.0133 19.3467 25.3933 19.6 25.7C19.8533 25.9933 20.2533 26.2533 20.8 26.48C21.3467 26.7067 22.06 26.9467 22.94 27.2C24.0067 27.4933 24.88 27.8067 25.56 28.14C26.24 28.46 26.74 28.8667 27.06 29.36C27.3933 29.84 27.56 30.46 27.56 31.22C27.56 32.06 27.34 32.78 26.9 33.38C26.46 33.9667 25.84 34.42 25.04 34.74C24.2533 35.0467 23.32 35.2 22.24 35.2ZM34.0614 35.2C32.6881 35.2 31.5947 34.78 30.7814 33.94C29.9681 33.0867 29.5214 31.9267 29.4414 30.46C29.4281 30.2867 29.4214 30.0667 29.4214 29.8C29.4214 29.52 29.4281 29.2933 29.4414 29.12C29.4947 28.1733 29.7147 27.3467 30.1014 26.64C30.4881 25.92 31.0147 25.3667 31.6814 24.98C32.3614 24.5933 33.1547 24.4 34.0614 24.4C35.0747 24.4 35.9214 24.6133 36.6014 25.04C37.2947 25.4667 37.8214 26.0733 38.1814 26.86C38.5414 27.6467 38.7214 28.5667 38.7214 29.62V29.96C38.7214 30.1067 38.6747 30.22 38.5814 30.3C38.5014 30.38 38.3947 30.42 38.2614 30.42H31.3414C31.3414 30.4333 31.3414 30.46 31.3414 30.5C31.3414 30.54 31.3414 30.5733 31.3414 30.6C31.3681 31.1467 31.4881 31.66 31.7014 32.14C31.9147 32.6067 32.2214 32.9867 32.6214 33.28C33.0214 33.5733 33.5014 33.72 34.0614 33.72C34.5414 33.72 34.9414 33.6467 35.2614 33.5C35.5814 33.3533 35.8414 33.1933 36.0414 33.02C36.2414 32.8333 36.3747 32.6933 36.4414 32.6C36.5614 32.4267 36.6547 32.3267 36.7214 32.3C36.7881 32.26 36.8947 32.24 37.0414 32.24H38.0014C38.1347 32.24 38.2414 32.28 38.3214 32.36C38.4147 32.4267 38.4547 32.5267 38.4414 32.66C38.4281 32.86 38.3214 33.1067 38.1214 33.4C37.9214 33.68 37.6347 33.96 37.2614 34.24C36.8881 34.52 36.4347 34.7533 35.9014 34.94C35.3681 35.1133 34.7547 35.2 34.0614 35.2ZM31.3414 29.04H36.8214V28.98C36.8214 28.38 36.7081 27.8467 36.4814 27.38C36.2681 26.9133 35.9547 26.5467 35.5414 26.28C35.1281 26 34.6347 25.86 34.0614 25.86C33.4881 25.86 32.9947 26 32.5814 26.28C32.1814 26.5467 31.8747 26.9133 31.6614 27.38C31.4481 27.8467 31.3414 28.38 31.3414 28.98V29.04ZM41.5928 35C41.4595 35 41.3461 34.96 41.2528 34.88C41.1728 34.7867 41.1328 34.6733 41.1328 34.54V21.26C41.1328 21.1267 41.1728 21.02 41.2528 20.94C41.3461 20.8467 41.4595 20.8 41.5928 20.8H42.5328C42.6795 20.8 42.7928 20.8467 42.8728 20.94C42.9528 21.02 42.9928 21.1267 42.9928 21.26V34.54C42.9928 34.6733 42.9528 34.7867 42.8728 34.88C42.7928 34.96 42.6795 35 42.5328 35H41.5928ZM48.8761 35.2C48.2094 35.2 47.6028 35.0667 47.0561 34.8C46.5094 34.5333 46.0694 34.1733 45.7361 33.72C45.4028 33.2667 45.2361 32.7533 45.2361 32.18C45.2361 31.26 45.6094 30.5267 46.3561 29.98C47.1028 29.4333 48.0761 29.0733 49.2761 28.9L52.2561 28.48V27.9C52.2561 27.26 52.0694 26.76 51.6961 26.4C51.3361 26.04 50.7428 25.86 49.9161 25.86C49.3161 25.86 48.8294 25.98 48.4561 26.22C48.0961 26.46 47.8428 26.7667 47.6961 27.14C47.6161 27.34 47.4761 27.44 47.2761 27.44H46.3761C46.2294 27.44 46.1161 27.4 46.0361 27.32C45.9694 27.2267 45.9361 27.12 45.9361 27C45.9361 26.8 46.0094 26.5533 46.1561 26.26C46.3161 25.9667 46.5561 25.68 46.8761 25.4C47.1961 25.12 47.6028 24.8867 48.0961 24.7C48.6028 24.5 49.2161 24.4 49.9361 24.4C50.7361 24.4 51.4094 24.5067 51.9561 24.72C52.5028 24.92 52.9294 25.1933 53.2361 25.54C53.5561 25.8867 53.7828 26.28 53.9161 26.72C54.0628 27.16 54.1361 27.6067 54.1361 28.06V34.54C54.1361 34.6733 54.0894 34.7867 53.9961 34.88C53.9161 34.96 53.8094 35 53.6761 35H52.7561C52.6094 35 52.4961 34.96 52.4161 34.88C52.3361 34.7867 52.2961 34.6733 52.2961 34.54V33.68C52.1228 33.92 51.8894 34.16 51.5961 34.4C51.3028 34.6267 50.9361 34.82 50.4961 34.98C50.0561 35.1267 49.5161 35.2 48.8761 35.2ZM49.2961 33.7C49.8428 33.7 50.3428 33.5867 50.7961 33.36C51.2494 33.12 51.6028 32.7533 51.8561 32.26C52.1228 31.7667 52.2561 31.1467 52.2561 30.4V29.84L49.9361 30.18C48.9894 30.3133 48.2761 30.54 47.7961 30.86C47.3161 31.1667 47.0761 31.56 47.0761 32.04C47.0761 32.4133 47.1828 32.7267 47.3961 32.98C47.6228 33.22 47.9028 33.4 48.2361 33.52C48.5828 33.64 48.9361 33.7 49.2961 33.7ZM57.4713 35C57.3379 35 57.2246 34.96 57.1313 34.88C57.0513 34.7867 57.0113 34.6733 57.0113 34.54V25.06C57.0113 24.9267 57.0513 24.82 57.1313 24.74C57.2246 24.6467 57.3379 24.6 57.4713 24.6H58.3713C58.5046 24.6 58.6113 24.6467 58.6913 24.74C58.7846 24.82 58.8313 24.9267 58.8313 25.06V25.76C59.1379 25.3467 59.5246 25.02 59.9913 24.78C60.4579 24.5267 61.0179 24.4 61.6713 24.4C63.1779 24.3867 64.2446 25 64.8713 26.24C65.1779 25.68 65.6246 25.2333 66.2113 24.9C66.7979 24.5667 67.4646 24.4 68.2113 24.4C68.9046 24.4 69.5313 24.56 70.0913 24.88C70.6646 25.2 71.1113 25.6867 71.4313 26.34C71.7646 26.98 71.9313 27.7867 71.9313 28.76V34.54C71.9313 34.6733 71.8846 34.7867 71.7913 34.88C71.7113 34.96 71.6046 35 71.4713 35H70.5313C70.3979 35 70.2846 34.96 70.1913 34.88C70.1113 34.7867 70.0713 34.6733 70.0713 34.54V28.94C70.0713 28.1933 69.9646 27.6067 69.7513 27.18C69.5379 26.7533 69.2513 26.4533 68.8913 26.28C68.5313 26.1067 68.1379 26.02 67.7113 26.02C67.3646 26.02 67.0113 26.1067 66.6513 26.28C66.2913 26.4533 65.9913 26.7533 65.7513 27.18C65.5246 27.6067 65.4113 28.1933 65.4113 28.94V34.54C65.4113 34.6733 65.3646 34.7867 65.2713 34.88C65.1913 34.96 65.0846 35 64.9513 35H64.0113C63.8779 35 63.7646 34.96 63.6713 34.88C63.5913 34.7867 63.5513 34.6733 63.5513 34.54V28.94C63.5513 28.1933 63.4379 27.6067 63.2113 27.18C62.9846 26.7533 62.6913 26.4533 62.3313 26.28C61.9713 26.1067 61.5913 26.02 61.1913 26.02C60.8446 26.02 60.4913 26.1067 60.1313 26.28C59.7713 26.4533 59.4713 26.7533 59.2313 27.18C59.0046 27.6067 58.8913 28.1867 58.8913 28.92V34.54C58.8913 34.6733 58.8446 34.7867 58.7513 34.88C58.6713 34.96 58.5646 35 58.4313 35H57.4713ZM77.6847 35.2C77.018 35.2 76.4114 35.0667 75.8647 34.8C75.318 34.5333 74.878 34.1733 74.5447 33.72C74.2114 33.2667 74.0447 32.7533 74.0447 32.18C74.0447 31.26 74.418 30.5267 75.1647 29.98C75.9114 29.4333 76.8847 29.0733 78.0847 28.9L81.0647 28.48V27.9C81.0647 27.26 80.878 26.76 80.5047 26.4C80.1447 26.04 79.5514 25.86 78.7247 25.86C78.1247 25.86 77.638 25.98 77.2647 26.22C76.9047 26.46 76.6514 26.7667 76.5047 27.14C76.4247 27.34 76.2847 27.44 76.0847 27.44H75.1847C75.038 27.44 74.9247 27.4 74.8447 27.32C74.778 27.2267 74.7447 27.12 74.7447 27C74.7447 26.8 74.818 26.5533 74.9647 26.26C75.1247 25.9667 75.3647 25.68 75.6847 25.4C76.0047 25.12 76.4114 24.8867 76.9047 24.7C77.4114 24.5 78.0247 24.4 78.7447 24.4C79.5447 24.4 80.218 24.5067 80.7647 24.72C81.3114 24.92 81.738 25.1933 82.0447 25.54C82.3647 25.8867 82.5914 26.28 82.7247 26.72C82.8714 27.16 82.9447 27.6067 82.9447 28.06V34.54C82.9447 34.6733 82.898 34.7867 82.8047 34.88C82.7247 34.96 82.618 35 82.4847 35H81.5647C81.418 35 81.3047 34.96 81.2247 34.88C81.1447 34.7867 81.1047 34.6733 81.1047 34.54V33.68C80.9314 33.92 80.698 34.16 80.4047 34.4C80.1114 34.6267 79.7447 34.82 79.3047 34.98C78.8647 35.1267 78.3247 35.2 77.6847 35.2ZM78.1047 33.7C78.6514 33.7 79.1514 33.5867 79.6047 33.36C80.058 33.12 80.4114 32.7533 80.6647 32.26C80.9314 31.7667 81.0647 31.1467 81.0647 30.4V29.84L78.7447 30.18C77.798 30.3133 77.0847 30.54 76.6047 30.86C76.1247 31.1667 75.8847 31.56 75.8847 32.04C75.8847 32.4133 75.9914 32.7267 76.2047 32.98C76.4314 33.22 76.7114 33.4 77.0447 33.52C77.3914 33.64 77.7447 33.7 78.1047 33.7ZM89.7822 35C89.0355 35 88.4289 34.86 87.9622 34.58C87.4955 34.2867 87.1555 33.88 86.9422 33.36C86.7289 32.8267 86.6222 32.2 86.6222 31.48V26.2H85.0622C84.9289 26.2 84.8155 26.16 84.7222 26.08C84.6422 25.9867 84.6022 25.8733 84.6022 25.74V25.06C84.6022 24.9267 84.6422 24.82 84.7222 24.74C84.8155 24.6467 84.9289 24.6 85.0622 24.6H86.6222V21.26C86.6222 21.1267 86.6622 21.02 86.7422 20.94C86.8355 20.8467 86.9489 20.8 87.0822 20.8H88.0222C88.1555 20.8 88.2622 20.8467 88.3422 20.94C88.4355 21.02 88.4822 21.1267 88.4822 21.26V24.6H90.9622C91.0955 24.6 91.2022 24.6467 91.2822 24.74C91.3755 24.82 91.4222 24.9267 91.4222 25.06V25.74C91.4222 25.8733 91.3755 25.9867 91.2822 26.08C91.2022 26.16 91.0955 26.2 90.9622 26.2H88.4822V31.34C88.4822 31.9667 88.5889 32.46 88.8022 32.82C89.0155 33.18 89.3955 33.36 89.9422 33.36H91.1622C91.2955 33.36 91.4022 33.4067 91.4822 33.5C91.5755 33.58 91.6222 33.6867 91.6222 33.82V34.54C91.6222 34.6733 91.5755 34.7867 91.4822 34.88C91.4022 34.96 91.2955 35 91.1622 35H89.7822ZM102.237 35.2C101.504 35.2 100.87 35.0733 100.337 34.82C99.8037 34.5533 99.3637 34.2 99.017 33.76C98.6837 33.3067 98.4304 32.7933 98.257 32.22C98.097 31.6467 98.0037 31.04 97.977 30.4C97.9637 30.1867 97.957 29.9867 97.957 29.8C97.957 29.6133 97.9637 29.4133 97.977 29.2C98.0037 28.5733 98.097 27.9733 98.257 27.4C98.4304 26.8267 98.6837 26.3133 99.017 25.86C99.3637 25.4067 99.8037 25.0533 100.337 24.8C100.87 24.5333 101.504 24.4 102.237 24.4C103.024 24.4 103.677 24.54 104.197 24.82C104.717 25.1 105.144 25.4467 105.477 25.86V21.26C105.477 21.1267 105.517 21.02 105.597 20.94C105.69 20.8467 105.804 20.8 105.937 20.8H106.897C107.03 20.8 107.137 20.8467 107.217 20.94C107.31 21.02 107.357 21.1267 107.357 21.26V34.54C107.357 34.6733 107.31 34.7867 107.217 34.88C107.137 34.96 107.03 35 106.897 35H105.997C105.85 35 105.737 34.96 105.657 34.88C105.577 34.7867 105.537 34.6733 105.537 34.54V33.7C105.204 34.1267 104.77 34.4867 104.237 34.78C103.704 35.06 103.037 35.2 102.237 35.2ZM102.657 33.58C103.324 33.58 103.857 33.4267 104.257 33.12C104.657 32.8133 104.957 32.4267 105.157 31.96C105.357 31.48 105.464 30.9933 105.477 30.5C105.49 30.2867 105.497 30.0333 105.497 29.74C105.497 29.4333 105.49 29.1733 105.477 28.96C105.464 28.4933 105.35 28.0333 105.137 27.58C104.937 27.1267 104.63 26.7533 104.217 26.46C103.817 26.1667 103.297 26.02 102.657 26.02C101.977 26.02 101.437 26.1733 101.037 26.48C100.637 26.7733 100.35 27.1667 100.177 27.66C100.004 28.14 99.9037 28.66 99.877 29.22C99.8637 29.6067 99.8637 29.9933 99.877 30.38C99.9037 30.94 100.004 31.4667 100.177 31.96C100.35 32.44 100.637 32.8333 101.037 33.14C101.437 33.4333 101.977 33.58 102.657 33.58ZM113.232 35.2C112.565 35.2 111.958 35.0667 111.412 34.8C110.865 34.5333 110.425 34.1733 110.092 33.72C109.758 33.2667 109.592 32.7533 109.592 32.18C109.592 31.26 109.965 30.5267 110.712 29.98C111.458 29.4333 112.432 29.0733 113.632 28.9L116.612 28.48V27.9C116.612 27.26 116.425 26.76 116.052 26.4C115.692 26.04 115.098 25.86 114.272 25.86C113.672 25.86 113.185 25.98 112.812 26.22C112.452 26.46 112.198 26.7667 112.052 27.14C111.972 27.34 111.832 27.44 111.632 27.44H110.732C110.585 27.44 110.472 27.4 110.392 27.32C110.325 27.2267 110.292 27.12 110.292 27C110.292 26.8 110.365 26.5533 110.512 26.26C110.672 25.9667 110.912 25.68 111.232 25.4C111.552 25.12 111.958 24.8867 112.452 24.7C112.958 24.5 113.572 24.4 114.292 24.4C115.092 24.4 115.765 24.5067 116.312 24.72C116.858 24.92 117.285 25.1933 117.592 25.54C117.912 25.8867 118.138 26.28 118.272 26.72C118.418 27.16 118.492 27.6067 118.492 28.06V34.54C118.492 34.6733 118.445 34.7867 118.352 34.88C118.272 34.96 118.165 35 118.032 35H117.112C116.965 35 116.852 34.96 116.772 34.88C116.692 34.7867 116.652 34.6733 116.652 34.54V33.68C116.478 33.92 116.245 34.16 115.952 34.4C115.658 34.6267 115.292 34.82 114.852 34.98C114.412 35.1267 113.872 35.2 113.232 35.2ZM113.652 33.7C114.198 33.7 114.698 33.5867 115.152 33.36C115.605 33.12 115.958 32.7533 116.212 32.26C116.478 31.7667 116.612 31.1467 116.612 30.4V29.84L114.292 30.18C113.345 30.3133 112.632 30.54 112.152 30.86C111.672 31.1667 111.432 31.56 111.432 32.04C111.432 32.4133 111.538 32.7267 111.752 32.98C111.978 33.22 112.258 33.4 112.592 33.52C112.938 33.64 113.292 33.7 113.652 33.7ZM125.329 35C124.582 35 123.976 34.86 123.509 34.58C123.042 34.2867 122.702 33.88 122.489 33.36C122.276 32.8267 122.169 32.2 122.169 31.48V26.2H120.609C120.476 26.2 120.362 26.16 120.269 26.08C120.189 25.9867 120.149 25.8733 120.149 25.74V25.06C120.149 24.9267 120.189 24.82 120.269 24.74C120.362 24.6467 120.476 24.6 120.609 24.6H122.169V21.26C122.169 21.1267 122.209 21.02 122.289 20.94C122.382 20.8467 122.496 20.8 122.629 20.8H123.569C123.702 20.8 123.809 20.8467 123.889 20.94C123.982 21.02 124.029 21.1267 124.029 21.26V24.6H126.509C126.642 24.6 126.749 24.6467 126.829 24.74C126.922 24.82 126.969 24.9267 126.969 25.06V25.74C126.969 25.8733 126.922 25.9867 126.829 26.08C126.749 26.16 126.642 26.2 126.509 26.2H124.029V31.34C124.029 31.9667 124.136 32.46 124.349 32.82C124.562 33.18 124.942 33.36 125.489 33.36H126.709C126.842 33.36 126.949 33.4067 127.029 33.5C127.122 33.58 127.169 33.6867 127.169 33.82V34.54C127.169 34.6733 127.122 34.7867 127.029 34.88C126.949 34.96 126.842 35 126.709 35H125.329ZM131.982 35.2C131.315 35.2 130.708 35.0667 130.162 34.8C129.615 34.5333 129.175 34.1733 128.842 33.72C128.508 33.2667 128.342 32.7533 128.342 32.18C128.342 31.26 128.715 30.5267 129.462 29.98C130.208 29.4333 131.182 29.0733 132.382 28.9L135.362 28.48V27.9C135.362 27.26 135.175 26.76 134.802 26.4C134.442 26.04 133.848 25.86 133.022 25.86C132.422 25.86 131.935 25.98 131.562 26.22C131.202 26.46 130.948 26.7667 130.802 27.14C130.722 27.34 130.582 27.44 130.382 27.44H129.482C129.335 27.44 129.222 27.4 129.142 27.32C129.075 27.2267 129.042 27.12 129.042 27C129.042 26.8 129.115 26.5533 129.262 26.26C129.422 25.9667 129.662 25.68 129.982 25.4C130.302 25.12 130.708 24.8867 131.202 24.7C131.708 24.5 132.322 24.4 133.042 24.4C133.842 24.4 134.515 24.5067 135.062 24.72C135.608 24.92 136.035 25.1933 136.342 25.54C136.662 25.8867 136.888 26.28 137.022 26.72C137.168 27.16 137.242 27.6067 137.242 28.06V34.54C137.242 34.6733 137.195 34.7867 137.102 34.88C137.022 34.96 136.915 35 136.782 35H135.862C135.715 35 135.602 34.96 135.522 34.88C135.442 34.7867 135.402 34.6733 135.402 34.54V33.68C135.228 33.92 134.995 34.16 134.702 34.4C134.408 34.6267 134.042 34.82 133.602 34.98C133.162 35.1267 132.622 35.2 131.982 35.2ZM132.402 33.7C132.948 33.7 133.448 33.5867 133.902 33.36C134.355 33.12 134.708 32.7533 134.962 32.26C135.228 31.7667 135.362 31.1467 135.362 30.4V29.84L133.042 30.18C132.095 30.3133 131.382 30.54 130.902 30.86C130.422 31.1667 130.182 31.56 130.182 32.04C130.182 32.4133 130.288 32.7267 130.502 32.98C130.728 33.22 131.008 33.4 131.342 33.52C131.688 33.64 132.042 33.7 132.402 33.7ZM140.577 35C140.443 35 140.33 34.96 140.237 34.88C140.157 34.7867 140.117 34.6733 140.117 34.54V25.06C140.117 24.9267 140.157 24.82 140.237 24.74C140.33 24.6467 140.443 24.6 140.577 24.6H141.517C141.65 24.6 141.757 24.6467 141.837 24.74C141.93 24.82 141.977 24.9267 141.977 25.06V25.94C142.323 25.4867 142.757 25.12 143.277 24.84C143.81 24.5467 144.49 24.4 145.317 24.4C146.183 24.4 146.917 24.5933 147.517 24.98C148.13 25.3533 148.59 25.88 148.897 26.56C149.203 27.2267 149.357 28.0067 149.357 28.9V34.54C149.357 34.6733 149.317 34.7867 149.237 34.88C149.157 34.96 149.05 35 148.917 35H147.917C147.783 35 147.67 34.96 147.577 34.88C147.497 34.7867 147.457 34.6733 147.457 34.54V29C147.457 28.0667 147.23 27.34 146.777 26.82C146.323 26.2867 145.657 26.02 144.777 26.02C143.95 26.02 143.283 26.2867 142.777 26.82C142.283 27.34 142.037 28.0667 142.037 29V34.54C142.037 34.6733 141.99 34.7867 141.897 34.88C141.817 34.96 141.71 35 141.577 35H140.577ZM156.506 39.4C155.599 39.4 154.852 39.28 154.266 39.04C153.692 38.8 153.239 38.5067 152.906 38.16C152.586 37.8267 152.352 37.4867 152.206 37.14C152.072 36.8067 151.999 36.54 151.986 36.34C151.972 36.2067 152.012 36.0933 152.106 36C152.212 35.9067 152.326 35.86 152.446 35.86H153.406C153.526 35.86 153.626 35.8867 153.706 35.94C153.786 35.9933 153.852 36.1067 153.906 36.28C153.986 36.48 154.106 36.7 154.266 36.94C154.426 37.1933 154.672 37.4067 155.006 37.58C155.339 37.7667 155.806 37.86 156.406 37.86C157.032 37.86 157.559 37.7733 157.986 37.6C158.412 37.44 158.732 37.1467 158.946 36.72C159.172 36.3067 159.286 35.7333 159.286 35V33.64C158.966 34.0533 158.546 34.4 158.026 34.68C157.506 34.9467 156.852 35.08 156.066 35.08C155.319 35.08 154.679 34.9533 154.146 34.7C153.612 34.4333 153.172 34.08 152.826 33.64C152.492 33.1867 152.239 32.6733 152.066 32.1C151.906 31.5267 151.812 30.9267 151.786 30.3C151.772 29.9267 151.772 29.56 151.786 29.2C151.812 28.5733 151.906 27.9733 152.066 27.4C152.239 26.8267 152.492 26.3133 152.826 25.86C153.172 25.4067 153.612 25.0533 154.146 24.8C154.679 24.5333 155.319 24.4 156.066 24.4C156.866 24.4 157.526 24.5533 158.046 24.86C158.579 25.1533 159.012 25.5133 159.346 25.94V25.08C159.346 24.9467 159.386 24.8333 159.466 24.74C159.559 24.6467 159.672 24.6 159.806 24.6H160.726C160.859 24.6 160.972 24.6467 161.066 24.74C161.159 24.8333 161.206 24.9467 161.206 25.08V34.78C161.206 35.6733 161.052 36.4667 160.746 37.16C160.452 37.8533 159.959 38.4 159.266 38.8C158.586 39.2 157.666 39.4 156.506 39.4ZM156.466 33.48C157.132 33.48 157.666 33.3267 158.066 33.02C158.479 32.7133 158.779 32.3267 158.966 31.86C159.166 31.3933 159.272 30.92 159.286 30.44C159.299 30.2533 159.306 30.0267 159.306 29.76C159.306 29.48 159.299 29.2467 159.286 29.06C159.272 28.58 159.166 28.1067 158.966 27.64C158.779 27.1733 158.479 26.7867 158.066 26.48C157.666 26.1733 157.132 26.02 156.466 26.02C155.799 26.02 155.266 26.1733 154.866 26.48C154.466 26.7733 154.179 27.1667 154.006 27.66C153.832 28.14 153.732 28.66 153.706 29.22C153.692 29.5667 153.692 29.92 153.706 30.28C153.732 30.84 153.832 31.3667 154.006 31.86C154.179 32.34 154.466 32.7333 154.866 33.04C155.266 33.3333 155.799 33.48 156.466 33.48ZM172.882 35.2C172.148 35.2 171.515 35.0733 170.982 34.82C170.448 34.5533 170.008 34.2 169.662 33.76C169.328 33.3067 169.075 32.7933 168.902 32.22C168.742 31.6467 168.648 31.04 168.622 30.4C168.608 30.1867 168.602 29.9867 168.602 29.8C168.602 29.6133 168.608 29.4133 168.622 29.2C168.648 28.5733 168.742 27.9733 168.902 27.4C169.075 26.8267 169.328 26.3133 169.662 25.86C170.008 25.4067 170.448 25.0533 170.982 24.8C171.515 24.5333 172.148 24.4 172.882 24.4C173.668 24.4 174.322 24.54 174.842 24.82C175.362 25.1 175.788 25.4467 176.122 25.86V21.26C176.122 21.1267 176.162 21.02 176.242 20.94C176.335 20.8467 176.448 20.8 176.582 20.8H177.542C177.675 20.8 177.782 20.8467 177.862 20.94C177.955 21.02 178.002 21.1267 178.002 21.26V34.54C178.002 34.6733 177.955 34.7867 177.862 34.88C177.782 34.96 177.675 35 177.542 35H176.642C176.495 35 176.382 34.96 176.302 34.88C176.222 34.7867 176.182 34.6733 176.182 34.54V33.7C175.848 34.1267 175.415 34.4867 174.882 34.78C174.348 35.06 173.682 35.2 172.882 35.2ZM173.302 33.58C173.968 33.58 174.502 33.4267 174.902 33.12C175.302 32.8133 175.602 32.4267 175.802 31.96C176.002 31.48 176.108 30.9933 176.122 30.5C176.135 30.2867 176.142 30.0333 176.142 29.74C176.142 29.4333 176.135 29.1733 176.122 28.96C176.108 28.4933 175.995 28.0333 175.782 27.58C175.582 27.1267 175.275 26.7533 174.862 26.46C174.462 26.1667 173.942 26.02 173.302 26.02C172.622 26.02 172.082 26.1733 171.682 26.48C171.282 26.7733 170.995 27.1667 170.822 27.66C170.648 28.14 170.548 28.66 170.522 29.22C170.508 29.6067 170.508 29.9933 170.522 30.38C170.548 30.94 170.648 31.4667 170.822 31.96C170.995 32.44 171.282 32.8333 171.682 33.14C172.082 33.4333 172.622 33.58 173.302 33.58ZM181.436 35C181.303 35 181.189 34.96 181.096 34.88C181.016 34.7867 180.976 34.6733 180.976 34.54V25.06C180.976 24.9267 181.016 24.82 181.096 24.74C181.189 24.6467 181.303 24.6 181.436 24.6H182.396C182.529 24.6 182.636 24.6467 182.716 24.74C182.796 24.82 182.836 24.9267 182.836 25.06V34.54C182.836 34.6733 182.796 34.7867 182.716 34.88C182.636 34.96 182.529 35 182.396 35H181.436ZM181.276 22.66C181.143 22.66 181.029 22.62 180.936 22.54C180.856 22.4467 180.816 22.3333 180.816 22.2V21.12C180.816 20.9867 180.856 20.88 180.936 20.8C181.029 20.7067 181.143 20.66 181.276 20.66H182.536C182.669 20.66 182.776 20.7067 182.856 20.8C182.949 20.88 182.996 20.9867 182.996 21.12V22.2C182.996 22.3333 182.949 22.4467 182.856 22.54C182.776 22.62 182.669 22.66 182.536 22.66H181.276ZM191.442 35C191.296 35 191.182 34.96 191.102 34.88C191.022 34.7867 190.982 34.6733 190.982 34.54V21.48C190.982 21.3333 191.022 21.22 191.102 21.14C191.182 21.0467 191.296 21 191.442 21H192.442C192.589 21 192.702 21.0467 192.782 21.14C192.876 21.22 192.922 21.3333 192.922 21.48V26.44L198.262 21.32C198.316 21.2667 198.402 21.2 198.522 21.12C198.656 21.04 198.829 21 199.042 21H200.122C200.229 21 200.322 21.04 200.402 21.12C200.482 21.2 200.522 21.2933 200.522 21.4C200.522 21.5067 200.496 21.5933 200.442 21.66L194.262 27.7L200.842 34.32C200.909 34.4 200.942 34.4933 200.942 34.6C200.942 34.7067 200.902 34.8 200.822 34.88C200.742 34.96 200.649 35 200.542 35H199.422C199.196 35 199.022 34.96 198.902 34.88C198.782 34.7867 198.696 34.72 198.642 34.68L192.922 29.04V34.54C192.922 34.6733 192.876 34.7867 192.782 34.88C192.702 34.96 192.589 35 192.442 35H191.442ZM207.291 35.2C206.158 35.2 205.185 35.0067 204.371 34.62C203.558 34.22 202.931 33.6133 202.491 32.8C202.051 31.9733 201.805 30.94 201.751 29.7C201.738 29.1133 201.731 28.5533 201.731 28.02C201.731 27.4733 201.738 26.9067 201.751 26.32C201.805 25.0933 202.058 24.0733 202.511 23.26C202.978 22.4333 203.618 21.82 204.431 21.42C205.258 21.0067 206.211 20.8 207.291 20.8C208.385 20.8 209.338 21.0067 210.151 21.42C210.978 21.82 211.625 22.4333 212.091 23.26C212.558 24.0733 212.811 25.0933 212.851 26.32C212.878 26.9067 212.891 27.4733 212.891 28.02C212.891 28.5533 212.878 29.1133 212.851 29.7C212.811 30.94 212.565 31.9733 212.111 32.8C211.671 33.6133 211.045 34.22 210.231 34.62C209.418 35.0067 208.438 35.2 207.291 35.2ZM207.291 33.5C208.318 33.5 209.151 33.1933 209.791 32.58C210.445 31.9667 210.798 30.9733 210.851 29.6C210.878 29 210.891 28.4667 210.891 28C210.891 27.52 210.878 26.9867 210.851 26.4C210.825 25.48 210.651 24.7333 210.331 24.16C210.025 23.5867 209.611 23.1667 209.091 22.9C208.571 22.6333 207.971 22.5 207.291 22.5C206.638 22.5 206.051 22.6333 205.531 22.9C205.011 23.1667 204.591 23.5867 204.271 24.16C203.965 24.7333 203.791 25.48 203.751 26.4C203.738 26.9867 203.731 27.52 203.731 28C203.731 28.4667 203.738 29 203.751 29.6C203.805 30.9733 204.158 31.9667 204.811 32.58C205.465 33.1933 206.291 33.5 207.291 33.5ZM216.266 35C216.133 35 216.02 34.96 215.926 34.88C215.846 34.7867 215.806 34.6733 215.806 34.54V21.48C215.806 21.3333 215.846 21.22 215.926 21.14C216.02 21.0467 216.133 21 216.266 21H217.266C217.426 21 217.546 21.04 217.626 21.12C217.706 21.2 217.753 21.2667 217.766 21.32L222.006 29.4L226.266 21.32C226.293 21.2667 226.34 21.2 226.406 21.12C226.486 21.04 226.606 21 226.766 21H227.746C227.893 21 228.006 21.0467 228.086 21.14C228.18 21.22 228.226 21.3333 228.226 21.48V34.54C228.226 34.6733 228.18 34.7867 228.086 34.88C228.006 34.96 227.893 35 227.746 35H226.766C226.633 35 226.52 34.96 226.426 34.88C226.346 34.7867 226.306 34.6733 226.306 34.54V24.7L222.966 31.22C222.913 31.3533 222.833 31.46 222.726 31.54C222.62 31.6067 222.486 31.64 222.326 31.64H221.706C221.533 31.64 221.393 31.6067 221.286 31.54C221.193 31.46 221.113 31.3533 221.046 31.22L217.706 24.7V34.54C217.706 34.6733 217.66 34.7867 217.566 34.88C217.486 34.96 217.38 35 217.246 35H216.266ZM236.965 35.2C235.845 35.2 234.879 35 234.065 34.6C233.265 34.2 232.645 33.5933 232.205 32.78C231.779 31.9533 231.565 30.8933 231.565 29.6V21.48C231.565 21.3333 231.605 21.22 231.685 21.14C231.765 21.0467 231.879 21 232.025 21H233.045C233.192 21 233.305 21.0467 233.385 21.14C233.479 21.22 233.525 21.3333 233.525 21.48V29.64C233.525 30.9467 233.832 31.9133 234.445 32.54C235.059 33.1667 235.899 33.48 236.965 33.48C238.019 33.48 238.852 33.1667 239.465 32.54C240.092 31.9133 240.405 30.9467 240.405 29.64V21.48C240.405 21.3333 240.445 21.22 240.525 21.14C240.619 21.0467 240.732 21 240.865 21H241.905C242.039 21 242.145 21.0467 242.225 21.14C242.319 21.22 242.365 21.3333 242.365 21.48V29.6C242.365 30.8933 242.145 31.9533 241.705 32.78C241.279 33.5933 240.665 34.2 239.865 34.6C239.065 35 238.099 35.2 236.965 35.2ZM246.169 35C246.022 35 245.909 34.96 245.829 34.88C245.749 34.7867 245.709 34.6733 245.709 34.54V21.48C245.709 21.3333 245.749 21.22 245.829 21.14C245.909 21.0467 246.022 21 246.169 21H247.089C247.249 21 247.369 21.04 247.449 21.12C247.529 21.1867 247.575 21.24 247.589 21.28L254.229 31.48V21.48C254.229 21.3333 254.269 21.22 254.349 21.14C254.429 21.0467 254.542 21 254.689 21H255.649C255.795 21 255.909 21.0467 255.989 21.14C256.082 21.22 256.129 21.3333 256.129 21.48V34.52C256.129 34.6533 256.082 34.7667 255.989 34.86C255.909 34.9533 255.802 35 255.669 35H254.709C254.562 35 254.449 34.96 254.369 34.88C254.302 34.8 254.255 34.7467 254.229 34.72L247.609 24.62V34.54C247.609 34.6733 247.562 34.7867 247.469 34.88C247.389 34.96 247.275 35 247.129 35H246.169ZM260.055 35C259.909 35 259.795 34.96 259.715 34.88C259.635 34.7867 259.595 34.6733 259.595 34.54V21.46C259.595 21.3267 259.635 21.22 259.715 21.14C259.795 21.0467 259.909 21 260.055 21H261.115C261.249 21 261.355 21.0467 261.435 21.14C261.529 21.22 261.575 21.3267 261.575 21.46V34.54C261.575 34.6733 261.529 34.7867 261.435 34.88C261.355 34.96 261.249 35 261.115 35H260.055ZM268.584 35C268.451 35 268.338 34.96 268.244 34.88C268.164 34.7867 268.124 34.6733 268.124 34.54V22.78H264.284C264.151 22.78 264.038 22.74 263.944 22.66C263.864 22.5667 263.824 22.4533 263.824 22.32V21.48C263.824 21.3333 263.864 21.22 263.944 21.14C264.038 21.0467 264.151 21 264.284 21H273.924C274.071 21 274.184 21.0467 274.264 21.14C274.358 21.22 274.404 21.3333 274.404 21.48V22.32C274.404 22.4533 274.358 22.5667 274.264 22.66C274.184 22.74 274.071 22.78 273.924 22.78H270.104V34.54C270.104 34.6733 270.058 34.7867 269.964 34.88C269.884 34.96 269.771 35 269.624 35H268.584ZM274.222 35C274.115 35 274.022 34.96 273.942 34.88C273.862 34.8 273.822 34.7067 273.822 34.6C273.822 34.5333 273.829 34.46 273.842 34.38L278.802 21.44C278.855 21.3067 278.929 21.2 279.022 21.12C279.115 21.04 279.255 21 279.442 21H280.802C280.975 21 281.109 21.04 281.202 21.12C281.309 21.2 281.389 21.3067 281.442 21.44L286.382 34.38C286.409 34.46 286.422 34.5333 286.422 34.6C286.422 34.7067 286.382 34.8 286.302 34.88C286.222 34.96 286.129 35 286.022 35H285.002C284.842 35 284.722 34.96 284.642 34.88C284.575 34.8 284.529 34.7267 284.502 34.66L283.402 31.82H276.842L275.742 34.66C275.729 34.7267 275.682 34.8 275.602 34.88C275.522 34.96 275.402 35 275.242 35H274.222ZM277.422 30.1H282.822L280.122 23L277.422 30.1ZM292.865 35.2C291.705 35.2 290.732 35.0267 289.945 34.68C289.158 34.32 288.552 33.86 288.125 33.3C287.712 32.7267 287.492 32.12 287.465 31.48C287.465 31.3733 287.505 31.28 287.585 31.2C287.678 31.1067 287.785 31.06 287.905 31.06H288.925C289.085 31.06 289.205 31.1 289.285 31.18C289.365 31.26 289.418 31.3533 289.445 31.46C289.512 31.78 289.672 32.1 289.925 32.42C290.192 32.7267 290.558 32.9867 291.025 33.2C291.505 33.4 292.118 33.5 292.865 33.5C294.012 33.5 294.852 33.3 295.385 32.9C295.932 32.4867 296.205 31.94 296.205 31.26C296.205 30.7933 296.058 30.42 295.765 30.14C295.485 29.8467 295.052 29.5867 294.465 29.36C293.878 29.1333 293.118 28.8867 292.185 28.62C291.212 28.34 290.405 28.0333 289.765 27.7C289.125 27.3667 288.645 26.9533 288.325 26.46C288.018 25.9667 287.865 25.34 287.865 24.58C287.865 23.86 288.058 23.22 288.445 22.66C288.832 22.0867 289.385 21.6333 290.105 21.3C290.838 20.9667 291.725 20.8 292.765 20.8C293.592 20.8 294.312 20.9133 294.925 21.14C295.552 21.3533 296.072 21.6467 296.485 22.02C296.898 22.38 297.212 22.7733 297.425 23.2C297.638 23.6133 297.752 24.02 297.765 24.42C297.765 24.5133 297.732 24.6067 297.665 24.7C297.598 24.78 297.492 24.82 297.345 24.82H296.285C296.192 24.82 296.092 24.7933 295.985 24.74C295.892 24.6867 295.818 24.5867 295.765 24.44C295.685 23.8933 295.378 23.4333 294.845 23.06C294.312 22.6867 293.618 22.5 292.765 22.5C291.898 22.5 291.192 22.6667 290.645 23C290.112 23.3333 289.845 23.8533 289.845 24.56C289.845 25.0133 289.972 25.3933 290.225 25.7C290.478 25.9933 290.878 26.2533 291.425 26.48C291.972 26.7067 292.685 26.9467 293.565 27.2C294.632 27.4933 295.505 27.8067 296.185 28.14C296.865 28.46 297.365 28.8667 297.685 29.36C298.018 29.84 298.185 30.46 298.185 31.22C298.185 32.06 297.965 32.78 297.525 33.38C297.085 33.9667 296.465 34.42 295.665 34.74C294.878 35.0467 293.945 35.2 292.865 35.2ZM18.2 59C18.0533 59 17.94 58.96 17.86 58.88C17.78 58.7867 17.74 58.6733 17.74 58.54V45.46C17.74 45.3267 17.78 45.22 17.86 45.14C17.94 45.0467 18.0533 45 18.2 45H19.26C19.3933 45 19.5 45.0467 19.58 45.14C19.6733 45.22 19.72 45.3267 19.72 45.46V58.54C19.72 58.6733 19.6733 58.7867 19.58 58.88C19.5 58.96 19.3933 59 19.26 59H18.2ZM23.6688 59C23.5221 59 23.4088 58.96 23.3288 58.88C23.2488 58.7867 23.2088 58.6733 23.2088 58.54V45.48C23.2088 45.3333 23.2488 45.22 23.3288 45.14C23.4088 45.0467 23.5221 45 23.6688 45H24.5888C24.7488 45 24.8688 45.04 24.9488 45.12C25.0288 45.1867 25.0754 45.24 25.0888 45.28L31.7288 55.48V45.48C31.7288 45.3333 31.7688 45.22 31.8488 45.14C31.9288 45.0467 32.0421 45 32.1888 45H33.1488C33.2954 45 33.4088 45.0467 33.4888 45.14C33.5821 45.22 33.6288 45.3333 33.6288 45.48V58.52C33.6288 58.6533 33.5821 58.7667 33.4888 58.86C33.4088 58.9533 33.3021 59 33.1688 59H32.2088C32.0621 59 31.9488 58.96 31.8688 58.88C31.8021 58.8 31.7554 58.7467 31.7288 58.72L25.1088 48.62V58.54C25.1088 58.6733 25.0621 58.7867 24.9688 58.88C24.8888 58.96 24.7754 59 24.6288 59H23.6688ZM37.5555 59C37.4088 59 37.2955 58.96 37.2155 58.88C37.1355 58.7867 37.0955 58.6733 37.0955 58.54V45.48C37.0955 45.3333 37.1355 45.22 37.2155 45.14C37.2955 45.0467 37.4088 45 37.5555 45H42.0955C43.4688 45 44.5755 45.2067 45.4155 45.62C46.2555 46.0333 46.8688 46.6467 47.2555 47.46C47.6421 48.26 47.8421 49.2467 47.8555 50.42C47.8688 51.02 47.8755 51.5467 47.8755 52C47.8755 52.4533 47.8688 52.9733 47.8555 53.56C47.8288 54.7867 47.6221 55.8067 47.2355 56.62C46.8621 57.42 46.2621 58.02 45.4355 58.42C44.6221 58.8067 43.5421 59 42.1955 59H37.5555ZM39.0555 57.3H42.0955C43.0155 57.3 43.7488 57.1733 44.2955 56.92C44.8421 56.6667 45.2355 56.26 45.4755 55.7C45.7288 55.14 45.8621 54.4 45.8755 53.48C45.9021 53.08 45.9155 52.7333 45.9155 52.44C45.9155 52.1333 45.9155 51.8333 45.9155 51.54C45.9155 51.2333 45.9021 50.8867 45.8755 50.5C45.8488 49.2067 45.5421 48.2533 44.9555 47.64C44.3688 47.0133 43.3821 46.7 41.9955 46.7H39.0555V57.3ZM55.9045 59.2C54.7712 59.2 53.7979 59.0067 52.9845 58.62C52.1712 58.22 51.5445 57.6133 51.1045 56.8C50.6645 55.9733 50.4179 54.94 50.3645 53.7C50.3512 53.1133 50.3445 52.5533 50.3445 52.02C50.3445 51.4733 50.3512 50.9067 50.3645 50.32C50.4179 49.0933 50.6712 48.0733 51.1245 47.26C51.5912 46.4333 52.2312 45.82 53.0445 45.42C53.8712 45.0067 54.8245 44.8 55.9045 44.8C56.9979 44.8 57.9512 45.0067 58.7645 45.42C59.5912 45.82 60.2379 46.4333 60.7045 47.26C61.1712 48.0733 61.4245 49.0933 61.4645 50.32C61.4912 50.9067 61.5045 51.4733 61.5045 52.02C61.5045 52.5533 61.4912 53.1133 61.4645 53.7C61.4245 54.94 61.1779 55.9733 60.7245 56.8C60.2845 57.6133 59.6579 58.22 58.8445 58.62C58.0312 59.0067 57.0512 59.2 55.9045 59.2ZM55.9045 57.5C56.9312 57.5 57.7645 57.1933 58.4045 56.58C59.0579 55.9667 59.4112 54.9733 59.4645 53.6C59.4912 53 59.5045 52.4667 59.5045 52C59.5045 51.52 59.4912 50.9867 59.4645 50.4C59.4379 49.48 59.2645 48.7333 58.9445 48.16C58.6379 47.5867 58.2245 47.1667 57.7045 46.9C57.1845 46.6333 56.5845 46.5 55.9045 46.5C55.2512 46.5 54.6645 46.6333 54.1445 46.9C53.6245 47.1667 53.2045 47.5867 52.8845 48.16C52.5779 48.7333 52.4045 49.48 52.3645 50.4C52.3512 50.9867 52.3445 51.52 52.3445 52C52.3445 52.4667 52.3512 53 52.3645 53.6C52.4179 54.9733 52.7712 55.9667 53.4245 56.58C54.0779 57.1933 54.9045 57.5 55.9045 57.5ZM66.6039 59C66.4306 59 66.2906 58.9533 66.1839 58.86C66.0906 58.7667 66.0239 58.6333 65.9839 58.46L63.4039 45.62C63.3906 45.5667 63.3839 45.52 63.3839 45.48C63.3839 45.44 63.3839 45.4133 63.3839 45.4C63.3839 45.2933 63.4239 45.2 63.5039 45.12C63.5839 45.04 63.6772 45 63.7839 45H64.8239C65.1039 45 65.2639 45.1133 65.3039 45.34L67.3439 55.66L69.5039 48.58C69.5439 48.46 69.6106 48.3533 69.7039 48.26C69.8106 48.1533 69.9572 48.1 70.1439 48.1H70.8839C71.0839 48.1 71.2306 48.1533 71.3239 48.26C71.4172 48.3533 71.4772 48.46 71.5039 48.58L73.6839 55.66L75.7039 45.34C75.7439 45.1133 75.9106 45 76.2039 45H77.2439C77.3506 45 77.4439 45.04 77.5239 45.12C77.6039 45.2 77.6439 45.2933 77.6439 45.4C77.6439 45.4133 77.6372 45.44 77.6239 45.48C77.6239 45.52 77.6239 45.5667 77.6239 45.62L75.0439 58.46C75.0039 58.6333 74.9306 58.7667 74.8239 58.86C74.7306 58.9533 74.5972 59 74.4239 59H73.6439C73.4572 59 73.3106 58.9533 73.2039 58.86C73.0972 58.7667 73.0239 58.6467 72.9839 58.5L70.5039 50.88L68.0439 58.5C67.9906 58.6467 67.9106 58.7667 67.8039 58.86C67.7106 58.9533 67.5706 59 67.3839 59H66.6039ZM80.7195 59C80.5729 59 80.4595 58.96 80.3795 58.88C80.2995 58.7867 80.2595 58.6733 80.2595 58.54V45.46C80.2595 45.3267 80.2995 45.22 80.3795 45.14C80.4595 45.0467 80.5729 45 80.7195 45H81.7795C81.9129 45 82.0195 45.0467 82.0995 45.14C82.1929 45.22 82.2395 45.3267 82.2395 45.46V58.54C82.2395 58.6733 82.1929 58.7867 82.0995 58.88C82.0195 58.96 81.9129 59 81.7795 59H80.7195ZM86.1883 59C86.0416 59 85.9283 58.96 85.8483 58.88C85.7683 58.7867 85.7283 58.6733 85.7283 58.54V45.48C85.7283 45.3333 85.7683 45.22 85.8483 45.14C85.9283 45.0467 86.0416 45 86.1883 45H91.0683C92.5749 45 93.7683 45.3533 94.6483 46.06C95.5283 46.7667 95.9683 47.8133 95.9683 49.2C95.9683 50.2267 95.7083 51.0667 95.1883 51.72C94.6816 52.36 93.9883 52.8067 93.1083 53.06L96.1883 58.38C96.2283 58.46 96.2483 58.5333 96.2483 58.6C96.2483 58.7067 96.2016 58.8 96.1083 58.88C96.0283 58.96 95.9349 59 95.8283 59H94.8683C94.6416 59 94.4749 58.94 94.3683 58.82C94.2616 58.7 94.1683 58.58 94.0883 58.46L91.1883 53.38H87.6883V58.54C87.6883 58.6733 87.6416 58.7867 87.5483 58.88C87.4683 58.96 87.3549 59 87.2083 59H86.1883ZM87.6883 51.68H90.9883C91.9883 51.68 92.7349 51.4733 93.2283 51.06C93.7216 50.6333 93.9683 50.0067 93.9683 49.18C93.9683 48.3667 93.7216 47.7467 93.2283 47.32C92.7483 46.8933 92.0016 46.68 90.9883 46.68H87.6883V51.68ZM97.8938 59C97.7871 59 97.6938 58.96 97.6138 58.88C97.5338 58.8 97.4938 58.7067 97.4938 58.6C97.4938 58.5333 97.5004 58.46 97.5138 58.38L102.474 45.44C102.527 45.3067 102.6 45.2 102.694 45.12C102.787 45.04 102.927 45 103.114 45H104.474C104.647 45 104.78 45.04 104.874 45.12C104.98 45.2 105.06 45.3067 105.114 45.44L110.054 58.38C110.08 58.46 110.094 58.5333 110.094 58.6C110.094 58.7067 110.054 58.8 109.974 58.88C109.894 58.96 109.8 59 109.694 59H108.674C108.514 59 108.394 58.96 108.314 58.88C108.247 58.8 108.2 58.7267 108.174 58.66L107.074 55.82H100.514L99.4138 58.66C99.4004 58.7267 99.3538 58.8 99.2738 58.88C99.1938 58.96 99.0738 59 98.9138 59H97.8938ZM101.094 54.1H106.494L103.794 47L101.094 54.1ZM111.832 60.5C111.726 60.5 111.639 60.46 111.572 60.38C111.519 60.3 111.499 60.2 111.512 60.08L111.972 57.22C111.999 57.06 112.052 56.9267 112.132 56.82C112.226 56.7 112.359 56.64 112.532 56.64H113.872C113.966 56.64 114.039 56.6733 114.092 56.74C114.159 56.8067 114.192 56.8867 114.192 56.98C114.192 57.0867 114.166 57.1933 114.112 57.3L113.072 60.04C113.019 60.1733 112.946 60.28 112.852 60.36C112.772 60.4533 112.652 60.5 112.492 60.5H111.832ZM122.575 59C122.428 59 122.315 58.96 122.235 58.88C122.155 58.7867 122.115 58.6733 122.115 58.54V45.48C122.115 45.3333 122.155 45.22 122.235 45.14C122.315 45.0467 122.428 45 122.575 45H123.575C123.722 45 123.835 45.0467 123.915 45.14C124.008 45.22 124.055 45.3333 124.055 45.48V50.44L129.395 45.32C129.448 45.2667 129.535 45.2 129.655 45.12C129.788 45.04 129.962 45 130.175 45H131.255C131.362 45 131.455 45.04 131.535 45.12C131.615 45.2 131.655 45.2933 131.655 45.4C131.655 45.5067 131.628 45.5933 131.575 45.66L125.395 51.7L131.975 58.32C132.042 58.4 132.075 58.4933 132.075 58.6C132.075 58.7067 132.035 58.8 131.955 58.88C131.875 58.96 131.782 59 131.675 59H130.555C130.328 59 130.155 58.96 130.035 58.88C129.915 58.7867 129.828 58.72 129.775 58.68L124.055 53.04V58.54C124.055 58.6733 124.008 58.7867 123.915 58.88C123.835 58.96 123.722 59 123.575 59H122.575ZM137.521 59.2C136.508 59.2 135.661 59.0067 134.981 58.62C134.301 58.2333 133.781 57.7 133.421 57.02C133.061 56.3267 132.861 55.54 132.821 54.66C132.808 54.4333 132.801 54.1467 132.801 53.8C132.801 53.44 132.808 53.1533 132.821 52.94C132.861 52.0467 133.061 51.26 133.421 50.58C133.795 49.9 134.321 49.3667 135.001 48.98C135.681 48.5933 136.521 48.4 137.521 48.4C138.521 48.4 139.361 48.5933 140.041 48.98C140.721 49.3667 141.241 49.9 141.601 50.58C141.975 51.26 142.181 52.0467 142.221 52.94C142.235 53.1533 142.241 53.44 142.241 53.8C142.241 54.1467 142.235 54.4333 142.221 54.66C142.181 55.54 141.981 56.3267 141.621 57.02C141.261 57.7 140.741 58.2333 140.061 58.62C139.381 59.0067 138.535 59.2 137.521 59.2ZM137.521 57.66C138.348 57.66 139.008 57.4 139.501 56.88C139.995 56.3467 140.261 55.5733 140.301 54.56C140.315 54.36 140.321 54.1067 140.321 53.8C140.321 53.4933 140.315 53.24 140.301 53.04C140.261 52.0267 139.995 51.26 139.501 50.74C139.008 50.2067 138.348 49.94 137.521 49.94C136.695 49.94 136.028 50.2067 135.521 50.74C135.028 51.26 134.768 52.0267 134.741 53.04C134.728 53.24 134.721 53.4933 134.721 53.8C134.721 54.1067 134.728 54.36 134.741 54.56C134.768 55.5733 135.028 56.3467 135.521 56.88C136.028 57.4 136.695 57.66 137.521 57.66ZM145.206 59C145.072 59 144.959 58.96 144.866 58.88C144.786 58.7867 144.746 58.6733 144.746 58.54V49.06C144.746 48.9267 144.786 48.82 144.866 48.74C144.959 48.6467 145.072 48.6 145.206 48.6H146.106C146.239 48.6 146.346 48.6467 146.426 48.74C146.519 48.82 146.566 48.9267 146.566 49.06V49.76C146.872 49.3467 147.259 49.02 147.726 48.78C148.192 48.5267 148.752 48.4 149.406 48.4C150.912 48.3867 151.979 49 152.606 50.24C152.912 49.68 153.359 49.2333 153.946 48.9C154.532 48.5667 155.199 48.4 155.946 48.4C156.639 48.4 157.266 48.56 157.826 48.88C158.399 49.2 158.846 49.6867 159.166 50.34C159.499 50.98 159.666 51.7867 159.666 52.76V58.54C159.666 58.6733 159.619 58.7867 159.526 58.88C159.446 58.96 159.339 59 159.206 59H158.266C158.132 59 158.019 58.96 157.926 58.88C157.846 58.7867 157.806 58.6733 157.806 58.54V52.94C157.806 52.1933 157.699 51.6067 157.486 51.18C157.272 50.7533 156.986 50.4533 156.626 50.28C156.266 50.1067 155.872 50.02 155.446 50.02C155.099 50.02 154.746 50.1067 154.386 50.28C154.026 50.4533 153.726 50.7533 153.486 51.18C153.259 51.6067 153.146 52.1933 153.146 52.94V58.54C153.146 58.6733 153.099 58.7867 153.006 58.88C152.926 58.96 152.819 59 152.686 59H151.746C151.612 59 151.499 58.96 151.406 58.88C151.326 58.7867 151.286 58.6733 151.286 58.54V52.94C151.286 52.1933 151.172 51.6067 150.946 51.18C150.719 50.7533 150.426 50.4533 150.066 50.28C149.706 50.1067 149.326 50.02 148.926 50.02C148.579 50.02 148.226 50.1067 147.866 50.28C147.506 50.4533 147.206 50.7533 146.966 51.18C146.739 51.6067 146.626 52.1867 146.626 52.92V58.54C146.626 58.6733 146.579 58.7867 146.486 58.88C146.406 58.96 146.299 59 146.166 59H145.206ZM166.399 59.2C165.546 59.2 164.819 59.0133 164.219 58.64C163.632 58.2533 163.186 57.72 162.879 57.04C162.572 56.36 162.419 55.58 162.419 54.7V49.06C162.419 48.9267 162.459 48.82 162.539 48.74C162.632 48.6467 162.746 48.6 162.879 48.6H163.879C164.012 48.6 164.119 48.6467 164.199 48.74C164.292 48.82 164.339 48.9267 164.339 49.06V54.6C164.339 56.5867 165.206 57.58 166.939 57.58C167.766 57.58 168.426 57.32 168.919 56.8C169.426 56.2667 169.679 55.5333 169.679 54.6V49.06C169.679 48.9267 169.719 48.82 169.799 48.74C169.892 48.6467 170.006 48.6 170.139 48.6H171.119C171.266 48.6 171.379 48.6467 171.459 48.74C171.539 48.82 171.579 48.9267 171.579 49.06V58.54C171.579 58.6733 171.539 58.7867 171.459 58.88C171.379 58.96 171.266 59 171.119 59H170.199C170.066 59 169.952 58.96 169.859 58.88C169.779 58.7867 169.739 58.6733 169.739 58.54V57.66C169.379 58.1267 168.939 58.5 168.419 58.78C167.912 59.06 167.239 59.2 166.399 59.2ZM175.01 59C174.877 59 174.764 58.96 174.67 58.88C174.59 58.7867 174.55 58.6733 174.55 58.54V49.06C174.55 48.9267 174.59 48.82 174.67 48.74C174.764 48.6467 174.877 48.6 175.01 48.6H175.95C176.084 48.6 176.19 48.6467 176.27 48.74C176.364 48.82 176.41 48.9267 176.41 49.06V49.94C176.757 49.4867 177.19 49.12 177.71 48.84C178.244 48.5467 178.924 48.4 179.75 48.4C180.617 48.4 181.35 48.5933 181.95 48.98C182.564 49.3533 183.024 49.88 183.33 50.56C183.637 51.2267 183.79 52.0067 183.79 52.9V58.54C183.79 58.6733 183.75 58.7867 183.67 58.88C183.59 58.96 183.484 59 183.35 59H182.35C182.217 59 182.104 58.96 182.01 58.88C181.93 58.7867 181.89 58.6733 181.89 58.54V53C181.89 52.0667 181.664 51.34 181.21 50.82C180.757 50.2867 180.09 50.02 179.21 50.02C178.384 50.02 177.717 50.2867 177.21 50.82C176.717 51.34 176.47 52.0667 176.47 53V58.54C176.47 58.6733 176.424 58.7867 176.33 58.88C176.25 58.96 176.144 59 176.01 59H175.01ZM187.139 59C187.006 59 186.893 58.96 186.799 58.88C186.719 58.7867 186.679 58.6733 186.679 58.54V49.06C186.679 48.9267 186.719 48.82 186.799 48.74C186.893 48.6467 187.006 48.6 187.139 48.6H188.099C188.233 48.6 188.339 48.6467 188.419 48.74C188.499 48.82 188.539 48.9267 188.539 49.06V58.54C188.539 58.6733 188.499 58.7867 188.419 58.88C188.339 58.96 188.233 59 188.099 59H187.139ZM186.979 46.66C186.846 46.66 186.733 46.62 186.639 46.54C186.559 46.4467 186.519 46.3333 186.519 46.2V45.12C186.519 44.9867 186.559 44.88 186.639 44.8C186.733 44.7067 186.846 44.66 186.979 44.66H188.239C188.373 44.66 188.479 44.7067 188.559 44.8C188.653 44.88 188.699 44.9867 188.699 45.12V46.2C188.699 46.3333 188.653 46.4467 188.559 46.54C188.479 46.62 188.373 46.66 188.239 46.66H186.979ZM195.583 59C194.836 59 194.23 58.86 193.763 58.58C193.296 58.2867 192.956 57.88 192.743 57.36C192.53 56.8267 192.423 56.2 192.423 55.48V50.2H190.863C190.73 50.2 190.616 50.16 190.523 50.08C190.443 49.9867 190.403 49.8733 190.403 49.74V49.06C190.403 48.9267 190.443 48.82 190.523 48.74C190.616 48.6467 190.73 48.6 190.863 48.6H192.423V45.26C192.423 45.1267 192.463 45.02 192.543 44.94C192.636 44.8467 192.75 44.8 192.883 44.8H193.823C193.956 44.8 194.063 44.8467 194.143 44.94C194.236 45.02 194.283 45.1267 194.283 45.26V48.6H196.763C196.896 48.6 197.003 48.6467 197.083 48.74C197.176 48.82 197.223 48.9267 197.223 49.06V49.74C197.223 49.8733 197.176 49.9867 197.083 50.08C197.003 50.16 196.896 50.2 196.763 50.2H194.283V55.34C194.283 55.9667 194.39 56.46 194.603 56.82C194.816 57.18 195.196 57.36 195.743 57.36H196.963C197.096 57.36 197.203 57.4067 197.283 57.5C197.376 57.58 197.423 57.6867 197.423 57.82V58.54C197.423 58.6733 197.376 58.7867 197.283 58.88C197.203 58.96 197.096 59 196.963 59H195.583ZM202.235 59.2C201.569 59.2 200.962 59.0667 200.415 58.8C199.869 58.5333 199.429 58.1733 199.095 57.72C198.762 57.2667 198.595 56.7533 198.595 56.18C198.595 55.26 198.969 54.5267 199.715 53.98C200.462 53.4333 201.435 53.0733 202.635 52.9L205.615 52.48V51.9C205.615 51.26 205.429 50.76 205.055 50.4C204.695 50.04 204.102 49.86 203.275 49.86C202.675 49.86 202.189 49.98 201.815 50.22C201.455 50.46 201.202 50.7667 201.055 51.14C200.975 51.34 200.835 51.44 200.635 51.44H199.735C199.589 51.44 199.475 51.4 199.395 51.32C199.329 51.2267 199.295 51.12 199.295 51C199.295 50.8 199.369 50.5533 199.515 50.26C199.675 49.9667 199.915 49.68 200.235 49.4C200.555 49.12 200.962 48.8867 201.455 48.7C201.962 48.5 202.575 48.4 203.295 48.4C204.095 48.4 204.769 48.5067 205.315 48.72C205.862 48.92 206.289 49.1933 206.595 49.54C206.915 49.8867 207.142 50.28 207.275 50.72C207.422 51.16 207.495 51.6067 207.495 52.06V58.54C207.495 58.6733 207.449 58.7867 207.355 58.88C207.275 58.96 207.169 59 207.035 59H206.115C205.969 59 205.855 58.96 205.775 58.88C205.695 58.7867 205.655 58.6733 205.655 58.54V57.68C205.482 57.92 205.249 58.16 204.955 58.4C204.662 58.6267 204.295 58.82 203.855 58.98C203.415 59.1267 202.875 59.2 202.235 59.2ZM202.655 57.7C203.202 57.7 203.702 57.5867 204.155 57.36C204.609 57.12 204.962 56.7533 205.215 56.26C205.482 55.7667 205.615 55.1467 205.615 54.4V53.84L203.295 54.18C202.349 54.3133 201.635 54.54 201.155 54.86C200.675 55.1667 200.435 55.56 200.435 56.04C200.435 56.4133 200.542 56.7267 200.755 56.98C200.982 57.22 201.262 57.4 201.595 57.52C201.942 57.64 202.295 57.7 202.655 57.7ZM213.971 59.2C213.224 59.2 212.584 59.1067 212.051 58.92C211.517 58.7333 211.084 58.5067 210.751 58.24C210.417 57.9733 210.164 57.7067 209.991 57.44C209.831 57.1733 209.744 56.96 209.731 56.8C209.717 56.6533 209.764 56.54 209.871 56.46C209.977 56.38 210.084 56.34 210.191 56.34H211.071C211.151 56.34 211.211 56.3533 211.251 56.38C211.304 56.3933 211.371 56.4467 211.451 56.54C211.624 56.7267 211.817 56.9133 212.031 57.1C212.244 57.2867 212.504 57.44 212.811 57.56C213.131 57.68 213.524 57.74 213.991 57.74C214.671 57.74 215.231 57.6133 215.671 57.36C216.111 57.0933 216.331 56.7067 216.331 56.2C216.331 55.8667 216.237 55.6 216.051 55.4C215.877 55.2 215.557 55.02 215.091 54.86C214.637 54.7 214.011 54.5333 213.211 54.36C212.411 54.1733 211.777 53.9467 211.311 53.68C210.844 53.4 210.511 53.0733 210.311 52.7C210.111 52.3133 210.011 51.88 210.011 51.4C210.011 50.9067 210.157 50.4333 210.451 49.98C210.744 49.5133 211.171 49.1333 211.731 48.84C212.304 48.5467 213.017 48.4 213.871 48.4C214.564 48.4 215.157 48.4867 215.651 48.66C216.144 48.8333 216.551 49.0533 216.871 49.32C217.191 49.5733 217.431 49.8267 217.591 50.08C217.751 50.3333 217.837 50.5467 217.851 50.72C217.864 50.8533 217.824 50.9667 217.731 51.06C217.637 51.14 217.531 51.18 217.411 51.18H216.571C216.477 51.18 216.397 51.16 216.331 51.12C216.277 51.08 216.224 51.0333 216.171 50.98C216.037 50.8067 215.877 50.6333 215.691 50.46C215.517 50.2867 215.284 50.1467 214.991 50.04C214.711 49.92 214.337 49.86 213.871 49.86C213.204 49.86 212.704 50 212.371 50.28C212.037 50.56 211.871 50.9133 211.871 51.34C211.871 51.5933 211.944 51.82 212.091 52.02C212.237 52.22 212.517 52.4 212.931 52.56C213.344 52.72 213.957 52.8933 214.771 53.08C215.651 53.2533 216.344 53.4867 216.851 53.78C217.357 54.0733 217.717 54.4133 217.931 54.8C218.144 55.1867 218.251 55.6333 218.251 56.14C218.251 56.7 218.084 57.2133 217.751 57.68C217.431 58.1467 216.951 58.52 216.311 58.8C215.684 59.0667 214.904 59.2 213.971 59.2ZM221.026 59C220.893 59 220.779 58.96 220.686 58.88C220.606 58.7867 220.566 58.6733 220.566 58.54V49.06C220.566 48.9267 220.606 48.82 220.686 48.74C220.779 48.6467 220.893 48.6 221.026 48.6H221.966C222.099 48.6 222.206 48.6467 222.286 48.74C222.379 48.82 222.426 48.9267 222.426 49.06V49.94C222.773 49.4867 223.206 49.12 223.726 48.84C224.259 48.5467 224.939 48.4 225.766 48.4C226.633 48.4 227.366 48.5933 227.966 48.98C228.579 49.3533 229.039 49.88 229.346 50.56C229.653 51.2267 229.806 52.0067 229.806 52.9V58.54C229.806 58.6733 229.766 58.7867 229.686 58.88C229.606 58.96 229.499 59 229.366 59H228.366C228.233 59 228.119 58.96 228.026 58.88C227.946 58.7867 227.906 58.6733 227.906 58.54V53C227.906 52.0667 227.679 51.34 227.226 50.82C226.773 50.2867 226.106 50.02 225.226 50.02C224.399 50.02 223.733 50.2867 223.226 50.82C222.733 51.34 222.486 52.0667 222.486 53V58.54C222.486 58.6733 222.439 58.7867 222.346 58.88C222.266 58.96 222.159 59 222.026 59H221.026ZM234.202 62.8C234.096 62.8 234.002 62.76 233.922 62.68C233.842 62.6 233.802 62.5067 233.802 62.4C233.802 62.3467 233.809 62.2933 233.822 62.24C233.836 62.1867 233.862 62.12 233.902 62.04L235.442 58.38L231.622 49.36C231.556 49.2 231.522 49.0867 231.522 49.02C231.522 48.9 231.562 48.8 231.642 48.72C231.722 48.64 231.822 48.6 231.942 48.6H232.922C233.056 48.6 233.162 48.6333 233.242 48.7C233.322 48.7667 233.376 48.8467 233.402 48.94L236.442 56.22L239.562 48.94C239.602 48.8467 239.656 48.7667 239.722 48.7C239.802 48.6333 239.916 48.6 240.062 48.6H241.002C241.122 48.6 241.222 48.64 241.302 48.72C241.382 48.8 241.422 48.8933 241.422 49C241.422 49.0667 241.389 49.1867 241.322 49.36L235.642 62.46C235.602 62.5533 235.542 62.6333 235.462 62.7C235.396 62.7667 235.289 62.8 235.142 62.8H234.202ZM245.927 59.2C245.26 59.2 244.654 59.0667 244.107 58.8C243.56 58.5333 243.12 58.1733 242.787 57.72C242.454 57.2667 242.287 56.7533 242.287 56.18C242.287 55.26 242.66 54.5267 243.407 53.98C244.154 53.4333 245.127 53.0733 246.327 52.9L249.307 52.48V51.9C249.307 51.26 249.12 50.76 248.747 50.4C248.387 50.04 247.794 49.86 246.967 49.86C246.367 49.86 245.88 49.98 245.507 50.22C245.147 50.46 244.894 50.7667 244.747 51.14C244.667 51.34 244.527 51.44 244.327 51.44H243.427C243.28 51.44 243.167 51.4 243.087 51.32C243.02 51.2267 242.987 51.12 242.987 51C242.987 50.8 243.06 50.5533 243.207 50.26C243.367 49.9667 243.607 49.68 243.927 49.4C244.247 49.12 244.654 48.8867 245.147 48.7C245.654 48.5 246.267 48.4 246.987 48.4C247.787 48.4 248.46 48.5067 249.007 48.72C249.554 48.92 249.98 49.1933 250.287 49.54C250.607 49.8867 250.834 50.28 250.967 50.72C251.114 51.16 251.187 51.6067 251.187 52.06V58.54C251.187 58.6733 251.14 58.7867 251.047 58.88C250.967 58.96 250.86 59 250.727 59H249.807C249.66 59 249.547 58.96 249.467 58.88C249.387 58.7867 249.347 58.6733 249.347 58.54V57.68C249.174 57.92 248.94 58.16 248.647 58.4C248.354 58.6267 247.987 58.82 247.547 58.98C247.107 59.1267 246.567 59.2 245.927 59.2ZM246.347 57.7C246.894 57.7 247.394 57.5867 247.847 57.36C248.3 57.12 248.654 56.7533 248.907 56.26C249.174 55.7667 249.307 55.1467 249.307 54.4V53.84L246.987 54.18C246.04 54.3133 245.327 54.54 244.847 54.86C244.367 55.1667 244.127 55.56 244.127 56.04C244.127 56.4133 244.234 56.7267 244.447 56.98C244.674 57.22 244.954 57.4 245.287 57.52C245.634 57.64 245.987 57.7 246.347 57.7ZM264.244 59.2C263.111 59.2 262.138 59.0067 261.324 58.62C260.511 58.22 259.884 57.6133 259.444 56.8C259.004 55.9733 258.758 54.94 258.704 53.7C258.691 53.1133 258.684 52.5533 258.684 52.02C258.684 51.4733 258.691 50.9067 258.704 50.32C258.758 49.0933 259.011 48.0733 259.464 47.26C259.931 46.4333 260.571 45.82 261.384 45.42C262.211 45.0067 263.164 44.8 264.244 44.8C265.338 44.8 266.291 45.0067 267.104 45.42C267.931 45.82 268.578 46.4333 269.044 47.26C269.511 48.0733 269.764 49.0933 269.804 50.32C269.831 50.9067 269.844 51.4733 269.844 52.02C269.844 52.5533 269.831 53.1133 269.804 53.7C269.764 54.94 269.518 55.9733 269.064 56.8C268.624 57.6133 267.998 58.22 267.184 58.62C266.371 59.0067 265.391 59.2 264.244 59.2ZM264.244 57.5C265.271 57.5 266.104 57.1933 266.744 56.58C267.398 55.9667 267.751 54.9733 267.804 53.6C267.831 53 267.844 52.4667 267.844 52C267.844 51.52 267.831 50.9867 267.804 50.4C267.778 49.48 267.604 48.7333 267.284 48.16C266.978 47.5867 266.564 47.1667 266.044 46.9C265.524 46.6333 264.924 46.5 264.244 46.5C263.591 46.5 263.004 46.6333 262.484 46.9C261.964 47.1667 261.544 47.5867 261.224 48.16C260.918 48.7333 260.744 49.48 260.704 50.4C260.691 50.9867 260.684 51.52 260.684 52C260.684 52.4667 260.691 53 260.704 53.6C260.758 54.9733 261.111 55.9667 261.764 56.58C262.418 57.1933 263.244 57.5 264.244 57.5ZM272.96 59C272.826 59 272.713 58.96 272.62 58.88C272.54 58.7867 272.5 58.6733 272.5 58.54V49.08C272.5 48.9467 272.54 48.8333 272.62 48.74C272.713 48.6467 272.826 48.6 272.96 48.6H273.88C274.013 48.6 274.126 48.6467 274.22 48.74C274.313 48.8333 274.36 48.9467 274.36 49.08V49.96C274.626 49.5067 274.993 49.1667 275.46 48.94C275.926 48.7133 276.486 48.6 277.14 48.6H277.94C278.073 48.6 278.18 48.6467 278.26 48.74C278.34 48.82 278.38 48.9267 278.38 49.06V49.88C278.38 50.0133 278.34 50.12 278.26 50.2C278.18 50.28 278.073 50.32 277.94 50.32H276.74C276.02 50.32 275.453 50.5333 275.04 50.96C274.626 51.3733 274.42 51.94 274.42 52.66V58.54C274.42 58.6733 274.373 58.7867 274.28 58.88C274.186 58.96 274.073 59 273.94 59H272.96ZM282.841 59.2C282.174 59.2 281.568 59.0667 281.021 58.8C280.474 58.5333 280.034 58.1733 279.701 57.72C279.368 57.2667 279.201 56.7533 279.201 56.18C279.201 55.26 279.574 54.5267 280.321 53.98C281.068 53.4333 282.041 53.0733 283.241 52.9L286.221 52.48V51.9C286.221 51.26 286.034 50.76 285.661 50.4C285.301 50.04 284.708 49.86 283.881 49.86C283.281 49.86 282.794 49.98 282.421 50.22C282.061 50.46 281.808 50.7667 281.661 51.14C281.581 51.34 281.441 51.44 281.241 51.44H280.341C280.194 51.44 280.081 51.4 280.001 51.32C279.934 51.2267 279.901 51.12 279.901 51C279.901 50.8 279.974 50.5533 280.121 50.26C280.281 49.9667 280.521 49.68 280.841 49.4C281.161 49.12 281.568 48.8867 282.061 48.7C282.568 48.5 283.181 48.4 283.901 48.4C284.701 48.4 285.374 48.5067 285.921 48.72C286.468 48.92 286.894 49.1933 287.201 49.54C287.521 49.8867 287.748 50.28 287.881 50.72C288.028 51.16 288.101 51.6067 288.101 52.06V58.54C288.101 58.6733 288.054 58.7867 287.961 58.88C287.881 58.96 287.774 59 287.641 59H286.721C286.574 59 286.461 58.96 286.381 58.88C286.301 58.7867 286.261 58.6733 286.261 58.54V57.68C286.088 57.92 285.854 58.16 285.561 58.4C285.268 58.6267 284.901 58.82 284.461 58.98C284.021 59.1267 283.481 59.2 282.841 59.2ZM283.261 57.7C283.808 57.7 284.308 57.5867 284.761 57.36C285.214 57.12 285.568 56.7533 285.821 56.26C286.088 55.7667 286.221 55.1467 286.221 54.4V53.84L283.901 54.18C282.954 54.3133 282.241 54.54 281.761 54.86C281.281 55.1667 281.041 55.56 281.041 56.04C281.041 56.4133 281.148 56.7267 281.361 56.98C281.588 57.22 281.868 57.4 282.201 57.52C282.548 57.64 282.901 57.7 283.261 57.7ZM291.436 59C291.303 59 291.189 58.96 291.096 58.88C291.016 58.7867 290.976 58.6733 290.976 58.54V49.06C290.976 48.9267 291.016 48.82 291.096 48.74C291.189 48.6467 291.303 48.6 291.436 48.6H292.376C292.509 48.6 292.616 48.6467 292.696 48.74C292.789 48.82 292.836 48.9267 292.836 49.06V49.94C293.183 49.4867 293.616 49.12 294.136 48.84C294.669 48.5467 295.349 48.4 296.176 48.4C297.043 48.4 297.776 48.5933 298.376 48.98C298.989 49.3533 299.449 49.88 299.756 50.56C300.063 51.2267 300.216 52.0067 300.216 52.9V58.54C300.216 58.6733 300.176 58.7867 300.096 58.88C300.016 58.96 299.909 59 299.776 59H298.776C298.643 59 298.529 58.96 298.436 58.88C298.356 58.7867 298.316 58.6733 298.316 58.54V53C298.316 52.0667 298.089 51.34 297.636 50.82C297.183 50.2867 296.516 50.02 295.636 50.02C294.809 50.02 294.143 50.2867 293.636 50.82C293.143 51.34 292.896 52.0667 292.896 53V58.54C292.896 58.6733 292.849 58.7867 292.756 58.88C292.676 58.96 292.569 59 292.436 59H291.436ZM307.365 63.4C306.458 63.4 305.712 63.28 305.125 63.04C304.552 62.8 304.098 62.5067 303.765 62.16C303.445 61.8267 303.212 61.4867 303.065 61.14C302.932 60.8067 302.858 60.54 302.845 60.34C302.832 60.2067 302.872 60.0933 302.965 60C303.072 59.9067 303.185 59.86 303.305 59.86H304.265C304.385 59.86 304.485 59.8867 304.565 59.94C304.645 59.9933 304.712 60.1067 304.765 60.28C304.845 60.48 304.965 60.7 305.125 60.94C305.285 61.1933 305.532 61.4067 305.865 61.58C306.198 61.7667 306.665 61.86 307.265 61.86C307.892 61.86 308.418 61.7733 308.845 61.6C309.272 61.44 309.592 61.1467 309.805 60.72C310.032 60.3067 310.145 59.7333 310.145 59V57.64C309.825 58.0533 309.405 58.4 308.885 58.68C308.365 58.9467 307.712 59.08 306.925 59.08C306.178 59.08 305.538 58.9533 305.005 58.7C304.472 58.4333 304.032 58.08 303.685 57.64C303.352 57.1867 303.098 56.6733 302.925 56.1C302.765 55.5267 302.672 54.9267 302.645 54.3C302.632 53.9267 302.632 53.56 302.645 53.2C302.672 52.5733 302.765 51.9733 302.925 51.4C303.098 50.8267 303.352 50.3133 303.685 49.86C304.032 49.4067 304.472 49.0533 305.005 48.8C305.538 48.5333 306.178 48.4 306.925 48.4C307.725 48.4 308.385 48.5533 308.905 48.86C309.438 49.1533 309.872 49.5133 310.205 49.94V49.08C310.205 48.9467 310.245 48.8333 310.325 48.74C310.418 48.6467 310.532 48.6 310.665 48.6H311.585C311.718 48.6 311.832 48.6467 311.925 48.74C312.018 48.8333 312.065 48.9467 312.065 49.08V58.78C312.065 59.6733 311.912 60.4667 311.605 61.16C311.312 61.8533 310.818 62.4 310.125 62.8C309.445 63.2 308.525 63.4 307.365 63.4ZM307.325 57.48C307.992 57.48 308.525 57.3267 308.925 57.02C309.338 56.7133 309.638 56.3267 309.825 55.86C310.025 55.3933 310.132 54.92 310.145 54.44C310.158 54.2533 310.165 54.0267 310.165 53.76C310.165 53.48 310.158 53.2467 310.145 53.06C310.132 52.58 310.025 52.1067 309.825 51.64C309.638 51.1733 309.338 50.7867 308.925 50.48C308.525 50.1733 307.992 50.02 307.325 50.02C306.658 50.02 306.125 50.1733 305.725 50.48C305.325 50.7733 305.038 51.1667 304.865 51.66C304.692 52.14 304.592 52.66 304.565 53.22C304.552 53.5667 304.552 53.92 304.565 54.28C304.592 54.84 304.692 55.3667 304.865 55.86C305.038 56.34 305.325 56.7333 305.725 57.04C306.125 57.3333 306.658 57.48 307.325 57.48ZM18.2 83C18.0533 83 17.94 82.96 17.86 82.88C17.78 82.7867 17.74 82.6733 17.74 82.54V69.46C17.74 69.3267 17.78 69.22 17.86 69.14C17.94 69.0467 18.0533 69 18.2 69H19.26C19.3933 69 19.5 69.0467 19.58 69.14C19.6733 69.22 19.72 69.3267 19.72 69.46V82.54C19.72 82.6733 19.6733 82.7867 19.58 82.88C19.5 82.96 19.3933 83 19.26 83H18.2ZM23.4088 83C23.2754 83 23.1621 82.96 23.0688 82.88C22.9888 82.7867 22.9488 82.6733 22.9488 82.54V73.06C22.9488 72.9267 22.9888 72.82 23.0688 72.74C23.1621 72.6467 23.2754 72.6 23.4088 72.6H24.3488C24.4821 72.6 24.5888 72.6467 24.6688 72.74C24.7621 72.82 24.8088 72.9267 24.8088 73.06V73.94C25.1554 73.4867 25.5888 73.12 26.1088 72.84C26.6421 72.5467 27.3221 72.4 28.1488 72.4C29.0154 72.4 29.7488 72.5933 30.3488 72.98C30.9621 73.3533 31.4221 73.88 31.7288 74.56C32.0354 75.2267 32.1888 76.0067 32.1888 76.9V82.54C32.1888 82.6733 32.1488 82.7867 32.0688 82.88C31.9888 82.96 31.8821 83 31.7487 83H30.7488C30.6154 83 30.5021 82.96 30.4088 82.88C30.3288 82.7867 30.2888 82.6733 30.2888 82.54V77C30.2888 76.0667 30.0621 75.34 29.6088 74.82C29.1554 74.2867 28.4888 74.02 27.6088 74.02C26.7821 74.02 26.1154 74.2867 25.6088 74.82C25.1154 75.34 24.8688 76.0667 24.8688 77V82.54C24.8688 82.6733 24.8221 82.7867 24.7288 82.88C24.6488 82.96 24.5421 83 24.4087 83H23.4088ZM38.8777 83.2C38.1443 83.2 37.511 83.0733 36.9777 82.82C36.4443 82.5533 36.0043 82.2 35.6577 81.76C35.3243 81.3067 35.071 80.7933 34.8977 80.22C34.7377 79.6467 34.6443 79.04 34.6177 78.4C34.6043 78.1867 34.5977 77.9867 34.5977 77.8C34.5977 77.6133 34.6043 77.4133 34.6177 77.2C34.6443 76.5733 34.7377 75.9733 34.8977 75.4C35.071 74.8267 35.3243 74.3133 35.6577 73.86C36.0043 73.4067 36.4443 73.0533 36.9777 72.8C37.511 72.5333 38.1443 72.4 38.8777 72.4C39.6643 72.4 40.3177 72.54 40.8377 72.82C41.3577 73.1 41.7843 73.4467 42.1177 73.86V69.26C42.1177 69.1267 42.1577 69.02 42.2377 68.94C42.331 68.8467 42.4443 68.8 42.5777 68.8H43.5377C43.671 68.8 43.7777 68.8467 43.8577 68.94C43.951 69.02 43.9977 69.1267 43.9977 69.26V82.54C43.9977 82.6733 43.951 82.7867 43.8577 82.88C43.7777 82.96 43.671 83 43.5377 83H42.6377C42.491 83 42.3777 82.96 42.2977 82.88C42.2177 82.7867 42.1777 82.6733 42.1777 82.54V81.7C41.8443 82.1267 41.411 82.4867 40.8777 82.78C40.3443 83.06 39.6777 83.2 38.8777 83.2ZM39.2977 81.58C39.9643 81.58 40.4977 81.4267 40.8977 81.12C41.2977 80.8133 41.5977 80.4267 41.7977 79.96C41.9977 79.48 42.1043 78.9933 42.1177 78.5C42.131 78.2867 42.1377 78.0333 42.1377 77.74C42.1377 77.4333 42.131 77.1733 42.1177 76.96C42.1043 76.4933 41.991 76.0333 41.7777 75.58C41.5777 75.1267 41.271 74.7533 40.8577 74.46C40.4577 74.1667 39.9377 74.02 39.2977 74.02C38.6177 74.02 38.0777 74.1733 37.6777 74.48C37.2777 74.7733 36.991 75.1667 36.8177 75.66C36.6443 76.14 36.5443 76.66 36.5177 77.22C36.5043 77.6067 36.5043 77.9933 36.5177 78.38C36.5443 78.94 36.6443 79.4667 36.8177 79.96C36.991 80.44 37.2777 80.8333 37.6777 81.14C38.0777 81.4333 38.6177 81.58 39.2977 81.58ZM51.2322 83.2C50.2189 83.2 49.3722 83.0067 48.6922 82.62C48.0122 82.2333 47.4922 81.7 47.1322 81.02C46.7722 80.3267 46.5722 79.54 46.5322 78.66C46.5189 78.4333 46.5122 78.1467 46.5122 77.8C46.5122 77.44 46.5189 77.1533 46.5322 76.94C46.5722 76.0467 46.7722 75.26 47.1322 74.58C47.5055 73.9 48.0322 73.3667 48.7122 72.98C49.3922 72.5933 50.2322 72.4 51.2322 72.4C52.2322 72.4 53.0722 72.5933 53.7522 72.98C54.4322 73.3667 54.9522 73.9 55.3122 74.58C55.6855 75.26 55.8922 76.0467 55.9322 76.94C55.9455 77.1533 55.9522 77.44 55.9522 77.8C55.9522 78.1467 55.9455 78.4333 55.9322 78.66C55.8922 79.54 55.6922 80.3267 55.3322 81.02C54.9722 81.7 54.4522 82.2333 53.7722 82.62C53.0922 83.0067 52.2455 83.2 51.2322 83.2ZM51.2322 81.66C52.0589 81.66 52.7189 81.4 53.2122 80.88C53.7055 80.3467 53.9722 79.5733 54.0122 78.56C54.0255 78.36 54.0322 78.1067 54.0322 77.8C54.0322 77.4933 54.0255 77.24 54.0122 77.04C53.9722 76.0267 53.7055 75.26 53.2122 74.74C52.7189 74.2067 52.0589 73.94 51.2322 73.94C50.4055 73.94 49.7389 74.2067 49.2322 74.74C48.7389 75.26 48.4789 76.0267 48.4522 77.04C48.4389 77.24 48.4322 77.4933 48.4322 77.8C48.4322 78.1067 48.4389 78.36 48.4522 78.56C48.4789 79.5733 48.7389 80.3467 49.2322 80.88C49.7389 81.4 50.4055 81.66 51.2322 81.66ZM58.9166 83C58.7832 83 58.6699 82.96 58.5766 82.88C58.4966 82.7867 58.4566 82.6733 58.4566 82.54V73.06C58.4566 72.9267 58.4966 72.82 58.5766 72.74C58.6699 72.6467 58.7832 72.6 58.9166 72.6H59.8566C59.9899 72.6 60.0966 72.6467 60.1766 72.74C60.2699 72.82 60.3166 72.9267 60.3166 73.06V73.94C60.6632 73.4867 61.0966 73.12 61.6166 72.84C62.1499 72.5467 62.8299 72.4 63.6566 72.4C64.5232 72.4 65.2566 72.5933 65.8566 72.98C66.4699 73.3533 66.9299 73.88 67.2366 74.56C67.5432 75.2267 67.6966 76.0067 67.6966 76.9V82.54C67.6966 82.6733 67.6566 82.7867 67.5766 82.88C67.4966 82.96 67.3899 83 67.2566 83H66.2566C66.1232 83 66.0099 82.96 65.9166 82.88C65.8366 82.7867 65.7966 82.6733 65.7966 82.54V77C65.7966 76.0667 65.5699 75.34 65.1166 74.82C64.6632 74.2867 63.9966 74.02 63.1166 74.02C62.2899 74.02 61.6232 74.2867 61.1166 74.82C60.6232 75.34 60.3766 76.0667 60.3766 77V82.54C60.3766 82.6733 60.3299 82.7867 60.2366 82.88C60.1566 82.96 60.0499 83 59.9166 83H58.9166ZM74.7255 83.2C73.3521 83.2 72.2588 82.78 71.4455 81.94C70.6321 81.0867 70.1855 79.9267 70.1055 78.46C70.0921 78.2867 70.0855 78.0667 70.0855 77.8C70.0855 77.52 70.0921 77.2933 70.1055 77.12C70.1588 76.1733 70.3788 75.3467 70.7655 74.64C71.1521 73.92 71.6788 73.3667 72.3455 72.98C73.0255 72.5933 73.8188 72.4 74.7255 72.4C75.7388 72.4 76.5855 72.6133 77.2655 73.04C77.9588 73.4667 78.4855 74.0733 78.8455 74.86C79.2055 75.6467 79.3855 76.5667 79.3855 77.62V77.96C79.3855 78.1067 79.3388 78.22 79.2455 78.3C79.1655 78.38 79.0588 78.42 78.9255 78.42H72.0055C72.0055 78.4333 72.0055 78.46 72.0055 78.5C72.0055 78.54 72.0055 78.5733 72.0055 78.6C72.0321 79.1467 72.1521 79.66 72.3655 80.14C72.5788 80.6067 72.8855 80.9867 73.2855 81.28C73.6855 81.5733 74.1655 81.72 74.7255 81.72C75.2055 81.72 75.6055 81.6467 75.9255 81.5C76.2455 81.3533 76.5055 81.1933 76.7055 81.02C76.9055 80.8333 77.0388 80.6933 77.1055 80.6C77.2255 80.4267 77.3188 80.3267 77.3855 80.3C77.4521 80.26 77.5588 80.24 77.7055 80.24H78.6655C78.7988 80.24 78.9055 80.28 78.9855 80.36C79.0788 80.4267 79.1188 80.5267 79.1055 80.66C79.0921 80.86 78.9855 81.1067 78.7855 81.4C78.5855 81.68 78.2988 81.96 77.9255 82.24C77.5521 82.52 77.0988 82.7533 76.5655 82.94C76.0321 83.1133 75.4188 83.2 74.7255 83.2ZM72.0055 77.04H77.4855V76.98C77.4855 76.38 77.3721 75.8467 77.1455 75.38C76.9321 74.9133 76.6188 74.5467 76.2055 74.28C75.7921 74 75.2988 73.86 74.7255 73.86C74.1521 73.86 73.6588 74 73.2455 74.28C72.8455 74.5467 72.5388 74.9133 72.3255 75.38C72.1121 75.8467 72.0055 76.38 72.0055 76.98V77.04ZM85.3769 83.2C84.6302 83.2 83.9902 83.1067 83.4569 82.92C82.9235 82.7333 82.4902 82.5067 82.1569 82.24C81.8235 81.9733 81.5702 81.7067 81.3969 81.44C81.2369 81.1733 81.1502 80.96 81.1369 80.8C81.1235 80.6533 81.1702 80.54 81.2769 80.46C81.3835 80.38 81.4902 80.34 81.5969 80.34H82.4769C82.5569 80.34 82.6169 80.3533 82.6569 80.38C82.7102 80.3933 82.7769 80.4467 82.8569 80.54C83.0302 80.7267 83.2235 80.9133 83.4369 81.1C83.6502 81.2867 83.9102 81.44 84.2169 81.56C84.5369 81.68 84.9302 81.74 85.3969 81.74C86.0769 81.74 86.6369 81.6133 87.0769 81.36C87.5169 81.0933 87.7369 80.7067 87.7369 80.2C87.7369 79.8667 87.6435 79.6 87.4569 79.4C87.2835 79.2 86.9635 79.02 86.4969 78.86C86.0435 78.7 85.4169 78.5333 84.6169 78.36C83.8169 78.1733 83.1835 77.9467 82.7169 77.68C82.2502 77.4 81.9169 77.0733 81.7169 76.7C81.5169 76.3133 81.4169 75.88 81.4169 75.4C81.4169 74.9067 81.5635 74.4333 81.8569 73.98C82.1502 73.5133 82.5769 73.1333 83.1369 72.84C83.7102 72.5467 84.4235 72.4 85.2769 72.4C85.9702 72.4 86.5635 72.4867 87.0569 72.66C87.5502 72.8333 87.9569 73.0533 88.2769 73.32C88.5969 73.5733 88.8369 73.8267 88.9969 74.08C89.1569 74.3333 89.2435 74.5467 89.2569 74.72C89.2702 74.8533 89.2302 74.9667 89.1369 75.06C89.0435 75.14 88.9369 75.18 88.8169 75.18H87.9769C87.8835 75.18 87.8035 75.16 87.7369 75.12C87.6835 75.08 87.6302 75.0333 87.5769 74.98C87.4435 74.8067 87.2835 74.6333 87.0969 74.46C86.9235 74.2867 86.6902 74.1467 86.3969 74.04C86.1169 73.92 85.7435 73.86 85.2769 73.86C84.6102 73.86 84.1102 74 83.7769 74.28C83.4435 74.56 83.2769 74.9133 83.2769 75.34C83.2769 75.5933 83.3502 75.82 83.4969 76.02C83.6435 76.22 83.9235 76.4 84.3369 76.56C84.7502 76.72 85.3635 76.8933 86.1769 77.08C87.0569 77.2533 87.7502 77.4867 88.2569 77.78C88.7635 78.0733 89.1235 78.4133 89.3369 78.8C89.5502 79.1867 89.6569 79.6333 89.6569 80.14C89.6569 80.7 89.4902 81.2133 89.1569 81.68C88.8369 82.1467 88.3569 82.52 87.7169 82.8C87.0902 83.0667 86.3102 83.2 85.3769 83.2ZM92.4322 83C92.2989 83 92.1855 82.96 92.0922 82.88C92.0122 82.7867 91.9722 82.6733 91.9722 82.54V73.06C91.9722 72.9267 92.0122 72.82 92.0922 72.74C92.1855 72.6467 92.2989 72.6 92.4322 72.6H93.3922C93.5255 72.6 93.6322 72.6467 93.7122 72.74C93.7922 72.82 93.8322 72.9267 93.8322 73.06V82.54C93.8322 82.6733 93.7922 82.7867 93.7122 82.88C93.6322 82.96 93.5255 83 93.3922 83H92.4322ZM92.2722 70.66C92.1389 70.66 92.0255 70.62 91.9322 70.54C91.8522 70.4467 91.8122 70.3333 91.8122 70.2V69.12C91.8122 68.9867 91.8522 68.88 91.9322 68.8C92.0255 68.7067 92.1389 68.66 92.2722 68.66H93.5322C93.6655 68.66 93.7722 68.7067 93.8522 68.8C93.9455 68.88 93.9922 68.9867 93.9922 69.12V70.2C93.9922 70.3333 93.9455 70.4467 93.8522 70.54C93.7722 70.62 93.6655 70.66 93.5322 70.66H92.2722ZM99.7159 83.2C99.0493 83.2 98.4426 83.0667 97.8959 82.8C97.3493 82.5333 96.9093 82.1733 96.5759 81.72C96.2426 81.2667 96.0759 80.7533 96.0759 80.18C96.0759 79.26 96.4493 78.5267 97.1959 77.98C97.9426 77.4333 98.9159 77.0733 100.116 76.9L103.096 76.48V75.9C103.096 75.26 102.909 74.76 102.536 74.4C102.176 74.04 101.583 73.86 100.756 73.86C100.156 73.86 99.6693 73.98 99.2959 74.22C98.9359 74.46 98.6826 74.7667 98.5359 75.14C98.4559 75.34 98.3159 75.44 98.1159 75.44H97.2159C97.0693 75.44 96.9559 75.4 96.8759 75.32C96.8093 75.2267 96.7759 75.12 96.7759 75C96.7759 74.8 96.8493 74.5533 96.9959 74.26C97.1559 73.9667 97.3959 73.68 97.7159 73.4C98.0359 73.12 98.4426 72.8867 98.9359 72.7C99.4426 72.5 100.056 72.4 100.776 72.4C101.576 72.4 102.249 72.5067 102.796 72.72C103.343 72.92 103.769 73.1933 104.076 73.54C104.396 73.8867 104.623 74.28 104.756 74.72C104.903 75.16 104.976 75.6067 104.976 76.06V82.54C104.976 82.6733 104.929 82.7867 104.836 82.88C104.756 82.96 104.649 83 104.516 83H103.596C103.449 83 103.336 82.96 103.256 82.88C103.176 82.7867 103.136 82.6733 103.136 82.54V81.68C102.963 81.92 102.729 82.16 102.436 82.4C102.143 82.6267 101.776 82.82 101.336 82.98C100.896 83.1267 100.356 83.2 99.7159 83.2ZM100.136 81.7C100.683 81.7 101.183 81.5867 101.636 81.36C102.089 81.12 102.443 80.7533 102.696 80.26C102.963 79.7667 103.096 79.1467 103.096 78.4V77.84L100.776 78.18C99.8293 78.3133 99.1159 78.54 98.6359 78.86C98.1559 79.1667 97.9159 79.56 97.9159 80.04C97.9159 80.4133 98.0226 80.7267 98.2359 80.98C98.4626 81.22 98.7426 81.4 99.0759 81.52C99.4226 81.64 99.7759 81.7 100.136 81.7ZM114.027 86.8C113.92 86.8 113.827 86.76 113.747 86.68C113.667 86.6 113.627 86.5067 113.627 86.4C113.627 86.3467 113.633 86.2933 113.647 86.24C113.66 86.1867 113.687 86.12 113.727 86.04L115.267 82.38L111.447 73.36C111.38 73.2 111.347 73.0867 111.347 73.02C111.347 72.9 111.387 72.8 111.467 72.72C111.547 72.64 111.647 72.6 111.767 72.6H112.747C112.88 72.6 112.987 72.6333 113.067 72.7C113.147 72.7667 113.2 72.8467 113.227 72.94L116.267 80.22L119.387 72.94C119.427 72.8467 119.48 72.7667 119.547 72.7C119.627 72.6333 119.74 72.6 119.887 72.6H120.827C120.947 72.6 121.047 72.64 121.127 72.72C121.207 72.8 121.247 72.8933 121.247 73C121.247 73.0667 121.213 73.1867 121.147 73.36L115.467 86.46C115.427 86.5533 115.367 86.6333 115.287 86.7C115.22 86.7667 115.113 86.8 114.967 86.8H114.027ZM125.751 83.2C125.084 83.2 124.478 83.0667 123.931 82.8C123.384 82.5333 122.944 82.1733 122.611 81.72C122.278 81.2667 122.111 80.7533 122.111 80.18C122.111 79.26 122.484 78.5267 123.231 77.98C123.978 77.4333 124.951 77.0733 126.151 76.9L129.131 76.48V75.9C129.131 75.26 128.944 74.76 128.571 74.4C128.211 74.04 127.618 73.86 126.791 73.86C126.191 73.86 125.704 73.98 125.331 74.22C124.971 74.46 124.718 74.7667 124.571 75.14C124.491 75.34 124.351 75.44 124.151 75.44H123.251C123.104 75.44 122.991 75.4 122.911 75.32C122.844 75.2267 122.811 75.12 122.811 75C122.811 74.8 122.884 74.5533 123.031 74.26C123.191 73.9667 123.431 73.68 123.751 73.4C124.071 73.12 124.478 72.8867 124.971 72.7C125.478 72.5 126.091 72.4 126.811 72.4C127.611 72.4 128.284 72.5067 128.831 72.72C129.378 72.92 129.804 73.1933 130.111 73.54C130.431 73.8867 130.658 74.28 130.791 74.72C130.938 75.16 131.011 75.6067 131.011 76.06V82.54C131.011 82.6733 130.964 82.7867 130.871 82.88C130.791 82.96 130.684 83 130.551 83H129.631C129.484 83 129.371 82.96 129.291 82.88C129.211 82.7867 129.171 82.6733 129.171 82.54V81.68C128.998 81.92 128.764 82.16 128.471 82.4C128.178 82.6267 127.811 82.82 127.371 82.98C126.931 83.1267 126.391 83.2 125.751 83.2ZM126.171 81.7C126.718 81.7 127.218 81.5867 127.671 81.36C128.124 81.12 128.478 80.7533 128.731 80.26C128.998 79.7667 129.131 79.1467 129.131 78.4V77.84L126.811 78.18C125.864 78.3133 125.151 78.54 124.671 78.86C124.191 79.1667 123.951 79.56 123.951 80.04C123.951 80.4133 124.058 80.7267 124.271 80.98C124.498 81.22 124.778 81.4 125.111 81.52C125.458 81.64 125.811 81.7 126.171 81.7ZM134.346 83C134.213 83 134.1 82.96 134.006 82.88C133.926 82.7867 133.886 82.6733 133.886 82.54V73.06C133.886 72.9267 133.926 72.82 134.006 72.74C134.1 72.6467 134.213 72.6 134.346 72.6H135.286C135.42 72.6 135.526 72.6467 135.606 72.74C135.7 72.82 135.746 72.9267 135.746 73.06V73.94C136.093 73.4867 136.526 73.12 137.046 72.84C137.58 72.5467 138.26 72.4 139.086 72.4C139.953 72.4 140.686 72.5933 141.286 72.98C141.9 73.3533 142.36 73.88 142.666 74.56C142.973 75.2267 143.126 76.0067 143.126 76.9V82.54C143.126 82.6733 143.086 82.7867 143.006 82.88C142.926 82.96 142.82 83 142.686 83H141.686C141.553 83 141.44 82.96 141.346 82.88C141.266 82.7867 141.226 82.6733 141.226 82.54V77C141.226 76.0667 141 75.34 140.546 74.82C140.093 74.2867 139.426 74.02 138.546 74.02C137.72 74.02 137.053 74.2867 136.546 74.82C136.053 75.34 135.806 76.0667 135.806 77V82.54C135.806 82.6733 135.76 82.7867 135.666 82.88C135.586 82.96 135.48 83 135.346 83H134.346ZM150.275 87.4C149.368 87.4 148.622 87.28 148.035 87.04C147.462 86.8 147.008 86.5067 146.675 86.16C146.355 85.8267 146.122 85.4867 145.975 85.14C145.842 84.8067 145.768 84.54 145.755 84.34C145.742 84.2067 145.782 84.0933 145.875 84C145.982 83.9067 146.095 83.86 146.215 83.86H147.175C147.295 83.86 147.395 83.8867 147.475 83.94C147.555 83.9933 147.622 84.1067 147.675 84.28C147.755 84.48 147.875 84.7 148.035 84.94C148.195 85.1933 148.442 85.4067 148.775 85.58C149.108 85.7667 149.575 85.86 150.175 85.86C150.802 85.86 151.328 85.7733 151.755 85.6C152.182 85.44 152.502 85.1467 152.715 84.72C152.942 84.3067 153.055 83.7333 153.055 83V81.64C152.735 82.0533 152.315 82.4 151.795 82.68C151.275 82.9467 150.622 83.08 149.835 83.08C149.088 83.08 148.448 82.9533 147.915 82.7C147.382 82.4333 146.942 82.08 146.595 81.64C146.262 81.1867 146.008 80.6733 145.835 80.1C145.675 79.5267 145.582 78.9267 145.555 78.3C145.542 77.9267 145.542 77.56 145.555 77.2C145.582 76.5733 145.675 75.9733 145.835 75.4C146.008 74.8267 146.262 74.3133 146.595 73.86C146.942 73.4067 147.382 73.0533 147.915 72.8C148.448 72.5333 149.088 72.4 149.835 72.4C150.635 72.4 151.295 72.5533 151.815 72.86C152.348 73.1533 152.782 73.5133 153.115 73.94V73.08C153.115 72.9467 153.155 72.8333 153.235 72.74C153.328 72.6467 153.442 72.6 153.575 72.6H154.495C154.628 72.6 154.742 72.6467 154.835 72.74C154.928 72.8333 154.975 72.9467 154.975 73.08V82.78C154.975 83.6733 154.822 84.4667 154.515 85.16C154.222 85.8533 153.728 86.4 153.035 86.8C152.355 87.2 151.435 87.4 150.275 87.4ZM150.235 81.48C150.902 81.48 151.435 81.3267 151.835 81.02C152.248 80.7133 152.548 80.3267 152.735 79.86C152.935 79.3933 153.042 78.92 153.055 78.44C153.068 78.2533 153.075 78.0267 153.075 77.76C153.075 77.48 153.068 77.2467 153.055 77.06C153.042 76.58 152.935 76.1067 152.735 75.64C152.548 75.1733 152.248 74.7867 151.835 74.48C151.435 74.1733 150.902 74.02 150.235 74.02C149.568 74.02 149.035 74.1733 148.635 74.48C148.235 74.7733 147.948 75.1667 147.775 75.66C147.602 76.14 147.502 76.66 147.475 77.22C147.462 77.5667 147.462 77.92 147.475 78.28C147.502 78.84 147.602 79.3667 147.775 79.86C147.948 80.34 148.235 80.7333 148.635 81.04C149.035 81.3333 149.568 81.48 150.235 81.48ZM163.571 83C163.424 83 163.311 82.96 163.231 82.88C163.151 82.7867 163.111 82.6733 163.111 82.54V69.48C163.111 69.3333 163.151 69.22 163.231 69.14C163.311 69.0467 163.424 69 163.571 69H169.051C170.051 69 170.864 69.1667 171.491 69.5C172.131 69.82 172.598 70.26 172.891 70.82C173.198 71.38 173.351 72.0067 173.351 72.7C173.351 73.2467 173.258 73.72 173.071 74.12C172.898 74.5067 172.678 74.8267 172.411 75.08C172.144 75.32 171.884 75.5067 171.631 75.64C172.151 75.8933 172.611 76.3067 173.011 76.88C173.424 77.4533 173.631 78.1467 173.631 78.96C173.631 79.6933 173.464 80.3667 173.131 80.98C172.798 81.5933 172.298 82.0867 171.631 82.46C170.978 82.82 170.164 83 169.191 83H163.571ZM165.071 81.38H168.931C169.798 81.38 170.464 81.1467 170.931 80.68C171.398 80.2133 171.631 79.64 171.631 78.96C171.631 78.2533 171.398 77.6733 170.931 77.22C170.464 76.7533 169.798 76.52 168.931 76.52H165.071V81.38ZM165.071 74.92H168.751C169.604 74.92 170.251 74.7267 170.691 74.34C171.131 73.94 171.351 73.4 171.351 72.72C171.351 72.04 171.131 71.52 170.691 71.16C170.251 70.8 169.604 70.62 168.751 70.62H165.071V74.92ZM180.35 83.2C178.977 83.2 177.884 82.78 177.07 81.94C176.257 81.0867 175.81 79.9267 175.73 78.46C175.717 78.2867 175.71 78.0667 175.71 77.8C175.71 77.52 175.717 77.2933 175.73 77.12C175.784 76.1733 176.004 75.3467 176.39 74.64C176.777 73.92 177.304 73.3667 177.97 72.98C178.65 72.5933 179.444 72.4 180.35 72.4C181.364 72.4 182.21 72.6133 182.89 73.04C183.584 73.4667 184.11 74.0733 184.47 74.86C184.83 75.6467 185.01 76.5667 185.01 77.62V77.96C185.01 78.1067 184.964 78.22 184.87 78.3C184.79 78.38 184.684 78.42 184.55 78.42H177.63C177.63 78.4333 177.63 78.46 177.63 78.5C177.63 78.54 177.63 78.5733 177.63 78.6C177.657 79.1467 177.777 79.66 177.99 80.14C178.204 80.6067 178.51 80.9867 178.91 81.28C179.31 81.5733 179.79 81.72 180.35 81.72C180.83 81.72 181.23 81.6467 181.55 81.5C181.87 81.3533 182.13 81.1933 182.33 81.02C182.53 80.8333 182.664 80.6933 182.73 80.6C182.85 80.4267 182.944 80.3267 183.01 80.3C183.077 80.26 183.184 80.24 183.33 80.24H184.29C184.424 80.24 184.53 80.28 184.61 80.36C184.704 80.4267 184.744 80.5267 184.73 80.66C184.717 80.86 184.61 81.1067 184.41 81.4C184.21 81.68 183.924 81.96 183.55 82.24C183.177 82.52 182.724 82.7533 182.19 82.94C181.657 83.1133 181.044 83.2 180.35 83.2ZM177.63 77.04H183.11V76.98C183.11 76.38 182.997 75.8467 182.77 75.38C182.557 74.9133 182.244 74.5467 181.83 74.28C181.417 74 180.924 73.86 180.35 73.86C179.777 73.86 179.284 74 178.87 74.28C178.47 74.5467 178.164 74.9133 177.95 75.38C177.737 75.8467 177.63 76.38 177.63 76.98V77.04ZM187.862 83C187.729 83 187.615 82.96 187.522 82.88C187.442 82.7867 187.402 82.6733 187.402 82.54V73.08C187.402 72.9467 187.442 72.8333 187.522 72.74C187.615 72.6467 187.729 72.6 187.862 72.6H188.782C188.915 72.6 189.029 72.6467 189.122 72.74C189.215 72.8333 189.262 72.9467 189.262 73.08V73.96C189.529 73.5067 189.895 73.1667 190.362 72.94C190.829 72.7133 191.389 72.6 192.042 72.6H192.842C192.975 72.6 193.082 72.6467 193.162 72.74C193.242 72.82 193.282 72.9267 193.282 73.06V73.88C193.282 74.0133 193.242 74.12 193.162 74.2C193.082 74.28 192.975 74.32 192.842 74.32H191.642C190.922 74.32 190.355 74.5333 189.942 74.96C189.529 75.3733 189.322 75.94 189.322 76.66V82.54C189.322 82.6733 189.275 82.7867 189.182 82.88C189.089 82.96 188.975 83 188.842 83H187.862ZM197.743 83.2C197.077 83.2 196.47 83.0667 195.923 82.8C195.377 82.5333 194.937 82.1733 194.603 81.72C194.27 81.2667 194.103 80.7533 194.103 80.18C194.103 79.26 194.477 78.5267 195.223 77.98C195.97 77.4333 196.943 77.0733 198.143 76.9L201.123 76.48V75.9C201.123 75.26 200.937 74.76 200.563 74.4C200.203 74.04 199.61 73.86 198.783 73.86C198.183 73.86 197.697 73.98 197.323 74.22C196.963 74.46 196.71 74.7667 196.563 75.14C196.483 75.34 196.343 75.44 196.143 75.44H195.243C195.097 75.44 194.983 75.4 194.903 75.32C194.837 75.2267 194.803 75.12 194.803 75C194.803 74.8 194.877 74.5533 195.023 74.26C195.183 73.9667 195.423 73.68 195.743 73.4C196.063 73.12 196.47 72.8867 196.963 72.7C197.47 72.5 198.083 72.4 198.803 72.4C199.603 72.4 200.277 72.5067 200.823 72.72C201.37 72.92 201.797 73.1933 202.103 73.54C202.423 73.8867 202.65 74.28 202.783 74.72C202.93 75.16 203.003 75.6067 203.003 76.06V82.54C203.003 82.6733 202.957 82.7867 202.863 82.88C202.783 82.96 202.677 83 202.543 83H201.623C201.477 83 201.363 82.96 201.283 82.88C201.203 82.7867 201.163 82.6733 201.163 82.54V81.68C200.99 81.92 200.757 82.16 200.463 82.4C200.17 82.6267 199.803 82.82 199.363 82.98C198.923 83.1267 198.383 83.2 197.743 83.2ZM198.163 81.7C198.71 81.7 199.21 81.5867 199.663 81.36C200.117 81.12 200.47 80.7533 200.723 80.26C200.99 79.7667 201.123 79.1467 201.123 78.4V77.84L198.803 78.18C197.857 78.3133 197.143 78.54 196.663 78.86C196.183 79.1667 195.943 79.56 195.943 80.04C195.943 80.4133 196.05 80.7267 196.263 80.98C196.49 81.22 196.77 81.4 197.103 81.52C197.45 81.64 197.803 81.7 198.163 81.7ZM206.338 83C206.205 83 206.092 82.96 205.998 82.88C205.918 82.7867 205.878 82.6733 205.878 82.54V73.06C205.878 72.9267 205.918 72.82 205.998 72.74C206.092 72.6467 206.205 72.6 206.338 72.6H207.278C207.412 72.6 207.518 72.6467 207.598 72.74C207.692 72.82 207.738 72.9267 207.738 73.06V73.94C208.085 73.4867 208.518 73.12 209.038 72.84C209.572 72.5467 210.252 72.4 211.078 72.4C211.945 72.4 212.678 72.5933 213.278 72.98C213.892 73.3533 214.352 73.88 214.658 74.56C214.965 75.2267 215.118 76.0067 215.118 76.9V82.54C215.118 82.6733 215.078 82.7867 214.998 82.88C214.918 82.96 214.812 83 214.678 83H213.678C213.545 83 213.432 82.96 213.338 82.88C213.258 82.7867 213.218 82.6733 213.218 82.54V77C213.218 76.0667 212.992 75.34 212.538 74.82C212.085 74.2867 211.418 74.02 210.538 74.02C209.712 74.02 209.045 74.2867 208.538 74.82C208.045 75.34 207.798 76.0667 207.798 77V82.54C207.798 82.6733 207.752 82.7867 207.658 82.88C207.578 82.96 207.472 83 207.338 83H206.338ZM218.467 83C218.334 83 218.221 82.96 218.127 82.88C218.047 82.7867 218.007 82.6733 218.007 82.54V73.06C218.007 72.9267 218.047 72.82 218.127 72.74C218.221 72.6467 218.334 72.6 218.467 72.6H219.427C219.561 72.6 219.667 72.6467 219.747 72.74C219.827 72.82 219.867 72.9267 219.867 73.06V82.54C219.867 82.6733 219.827 82.7867 219.747 82.88C219.667 82.96 219.561 83 219.427 83H218.467ZM218.307 70.66C218.174 70.66 218.061 70.62 217.967 70.54C217.887 70.4467 217.847 70.3333 217.847 70.2V69.12C217.847 68.9867 217.887 68.88 217.967 68.8C218.061 68.7067 218.174 68.66 218.307 68.66H219.567C219.701 68.66 219.807 68.7067 219.887 68.8C219.981 68.88 220.027 68.9867 220.027 69.12V70.2C220.027 70.3333 219.981 70.4467 219.887 70.54C219.807 70.62 219.701 70.66 219.567 70.66H218.307ZM228.253 79.68C228.12 79.68 228.007 79.64 227.913 79.56C227.833 79.4667 227.793 79.3533 227.793 79.22V69.46C227.793 69.3267 227.833 69.22 227.913 69.14C228.007 69.0467 228.12 69 228.253 69H229.193C229.327 69 229.433 69.0467 229.513 69.14C229.593 69.22 229.633 69.3267 229.633 69.46V79.22C229.633 79.3533 229.593 79.4667 229.513 79.56C229.433 79.64 229.327 79.68 229.193 79.68H228.253ZM228.073 83C227.94 83 227.827 82.96 227.733 82.88C227.653 82.7867 227.613 82.6733 227.613 82.54V81.28C227.613 81.1333 227.653 81.02 227.733 80.94C227.827 80.8467 227.94 80.8 228.073 80.8H229.353C229.487 80.8 229.593 80.8467 229.673 80.94C229.767 81.02 229.813 81.1333 229.813 81.28V82.54C229.813 82.6733 229.767 82.7867 229.673 82.88C229.593 82.96 229.487 83 229.353 83H228.073Z" fill="white"/>
<rect x="16" y="112" width="196" height="36" rx="4" fill="#306BD1"/>
<mask id="mask0_1310_212" style="mask-type:luminance" maskUnits="userSpaceOnUse" x="16" y="112" width="196" height="36">
<rect x="16" y="112" width="196" height="36" rx="4" fill="white"/>
</mask>
<g mask="url(#mask0_1310_212)">
<rect x="13.1455" y="108.87" width="202.66" height="42.2609" fill="#306BD1"/>
</g>
<path d="M53.7971 135C53.7038 135 53.6245 134.967 53.5591 134.902C53.4938 134.837 53.4611 134.757 53.4611 134.664V125.55C53.4611 125.447 53.4938 125.363 53.5591 125.298C53.6245 125.233 53.7038 125.2 53.7971 125.2H57.8571C58.6131 125.2 59.2291 125.317 59.7051 125.55C60.1811 125.774 60.5311 126.087 60.7551 126.488C60.9885 126.889 61.1051 127.356 61.1051 127.888C61.1051 128.243 61.0398 128.555 60.9091 128.826C60.7878 129.087 60.6338 129.302 60.4471 129.47C60.2698 129.638 60.0925 129.769 59.9151 129.862C60.2791 130.03 60.6011 130.31 60.8811 130.702C61.1611 131.094 61.3011 131.561 61.3011 132.102C61.3011 132.662 61.1751 133.161 60.9231 133.6C60.6711 134.039 60.2978 134.384 59.8031 134.636C59.3085 134.879 58.6971 135 57.9691 135H53.7971ZM55.4071 133.516H57.7451C58.2491 133.516 58.6318 133.381 58.8931 133.11C59.1545 132.83 59.2851 132.494 59.2851 132.102C59.2851 131.691 59.1498 131.351 58.8791 131.08C58.6178 130.809 58.2398 130.674 57.7451 130.674H55.4071V133.516ZM55.4071 129.218H57.6051C58.0998 129.218 58.4685 129.101 58.7111 128.868C58.9631 128.625 59.0891 128.313 59.0891 127.93C59.0891 127.538 58.9631 127.235 58.7111 127.02C58.4685 126.796 58.0998 126.684 57.6051 126.684H55.4071V129.218ZM66.9648 135.14C66.1528 135.14 65.4481 135.005 64.8508 134.734C64.2535 134.454 63.7915 134.029 63.4648 133.46C63.1381 132.881 62.9748 132.144 62.9748 131.248V125.55C62.9748 125.447 63.0075 125.363 63.0728 125.298C63.1381 125.233 63.2175 125.2 63.3108 125.2H64.5848C64.6875 125.2 64.7668 125.233 64.8228 125.298C64.8881 125.363 64.9208 125.447 64.9208 125.55V131.248C64.9208 132.013 65.1028 132.583 65.4668 132.956C65.8308 133.32 66.3301 133.502 66.9648 133.502C67.5995 133.502 68.0941 133.32 68.4488 132.956C68.8128 132.583 68.9948 132.013 68.9948 131.248V125.55C68.9948 125.447 69.0275 125.363 69.0928 125.298C69.1581 125.233 69.2421 125.2 69.3448 125.2H70.6048C70.7075 125.2 70.7868 125.233 70.8428 125.298C70.9081 125.363 70.9408 125.447 70.9408 125.55V131.248C70.9408 132.144 70.7775 132.881 70.4508 133.46C70.1335 134.029 69.6761 134.454 69.0788 134.734C68.4908 135.005 67.7861 135.14 66.9648 135.14ZM72.2322 135C72.1575 135 72.0875 134.972 72.0222 134.916C71.9662 134.86 71.9382 134.79 71.9382 134.706C71.9382 134.669 71.9475 134.627 71.9662 134.58L75.3402 125.55C75.3682 125.457 75.4195 125.377 75.4942 125.312C75.5782 125.237 75.6902 125.2 75.8302 125.2H77.3562C77.4962 125.2 77.6035 125.237 77.6782 125.312C77.7529 125.377 77.8089 125.457 77.8462 125.55L81.2202 134.58C81.2295 134.627 81.2342 134.669 81.2342 134.706C81.2342 134.79 81.2062 134.86 81.1502 134.916C81.0942 134.972 81.0289 135 80.9542 135H79.7362C79.6055 135 79.5075 134.972 79.4422 134.916C79.3862 134.851 79.3489 134.79 79.3302 134.734L78.6722 133.026H74.5142L73.8562 134.734C73.8375 134.79 73.7955 134.851 73.7302 134.916C73.6742 134.972 73.5809 135 73.4502 135H72.2322ZM75.0042 131.416H78.1822L76.5862 127.09L75.0042 131.416ZM84.0078 135C83.9145 135 83.8352 134.967 83.7698 134.902C83.7045 134.837 83.6718 134.757 83.6718 134.664V126.922H81.0818C80.9885 126.922 80.9092 126.889 80.8438 126.824C80.7785 126.759 80.7458 126.679 80.7458 126.586V125.55C80.7458 125.447 80.7785 125.363 80.8438 125.298C80.9092 125.233 80.9885 125.2 81.0818 125.2H88.2218C88.3245 125.2 88.4085 125.233 88.4738 125.298C88.5392 125.363 88.5718 125.447 88.5718 125.55V126.586C88.5718 126.679 88.5392 126.759 88.4738 126.824C88.4085 126.889 88.3245 126.922 88.2218 126.922H85.6458V134.664C85.6458 134.757 85.6132 134.837 85.5478 134.902C85.4825 134.967 85.3985 135 85.2958 135H84.0078ZM93.1858 135C93.0925 135 93.0131 134.967 92.9478 134.902C92.8825 134.837 92.8498 134.757 92.8498 134.664V125.55C92.8498 125.447 92.8825 125.363 92.9478 125.298C93.0131 125.233 93.0925 125.2 93.1858 125.2H94.4178C94.5205 125.2 94.6045 125.233 94.6698 125.298C94.7351 125.363 94.7678 125.447 94.7678 125.55V128.826L97.9318 125.452C97.9691 125.405 98.0298 125.354 98.1138 125.298C98.2071 125.233 98.3285 125.2 98.4778 125.2H99.8638C99.9385 125.2 100.004 125.228 100.06 125.284C100.125 125.34 100.158 125.41 100.158 125.494C100.158 125.559 100.139 125.615 100.102 125.662L96.2518 129.89L100.368 134.524C100.414 134.58 100.438 134.641 100.438 134.706C100.438 134.79 100.405 134.86 100.34 134.916C100.284 134.972 100.218 135 100.144 135H98.7018C98.5431 135 98.4171 134.967 98.3238 134.902C98.2398 134.827 98.1838 134.776 98.1558 134.748L94.7678 131.038V134.664C94.7678 134.757 94.7351 134.837 94.6698 134.902C94.6045 134.967 94.5205 135 94.4178 135H93.1858ZM104.956 135.14C104.125 135.14 103.411 135.005 102.814 134.734C102.216 134.454 101.75 134.029 101.414 133.46C101.078 132.881 100.896 132.163 100.868 131.304C100.858 130.903 100.854 130.506 100.854 130.114C100.854 129.722 100.858 129.321 100.868 128.91C100.896 128.061 101.082 127.351 101.428 126.782C101.773 126.213 102.244 125.783 102.842 125.494C103.448 125.205 104.153 125.06 104.956 125.06C105.758 125.06 106.463 125.205 107.07 125.494C107.676 125.783 108.152 126.213 108.498 126.782C108.843 127.351 109.03 128.061 109.058 128.91C109.076 129.321 109.086 129.722 109.086 130.114C109.086 130.506 109.076 130.903 109.058 131.304C109.03 132.163 108.848 132.881 108.512 133.46C108.176 134.029 107.704 134.454 107.098 134.734C106.5 135.005 105.786 135.14 104.956 135.14ZM104.956 133.53C105.562 133.53 106.057 133.353 106.44 132.998C106.822 132.634 107.028 132.046 107.056 131.234C107.074 130.823 107.084 130.445 107.084 130.1C107.084 129.745 107.074 129.367 107.056 128.966C107.037 128.425 106.934 127.986 106.748 127.65C106.57 127.305 106.328 127.057 106.02 126.908C105.712 126.749 105.357 126.67 104.956 126.67C104.564 126.67 104.214 126.749 103.906 126.908C103.598 127.057 103.35 127.305 103.164 127.65C102.986 127.986 102.888 128.425 102.87 128.966C102.86 129.367 102.856 129.745 102.856 130.1C102.856 130.445 102.86 130.823 102.87 131.234C102.898 132.046 103.103 132.634 103.486 132.998C103.868 133.353 104.358 133.53 104.956 133.53ZM111.274 135C111.171 135 111.087 134.967 111.022 134.902C110.957 134.837 110.924 134.757 110.924 134.664V125.55C110.924 125.447 110.957 125.363 111.022 125.298C111.087 125.233 111.171 125.2 111.274 125.2H112.38C112.511 125.2 112.609 125.237 112.674 125.312C112.739 125.377 112.781 125.429 112.8 125.466L115.502 130.506L118.232 125.466C118.251 125.429 118.293 125.377 118.358 125.312C118.423 125.237 118.521 125.2 118.652 125.2H119.744C119.847 125.2 119.931 125.233 119.996 125.298C120.061 125.363 120.094 125.447 120.094 125.55V134.664C120.094 134.757 120.061 134.837 119.996 134.902C119.931 134.967 119.847 135 119.744 135H118.568C118.465 135 118.381 134.967 118.316 134.902C118.26 134.837 118.232 134.757 118.232 134.664V128.602L116.272 132.34C116.225 132.424 116.165 132.499 116.09 132.564C116.015 132.62 115.917 132.648 115.796 132.648H115.222C115.091 132.648 114.989 132.62 114.914 132.564C114.849 132.499 114.793 132.424 114.746 132.34L112.786 128.602V134.664C112.786 134.757 112.753 134.837 112.688 134.902C112.623 134.967 112.543 135 112.45 135H111.274ZM126.178 135.14C125.366 135.14 124.661 135.005 124.064 134.734C123.466 134.454 123.004 134.029 122.678 133.46C122.351 132.881 122.188 132.144 122.188 131.248V125.55C122.188 125.447 122.22 125.363 122.286 125.298C122.351 125.233 122.43 125.2 122.524 125.2H123.798C123.9 125.2 123.98 125.233 124.036 125.298C124.101 125.363 124.134 125.447 124.134 125.55V131.248C124.134 132.013 124.316 132.583 124.68 132.956C125.044 133.32 125.543 133.502 126.178 133.502C126.812 133.502 127.307 133.32 127.662 132.956C128.026 132.583 128.208 132.013 128.208 131.248V125.55C128.208 125.447 128.24 125.363 128.306 125.298C128.371 125.233 128.455 125.2 128.558 125.2H129.818C129.92 125.2 130 125.233 130.056 125.298C130.121 125.363 130.154 125.447 130.154 125.55V131.248C130.154 132.144 129.99 132.881 129.664 133.46C129.346 134.029 128.889 134.454 128.292 134.734C127.704 135.005 126.999 135.14 126.178 135.14ZM132.588 135C132.495 135 132.415 134.967 132.35 134.902C132.285 134.837 132.252 134.757 132.252 134.664V125.55C132.252 125.447 132.285 125.363 132.35 125.298C132.415 125.233 132.495 125.2 132.588 125.2H133.666C133.797 125.2 133.89 125.233 133.946 125.298C134.011 125.354 134.053 125.396 134.072 125.424L138.104 131.696V125.55C138.104 125.447 138.132 125.363 138.188 125.298C138.253 125.233 138.337 125.2 138.44 125.2H139.616C139.719 125.2 139.803 125.233 139.868 125.298C139.933 125.363 139.966 125.447 139.966 125.55V134.65C139.966 134.753 139.933 134.837 139.868 134.902C139.803 134.967 139.723 135 139.63 135H138.538C138.407 135 138.314 134.967 138.258 134.902C138.202 134.837 138.16 134.795 138.132 134.776L134.114 128.644V134.664C134.114 134.757 134.081 134.837 134.016 134.902C133.951 134.967 133.867 135 133.764 135H132.588ZM142.487 135C142.393 135 142.314 134.967 142.249 134.902C142.183 134.837 142.151 134.757 142.151 134.664V125.536C142.151 125.443 142.183 125.363 142.249 125.298C142.314 125.233 142.393 125.2 142.487 125.2H143.803C143.905 125.2 143.985 125.233 144.041 125.298C144.106 125.363 144.139 125.443 144.139 125.536V134.664C144.139 134.757 144.106 134.837 144.041 134.902C143.985 134.967 143.905 135 143.803 135H142.487ZM148.826 135C148.733 135 148.654 134.967 148.588 134.902C148.523 134.837 148.49 134.757 148.49 134.664V126.922H145.9C145.807 126.922 145.728 126.889 145.662 126.824C145.597 126.759 145.564 126.679 145.564 126.586V125.55C145.564 125.447 145.597 125.363 145.662 125.298C145.728 125.233 145.807 125.2 145.9 125.2H153.04C153.143 125.2 153.227 125.233 153.292 125.298C153.358 125.363 153.39 125.447 153.39 125.55V126.586C153.39 126.679 153.358 126.759 153.292 126.824C153.227 126.889 153.143 126.922 153.04 126.922H150.464V134.664C150.464 134.757 150.432 134.837 150.366 134.902C150.301 134.967 150.217 135 150.114 135H148.826ZM153.183 135C153.109 135 153.039 134.972 152.973 134.916C152.917 134.86 152.889 134.79 152.889 134.706C152.889 134.669 152.899 134.627 152.917 134.58L156.291 125.55C156.319 125.457 156.371 125.377 156.445 125.312C156.529 125.237 156.641 125.2 156.781 125.2H158.307C158.447 125.2 158.555 125.237 158.629 125.312C158.704 125.377 158.76 125.457 158.797 125.55L162.171 134.58C162.181 134.627 162.185 134.669 162.185 134.706C162.185 134.79 162.157 134.86 162.101 134.916C162.045 134.972 161.98 135 161.905 135H160.687C160.557 135 160.459 134.972 160.393 134.916C160.337 134.851 160.3 134.79 160.281 134.734L159.623 133.026H155.465L154.807 134.734C154.789 134.79 154.747 134.851 154.681 134.916C154.625 134.972 154.532 135 154.401 135H153.183ZM155.955 131.416H159.133L157.537 127.09L155.955 131.416ZM166.758 135.14C165.89 135.14 165.162 135.014 164.574 134.762C163.995 134.501 163.552 134.165 163.244 133.754C162.945 133.334 162.786 132.895 162.768 132.438C162.768 132.354 162.796 132.284 162.852 132.228C162.908 132.172 162.978 132.144 163.062 132.144H164.308C164.429 132.144 164.518 132.172 164.574 132.228C164.639 132.275 164.695 132.335 164.742 132.41C164.798 132.587 164.905 132.765 165.064 132.942C165.222 133.11 165.437 133.25 165.708 133.362C165.988 133.474 166.338 133.53 166.758 133.53C167.43 133.53 167.929 133.418 168.256 133.194C168.592 132.97 168.76 132.667 168.76 132.284C168.76 132.013 168.671 131.799 168.494 131.64C168.316 131.472 168.041 131.323 167.668 131.192C167.304 131.052 166.818 130.907 166.212 130.758C165.512 130.59 164.924 130.389 164.448 130.156C163.981 129.913 163.626 129.61 163.384 129.246C163.15 128.882 163.034 128.42 163.034 127.86C163.034 127.319 163.178 126.838 163.468 126.418C163.766 125.998 164.186 125.667 164.728 125.424C165.278 125.181 165.932 125.06 166.688 125.06C167.294 125.06 167.831 125.144 168.298 125.312C168.764 125.471 169.152 125.685 169.46 125.956C169.768 126.217 170.001 126.502 170.16 126.81C170.328 127.109 170.416 127.403 170.426 127.692C170.426 127.767 170.398 127.837 170.342 127.902C170.295 127.958 170.225 127.986 170.132 127.986H168.83C168.755 127.986 168.68 127.967 168.606 127.93C168.531 127.893 168.47 127.823 168.424 127.72C168.368 127.431 168.186 127.183 167.878 126.978C167.57 126.773 167.173 126.67 166.688 126.67C166.184 126.67 165.778 126.763 165.47 126.95C165.162 127.137 165.008 127.426 165.008 127.818C165.008 128.079 165.082 128.299 165.232 128.476C165.39 128.644 165.638 128.793 165.974 128.924C166.319 129.055 166.772 129.195 167.332 129.344C168.125 129.521 168.774 129.727 169.278 129.96C169.782 130.193 170.15 130.492 170.384 130.856C170.617 131.211 170.734 131.663 170.734 132.214C170.734 132.83 170.566 133.357 170.23 133.796C169.903 134.225 169.441 134.557 168.844 134.79C168.246 135.023 167.551 135.14 166.758 135.14Z" fill="white"/>
<defs>
<linearGradient id="paint0_linear_1310_212" x1="342" y1="85.1481" x2="-0.0193712" y2="83.9373" gradientUnits="userSpaceOnUse">
<stop stop-color="#111C3A"/>
<stop offset="1" stop-color="#4E66A7"/>
</linearGradient>
</defs>
</svg>
