<svg width="21" height="21" viewBox="0 0 21 21" fill="none" xmlns="http://www.w3.org/2000/svg">
<path d="M10.5408 0.0288682C5.08078 0.0288682 0.630781 4.47887 0.630781 9.93887C0.630781 11.6889 1.09078 13.3889 1.95078 14.8889L0.550781 20.0289L5.80078 18.6489C7.25078 19.4389 8.88078 19.8589 10.5408 19.8589C16.0008 19.8589 20.4508 15.4089 20.4508 9.94887C20.4508 7.29887 19.4208 4.80887 17.5508 2.93887C16.634 2.01279 15.542 1.27854 14.3384 0.778919C13.1349 0.279303 11.8439 0.0243285 10.5408 0.0288682ZM10.5508 1.69887C12.7508 1.69887 14.8108 2.55887 16.3708 4.11887C17.1364 4.88422 17.7434 5.79319 18.1569 6.79363C18.5705 7.79407 18.7825 8.86632 18.7808 9.94887C18.7808 14.4889 15.0808 18.1789 10.5408 18.1789C9.06078 18.1789 7.61078 17.7889 6.35078 17.0289L6.05078 16.8589L2.93078 17.6789L3.76078 14.6389L3.56078 14.3189C2.73472 13.0075 2.29779 11.4887 2.30078 9.93887C2.31078 5.39887 6.00078 1.69887 10.5508 1.69887ZM7.03078 5.35887C6.87078 5.35887 6.60078 5.41887 6.37078 5.66887C6.15078 5.91887 5.50078 6.52887 5.50078 7.73887C5.50078 8.95887 6.39078 10.1289 6.50078 10.2989C6.64078 10.4689 8.26078 12.9689 10.7508 14.0289C11.3408 14.2989 11.8008 14.4489 12.1608 14.5589C12.7508 14.7489 13.2908 14.7189 13.7208 14.6589C14.2008 14.5889 15.1808 14.0589 15.3908 13.4789C15.6008 12.8989 15.6008 12.4089 15.5408 12.2989C15.4708 12.1989 15.3108 12.1389 15.0608 12.0289C14.8108 11.8889 13.5908 11.2889 13.3708 11.2089C13.1408 11.1289 13.0008 11.0889 12.8108 11.3289C12.6508 11.5789 12.1708 12.1389 12.0308 12.2989C11.8808 12.4689 11.7408 12.4889 11.5008 12.3689C11.2408 12.2389 10.4408 11.9789 9.50078 11.1389C8.76078 10.4789 8.27078 9.66887 8.12078 9.41887C8.00078 9.17887 8.11078 9.02887 8.23078 8.91887C8.34078 8.80887 8.50078 8.62887 8.60078 8.47887C8.73078 8.33887 8.77078 8.22887 8.85078 8.06887C8.93078 7.89887 8.89078 7.75887 8.83078 7.63887C8.77078 7.52887 8.27078 6.28887 8.06078 5.79887C7.86078 5.31887 7.66078 5.37887 7.50078 5.36887C7.36078 5.36887 7.20078 5.35887 7.03078 5.35887Z" fill="#778CA2"/>
</svg>
