<svg width="64" height="64" viewBox="0 0 64 64" fill="none" xmlns="http://www.w3.org/2000/svg">
<g filter="url(#filter0_d_1310_2307)">
<rect x="4" y="4" width="56" height="56" rx="28" fill="#AA383F" shape-rendering="crispEdges"/>
<rect x="6" y="6" width="52" height="52" rx="26" stroke="url(#paint0_angular_1310_2307)" stroke-width="4" shape-rendering="crispEdges"/>
<path fill-rule="evenodd" clip-rule="evenodd" d="M32.6875 26.5C32.6875 26.1203 32.3797 25.8125 32 25.8125C31.6203 25.8125 31.3125 26.1203 31.3125 26.5V31.3125H26.5C26.1203 31.3125 25.8125 31.6203 25.8125 32C25.8125 32.3797 26.1203 32.6875 26.5 32.6875H31.3125V37.5C31.3125 37.8797 31.6203 38.1875 32 38.1875C32.3797 38.1875 32.6875 37.8797 32.6875 37.5V32.6875H37.5C37.8797 32.6875 38.1875 32.3797 38.1875 32C38.1875 31.6203 37.8797 31.3125 37.5 31.3125H32.6875V26.5Z" fill="white"/>
</g>
<defs>
<filter id="filter0_d_1310_2307" x="0" y="0" width="64" height="64" filterUnits="userSpaceOnUse" color-interpolation-filters="sRGB">
<feFlood flood-opacity="0" result="BackgroundImageFix"/>
<feColorMatrix in="SourceAlpha" type="matrix" values="0 0 0 0 0 0 0 0 0 0 0 0 0 0 0 0 0 0 127 0" result="hardAlpha"/>
<feOffset/>
<feGaussianBlur stdDeviation="2"/>
<feComposite in2="hardAlpha" operator="out"/>
<feColorMatrix type="matrix" values="0 0 0 0 0 0 0 0 0 0 0 0 0 0 0 0 0 0 0.12 0"/>
<feBlend mode="normal" in2="BackgroundImageFix" result="effect1_dropShadow_1310_2307"/>
<feBlend mode="normal" in="SourceGraphic" in2="effect1_dropShadow_1310_2307" result="shape"/>
</filter>
<radialGradient id="paint0_angular_1310_2307" cx="0" cy="0" r="1" gradientUnits="userSpaceOnUse" gradientTransform="translate(32 32) rotate(90) scale(28)">
<stop stop-color="white"/>
<stop offset="0.501538" stop-color="#4D7CFE" stop-opacity="0.5"/>
<stop offset="1" stop-color="#4D7CFE" stop-opacity="0.8"/>
</radialGradient>
</defs>
</svg>
