<svg width="20" height="21" viewBox="0 0 20 21" fill="none" xmlns="http://www.w3.org/2000/svg">
<path d="M11.9696 7.46951C12.2625 7.17661 12.7374 7.17661 13.0302 7.46951C13.3231 7.7624 13.3231 8.23727 13.0302 8.53017L11.9696 7.46951ZM8.82141 9.32133L9.35174 8.791L8.82141 9.32133ZM6.96959 8.53017C6.67669 8.23727 6.67669 7.7624 6.96959 7.46951C7.26248 7.17661 7.73736 7.17661 8.03025 7.46951L6.96959 8.53017ZM10.7499 9.6665C10.7499 10.0807 10.4141 10.4165 9.99992 10.4165C9.5857 10.4165 9.24992 10.0807 9.24992 9.6665H10.7499ZM9.24992 5.49984C9.24992 5.08562 9.5857 4.74984 9.99992 4.74984C10.4141 4.74984 10.7499 5.08562 10.7499 5.49984H9.24992ZM13.6666 11.9998L14.2666 12.4498H14.2666L13.6666 11.9998ZM12.6666 13.3332L12.0666 12.8832H12.0666L12.6666 13.3332ZM7.33325 13.3332L7.93325 12.8832L7.33325 13.3332ZM6.33325 11.9998L6.93325 11.5498V11.5498L6.33325 11.9998ZM13.0302 8.53017L11.7088 9.85166L10.6481 8.791L11.9696 7.46951L13.0302 8.53017ZM8.29108 9.85166L6.96959 8.53017L8.03025 7.46951L9.35174 8.791L8.29108 9.85166ZM9.24992 9.6665V5.49984H10.7499V9.6665H9.24992ZM11.7088 9.85166C10.765 10.7954 9.23484 10.7954 8.29108 9.85166L9.35174 8.791C9.70972 9.14898 10.2901 9.14898 10.6481 8.791L11.7088 9.85166ZM2.41658 13.8332V16.3332H0.916584V13.8332H2.41658ZM4.16658 18.0832H15.8333V19.5832H4.16658V18.0832ZM17.5833 16.3332V13.8332H19.0833V16.3332H17.5833ZM15.8333 12.0832H14.9999V10.5832H15.8333V12.0832ZM14.2666 12.4498L13.2666 13.7832L12.0666 12.8832L13.0666 11.5498L14.2666 12.4498ZM4.99992 12.0832H4.16658V10.5832H4.99992V12.0832ZM6.73325 13.7832L5.73325 12.4498L6.93325 11.5498L7.93325 12.8832L6.73325 13.7832ZM9.99992 15.4165C8.71466 15.4165 7.50441 14.8114 6.73325 13.7832L7.93325 12.8832C8.42113 13.5337 9.1868 13.9165 9.99992 13.9165V15.4165ZM4.99992 10.5832C5.76058 10.5832 6.47685 10.9413 6.93325 11.5498L5.73325 12.4498C5.56013 12.219 5.28845 12.0832 4.99992 12.0832V10.5832ZM13.2666 13.7832C12.4954 14.8114 11.2852 15.4165 9.99992 15.4165V13.9165C10.813 13.9165 11.5787 13.5337 12.0666 12.8832L13.2666 13.7832ZM14.9999 12.0832C14.7114 12.0832 14.4397 12.219 14.2666 12.4498L13.0666 11.5498C13.523 10.9413 14.2393 10.5832 14.9999 10.5832V12.0832ZM15.8333 18.0832C16.7998 18.0832 17.5833 17.2997 17.5833 16.3332H19.0833C19.0833 18.1281 17.6282 19.5832 15.8333 19.5832V18.0832ZM2.41658 16.3332C2.41658 17.2997 3.20009 18.0832 4.16658 18.0832V19.5832C2.37166 19.5832 0.916584 18.1281 0.916584 16.3332H2.41658ZM0.916584 13.8332C0.916584 12.0382 2.37166 10.5832 4.16658 10.5832V12.0832C3.20009 12.0832 2.41658 12.8667 2.41658 13.8332H0.916584ZM17.5833 13.8332C17.5833 12.8667 16.7998 12.0832 15.8333 12.0832V10.5832C17.6282 10.5832 19.0833 12.0382 19.0833 13.8332H17.5833ZM2.58325 11.3332V5.49984H4.08325V11.3332H2.58325ZM6.66658 1.4165H13.3333V2.9165H6.66658V1.4165ZM17.4166 5.49984V11.3332H15.9166V5.49984H17.4166ZM13.3333 1.4165C15.5884 1.4165 17.4166 3.24467 17.4166 5.49984H15.9166C15.9166 4.0731 14.76 2.9165 13.3333 2.9165V1.4165ZM2.58325 5.49984C2.58325 3.24467 4.41142 1.4165 6.66658 1.4165V2.9165C5.23985 2.9165 4.08325 4.0731 4.08325 5.49984H2.58325Z" fill="#778CA2"/>
</svg>
