<svg width="16" height="16" viewBox="0 0 16 16" fill="none" xmlns="http://www.w3.org/2000/svg">
<path d="M12 9.3335L12.6262 8.70727C13.0168 8.31675 13.0168 7.68358 12.6262 7.29306L12 6.66683" stroke="#28303F" stroke-width="1.5" stroke-linecap="round" stroke-linejoin="round"/>
<path d="M12.667 8.75C13.0812 8.75 13.417 8.41421 13.417 8C13.417 7.58579 13.0812 7.25 12.667 7.25V8.75ZM8.66699 7.25C8.25278 7.25 7.91699 7.58579 7.91699 8C7.91699 8.41421 8.25278 8.75 8.66699 8.75L8.66699 7.25ZM1.91699 11.5109C1.91699 11.9251 2.25278 12.2609 2.66699 12.2609C3.08121 12.2609 3.41699 11.9251 3.41699 11.5109H1.91699ZM11.417 11.5109C11.417 11.0967 11.0812 10.7609 10.667 10.7609C10.2528 10.7609 9.91699 11.0967 9.91699 11.5109H11.417ZM9.91699 4.84422C9.91699 5.25843 10.2528 5.59422 10.667 5.59422C11.0812 5.59422 11.417 5.25843 11.417 4.84422H9.91699ZM3.41699 4.84422C3.41699 4.43001 3.08121 4.09422 2.66699 4.09422C2.25278 4.09422 1.91699 4.43001 1.91699 4.84422H3.41699ZM3.26073 13.24L3.67675 12.616L3.26073 13.24ZM4.59406 14.1289L4.17803 14.753H4.17803L4.59406 14.1289ZM4.59406 2.22617L4.17803 1.60214L4.59406 2.22617ZM3.26073 3.11506L2.8447 2.49103L3.26073 3.11506ZM6.66699 2.76089C6.25278 2.76089 5.91699 3.09667 5.91699 3.51089C5.91699 3.9251 6.25278 4.26089 6.66699 4.26089V2.76089ZM6.66699 12.0942C6.25278 12.0942 5.91699 12.43 5.91699 12.8442C5.91699 13.2584 6.25278 13.5942 6.66699 13.5942V12.0942ZM12.667 7.25L8.66699 7.25L8.66699 8.75L12.667 8.75V7.25ZM3.41699 11.5109V4.84422H1.91699V11.5109H3.41699ZM9.91699 11.5109C9.91699 11.8331 9.65583 12.0942 9.33366 12.0942V13.5942C10.4843 13.5942 11.417 12.6615 11.417 11.5109H9.91699ZM9.33366 4.26089C9.65583 4.26089 9.91699 4.52205 9.91699 4.84422H11.417C11.417 3.69363 10.4843 2.76089 9.33366 2.76089V4.26089ZM3.67675 3.7391L5.01008 2.85021L4.17803 1.60214L2.8447 2.49103L3.67675 3.7391ZM5.91699 3.33558V13.0195H7.41699V3.33558H5.91699ZM5.01008 13.5049L3.67675 12.616L2.8447 13.8641L4.17803 14.753L5.01008 13.5049ZM3.41699 12.1306V4.22446H1.91699V12.1306H3.41699ZM3.67675 12.616C3.51447 12.5078 3.41699 12.3257 3.41699 12.1306H1.91699C1.91699 12.8272 2.26512 13.4777 2.8447 13.8641L3.67675 12.616ZM5.91699 13.0195C5.91699 13.4854 5.39774 13.7633 5.01008 13.5049L4.17803 14.753C5.56252 15.676 7.41699 14.6835 7.41699 13.0195H5.91699ZM5.01008 2.85021C5.39774 2.59178 5.91699 2.86967 5.91699 3.33558H7.41699C7.41699 1.67163 5.56252 0.679144 4.17803 1.60214L5.01008 2.85021ZM2.8447 2.49103C2.26512 2.87741 1.91699 3.5279 1.91699 4.22446H3.41699C3.41699 4.02943 3.51447 3.84729 3.67675 3.7391L2.8447 2.49103ZM6.66699 4.26089H9.33366V2.76089H6.66699V4.26089ZM9.33366 12.0942H6.66699V13.5942H9.33366V12.0942Z" fill="#28303F"/>
</svg>
