<svg width="20" height="21" viewBox="0 0 20 21" fill="none" xmlns="http://www.w3.org/2000/svg">
<path fill-rule="evenodd" clip-rule="evenodd" d="M2.91744 11.9891V11.8066C2.94421 11.2667 3.11725 10.7436 3.41871 10.2912C3.9205 9.74772 4.264 9.08176 4.41318 8.36315C4.41318 7.80775 4.41318 7.24442 4.46169 6.68903C4.71232 4.01518 7.35615 2.1665 9.96763 2.1665H10.0323C12.6438 2.1665 15.2876 4.01518 15.5463 6.68903C15.5948 7.24442 15.5463 7.80775 15.5868 8.36315C15.7379 9.08342 16.0811 9.75146 16.5812 10.2991C16.8849 10.7475 17.0583 11.2687 17.0825 11.8066V11.9812C17.1005 12.7065 16.8507 13.4139 16.3791 13.9727C15.7559 14.6261 14.9102 15.0326 14.0021 15.1152C11.3392 15.4008 8.65261 15.4008 5.98977 15.1152C5.0827 15.029 4.23821 14.6231 3.61275 13.9727C3.14841 13.4134 2.90195 12.7103 2.91744 11.9891Z" stroke="#778CA2" stroke-width="1.5" stroke-linecap="round" stroke-linejoin="round"/>
<path d="M7.96265 17.8765C8.37871 18.3987 8.9897 18.7367 9.66039 18.8156C10.3311 18.8945 11.0062 18.7079 11.5363 18.297C11.6993 18.1755 11.846 18.0342 11.9728 17.8765" stroke="#778CA2" stroke-width="1.5" stroke-linecap="round" stroke-linejoin="round"/>
</svg>
