<svg width="1" height="1" viewBox="0 0 8 8" fill="none" xmlns="http://www.w3.org/2000/svg">
<path fill-rule="evenodd" clip-rule="evenodd" d="M14.167 8.41683C14.167 11.6385 11.5553 14.2502 8.33366 14.2502C5.112 14.2502 2.50033 11.6385 2.50033 8.41683C2.50033 5.19517 5.112 2.5835 8.33366 2.5835C11.5553 2.5835 14.167 5.19517 14.167 8.41683ZM8.33366 15.2502C12.1076 15.2502 15.167 12.1908 15.167 8.41683C15.167 4.64288 12.1076 1.5835 8.33366 1.5835C4.55971 1.5835 1.50033 4.64288 1.50033 8.41683C1.50033 10.1238 2.12624 11.6847 3.16108 12.8823L0.980104 15.0633C0.784843 15.2585 0.784843 15.5751 0.980104 15.7704C1.17537 15.9656 1.49195 15.9656 1.68721 15.7704L3.86819 13.5894C5.06583 14.6242 6.62665 15.2502 8.33366 15.2502Z" fill="#28303F"/>
</svg>
