<svg width="17" height="17" viewBox="0 0 17 17" fill="none" xmlns="http://www.w3.org/2000/svg">
<path d="M6.86328 14.5C9.07242 14.5 10.8633 12.7091 10.8633 10.5V5.96487C11.4516 6.30521 12.1347 6.5 12.8633 6.5H13.5299V4.5H12.8633C11.7587 4.5 10.8633 3.60457 10.8633 2.5H8.86328V10.5C8.86328 11.6046 7.96785 12.5 6.86328 12.5C5.75871 12.5 4.86328 11.6046 4.86328 10.5C4.86328 9.39543 5.75871 8.5 6.86328 8.5L6.86328 6.5C4.65414 6.5 2.86328 8.29086 2.86328 10.5C2.86328 12.7091 4.65414 14.5 6.86328 14.5Z" stroke="#28303F" stroke-width="1.5" stroke-linecap="round" stroke-linejoin="round"/>
</svg>
