<svg width="16" height="16" viewBox="0 0 16 16" fill="none" xmlns="http://www.w3.org/2000/svg">
<path d="M3.99967 2.75H11.9997V1.25H3.99967V2.75ZM13.9163 4.66667V11.3333H15.4163V4.66667H13.9163ZM11.9997 13.25H3.99967V14.75H11.9997V13.25ZM2.08301 11.3333V4.66667H0.583008V11.3333H2.08301ZM3.99967 13.25C2.94113 13.25 2.08301 12.3919 2.08301 11.3333H0.583008C0.583008 13.2203 2.1127 14.75 3.99967 14.75V13.25ZM13.9163 11.3333C13.9163 12.3919 13.0582 13.25 11.9997 13.25V14.75C13.8866 14.75 15.4163 13.2203 15.4163 11.3333H13.9163ZM11.9997 2.75C13.0582 2.75 13.9163 3.60812 13.9163 4.66667H15.4163C15.4163 2.77969 13.8866 1.25 11.9997 1.25V2.75ZM3.99967 1.25C2.1127 1.25 0.583008 2.77969 0.583008 4.66667H2.08301C2.08301 3.60812 2.94113 2.75 3.99967 2.75V1.25Z" fill="#28303F"/>
<path d="M1.33301 4.6665V3.9165C0.918794 3.9165 0.583008 4.25229 0.583008 4.6665H1.33301ZM14.6663 4.6665H15.4163C15.4163 4.25229 15.0806 3.9165 14.6663 3.9165V4.6665ZM14.6663 7.33317V8.08317C15.0806 8.08317 15.4163 7.74738 15.4163 7.33317H14.6663ZM1.33301 7.33317H0.583008C0.583008 7.74738 0.918794 8.08317 1.33301 8.08317L1.33301 7.33317ZM1.33301 5.4165H14.6663V3.9165H1.33301V5.4165ZM13.9163 4.6665V7.33317H15.4163V4.6665H13.9163ZM14.6663 6.58317H1.33301V8.08317H14.6663V6.58317ZM2.08301 7.33317V4.6665H0.583008V7.33317H2.08301Z" fill="#28303F"/>
<path d="M5.33333 12.0835C5.74755 12.0835 6.08333 11.7477 6.08333 11.3335C6.08333 10.9193 5.74755 10.5835 5.33333 10.5835V12.0835ZM4 10.5835C3.58579 10.5835 3.25 10.9193 3.25 11.3335C3.25 11.7477 3.58579 12.0835 4 12.0835V10.5835ZM5.33333 10.5835H4V12.0835H5.33333V10.5835Z" fill="#28303F"/>
</svg>
