<svg width="16" height="17" viewBox="0 0 16 17" fill="none" xmlns="http://www.w3.org/2000/svg">
<path d="M8.00067 15.1673C11.6826 15.1673 14.6673 12.1825 14.6673 8.50065C14.6673 4.81875 11.6826 1.83398 8.00067 1.83398C4.31877 1.83398 1.334 4.81875 1.334 8.50065C1.334 9.50828 1.55755 10.4637 1.95775 11.32L1.557 13.7918C1.44748 14.4673 2.03352 15.0507 2.70851 14.9382L5.15388 14.5307C6.0172 14.939 6.98227 15.1673 8.00067 15.1673Z" stroke="#28303F" stroke-width="1.5" stroke-linecap="square" stroke-linejoin="round"/>
<path d="M10.6673 10.5747V10.2839C10.6673 9.9227 10.4474 9.59787 10.112 9.46371L9.80099 9.3393C9.45328 9.20022 9.05702 9.35088 8.88954 9.68584C8.88954 9.68584 8.1488 9.53769 7.55621 8.9451C6.96361 8.3525 6.81547 7.61176 6.81547 7.61176C7.15042 7.44429 7.30108 7.04802 7.162 6.70031L7.03759 6.38929C6.90343 6.05391 6.5786 5.83398 6.21738 5.83398H5.92658C5.5993 5.83398 5.33398 6.0993 5.33398 6.42658C5.33398 9.04481 7.45649 11.1673 10.0747 11.1673C10.402 11.1673 10.6673 10.902 10.6673 10.5747Z" fill="#28303F"/>
</svg>
